<svg id="Group_1270" data-name="Group 1270" xmlns="http://www.w3.org/2000/svg" width="46.49" height="46.928" viewBox="0 0 46.49 46.928">
  <path id="Path_1553" data-name="Path 1553" d="M299.545,343.415h4.935a.847.847,0,0,0,.772-1.191l-2.467-5.524a.846.846,0,0,0-1.545,0l-2.468,5.525a.846.846,0,0,0,.773,1.191Zm.738-1.325,1.729-3.873,1.73,3.873Z" transform="translate(-278.683 -336.197)" fill="#f4c547"/>
  <path id="Path_1554" data-name="Path 1554" d="M336.011,361.9a.847.847,0,0,0,1.4-.221l2.464-5.526a.846.846,0,0,0-1.032-1.15l-5.761,1.855a.846.846,0,0,0-.37,1.37Zm-1.817-4.009,4.038-1.3-1.728,3.874Z" transform="translate(-298.492 -347.192)" fill="#f4c547"/>
  <path id="Path_1555" data-name="Path 1555" d="M351.931,387.025l-5.527-2.463a.846.846,0,0,0-1.191.773l0,4.934a.846.846,0,0,0,1.192.772l5.524-2.472a.846.846,0,0,0,0-1.545Zm-1.519.774-3.872,1.732,0-3.458Z" transform="translate(-305.943 -364.499)" fill="#f4c547"/>
  <path id="Path_1556" data-name="Path 1556" d="M265.035,361.674a.846.846,0,0,0,1.4.221l3.3-3.673a.846.846,0,0,0-.37-1.37L263.6,355a.846.846,0,0,0-1.032,1.15Zm-.818-5.087,4.038,1.3-2.31,2.574Z" transform="translate(-257.466 -347.191)" fill="#f4c547"/>
  <path id="Path_1557" data-name="Path 1557" d="M304.48,432.13h-4.935a.846.846,0,0,0-.773,1.191l2.468,5.526a.846.846,0,0,0,1.544,0l2.468-5.525a.846.846,0,0,0-.772-1.191Zm-.738,1.325-1.73,3.873-1.729-3.873Z" transform="translate(-278.683 -392.419)" fill="#f4c547"/>
  <path id="Path_1558" data-name="Path 1558" d="M337.413,413.545a.846.846,0,0,0-1.4-.22l-3.3,3.672a.846.846,0,0,0,.37,1.371l5.76,1.855a.846.846,0,0,0,1.032-1.15Zm.819,5.088-4.038-1.3,2.31-2.574Z" transform="translate(-298.491 -381.234)" fill="#f4c547"/>
  <path id="Path_1559" data-name="Path 1559" d="M266.437,413.325a.846.846,0,0,0-1.4.221l-2.465,5.527a.847.847,0,0,0,.772,1.191.852.852,0,0,0,.26-.041l5.76-1.854a.846.846,0,0,0,.371-1.37Zm1.818,4.008-4.038,1.3,1.727-3.874Z" transform="translate(-257.466 -381.234)" fill="#f4c547"/>
  <path id="Path_1560" data-name="Path 1560" d="M256.715,391.12a.847.847,0,0,0,.846-.845l0-4.934a.841.841,0,0,0-.247-.6.861.861,0,0,0-.943-.175l-5.529,2.463a.846.846,0,0,0,0,1.545l5.524,2.472A.849.849,0,0,0,256.715,391.12Zm-4.35-3.317,3.875-1.726,0,3.458Z" transform="translate(-250.345 -364.503)" fill="#f4c547"/>
  <path id="Path_1561" data-name="Path 1561" d="M286.234,358.439a14.23,14.23,0,1,0,14.231,14.231A14.247,14.247,0,0,0,286.234,358.439Zm12.451,14.231a12.451,12.451,0,1,1-12.451-12.451A12.465,12.465,0,0,1,298.684,372.67Z" transform="translate(-263.038 -349.232)" fill="#f4c547"/>
</svg>
