<svg xmlns="http://www.w3.org/2000/svg" width="39.287" height="40.247" viewBox="0 0 39.287 40.247">
  <g id="Group_1272" data-name="Group 1272" transform="translate(0 0)">
    <path id="Path_1568" data-name="Path 1568" d="M305.08,536.277l1.828,1.306-.678,2.143a.716.716,0,0,0,.105.644.729.729,0,0,0,.585.3.716.716,0,0,0,.428-.142l1.808-1.335,1.828,1.306a.733.733,0,0,0,1.008-.167.716.716,0,0,0,.1-.65l-.712-2.131,1.809-1.335a.723.723,0,0,0-.436-1.3l-2.247.018-.711-2.133a.723.723,0,0,0-1.374.012l-.678,2.142-2.247.017a.724.724,0,0,0-.415,1.312Zm5.521.4a1.018,1.018,0,0,0-.361,1.144l.312.937-.8-.574a1.034,1.034,0,0,0-1.2.009l-.794.587.3-.941a1.018,1.018,0,0,0-.38-1.139l-.8-.574.987-.008a1.018,1.018,0,0,0,.965-.713l.3-.942.313.937a1.024,1.024,0,0,0,.976.7l.987-.008Z" transform="translate(-286.445 -532.026)" fill="#f4c547"/>
    <path id="Path_1569" data-name="Path 1569" d="M341.28,579.167a.725.725,0,0,0-.692-.5l-2.246.018-.711-2.131a.723.723,0,0,0-1.375.01l-.677,2.142-2.246.018a.723.723,0,0,0-.415,1.311l1.827,1.306-.677,2.141a.713.713,0,0,0,.1.644.727.727,0,0,0,.585.3.718.718,0,0,0,.429-.142l1.807-1.335,1.829,1.307a.736.736,0,0,0,1.007-.166.716.716,0,0,0,.1-.651l-.711-2.131,1.809-1.335A.723.723,0,0,0,341.28,579.167Zm-5.391,2.428a1.019,1.019,0,0,0-.379-1.139l-.8-.573.987-.008a1.02,1.02,0,0,0,.965-.713l.3-.942.312.936a1.024,1.024,0,0,0,.977.7l.987-.008-.794.586a1.021,1.021,0,0,0-.363,1.144l.312.937-.8-.574a1.031,1.031,0,0,0-1.2.008l-.794.587Z" transform="translate(-302.03 -556.526)" fill="#f4c547"/>
    <path id="Path_1570" data-name="Path 1570" d="M302.864,570.435l1.828,1.306-.678,2.142a.716.716,0,0,0,.106.644.726.726,0,0,0,.584.3.715.715,0,0,0,.429-.142l1.808-1.335,1.827,1.305a.734.734,0,0,0,1.008-.165.715.715,0,0,0,.1-.651l-.711-2.131,1.808-1.335a.723.723,0,0,0-.436-1.3l-2.247.018-.711-2.132a.723.723,0,0,0-1.375.011l-.677,2.142-2.246.018a.723.723,0,0,0-.415,1.311Zm5.52.4a1.018,1.018,0,0,0-.361,1.144l.313.936-.8-.574a1.029,1.029,0,0,0-1.2.01l-.795.587.3-.942a1.019,1.019,0,0,0-.379-1.139l-.8-.573.988-.008a1.019,1.019,0,0,0,.965-.713l.3-.941.312.936a1.025,1.025,0,0,0,.977.7l.987-.008Z" transform="translate(-285.204 -551.15)" fill="#f4c547"/>
    <path id="Path_1571" data-name="Path 1571" d="M297.418,563.636a18.678,18.678,0,0,1-2.365.409,19.151,19.151,0,0,1-2.008.106,18.756,18.756,0,0,1-14.6-30.5,1.205,1.205,0,0,0,.148-1.284,1.245,1.245,0,0,0-1.5-.631,20.572,20.572,0,0,0-13.648,23.074,20.833,20.833,0,0,0,20.33,17.109q.533,0,1.07-.028a20.618,20.618,0,0,0,13.736-6.216,1.222,1.222,0,0,0-1.154-2.044Zm-24.882-16.059a20.6,20.6,0,0,0,20.51,18.467,21.006,21.006,0,0,0,2.208-.117c.092-.009.183-.02.274-.031a18.759,18.759,0,1,1-19.936-31.5A20.631,20.631,0,0,0,272.536,547.577Z" transform="translate(-263.129 -531.676)" fill="#f4c547"/>
  </g>
</svg>
