<svg id="Group_1271" data-name="Group 1271" xmlns="http://www.w3.org/2000/svg" width="46.949" height="33.834" viewBox="0 0 46.949 33.834">
  <path id="Path_1562" data-name="Path 1562" d="M298.341,176.284h5.1a.845.845,0,0,0,.772-1.188l-2.55-5.71a.844.844,0,0,0-1.542,0l-2.551,5.712a.844.844,0,0,0,.772,1.187Zm.87-1.408,1.68-3.762,1.68,3.762Z" transform="translate(-277.331 -168.885)" fill="#f4c547"/>
  <path id="Path_1563" data-name="Path 1563" d="M333.055,193.827a.845.845,0,0,0,.627.279h0a.845.845,0,0,0,.771-.5L337,187.9a.844.844,0,0,0-.78-1.189h0l-.121.007-6.079,1.95a.844.844,0,0,0-.37,1.368Zm-1.777-4.089,3.921-1.262-1.677,3.762Z" transform="translate(-295.21 -178.863)" fill="#f4c547"/>
  <path id="Path_1564" data-name="Path 1564" d="M348.433,217.262l-5.711-2.545a.858.858,0,0,0-.944.176.836.836,0,0,0-.245.6l0,5.1a.844.844,0,0,0,1.189.767l5.708-2.554a.844.844,0,0,0,0-1.542Zm-1.728.772-3.761,1.683,0-3.359Z" transform="translate(-301.985 -194.504)" fill="#f4c547"/>
  <path id="Path_1565" data-name="Path 1565" d="M265.856,193.605a.844.844,0,0,0,1.4.221l3.406-3.8a.844.844,0,0,0-.369-1.367l-5.967-1.92-.116-.03-.131-.007a.844.844,0,0,0-.769,1.188Zm-.746-5.13,3.921,1.262-2.243,2.5Z" transform="translate(-258.15 -178.862)" fill="#f4c547"/>
  <path id="Path_1566" data-name="Path 1566" d="M258.235,221.429a.846.846,0,0,0,.844-.844l0-5.1a.845.845,0,0,0-.844-.844.83.83,0,0,0-.344.073l-5.714,2.545a.844.844,0,0,0,0,1.541l5.707,2.554A.835.835,0,0,0,258.235,221.429Zm-4.324-3.4,3.763-1.677,0,3.36Z" transform="translate(-251.682 -194.501)" fill="#f4c547"/>
  <path id="Path_1567" data-name="Path 1567" d="M298.865,212.868a24.083,24.083,0,0,0-8.189-4.41,14.36,14.36,0,1,0-27.536.018,24.451,24.451,0,0,0-7.875,4.171.947.947,0,0,0-.18,1.326.946.946,0,0,0,1.326.18c4.792-3.648,8.889-5.275,20.494-5.275,11.838,0,15.981,1.689,20.789,5.476a.946.946,0,1,0,1.171-1.486Zm-30.5-17.557a12.392,12.392,0,0,1,9.322-3.362,12.469,12.469,0,0,1,11.159,16.029,55.016,55.016,0,0,0-11.94-.993,54.306,54.306,0,0,0-11.928,1,12.417,12.417,0,0,1,3.387-12.676Z" transform="translate(-253.479 -180.724)" fill="#f4c547"/>
</svg>
