<svg xmlns="http://www.w3.org/2000/svg" width="62.057" height="44.886" viewBox="0 0 62.057 44.886">
  <g id="plate-icon" transform="translate(35.043 23.614)">
    <g id="plate-icon-2" data-name="plate-icon" transform="translate(-43.5 -40.5)">
      <path id="Subtraction_2" data-name="Subtraction 2" d="M73.525,28.076a2.093,2.093,0,0,1-2.114-2.114V12.779a3.068,3.068,0,0,1-1.368-2.238V2.459a16.091,16.091,0,0,1,.14-3.715,6.609,6.609,0,0,1,1.725-3.621,5.966,5.966,0,0,1,3.843-1.508,3.2,3.2,0,0,1,.386.015.834.834,0,0,1,.869.746V10.541a3.069,3.069,0,0,1-1.367,2.238v13.18a2.093,2.093,0,0,1-2.114,2.117Zm1.866-32.7h0a3.653,3.653,0,0,0-2.238.991C71.661-2.144,71.661.624,71.661,2.456v8.085c0,.467.5.89,1.244,1.053V25.959c0,.551.315.621.622.621s.621-.074.621-.621V11.592c.807-.185,1.244-.679,1.244-1.051Z" transform="translate(-6.492 27.981)" fill="#64a535"/>
      <g id="Group_444" transform="translate(8.457 21.27)">
        <g id="Group_414" transform="translate(0 0)">
          <path id="Path_1069" d="M4.354,13.3a5.66,5.66,0,0,1-2.487-.621A4.015,4.015,0,0,1,0,8.952L.5.871A.85.85,0,0,1,1.37,0h0a.7.7,0,0,1,.746.87h0L1.744,8.952a2.289,2.289,0,0,0,.991,2.238,3.253,3.253,0,0,0,3.357,0A2.385,2.385,0,0,0,7.214,8.952L6.593.871A.934.934,0,0,1,7.463,0a.945.945,0,0,1,.991.746V.871l.5,8.082a4.015,4.015,0,0,1-1.865,3.73,6.777,6.777,0,0,1-2.733.622Z" transform="translate(0.012 0.003)" fill="#64a535"/>
        </g>
        <g id="Group_415" transform="translate(3.579 0.004)">
          <path id="Path_1070" d="M.87,34.814A.832.832,0,0,1,0,34.069H0V.87A.85.85,0,0,1,.87,0h0a1.048,1.048,0,0,1,.87.87v33.2a.832.832,0,0,1-.87.746Z" transform="translate(0 0)" fill="#64a535"/>
        </g>
      </g>
      <path id="Path_1089" d="M29.581,44.885a22.443,22.443,0,1,1,22.5-22.5,22.443,22.443,0,0,1-22.5,22.5Zm0-42.772A20.391,20.391,0,1,0,49.972,22.505h0A20.488,20.488,0,0,0,29.581,2.114Z" transform="translate(10.223 16.887)" fill="#64a535"/>
      <g id="Group_453" transform="translate(24.375 23.016)">
        <g id="Group_448" transform="translate(0.112 0)">
          <g id="Group_447" transform="translate(0)">
            <path id="Path_1090" d="M8.191,26.106a1.046,1.046,0,0,1-.87-.5A1.186,1.186,0,0,1,7.7,24.124L21,16.413V.992A1.016,1.016,0,0,1,22.12,0a1.07,1.07,0,0,1,.991.991V17.657L8.692,25.987a.94.94,0,0,1-.5.119Z" transform="translate(-7.201 0.005)" fill="#64a535"/>
          </g>
        </g>
        <g id="Group_450" transform="translate(0 15.848)">
          <g id="Group_449">
            <path id="Path_1091" d="M8.215,10.32a1.046,1.046,0,0,1-.87-.5A.991.991,0,0,1,7.594,8.33L22.016,0,36.439,8.331a1.152,1.152,0,0,1,.373,1.493,1.152,1.152,0,0,1-1.493.373l-13.3-7.834-13.3,7.711C8.463,10.2,8.338,10.32,8.215,10.32Z" transform="translate(-7.11)" fill="#64a535"/>
          </g>
        </g>
        <g id="Group_452" transform="translate(13.846 0.001)">
          <g id="Group_451">
            <path id="Path_1092" d="M22.02,26.106a.748.748,0,0,1-.5-.124L7.1,17.656V.992a1.127,1.127,0,0,1,2.238,0V16.413l13.3,7.711a1.152,1.152,0,0,1,.373,1.493,1.534,1.534,0,0,1-.991.5Z" transform="translate(-7.1 0.004)" fill="#64a535"/>
          </g>
        </g>
      </g>
      <path id="Path_1094" d="M42.247,23.3a1.016,1.016,0,0,1-.991-1.119A18.454,18.454,0,0,0,29.44,5.4,1.1,1.1,0,0,1,28.819,3.9a1.6,1.6,0,0,1,1.491-.5h0A20.774,20.774,0,0,1,43.491,22.181,1.115,1.115,0,0,1,42.372,23.3C42.372,23.425,42.372,23.425,42.247,23.3Z" transform="translate(15.461 17.708)" fill="#64a535"/>
      <path id="Path_1095" d="M27.123,33.816A22.832,22.832,0,0,1,20.036,32.7a1.1,1.1,0,0,1-.621-1.368,1.179,1.179,0,0,1,1.367-.625,17.448,17.448,0,0,0,10.693.373,1.1,1.1,0,1,1,.621,2.114h0a23.659,23.659,0,0,1-4.973.625Z" transform="translate(13.179 24.351)" fill="#64a535"/>
      <path id="Path_1096" d="M10.892,21.186A1.016,1.016,0,0,1,9.9,20.068,19.149,19.149,0,0,1,13.879,8.876a1.016,1.016,0,0,1,1.493-.124,1.164,1.164,0,0,1,.249,1.368,17.132,17.132,0,0,0-3.605,10.071c-.124.621-.5,1.119-1.119.991Z" transform="translate(10.881 18.952)" fill="#64a535"/>
    </g>
  </g>
</svg>
