<?xml version="1.0" encoding="utf-8"?>
<!-- Generator: Adobe Illustrator 26.0.3, SVG Export Plug-In . SVG Version: 6.00 Build 0)  -->
<svg version="1.1" id="NEWSWEEK" xmlns="http://www.w3.org/2000/svg" xmlns:xlink="http://www.w3.org/1999/xlink" x="0px" y="0px"
	 viewBox="0 0 214.4 339.2" style="enable-background:new 0 0 214.4 339.2;" xml:space="preserve">
<style type="text/css">
	.st0{fill:#FFFFFF;}
	.st1{fill:#FAA82F;}
	.st2{clip-path:url(#SVGID_00000039114576575941569890000009802420466173245887_);}
	.st3{fill:#231F20;}
	.st4{fill:#1A1A1A;}
	.st5{fill:#EC1C24;}
	.st6{fill:#221F1F;}
</style>
<rect x="3.7" y="46.8" class="st0" width="188.8" height="268.3"/>
<path class="st1" d="M190.9,48.3v265.2H5.2V48.3H190.9 M193.9,45.3H2.2v271.3H194L193.9,45.3L193.9,45.3z"/>
<rect x="2.6" y="195.5" class="st1" width="190.9" height="91.1"/>
<g>
	<defs>
		<rect id="SVGID_1_" x="1.9" y="47.8" width="192.1" height="266.9"/>
	</defs>
	<clipPath id="SVGID_00000143581723595393943040000017699720213888556165_">
		<use xlink:href="#SVGID_1_"  style="overflow:visible;"/>
	</clipPath>
	<g style="clip-path:url(#SVGID_00000143581723595393943040000017699720213888556165_);">
		<path class="st3" d="M194.1,62.7c-51.6,15.3-95.2,46.6-127.5,85c-6.6,7.6-12.6,15.7-18,24.3c-0.3,0.5,1.1,0.5,0.5-0.2
			c-0.7-0.9-1.4-1.7-2.2-2.6c-3.2-3.7-6.6-7.3-10.1-10.8c-10-10.2-21.3-19.9-34.7-26.6c-0.6-0.3-1.9,16.2-1.9,17.1
			c0,2.6-1.3,15.5,1.9,17.1c18.4,9.2,33.8,24.2,46.2,39.2c0.3,0.8,0.7,0.8,1,0c29.7-49.5,85.1-90.6,144.7-108.3
			c3-0.9,1.9-15.2,1.9-17.1C196.1,79,195.4,62.3,194.1,62.7"/>
		<path class="st0" d="M194.1,56.6c-51.6,15.3-95.2,46.6-127.5,85c-6.6,7.6-12.6,15.7-18,24.3c-0.3,0.5,1.1,0.5,0.5-0.2
			c-0.7-0.9-1.4-1.7-2.2-2.5c-3.2-3.7-6.6-7.3-10.1-10.8c-10-10.2-21.3-19.9-34.7-26.7c-0.6-0.3-1.9,16.2-1.9,17.1
			c0,2.6-1.3,15.5,1.9,17.1c18.4,9.3,33.8,24.2,46.2,39.2c0.3,0.8,0.7,0.8,1,0c29.7-49.4,85.1-90.6,144.7-108.3
			c3-0.9,1.9-15.2,1.9-17.1C196.1,72.9,195.4,56.3,194.1,56.6"/>
		<path class="st1" d="M194.1,59.7c-51.6,15.3-95.2,46.6-127.5,85c-6.6,7.6-12.6,15.7-18,24.3c-0.3,0.5,1.1,0.5,0.5-0.1
			c-0.7-0.9-1.4-1.7-2.2-2.6c-3.2-3.7-6.6-7.3-10.1-10.8c-10.1-10.2-21.3-19.9-34.7-26.6c-0.6-0.3-1.9,16.2-1.9,17.1
			c0,2.6-1.3,15.5,1.9,17.1c18.4,9.2,33.8,24.1,46.2,39.2c0.3,0.8,0.7,0.8,1,0c29.7-49.4,85.1-90.7,144.7-108.3
			c3-0.9,1.9-15.2,1.9-17.1C196.1,75.9,195.4,59.3,194.1,59.7"/>
	</g>
</g>
<path class="st4" d="M17.2,305.6l-4.5-12.1l1.7-0.3c1.2,3.3,2.4,6.7,3.5,10.4l0,0c1.2-3.8,2.5-7.1,3.7-10.4l1.5,0.2l-4.9,12.2H17.2z
	"/>
<path class="st4" d="M22.5,301.1c-0.1-2.4,1.7-4.4,4.1-4.5c2.4-0.1,4.4,1.7,4.5,4.1c0,0.1,0,0.3,0,0.4c0,2.7-1.7,4.7-4.3,4.7
	S22.5,303.8,22.5,301.1z M24.2,301.1c0,1.6,0.6,3.6,2.6,3.6s2.6-1.9,2.6-3.6s-0.6-3.3-2.6-3.3S24.2,299.6,24.2,301.1z"/>
<path class="st4" d="M35.8,296.9h2.3v0.9h-2.3v4.9c0,1.2,0.2,2,1.2,2c0.4,0,0.8-0.1,1.2-0.3l0.4,0.9c-0.5,0.3-1.1,0.5-1.8,0.6
	c-1.8,0-2.6-1-2.6-2.8v-5.2H33v-0.9h1.2v-2.1l1.6-0.5L35.8,296.9z"/>
<path class="st4" d="M41.3,301.3c-0.1,1.7,1.2,3.2,3,3.3c0,0,0,0,0,0c0.9,0,1.7-0.3,2.4-0.8l0.5,0.9c-0.8,0.6-1.9,1-2.9,1
	c-2.7,0-4.5-1.7-4.5-4.8c-0.2-2.3,1.5-4.2,3.8-4.4c0.1,0,0.2,0,0.4,0c2.7,0,3.5,2.4,3.4,4.7L41.3,301.3z M45.8,300.3
	c0-1.4-0.6-2.5-2-2.5c-1.3,0-2.4,1.1-2.4,2.4c0,0,0,0.1,0,0.1H45.8z"/>
<path class="st4" d="M56.1,304.2L56.1,304.2c-0.7,1-1.8,1.6-3,1.6c-2.4,0-3.9-1.9-3.9-4.7c-0.1-2.3,1.7-4.3,4-4.5
	c1.1-0.1,2.1,0.4,2.8,1.3l0,0v-5.2h1.6v12.8h-1.5V304.2z M56.1,301c0-1.6-0.9-3.2-2.6-3.2s-2.5,1.4-2.5,3.3s0.8,3.6,2.5,3.6
	C55.3,304.7,56.1,302.9,56.1,301z"/>
<path class="st4" d="M66.7,292.8h1.6v5.5l0,0c0.6-1,1.7-1.6,2.9-1.6c3.4,0,4,3,4,4.3c0,2.6-1.6,4.8-4.1,4.8c-1.1,0-2.1-0.5-2.7-1.4
	l0,0v1.2h-1.6V292.8z M73.4,301c0-1.6-0.8-3.2-2.4-3.2c-1.8,0-2.7,1.4-2.7,3.6c0,1.7,0.8,3.3,2.7,3.3S73.4,302.6,73.4,301L73.4,301z
	"/>
<path class="st4" d="M78,296.7c0.9,2.2,1.8,4.5,2.7,7.1l0,0c0.9-2.6,1.8-4.9,2.7-7.1l1.4,0.3l-4.5,10.1c-0.8,1.9-1.9,2.8-3.4,2.8
	h-0.8v-1.1h0.6c1.1,0,1.8-0.3,3.1-3.7l-3.4-8L78,296.7z"/>
<path class="st4" d="M102,295.5c-0.9-0.7-2-1.1-3.2-1.1c-3,0-4.8,2.2-4.8,5c-0.2,2.7,1.8,5,4.5,5.1c0.1,0,0.2,0,0.3,0
	c1.1,0,2.2-0.3,3.1-0.9l0.7,1c-1.1,0.7-2.5,1.1-3.8,1.1c-4.4,0-6.6-3-6.6-6.4c0.1-3.5,3-6.3,6.5-6.3c0.1,0,0.2,0,0.3,0
	c1.4,0,2.7,0.4,3.8,1.2L102,295.5z"/>
<path class="st4" d="M104.7,301.1c-0.1-2.4,1.7-4.4,4.1-4.5s4.4,1.7,4.5,4.1c0,0.1,0,0.3,0,0.4c0,2.7-1.7,4.7-4.3,4.7
	S104.7,303.8,104.7,301.1z M106.4,301.1c0,1.6,0.6,3.6,2.6,3.6s2.6-1.9,2.6-3.6s-0.6-3.3-2.6-3.3S106.4,299.6,106.4,301.1z"/>
<path class="st4" d="M117.6,298c0.8-0.8,1.9-1.3,3-1.3c2,0,3.1,1.1,3.1,3.3v5.6h-1.6v-5.3c0-1.6-0.7-2.5-2.1-2.5
	c-1.3,0-2.4,1-2.4,2.3c0,0.1,0,0.2,0,0.2v5.3H116v-8.7h1.6L117.6,298z"/>
<path class="st4" d="M131.1,298.3c-0.5-0.3-1-0.5-1.6-0.6c-0.6,0-1.3,0.3-1.3,1s0.8,1.1,1.8,1.9s1.9,1.6,1.9,2.8
	c0,1.5-1.4,2.5-3.1,2.5c-1,0-2-0.4-2.7-1.1l0.8-0.9c0.5,0.5,1.2,0.8,1.9,0.9c0.7,0.1,1.4-0.4,1.5-1.1c0,0,0-0.1,0-0.1
	c0-1-0.9-1.5-1.7-2c-1-0.7-1.9-1.3-1.9-2.5c0-1.4,1.4-2.2,2.9-2.2c0.8,0,1.5,0.3,2.1,0.8L131.1,298.3z"/>
<path class="st4" d="M140.3,304.6c-0.7,0.8-1.7,1.2-2.8,1.2c-2,0-3.1-1.1-3.1-3.3v-5.6h1.6v5.3c0,1.6,0.7,2.5,2.1,2.5
	c1.2,0,2.2-1,2.2-2.7v-5.1h1.6v8.7h-1.6V304.6z"/>
<path class="st4" d="M146.8,298c0.7-0.8,1.7-1.3,2.7-1.3c1.1-0.1,2.1,0.4,2.8,1.3c0.8-0.8,1.9-1.2,3-1.3c1.9,0,2.9,1.3,3,3.1v5.8
	h-1.6v-5.2c0-1.3-0.3-2.5-1.9-2.5c-1.3,0-2.2,0.7-2.2,2.5v5.3h-1.6v-5.2c0-1.6-0.7-2.5-2-2.5s-2.2,0.9-2.2,2.5v5.2h-1.6v-8.7h1.6
	L146.8,298z"/>
<path class="st4" d="M162.6,301.3c-0.1,1.7,1.2,3.2,2.9,3.4c0.9,0,1.7-0.3,2.4-0.8l0.4,0.9c-0.8,0.6-1.8,1-2.9,1
	c-2.7,0-4.5-1.7-4.5-4.8c-0.2-2.3,1.5-4.2,3.8-4.4c0.1,0,0.2,0,0.3,0c2.7,0,3.6,2.4,3.4,4.7L162.6,301.3z M167,300.3
	c0-1.4-0.6-2.5-1.9-2.5c-1.3,0-2.4,1.1-2.4,2.5c0,0,0,0,0,0.1H167z"/>
<path class="st4" d="M172.6,298l0.6-0.7c0.6-0.7,1.6-0.8,2.3-0.3c0.2,0.1,0.3,0.3,0.4,0.5l-0.7,1c-0.4-0.2-0.8-0.3-1.2-0.4
	c-0.8,0-1.5,0.8-1.5,2.7v4.7h-1.6v-8.7h1.5L172.6,298z"/>
<path class="st4" d="M181.7,298.3c-0.5-0.3-1-0.5-1.6-0.6c-0.6,0-1.3,0.3-1.3,1s0.8,1.1,1.8,1.9s1.9,1.6,1.9,2.8
	c0,1.5-1.4,2.5-3.1,2.5c-1,0-2-0.4-2.7-1.1l0.8-0.9c0.5,0.5,1.2,0.8,1.9,0.9c0.7,0.1,1.4-0.4,1.5-1.1c0,0,0-0.1,0-0.1
	c0-1-0.9-1.5-1.7-2c-1-0.7-1.9-1.3-1.9-2.5c0-1.4,1.4-2.2,2.9-2.2c0.8,0,1.6,0.3,2.1,0.8L181.7,298.3z"/>
<path class="st4" d="M30.1,333.3c-0.4,0.5-0.7,1-1.4,1c-0.4,0-0.8-0.1-1.1-0.3c-0.4-0.2-0.8-0.3-1.2-0.3c-0.5,0-0.8,0.4-1,0.8
	l-0.4-0.4c0.3-0.6,0.8-1,1.5-1c0.4,0,0.8,0.2,1.2,0.3c0.3,0.2,0.7,0.3,1.1,0.3c0.5,0,0.7-0.3,1-0.7L30.1,333.3z"/>
<path class="st4" d="M35.8,328.8h2.2c1.1-0.1,2.1,0.7,2.2,1.8c0,0.1,0,0.1,0,0.2c0,0.9-0.5,1.8-1.3,2.2l1.9,3.2l-1.1,0.3l-1.8-3.3
	h-1.1v3.1h-1L35.8,328.8z M36.8,332.5h0.6c0.8,0.1,1.5-0.5,1.6-1.4c0-0.1,0-0.2,0-0.3c0.1-0.6-0.4-1.2-1.1-1.3c-0.1,0-0.2,0-0.2,0
	h-0.9L36.8,332.5z"/>
<path class="st4" d="M42.9,333.8c-0.1,1.1,0.8,2,1.8,2.1c0.5,0,1-0.2,1.5-0.5l0.3,0.5c-0.5,0.4-1.2,0.6-1.8,0.6
	c-1.5,0.1-2.7-1-2.8-2.5c0-0.2,0-0.4,0-0.5c-0.1-1.4,0.9-2.6,2.4-2.7c0.1,0,0.2,0,0.2,0c1.7,0,2.2,1.5,2.1,2.9L42.9,333.8z
	 M45.6,333.1c0-0.9-0.4-1.6-1.2-1.6c-0.8,0-1.5,0.7-1.5,1.5c0,0,0,0,0,0.1H45.6z"/>
<path class="st4" d="M50.8,331.9c-0.3-0.2-0.6-0.3-1-0.3c-0.3,0-0.8,0.2-0.8,0.6s0.5,0.7,1.1,1.1s1.2,1,1.2,1.7
	c-0.1,0.9-1,1.6-1.9,1.5c-0.6,0-1.2-0.2-1.7-0.7l0.5-0.6c0.3,0.3,0.7,0.5,1.2,0.5c0.4,0.1,0.9-0.3,0.9-0.7c0,0,0,0,0-0.1
	c0-0.6-0.6-0.9-1.1-1.3s-1.2-0.8-1.2-1.5s0.8-1.4,1.8-1.4c0.5,0,1,0.2,1.3,0.5L50.8,331.9z"/>
<path class="st4" d="M53.7,333.8c-0.1,1.1,0.8,2,1.8,2.1c0.5,0,1-0.2,1.5-0.5l0.3,0.5c-0.5,0.4-1.2,0.6-1.8,0.6
	c-1.5,0.1-2.7-1-2.8-2.5c0-0.2,0-0.4,0-0.5c-0.1-1.4,0.9-2.6,2.4-2.7c0.1,0,0.2,0,0.2,0c1.7,0,2.2,1.5,2.1,2.9L53.7,333.8z
	 M56.5,333.1c0-0.9-0.4-1.6-1.2-1.6c-0.8,0-1.5,0.7-1.5,1.5c0,0,0,0,0,0H56.5z"/>
<path class="st4" d="M61.7,335.9c-0.3,0.4-0.8,0.7-1.4,0.7c-0.8,0-1.5-0.6-1.6-1.5c0-0.1,0-0.1,0-0.2c0-1,0.8-1.5,1.9-1.9l1.3-0.4
	c0-0.6-0.5-1.1-1.1-1.1c-0.5,0-1,0.2-1.4,0.6l-0.4-0.5c0.5-0.5,1.2-0.8,1.9-0.7c1-0.1,1.8,0.5,2,1.5c0,0.1,0,0.2,0,0.4v2.4
	c0,0.5,0.1,0.9,0.2,1.3h-1c-0.1-0.3-0.2-0.6-0.2-0.9L61.7,335.9z M61.1,333.5c-0.9,0.3-1.3,0.7-1.3,1.4c0,0.5,0.3,0.9,0.8,0.9
	c0,0,0,0,0,0c0.7,0,1.6-0.9,1.5-2.5L61.1,333.5z"/>
<path class="st4" d="M66.1,331.7l0.4-0.4c0.2-0.2,0.5-0.4,0.8-0.4c0.4,0.1,0.7,0.2,0.9,0.5l-0.4,0.6c-0.2-0.1-0.5-0.2-0.7-0.2
	c-0.5,0-0.9,0.5-0.9,1.7v2.9h-1V331h1L66.1,331.7z"/>
<path class="st4" d="M73.4,336c-0.5,0.3-1.1,0.5-1.6,0.6c-1.5,0.1-2.8-1-2.9-2.5c0-0.1,0-0.2,0-0.4c0-1.5,1.2-2.8,2.7-2.8
	c0.1,0,0.2,0,0.3,0c0.5,0,1,0.1,1.5,0.5l-0.3,0.5c-0.3-0.2-0.7-0.3-1.1-0.3c-1,0-1.9,0.8-1.9,1.9c0,0.1,0,0.1,0,0.2
	c0,1.1,0.6,2.2,1.9,2.2c0.5,0,0.9-0.1,1.3-0.4L73.4,336z"/>
<path class="st4" d="M76,331.7c0.5-0.5,1.2-0.8,1.9-0.8c1.2,0,1.9,0.7,1.9,2.1v3.5h-1v-3.3c0-1-0.4-1.6-1.3-1.6
	c-0.8,0-1.5,0.6-1.5,1.4c0,0.1,0,0.1,0,0.2v3.3h-1v-8h1V331.7z"/>
<path class="st4" d="M85.6,328.4h1v3.4l0,0c0.4-0.6,1.1-1,1.8-1c1.4,0,2.5,1.1,2.5,2.5c0,0.1,0,0.2,0,0.2c0,1.6-1,3-2.6,3
	c-0.7,0-1.3-0.3-1.7-0.9l0,0v0.7h-1V328.4z M89.8,333.6c0-1-0.5-2-1.5-2s-1.7,0.9-1.7,2.3c0,1,0.5,2,1.7,2S89.8,334.6,89.8,333.6z"
	/>
<path class="st4" d="M92.7,330.9c0.6,1.4,1.1,2.8,1.7,4.4l0,0c0.6-1.6,1.1-3,1.7-4.4l0.9,0.2l-2.8,6.3c-0.5,1.1-1.2,1.8-2.1,1.8
	h-0.5v-0.7h0.4c0.7,0,1.2-0.2,1.9-2.3l-2.1-5L92.7,330.9z"/>
<path class="st4" d="M102.1,336.4v-7.6h2.4c1.1,0,2,0.6,2,1.5c0,0.9-0.7,1.7-1.6,1.9l0,0c1.1,0,2,0.8,2,1.8c0,0,0,0,0,0.1
	c0,1.3-1.1,2.2-2.7,2.2L102.1,336.4z M103.2,332.1h0.5c0.9,0.1,1.6-0.6,1.7-1.4c0-0.7-0.5-1.1-1.3-1.1h-0.9V332.1z M103.2,335.7h1
	c0.8,0.1,1.5-0.5,1.6-1.2c0-0.1,0-0.1,0-0.2c0-1.1-0.9-1.5-1.8-1.5h-0.8L103.2,335.7z"/>
<path class="st4" d="M109.7,331.7l0.4-0.4c0.2-0.2,0.5-0.4,0.8-0.4c0.4,0.1,0.7,0.2,0.9,0.5l-0.4,0.6c-0.2-0.1-0.5-0.2-0.7-0.2
	c-0.5,0-0.9,0.5-0.9,1.7v2.9h-1V331h1L109.7,331.7z"/>
<path class="st4" d="M115.4,335.9c-0.3,0.4-0.8,0.7-1.4,0.7c-0.8,0-1.5-0.7-1.5-1.5c0-0.1,0-0.1,0-0.2c0-1,0.8-1.5,1.9-1.9l1.3-0.4
	c0-0.6-0.5-1.1-1.1-1.1c-0.5,0-1,0.2-1.4,0.6l-0.4-0.5c0.5-0.5,1.2-0.8,1.9-0.7c0.8,0,2,0.3,2,1.9v2.4c0,0.5,0.1,0.9,0.2,1.3h-1.1
	c-0.1-0.3-0.2-0.6-0.2-0.9L115.4,335.9z M114.9,333.5c-0.9,0.3-1.3,0.7-1.3,1.4c0,0.5,0.3,0.9,0.8,0.9c0,0,0,0,0,0
	c0.7,0,1.6-0.9,1.5-2.5L114.9,333.5z"/>
<path class="st4" d="M119.9,331.7c0.5-0.5,1.2-0.8,1.9-0.8c1.2,0,1.9,0.7,1.9,2.1v3.5h-1v-3.3c0-1-0.4-1.6-1.3-1.6
	c-0.8,0-1.5,0.6-1.5,1.4c0,0.1,0,0.1,0,0.2v3.3h-1V331h1L119.9,331.7z"/>
<path class="st4" d="M129.7,335.6L129.7,335.6c-0.4,0.6-1.1,1-1.8,1c-1.5,0-2.4-1.2-2.4-2.9c-0.1-1.5,1.1-2.7,2.5-2.8
	c0.7,0,1.3,0.3,1.7,0.8l0,0v-3.2h1v8h-1V335.6z M129.7,333.6c0-1-0.6-2-1.6-2s-1.6,0.9-1.6,2s0.5,2.3,1.5,2.3
	C129.2,335.9,129.7,334.8,129.7,333.6L129.7,333.6z"/>
<path class="st4" d="M136.5,330c-0.4-0.3-0.8-0.5-1.3-0.5c-0.6-0.1-1.1,0.3-1.2,0.9c0,0,0,0.1,0,0.1c0,0.5,0.5,1,1.4,1.7
	s1.6,1.5,1.6,2.4c-0.1,1.2-1.1,2.1-2.3,2c0,0,0,0,0,0c-0.8,0-1.5-0.3-2.1-0.8l0.5-0.6c0.5,0.4,1,0.6,1.6,0.7c0.7,0.1,1.2-0.4,1.3-1
	c0-0.1,0-0.1,0-0.2c0-1-1.1-1.6-1.8-2s-1.3-1-1.3-2c0.1-1.1,1.1-1.9,2.2-1.8c0.7,0,1.4,0.2,1.9,0.8L136.5,330z"/>
<path class="st4" d="M140,331.8L140,331.8c0.4-0.6,1.1-1,1.8-1c1.4,0,2.5,1.1,2.5,2.5c0,0.1,0,0.2,0,0.2c0,1.6-1,3-2.6,3
	c-0.7,0-1.3-0.3-1.7-0.9l0,0v3.4h-1V331h1V331.8z M143.2,333.6c0-1-0.5-2-1.5-2s-1.7,0.9-1.7,2.3c0,1,0.5,2,1.7,2
	S143.2,334.6,143.2,333.6L143.2,333.6z"/>
<path class="st4" d="M148.6,335.9c-0.3,0.4-0.8,0.7-1.4,0.7c-0.8,0-1.5-0.7-1.5-1.5c0-0.1,0-0.1,0-0.2c0-1,0.8-1.5,1.9-1.9l1.3-0.4
	c0-0.6-0.5-1.1-1.1-1.1c-0.5,0-1,0.2-1.4,0.6l-0.4-0.5c0.5-0.5,1.2-0.8,1.9-0.7c0.8,0,2,0.3,2,1.9v2.4c0,0.5,0.1,0.9,0.2,1.3h-1.1
	c-0.1-0.3-0.2-0.6-0.1-0.9L148.6,335.9z M148,333.5c-0.9,0.3-1.3,0.7-1.3,1.4c0,0.5,0.3,0.9,0.8,0.9c0,0,0,0,0,0
	c0.7,0,1.6-0.9,1.5-2.5L148,333.5z"/>
<path class="st4" d="M153,331.7l0.4-0.4c0.2-0.2,0.5-0.4,0.8-0.4c0.4,0.1,0.7,0.2,0.9,0.5l-0.4,0.6c-0.2-0.1-0.5-0.2-0.7-0.2
	c-0.5,0-0.9,0.5-0.9,1.7v2.9h-1V331h1V331.7z"/>
<path class="st4" d="M156.4,328.4h1v4.8h0.2l2.1-2.3l0.7,0.4l-1.9,2l2.3,2.8l-1,0.4l-2.4-3.1l0,0v3h-1L156.4,328.4z"/>
<path class="st4" d="M170.7,333.3c-0.4,0.5-0.7,1-1.4,1c-0.4,0-0.8-0.1-1.1-0.3c-0.4-0.2-0.8-0.3-1.2-0.3c-0.5,0-0.8,0.4-1,0.8
	l-0.4-0.4c0.4-0.6,0.8-1,1.5-1c0.4,0,0.8,0.2,1.2,0.3c0.3,0.2,0.7,0.3,1.1,0.3c0.5,0,0.7-0.3,0.9-0.7L170.7,333.3z"/>
<path class="st4" d="M202.5,51.9c0.1-3.3,2.8-5.9,6.1-5.8c3.3,0.1,5.9,2.8,5.8,6.1c-0.1,3.2-2.7,5.8-5.9,5.8
	C205.2,57.9,202.5,55.2,202.5,51.9z M213.3,51.9c-0.1-2.7-2.4-4.7-5.1-4.6c-2.7,0.1-4.7,2.4-4.6,5.1c0.1,2.6,2.3,4.6,4.9,4.6
	C211.2,56.9,213.3,54.6,213.3,51.9z M206.2,48.4h2.6c1.4,0,2.3,0.6,2.3,1.7c0,0.8-0.4,1.5-1.1,1.9l1.6,2.8l-1.7,0.2l-1.4-2.7h-0.7
	v2.5h-1.6L206.2,48.4z M207.8,51.4h0.6c0.6,0,1-0.4,1.1-0.9c0,0,0-0.1,0-0.1c0-0.5-0.3-0.9-0.8-0.9c-0.1,0-0.1,0-0.2,0h-0.6
	L207.8,51.4z"/>
<path class="st4" d="M13.3,236.4v-25.1h9.1c4.2,0,7.2,1.9,7.2,5.4c0,3-2.1,5.5-5,6.1v0.1c3.1,0.1,6.6,2.3,6.6,6.1
	c0,4.4-3.6,7.4-9.6,7.4L13.3,236.4z M18.4,221.7H20c2.9,0,4.9-1.9,4.9-4.2s-1.6-3.2-3.8-3.2h-2.7L18.4,221.7z M18.4,233.3H21
	c2.8,0,4.9-1.5,4.9-4.3s-2.2-4.2-4.9-4.2h-2.6L18.4,233.3z"/>
<path class="st4" d="M49.1,214.6h-8.4v6.9h8.3v3.4h-8.3v8.1h10v3.4H35.6v-25.1h13.5V214.6z"/>
<path class="st4" d="M67.4,215.6c-1.2-0.9-2.6-1.4-4.1-1.4c-2.1,0-3.3,1.2-3.3,2.7c0,1.6,1.8,2.9,4.7,5.2c3.4,2.7,5.2,4.8,5.2,7.9
	s-3,6.8-8.7,6.8c-2.7,0.1-5.3-0.8-7.4-2.5l1.8-2.9c1.4,1.2,3.2,1.9,5.1,2c2.1,0,3.9-1.1,3.9-3.5c0-2.8-3.4-4.6-5.4-6.2
	c-2.4-2-4.5-3.5-4.5-6.9s3.4-6.1,8-6.1c2.3-0.1,4.6,0.7,6.4,2.2L67.4,215.6z"/>
<path class="st4" d="M79.8,236.4v-21.8h-7.8v-3.4h20.6v3.4h-7.8v21.8H79.8z"/>
<path class="st4" d="M128.1,236.4h-3.7c-4.8-5.8-9.6-11.5-14.4-18H110v18h-4.1v-25.1h3.7c4.8,5.8,9.6,11.5,14.3,17.9h0v-17.9h4.1
	L128.1,236.4z"/>
<path class="st4" d="M147.4,214.6H139v6.9h8.3v3.4H139v8.1h10v3.4h-15.1v-25.1h13.5V214.6z"/>
<path class="st4" d="M170.4,211.2c2,6.5,4.1,12.9,6,20.2h0.1c1.7-7.4,3.4-14,5.1-20.6l4.1,0.7l-7.1,24.8h-5.2
	c-1.9-6-3.7-12-5.6-18.8h-0.1c-1.8,6.8-3.6,12.8-5.4,18.8h-5.2l-7-24.8l5-0.7c1.7,6.6,3.3,13.1,5,20.6h0.1c2-7.3,4-13.8,6-20.2
	L170.4,211.2z"/>
<path class="st4" d="M16.9,276.4h-5.1v-25.5h8c5.8,0,9.3,2.4,9.3,7.4c0,4.3-3.7,8.5-9.8,8.5H18v-3.2l1.1-0.1c2.6,0,4.8-2.1,4.8-4.7
	c0-0.1,0-0.2,0-0.4c0-2.6-1.7-4.1-4.7-4.1h-2.3V276.4z"/>
<path class="st4" d="M34.2,250.9h8.8c4.9,0,8.2,2.3,8.2,6.7c0.1,3.1-1.5,5.9-4.2,7.4l6,10.9l-5.4,1l-5.2-10.6h-3.1v10.2h-5.1V250.9z
	 M39.4,262.8h2.1c2.4,0.1,4.5-1.7,4.7-4.1c0-0.1,0-0.3,0-0.4c0-2.9-2-3.9-4.1-3.9h-2.7V262.8z"/>
<path class="st4" d="M56,263.3c0-7,5.7-12.7,12.7-12.7c7,0,12.7,5.7,12.7,12.7c0,0,0,0,0,0c0,7.6-4.9,13.5-12.7,13.5
	S56,270.9,56,263.3z M76,263.3c0-4.7-2.2-9.2-7.2-9.2s-7.2,4.5-7.2,9.2c0,4.9,1.9,9.9,7.2,9.9S76,268.2,76,263.3z"/>
<path class="st4" d="M95.8,250.9c10.4,0,14,5.9,14,12c0,8.4-5.4,13.5-14.4,13.5H87v-25.5L95.8,250.9z M92.2,273h3.1
	c5.9,0,9-3,9-10.1c0-5.3-3.1-8.6-8.4-8.6h-3.7L92.2,273z"/>
<path class="st4" d="M120.3,250.9v14.6c0,5,1.5,7.7,5.5,7.7c3.9,0,5.5-3.3,5.5-7.4v-14.9h4.6v15.9c0,6.5-4.1,10.1-10.2,10.1
	c-6.9,0-10.5-3.4-10.5-10.3v-15.6H120.3z"/>
<path class="st4" d="M161,255.6c-1.6-0.9-3.4-1.4-5.3-1.4c-5.2,0-9,3.7-9,9.5c0,6,4.2,9.6,9.2,9.6c1.8,0,3.5-0.4,5.1-1.3l1.4,3.2
	c-2.1,1.1-4.4,1.7-6.8,1.8c-8.9,0-14.4-5.8-14.4-13.3c0-7,5.5-13,14.5-13c2.4,0.1,4.8,0.7,6.9,2L161,255.6z"/>
<path class="st4" d="M173.1,276.4v-22.1h-7.9v-3.4h20.9v3.4h-7.9v22.1H173.1z"/>
<rect x="3.7" y="1.5" class="st0" width="188.8" height="39.1"/>
<path class="st1" d="M190.9,3.1v36H5.2v-36L190.9,3.1 M194,0H2.1v42.1H194V0z"/>
<path class="st5" d="M45.5,21.9h5.7c0-2.5-1.6-3.5-2.8-3.5C47.1,18.4,45.6,19.6,45.5,21.9 M130.5,21.9h5.7c0-2.5-1.6-3.5-2.8-3.5
	C132.1,18.4,130.6,19.6,130.5,21.9 M147.8,21.9h5.7c0-2.5-1.6-3.5-2.8-3.5C149.3,18.4,147.9,19.6,147.8,21.9 M178.8,31.3
	c0,0,0-0.1,0-0.1c0,0,0-0.1,0-0.1s-0.1,0-0.2,0h-0.1v0.3h0.1C178.7,31.3,178.7,31.3,178.8,31.3 M178.8,31.5
	C178.8,31.5,178.8,31.5,178.8,31.5c0.1,0,0.2,0.1,0.2,0.1c0.1,0.1,0.1,0.2,0.2,0.3h-0.3c-0.1-0.2-0.2-0.3-0.2-0.4s-0.1-0.1-0.1-0.1
	l0,0V32h-0.2v-1.1h0.5c0.1,0,0.2,0,0.3,0.1c0.1,0.1,0.1,0.1,0.1,0.2c0,0.1,0,0.2-0.1,0.2c0,0-0.1,0-0.2,0 M179.2,31.9
	c0.2-0.2,0.2-0.4,0.2-0.6c0-0.2-0.1-0.4-0.2-0.6c-0.2-0.2-0.4-0.2-0.6-0.2c-0.5,0-0.8,0.4-0.8,0.8c0,0.2,0.1,0.4,0.2,0.6
	c0.2,0.2,0.4,0.2,0.6,0.2C178.9,32.1,179.1,32,179.2,31.9 M179.7,31.3c0,0.2,0,0.4-0.2,0.5c-0.1,0.2-0.2,0.3-0.4,0.4
	c-0.2,0.1-0.3,0.2-0.5,0.2c-0.2,0-0.4,0-0.5-0.2c-0.2-0.1-0.3-0.2-0.4-0.4c-0.1-0.1-0.1-0.3-0.2-0.5c0-0.2,0-0.4,0.2-0.5
	c0.1-0.2,0.2-0.3,0.4-0.4c0.2-0.1,0.3-0.1,0.5-0.2c0.2,0,0.4,0,0.5,0.2C179.4,30.6,179.6,31,179.7,31.3 M177.3,32.3H172l-5.5-7.1
	l-1.8,1.3v1.4h1.6v4.4h-8.1v-4.4h1.5V12.4h-2.3V8h7.3v14l3.7-2.7h-2.3v-4.5h9.9v4.5h-1.5l-3.8,2.9l4.4,5.7h2.3L177.3,32.3z
	 M158.3,23.6c0,0.4,0,0.7,0,1.1h-10.5c-0.3,3.4,1,4.4,2.9,4.4c1.5,0.1,2.8-1,2.8-2.5c0-0.1,0-0.1,0-0.2h4.5c-0.1,3-1.6,6.4-7.6,6.4
	s-8.8-4.3-8.8-9.1c0-4.3,2.9-8.9,8.7-8.9C155.9,14.6,158.4,18.5,158.3,23.6 M141.1,23.6c0,0.4,0,0.8-0.1,1.2h-10.5
	c-0.3,3.4,1,4.4,2.9,4.4c1.5,0.1,2.7-1,2.8-2.5c0-0.1,0-0.2,0-0.2h4.5c-0.1,3-1.6,6.4-7.6,6.4s-8.8-4.3-8.8-9.1
	c0-4.3,2.9-8.9,8.7-8.9C138.6,14.8,141.1,18.6,141.1,23.6 M124.9,19.3h-1.5l-3.9,13.1h-5.2l-2.4-7.2l-2.2,7.2h-5.3l-4.4-13.1h-1.6
	v-4.5h9.1v4.4h-2.3l2.4,7l3.1-11.4h2.8l3.8,11.4l2.1-7h-2.3v-4.5h7.6L124.9,19.3z M88.5,19.5c0,0.6,0.5,1,2.2,1.6l2.5,0.8
	c2.3,0.8,5,2.4,5,5.5c0,3.6-2.7,5.4-6.1,5.4c-1.9,0-3.8-0.7-5.3-1.9v1.4h-4.5v-6h4.4c0.2,1.8,1.7,3.1,3.5,3c1.3,0,1.9-0.6,1.9-1.2
	c0-0.8-0.5-1.3-2.7-2l-2.2-0.7c-2.2-0.7-4.7-2.4-4.7-5.3c0-3.6,3.2-5.4,5.9-5.4s4.2,0.8,4.9,1.6v-1.4h4.4v5.5h-4.6
	c-0.1-1.5-1.5-2.1-3-2.1C89,18.3,88.4,18.8,88.5,19.5 M82,19.3h-1.5l-3.9,13.1h-5.2l-2.4-7.2l-2.2,7.2h-5.3l-4.4-13.1h-1.5v-4.5h9.1
	v4.4h-2.3l2.4,7l3.1-11.4h2.8l3.8,11.4l2.1-7h-2.3v-4.4h7.6L82,19.3L82,19.3z M56,23.7c0,0.4,0,0.7,0,1.1H45.5
	c-0.3,3.4,1,4.4,2.9,4.4c1.5,0.1,2.7-1,2.8-2.5c0-0.1,0-0.2,0-0.2h4.5c-0.1,3-1.7,6.4-7.6,6.4s-8.8-4.3-8.8-9.1
	c0-4.3,2.9-8.9,8.7-8.9C53.6,14.8,56.1,18.6,56,23.7 M40.7,12.5h-2.3v19.9h-4.2L23.8,18.8v9.1h2.3v4.5h-9.6v-4.4h2.3V12.5h-2.3V8
	h7.3l9.6,12.7v-8.2h-2.3V8h9.6L40.7,12.5z"/>
<path class="st6" d="M96.9,187.2l2.7-2.7c3.6-3.6,4.6-5.2,4.6-6.8c0-1.2-0.9-2.1-2.1-2.1c0,0,0,0,0,0c-1.2,0.1-2.4,0.6-3.3,1.5
	l-1.2-1.4c1.3-1.4,3.1-2.2,5-2.1c2.5,0,4.7,1.4,4.7,3.8c0,1.6-0.7,3-3.6,6l-2.9,3h6.6v2.2H96.9V187.2z"/>
<path class="st6" d="M121.4,181c0-3.4,1.6-7.4,5.4-7.4c3.8,0,5.4,4,5.4,7.4c0,4.8-2.3,7.9-5.4,7.9S121.4,185.8,121.4,181 M129.2,181
	c0-3.5-0.9-5.4-2.4-5.4s-2.4,1.9-2.4,5.4c0,4,0.9,5.9,2.4,5.9C128.3,187,129.2,185,129.2,181"/>
<path class="st6" d="M146.7,187.2l2.7-2.7c3.6-3.6,4.6-5.2,4.6-6.8c0-1.1-0.9-2.1-2.1-2.1c0,0,0,0,0,0c-1.2,0.1-2.4,0.6-3.3,1.5
	l-1.2-1.4c1.3-1.4,3.1-2.2,5-2.1c2.5,0,4.7,1.4,4.7,3.8c0,1.6-0.7,3-3.6,6l-2.9,3h6.6v2.2h-10.6V187.2z"/>
<path class="st6" d="M170.9,187.2l2.7-2.7c3.6-3.6,4.6-5.2,4.6-6.8c0-1.1-0.9-2.1-2.1-2.1c0,0,0,0,0,0c-1.2,0.1-2.4,0.6-3.3,1.5
	l-1.2-1.4c1.3-1.4,3.1-2.2,5.1-2.1c2.5,0,4.7,1.4,4.7,3.8c0,1.6-0.7,3-3.6,6l-2.9,3h6.6v2.2h-10.7V187.2z"/>
<g>
	<path d="M207,7.4l-0.2-4h2.2l-0.2,4l3.7-1.4l0.7,2l-3.9,1.1l2.5,3.1l-1.7,1.3l-2.2-3.3l-2.2,3.3l-1.7-1.3l2.5-3.1l-3.9-1.1l0.7-2
		L207,7.4z"/>
</g>
</svg>
