<svg xmlns="http://www.w3.org/2000/svg" xmlns:xlink="http://www.w3.org/1999/xlink" width="55" height="55" viewBox="0 0 55 55"><defs><clipPath id="a"><rect width="43.955" height="41.296" fill="none"/></clipPath></defs><g transform="translate(0 -0.271)"><circle cx="27.5" cy="27.5" r="27.5" transform="translate(0 0.271)" fill="#cbdd61"/><g transform="translate(6.893 7.016)"><g clip-path="url(#a)"><path d="M44.412,20.937H42.3a.881.881,0,0,0,0-.117,20.083,20.083,0,0,0-2.168-7.931,1.1,1.1,0,0,0-2.046.768,20.029,20.029,0,0,1,2.177,8.886H42.49a.218.218,0,0,1,.173.352l-3.049,3.974a.268.268,0,0,1-.448,0l-3.049-3.974a.219.219,0,0,1,.173-.352h2.3a18.631,18.631,0,0,0-1.573-7.392A16.283,16.283,0,0,0,20.209,5.774c-.181.021-.359.051-.536.081-.415.069-.831.14-1.24.236-.3.069-.589.14-.879.225-.38.111-.751.244-1.121.379s-.752.294-1.119.461c-.344.157-.688.316-1.019.5-.3.163-.584.349-.873.531-.236.149-.47.3-.7.458q-.392.276-.768.575c-.286.228-.559.468-.829.713-.172.158-.352.305-.518.47a16.538,16.538,0,0,0-1.264,1.408c-.057.071-.108.147-.164.219a16.419,16.419,0,0,0-1.036,1.5c-.026.043-.059.079-.084.123l.007,0a16.411,16.411,0,0,0,27.042,18.5,1.021,1.021,0,0,0-.216-1.48l-.026-.018a1.02,1.02,0,0,0-1.347.2,14.537,14.537,0,0,1-19.115,3.439,12.927,12.927,0,0,1-5.278-5.966A14.55,14.55,0,0,1,9.889,14.6a14.869,14.869,0,0,1,.924-1.339c.043-.054.081-.112.125-.167a14.518,14.518,0,0,1,1.121-1.247c.133-.131.277-.251.414-.376.25-.23.506-.452.771-.663q.314-.249.643-.481c.212-.15.432-.29.652-.429.241-.15.478-.306.727-.443q.6-.325,1.22-.593c.25-.107.509-.194.765-.288.292-.106.584-.209.883-.3.226-.065.456-.122.687-.177q.517-.122,1.047-.2c.194-.032.385-.066.581-.09A14.7,14.7,0,0,1,22.142,7.7c.483,0,.961.026,1.432.073.175.017.344.052.517.076.292.04.586.076.873.134.212.043.417.1.625.153.239.059.48.114.714.184s.448.155.672.235c.2.073.412.142.613.225.233.1.459.207.687.315.18.086.361.167.536.259.232.122.455.257.679.391.161.1.324.189.48.292.222.145.437.3.651.459.147.108.3.214.437.327.211.167.412.344.614.523.132.118.266.235.393.358.2.187.385.383.569.581.12.128.239.257.354.39.178.205.349.417.514.632.109.139.214.28.317.424.158.219.308.445.454.673.1.153.19.306.281.462.134.231.263.466.385.7.085.166.164.334.243.5.111.241.217.484.316.731.07.178.134.359.2.54.087.249.171.5.244.753.055.19.1.383.148.575.062.255.123.511.171.771.037.2.065.406.093.609.037.26.073.52.1.784,0,.032,0,.066.005.1H34.525a1.063,1.063,0,0,0-.843,1.71l4.942,6.44a1.012,1.012,0,0,0,1.689,0l4.942-6.44a1.063,1.063,0,0,0-.843-1.71" transform="translate(-1.522 -1.504)" fill="#64a535"/><path d="M30.648,19.333a1.734,1.734,0,0,1,1.226,2.961l-8.654,8.654a1.732,1.732,0,0,1-2.452,0l-4.905-4.905a1.734,1.734,0,0,1,2.453-2.452l3.679,3.679,7.428-7.428a1.727,1.727,0,0,1,1.226-.508m0-1.987a3.7,3.7,0,0,0-2.632,1.091l-6.022,6.022L19.72,22.185a3.722,3.722,0,1,0-5.263,5.263l4.9,4.9a3.721,3.721,0,0,0,5.264,0L33.28,23.7a3.722,3.722,0,0,0-2.632-6.353" transform="translate(-3.557 -4.616)" fill="#64a535"/><path d="M48.141,45.572a1,1,0,0,1-.213-.022.974.974,0,0,1-.205-.066.928.928,0,0,1-.191-.1,1.549,1.549,0,0,1-.169-.139,1.638,1.638,0,0,1-.139-.169,1.577,1.577,0,0,1-.1-.191,1.679,1.679,0,0,1-.059-.205,1.048,1.048,0,0,1-.022-.213,1.12,1.12,0,0,1,.022-.22c.015-.066.037-.139.059-.205a1.477,1.477,0,0,1,.1-.183,1.109,1.109,0,0,1,.139-.169,1.55,1.55,0,0,1,.169-.139,1.577,1.577,0,0,1,.191-.1,1.716,1.716,0,0,1,.205-.059,1.04,1.04,0,0,1,.426,0,1.641,1.641,0,0,1,.205.059,1.577,1.577,0,0,1,.191.1,1.127,1.127,0,0,1,.308.308,1.481,1.481,0,0,1,.1.183c.021.066.043.139.058.205a1.12,1.12,0,0,1,.022.22,1.048,1.048,0,0,1-.022.213,1.821,1.821,0,0,1-.058.205,1.581,1.581,0,0,1-.1.191,1.632,1.632,0,0,1-.139.169,1.108,1.108,0,0,1-.17.139.928.928,0,0,1-.191.1.947.947,0,0,1-.205.066.991.991,0,0,1-.213.022" transform="translate(-12.518 -11.541)" fill="#64a535"/><path d="M20.351,41.3h0a1.1,1.1,0,1,1,.007,0Zm3.273-1.321a1.1,1.1,0,1,1,1.314.844,1.347,1.347,0,0,1-.236.022,1.11,1.11,0,0,1-1.078-.866m-7.853.771h0a1.113,1.113,0,0,1-.815-1.328,1.1,1.1,0,1,1,1.071,1.358,1.54,1.54,0,0,1-.256-.029m12.065-1.952a1.092,1.092,0,1,1,.991.631,1.1,1.1,0,0,1-.991-.631m-16.4.374a1.1,1.1,0,1,1,.492.117,1.079,1.079,0,0,1-.492-.117m20.234-2.473a1.113,1.113,0,1,1,.865.411,1.1,1.1,0,0,1-.865-.411m-24.1-.029a1.1,1.1,0,1,1,.7.25,1.123,1.123,0,0,1-.7-.25m-3.214-3.3a1.1,1.1,0,1,1,1.739-1.35L6.084,32a1.1,1.1,0,0,1-.865,1.776,1.075,1.075,0,0,1-.866-.418M1.946,29.429a1.1,1.1,0,1,1,1.46.528,1.038,1.038,0,0,1-.463.1,1.1,1.1,0,0,1-1-.631M.47,25.062a1.1,1.1,0,1,1,1.314.844,1.339,1.339,0,0,1-.235.022A1.11,1.11,0,0,1,.47,25.062m.624-3.479a1.1,1.1,0,1,1,.007,0Zm.278-4.359a1.1,1.1,0,1,1,.25.029.934.934,0,0,1-.25-.029m1.226-4.2a1.087,1.087,0,1,1,.485.117,1.05,1.05,0,0,1-.485-.117M4.734,9.21a1.1,1.1,0,1,1,1.549-.161V9.042a1.1,1.1,0,0,1-.859.411,1.071,1.071,0,0,1-.69-.242M32.086,6.348h0a1.1,1.1,0,1,1,1.549-.154,1.085,1.085,0,0,1-.851.4,1.1,1.1,0,0,1-.7-.25M7.655,5.967A1.1,1.1,0,1,1,9.2,6.143a1.084,1.084,0,0,1-.682.235,1.111,1.111,0,0,1-.866-.411M28.629,4.11h0a1.1,1.1,0,1,1,1.483-.5,1.117,1.117,0,0,1-.991.616,1.209,1.209,0,0,1-.492-.117m-17.4-.661a1.1,1.1,0,1,1,.991.624,1.108,1.108,0,0,1-.991-.624M24.769,2.7a1.1,1.1,0,0,1-.822-1.328A1.113,1.113,0,0,1,25.276.558a1.1,1.1,0,0,1-.258,2.172.974.974,0,0,1-.25-.029m-9.5-.91a1.1,1.1,0,1,1,1.314.837.9.9,0,0,1-.235.029,1.1,1.1,0,0,1-1.079-.866m5.409.411a1.1,1.1,0,1,1,.007,0Z" transform="translate(0 0)" fill="#64a535"/><path d="M48.471,12.523a1,1,0,0,1-.213-.022.667.667,0,0,1-.205-.059,1.576,1.576,0,0,1-.191-.1,1,1,0,0,1-.169-.139,1.042,1.042,0,0,1-.139-.161,1.576,1.576,0,0,1-.1-.191c-.022-.066-.044-.139-.059-.205a1.1,1.1,0,0,1-.022-.213,1.117,1.117,0,0,1,.323-.785,1.139,1.139,0,0,1,.991-.3,1.184,1.184,0,0,1,.4.169.988.988,0,0,1,.17.132,1.119,1.119,0,0,1,.322.785,1.035,1.035,0,0,1-.088.418.928.928,0,0,1-.1.191,1.253,1.253,0,0,1-.308.3,1.577,1.577,0,0,1-.191.1.661.661,0,0,1-.205.059,1,1,0,0,1-.213.022" transform="translate(-12.606 -2.748)" fill="#64a535"/></g></g></g></svg>