<svg xmlns="http://www.w3.org/2000/svg" width="67" height="67" viewBox="0 0 67 67">
  <g id="Group_1464" data-name="Group 1464" transform="translate(-511.349 -1208.349)">
    <circle id="Ellipse_249" data-name="Ellipse 249" cx="33.5" cy="33.5" r="33.5" transform="translate(511.349 1208.349)" fill="#cbdd61"/>
    <g id="Group_1466" data-name="Group 1466" transform="translate(519.792 1221.736)">
      <g id="Group_1465" data-name="Group 1465" transform="translate(21.261 0)">
        <path id="Path_2054" data-name="Path 2054" d="M745.6,387.97a9.112,9.112,0,1,1,9.112-9.112A9.114,9.114,0,0,1,745.6,387.97Zm0-15.187a6.075,6.075,0,1,0,6.075,6.075A6.075,6.075,0,0,0,745.6,372.783Z" transform="translate(-731.406 -369.746)" fill="#64a535"/>
        <path id="Path_2055" data-name="Path 2055" d="M760.232,395.766h-25.8a1.419,1.419,0,0,1-1.291-1.519v-4.389c0-5.033,3.466-9.112,7.741-9.112h12.9c4.275,0,7.741,4.079,7.741,9.112v4.389A1.418,1.418,0,0,1,760.232,395.766Zm-24.511-3.037h23.221v-2.87c0-3.355-2.31-6.075-5.16-6.075h-12.9c-2.851,0-5.16,2.72-5.16,6.075Z" transform="translate(-733.14 -364.041)" fill="#64a535"/>
      </g>
      <path id="Path_2056" data-name="Path 2056" d="M731.6,390.97a9.112,9.112,0,1,1,9.112-9.112A9.114,9.114,0,0,1,731.6,390.97Zm0-15.187a6.075,6.075,0,1,0,6.075,6.075A6.075,6.075,0,0,0,731.6,375.783Z" transform="translate(-717.406 -368.19)" fill="#64a535"/>
      <rect id="Rectangle_1191" data-name="Rectangle 1191" width="25.817" height="12.149" transform="translate(1.306 23.166)" fill="#cbdd61"/>
      <path id="Path_2057" data-name="Path 2057" d="M746.232,398.766h-25.8a1.419,1.419,0,0,1-1.291-1.519v-4.389c0-5.033,3.466-9.112,7.741-9.112h12.9c4.275,0,7.741,4.079,7.741,9.112v4.389A1.418,1.418,0,0,1,746.232,398.766Zm-24.511-3.037h23.221v-2.87c0-3.355-2.31-6.075-5.16-6.075h-12.9c-2.85,0-5.16,2.72-5.16,6.075Z" transform="translate(-719.14 -362.485)" fill="#64a535"/>
    </g>
  </g>
</svg>
