<svg xmlns="http://www.w3.org/2000/svg" width="54" height="54" viewBox="0 0 54 54"><g transform="translate(-454 -833)"><circle cx="27" cy="27" r="27" transform="translate(454 833)" fill="#fff5e4"/><g transform="translate(461.204 843.667)"><path d="M21.655,25.672H4.474V23.216H20.61V20.9c0-2.712-1.874-4.918-4.176-4.918H6a3.716,3.716,0,0,0-2.244.77,4.764,4.764,0,0,0-1.517,2H0A7.556,7.556,0,0,1,2.231,15,5.623,5.623,0,0,1,6,13.519H7.146a7.373,7.373,0,1,1,8.152,0h1.147c3.454,0,6.264,3.309,6.264,7.376v3.551A1.147,1.147,0,0,1,21.655,25.672ZM11.215,2.458A4.916,4.916,0,1,0,16.13,7.374a4.917,4.917,0,0,0-4.916-4.916Z" transform="translate(17.478 -0.001)" fill="#29353a" stroke="rgba(0,0,0,0)" stroke-miterlimit="10" stroke-width="1"/><path d="M729.857,387.494a7.373,7.373,0,1,1,7.373-7.378A7.373,7.373,0,0,1,729.857,387.494Zm0-12.29a4.916,4.916,0,1,0,4.916,4.916,4.916,4.916,0,0,0-4.916-4.916Z" transform="translate(-718.372 -369.059)" fill="#29353a"/><path d="M741.063,395.9H720.184a1.147,1.147,0,0,1-1.044-1.229v-3.555c0-4.073,2.8-7.373,6.264-7.373h10.439c3.46,0,6.264,3.3,6.264,7.373v3.552a1.147,1.147,0,0,1-1.043,1.232Zm-19.835-2.458h18.791v-2.326c0-2.715-1.869-4.916-4.176-4.916H725.4c-2.307,0-4.176,2.2-4.176,4.916Z" transform="translate(-719.136 -366.54)" fill="#29353a"/></g></g></svg>