<?xml version="1.0" encoding="UTF-8" standalone="no"?>
<!-- Created with Keyshape -->
<svg xmlns="http://www.w3.org/2000/svg" id="Layer_1" viewBox="0 0 375 225" style="white-space: preserve-spaces;">
    <defs>
        <mask id="Mask-1">
            <rect id="_a0" width="1540.2" height="347.462" fill="#ffffff" stroke="none" transform="translate(-1229.48,407.25) translate(0,0) translate(-112.115,-82.75)"/>
        </mask>
    </defs>
    <path id="frame" class="st0" d="M1432.69,810.544L57.0714,810.544C35.506,810.544,18,789.204,18,762.914L18,100.648C18,74.3602,35.506,53.0201,57.0714,53.0201L1432.69,53.0201C1454.26,53.0201,1471.76,74.3602,1471.76,100.648L1471.76,762.914C1471.76,789.204,1454.26,810.544,1432.69,810.544Z" stroke-width="0" stroke="none" stroke-miterlimit="1" fill="#F4F9ED" transform="translate(235.6,141) scale(0.271786,0.315732) translate(-914.5,-439.7)"/>
    <g id="lines" transform="translate(191.288,153.851) scale(0.231612,0.231612) translate(-916.033,-484.552)">
        <rect class="st1" width="0.7" height="449.4" fill="#4C4C4C" transform="translate(687.93,969.152) rotate(-180) translate(343.6,259.9)"/>
        <rect class="st1" width="0.7" height="449.4" fill="#4C4C4C" transform="translate(401.904,969.152) rotate(-180) translate(200.6,259.9)"/>
        <rect class="st1" width="0.7" height="449.4" fill="#4C4C4C" transform="translate(973.956,969.152) rotate(-180) translate(486.6,259.9)"/>
        <rect class="st1" width="0.7" height="449.4" fill="#4C4C4C" transform="translate(1259.98,969.152) rotate(-180) translate(629.6,259.9)"/>
        <rect class="st1" width="0.7" height="449.4" fill="#4C4C4C" transform="translate(1546.01,969.152) rotate(-180) translate(772.6,259.9)"/>
        <rect class="st1" width="0.7" height="449.4" fill="#4C4C4C" transform="translate(1832.03,969.152) rotate(-180) translate(915.6,259.9)"/>
        <rect class="st1" width="0.7" height="449.4" fill="#4C4C4C" transform="translate(2118.06,969.152) rotate(-180) translate(1058.7,259.9)"/>
        <rect class="st1" width="0.7" height="449.4" fill="#4C4C4C" transform="translate(2404.08,969.152) rotate(-180) translate(1201.7,259.9)"/>
        <rect class="st1" width="0.7" height="449.4" fill="#4C4C4C" transform="translate(2690.11,969.152) rotate(-180) translate(1344.7,259.9)"/>
        <rect class="st1" width="0.7" height="449.4" fill="#4C4C4C" transform="translate(2976.14,969.152) rotate(-180) translate(1487.7,259.9)"/>
        <rect class="st1" width="0.7" height="449.4" fill="#4C4C4C" transform="translate(3262.16,969.152) rotate(-180) translate(1630.7,259.9)"/>
    </g>
    <g id="meal_x5F_labels" transform="translate(184.4,214.661) scale(0.218979,0.218979) translate(-912.2,-734.15)">
        <g transform="translate(201.542,734.15) scale(1.2,1.2) translate(-204.4,-734.15)">
            <path d="M107.2,719.6L116.2,719.6C122,719.6,125.9,722.2,125.9,727.6L125.9,728C125.9,731.1,124.5,733.2,122.2,734.2C124.7,735.3,126.2,737.3,126.2,740.5L126.2,740.9C126.2,746.3,122.3,748.9,116.5,748.9L107.3,748.9L107.3,719.6ZM116.4,732C118.3,732,120.1,731.4,120.1,728.7L120.1,728.2C120.1,725.7,118,725.1,115.9,725.1L112.9,725.1L112.9,732L116.4,732ZM116.2,743.4C118.4,743.4,120.4,742.9,120.4,740L120.4,739.5C120.4,737,118.4,736.4,116.4,736.4L112.9,736.4L112.9,743.4L116.2,743.4Z" transform="translate(116.7,734.25) translate(-116.7,-734.25)"/>
            <path d="M130.6,719.6L139.9,719.6C145.7,719.6,149.7,723.4,149.7,730.2L149.7,731C149.7,735.5,147.8,738.5,144.6,740L149.5,748.9L143.2,748.9L139.3,741.4L136.3,741.4L136.3,748.9L130.6,748.9L130.6,719.6ZM139.2,735.9C141.7,735.9,144,734.8,144,731L144,730.2C144,726.2,141.8,725.2,139.2,725.2L136.3,725.2L136.3,736L139.2,736Z" transform="translate(140.15,734.25) translate(-140.15,-734.25)"/>
            <path d="M154.2,719.6L170.6,719.6L170.6,725.1L159.9,725.1L159.9,731.7L167.8,731.7L167.8,736.7L159.9,736.7L159.9,743.3L170.6,743.3L170.6,748.8L154.2,748.8L154.2,719.6Z" transform="translate(162.4,734.2) translate(-162.4,-734.2)"/>
            <path d="M181.1,719.6L187.4,719.6L195.9,748.8L190,748.8L188.5,743L180,743L178.4,748.8L172.6,748.8L181.1,719.6ZM187.2,738.1L184.2,726.7L181.1,738.1L187.2,738.1Z" transform="translate(184.25,734.2) translate(-184.25,-734.2)"/>
            <path d="M198.6,719.6L204.3,719.6L204.3,731.6L206.5,731.6L212.2,719.6L218.6,719.6L211.3,734.1L218.6,748.8L212.2,748.8L206.5,736.7L204.3,736.7L204.3,748.8L198.6,748.8L198.6,719.6Z" transform="translate(208.6,734.2) translate(-208.6,-734.2)"/>
            <path d="M222.6,719.6L238.3,719.6L238.3,725.1L228.3,725.1L228.3,731.7L235.6,731.7L235.6,736.7L228.3,736.7L228.3,748.7L222.6,748.7L222.6,719.6Z" transform="translate(230.45,734.15) translate(-230.45,-734.15)"/>
            <path d="M245.6,719.6L251.9,719.6L260.4,748.8L254.6,748.8L253.1,743L244.6,743L243,748.8L237,748.8L245.6,719.6ZM251.7,738.1L248.7,726.7L245.6,738.1L251.7,738.1Z" transform="translate(248.7,734.2) translate(-248.7,-734.2)"/>
            <path d="M261.6,739.2L267.3,739.2C267.3,742.6,269,744,271.6,744C274,744,275.8,742.9,275.8,740.5C275.8,738.1,273.1,737.3,270.1,736.3C266.3,735,262,733.4,262,727.6C262,722.3,265.8,719,271.6,719C277.2,719,281.1,722.8,281.1,728.8L275.5,728.8C275.5,725.7,274,724.2,271.5,724.2C269.1,724.2,267.7,725.4,267.7,727.6C267.7,730.1,270.2,730.9,273.1,731.8C277,733,281.5,734.4,281.5,740.4C281.5,746,277.5,749.3,271.6,749.3C265.7,749.3,261.6,745.5,261.6,739.2Z" transform="translate(271.55,734.15) translate(-271.55,-734.15)"/>
            <path d="M289.8,725.1L283.7,725.1L283.7,719.6L301.6,719.6L301.6,725.1L295.5,725.1L295.5,748.8L289.8,748.8L289.8,725.1Z" transform="translate(292.65,734.2) translate(-292.65,-734.2)"/>
        </g>
        <g transform="translate(493.557,734.35) scale(1.2,1.2) translate(-487.6,-734.35)">
            <path d="M407.1,719.9L413.3,719.9L421.7,748.9L415.9,748.9L414.4,743.2L406,743.2L404.4,748.9L398.6,748.9L407.1,719.9ZM413.2,738.2L410.2,726.9L407.1,738.2L413.2,738.2Z" transform="translate(410.15,734.4) translate(-410.15,-734.4)"/>
            <path d="M424.5,719.9L430.1,719.9L436.6,736.8L443.1,719.9L448.7,719.9L448.7,748.9L443,748.9L443,732.2L438.5,743.5L434.6,743.5L430.1,732.3L430.1,748.9L424.4,748.9L424.4,719.9Z" transform="translate(436.55,734.4) translate(-436.55,-734.4)"/>
            <path d="M461.8,739.3L467.5,739.3C467.5,742.7,469.2,744.1,471.7,744.1C474.1,744.1,475.9,743,475.9,740.6C475.9,738.2,473.3,737.4,470.3,736.4C466.5,735.1,462.2,733.6,462.2,727.8C462.2,722.5,466,719.3,471.7,719.3C477.3,719.3,481.2,723,481.2,729L475.6,729C475.6,725.9,474.1,724.5,471.7,724.5C469.3,724.5,467.9,725.7,467.9,727.8C467.9,730.3,470.4,731,473.2,732C477,733.2,481.5,734.6,481.5,740.6C481.5,746.1,477.6,749.4,471.7,749.4C465.8,749.3,461.8,745.5,461.8,739.3Z" transform="translate(471.65,734.35) translate(-471.65,-734.35)"/>
            <path d="M485.6,719.9L490.9,719.9L499.4,736.8L499.4,719.9L505.1,719.9L505.1,748.9L499.8,748.9L491.2,732.1L491.2,748.9L485.5,748.9L485.5,719.9Z" transform="translate(495.3,734.4) translate(-495.3,-734.4)"/>
            <path d="M516.5,719.9L522.7,719.9L531.1,748.9L525.3,748.9L523.8,743.2L515.4,743.2L513.8,748.9L508,748.9L516.5,719.9ZM522.6,738.2L519.6,726.9L516.5,738.2L522.6,738.2Z" transform="translate(519.55,734.4) translate(-519.55,-734.4)"/>
            <path d="M533,739.3L533,729.4C533,723.5,537,719.4,542.7,719.4C549.1,719.4,552.4,723.6,552.4,730.3L552.4,730.4L546.7,730.4L546.7,730C546.7,725.7,544.6,724.9,542.6,724.9C540.6,724.9,538.6,726,538.6,729.3L538.6,739.6C538.6,743,540.7,744,542.6,744C545.2,744,546.7,742.7,546.7,738.5L546.7,738L552.4,738L552.4,738.2C552.4,745.5,549.2,749.3,542.7,749.3C537,749.3,533,745.2,533,739.3Z" transform="translate(542.7,734.35) translate(-542.7,-734.35)"/>
            <path d="M556.6,719.9L562.3,719.9L562.3,731.8L564.5,731.8L570.2,719.9L576.6,719.9L569.4,734.3L576.6,748.9L570.2,748.9L564.5,736.9L562.3,736.9L562.3,748.9L556.6,748.9L556.6,719.9Z" transform="translate(566.6,734.4) translate(-566.6,-734.4)"/>
        </g>
        <g transform="translate(785.572,734.25) scale(1.2,1.2) translate(-773.5,-734.25)">
            <path d="M718.5,719.7L724.2,719.7L724.2,743.4L733.9,743.4L733.9,748.9L718.5,748.9L718.5,719.7Z" transform="translate(726.2,734.3) translate(-726.2,-734.3)"/>
            <path d="M736.8,739.2L736.8,719.7L742.5,719.7L742.5,739.4C742.5,742.6,744.3,743.8,746.6,743.8C748.7,743.8,750.7,742.6,750.7,739.4L750.7,719.7L756.4,719.7L756.4,739.2C756.4,745.4,752.3,749.3,746.6,749.3C740.9,749.3,736.8,745.5,736.8,739.2Z" transform="translate(746.6,734.5) translate(-746.6,-734.5)"/>
            <path d="M761.4,719.7L766.8,719.7L775.4,736.7L775.4,719.7L781.2,719.7L781.2,748.9L775.8,748.9L767.2,732L767.2,748.9L761.5,748.9L761.5,719.7Z" transform="translate(771.3,734.3) translate(-771.3,-734.3)"/>
            <path d="M785.7,739.2L785.7,729.2C785.7,723.3,789.7,719.1,795.5,719.1C802,719.1,805.3,723.3,805.3,730.1L805.3,730.2L799.6,730.2L799.6,729.8C799.6,725.5,797.5,724.6,795.5,724.6C793.5,724.6,791.4,725.7,791.4,729L791.4,739.3C791.4,742.7,793.5,743.8,795.5,743.8C798.1,743.8,799.6,742.5,799.6,738.3L799.6,738L805.3,738L805.3,738.2C805.3,745.5,802.1,749.4,795.5,749.4C789.7,749.3,785.7,745.2,785.7,739.2Z" transform="translate(795.5,734.25) translate(-795.5,-734.25)"/>
            <path d="M809.4,719.7L815.1,719.7L815.1,731.8L822.8,731.8L822.8,719.7L828.5,719.7L828.5,748.9L822.8,748.9L822.8,736.8L815.1,736.8L815.1,748.9L809.4,748.9L809.4,719.7Z" transform="translate(818.95,734.3) translate(-818.95,-734.3)"/>
        </g>
        <g transform="translate(1077.59,734.3) scale(1.2,1.2) translate(-1059.8,-734.3)">
            <path d="M971.7,719.7L980.8,719.7C986.5,719.7,990.7,723.5,990.7,730.3L990.7,731.5C990.7,738.4,986.6,741.9,980.8,741.9L977.4,741.9L977.4,748.8L971.7,748.8L971.7,719.7ZM980.3,736.5C982.8,736.5,985.1,735.3,985.1,731.4L985.1,730.3C985.1,726,982.7,725.1,980.3,725.1L977.5,725.1L977.5,736.4L980.3,736.4Z" transform="translate(981.2,734.25) translate(-981.2,-734.25)"/>
            <path d="M995.2,719.7L1000.9,719.7L1007.4,736.7L1013.9,719.7L1019.6,719.7L1019.6,748.8L1013.9,748.8L1013.9,732L1009.4,743.3L1005.5,743.3L1001,732L1001,748.7L995.3,748.7L995.3,719.7Z" transform="translate(1007.4,734.25) translate(-1007.4,-734.25)"/>
            <path d="M1032.6,739.3L1038.3,739.3C1038.3,742.7,1040,744.1,1042.6,744.1C1045,744.1,1046.8,743,1046.8,740.6C1046.8,738.2,1044.2,737.4,1041.1,736.4C1037.3,735.1,1033,733.6,1033,727.8C1033,722.5,1036.8,719.3,1042.6,719.3C1048.2,719.3,1052.1,723.1,1052.1,729L1046.5,729C1046.5,725.9,1045,724.5,1042.5,724.5C1040.1,724.5,1038.7,725.7,1038.7,727.8C1038.7,730.3,1041.2,731.1,1044.1,732C1047.9,733.2,1052.5,734.6,1052.5,740.6C1052.5,746.1,1048.5,749.4,1042.6,749.4C1036.7,749.4,1032.6,745.5,1032.6,739.3Z" transform="translate(1042.55,734.35) translate(-1042.55,-734.35)"/>
            <path d="M1056.5,719.7L1061.9,719.7L1070.4,736.6L1070.4,719.7L1076.1,719.7L1076.1,748.8L1070.7,748.8L1062.1,732L1062.1,748.8L1056.4,748.8L1056.4,719.7Z" transform="translate(1066.25,734.25) translate(-1066.25,-734.25)"/>
            <path d="M1087.6,719.7L1093.8,719.7L1102.2,748.8L1096.4,748.8L1094.9,743.1L1086.4,743.1L1084.8,748.8L1079,748.8L1087.6,719.7ZM1093.7,738.2L1090.7,726.8L1087.6,738.2L1093.7,738.2Z" transform="translate(1090.6,734.25) translate(-1090.6,-734.25)"/>
            <path d="M1104.2,739.2L1104.2,729.2C1104.2,723.3,1108.2,719.2,1114,719.2C1120.4,719.2,1123.8,723.4,1123.8,730.1L1123.8,730.2L1118.1,730.2L1118.1,729.8C1118.1,725.5,1116,724.6,1114,724.6C1112,724.6,1110,725.7,1110,729L1110,739.3C1110,742.7,1112.1,743.8,1114,743.8C1116.6,743.8,1118.1,742.5,1118.1,738.3L1118.1,737.9L1123.8,737.9L1123.8,738.1C1123.8,745.4,1120.6,749.3,1114,749.3C1108.2,749.3,1104.2,745.2,1104.2,739.2Z" transform="translate(1114,734.25) translate(-1114,-734.25)"/>
            <path d="M1127.9,719.7L1133.6,719.7L1133.6,731.7L1135.8,731.7L1141.5,719.7L1147.9,719.7L1140.7,734.1L1147.9,748.8L1141.5,748.8L1135.8,736.7L1133.6,736.7L1133.6,748.8L1127.9,748.8L1127.9,719.7Z" transform="translate(1137.9,734.25) translate(-1137.9,-734.25)"/>
        </g>
        <g transform="translate(1369.6,734.8) scale(1.2,1.2) translate(-1343.95,-734.8)">
            <path d="M1281.1,720.2L1290.7,720.2C1296.5,720.2,1300.5,723.8,1300.5,730.9L1300.5,738.6C1300.5,745.6,1296.5,749.4,1290.7,749.4L1281.1,749.4L1281.1,720.2ZM1290,743.9C1292.7,743.9,1294.8,742.8,1294.8,737.1L1294.8,731.4C1294.8,728.3,1294,725.6,1290,725.6L1286.8,725.6L1286.8,743.9L1290,743.9Z" transform="translate(1290.8,734.8) translate(-1290.8,-734.8)"/>
            <path d="M1305.5,720.2L1311.2,720.2L1311.2,749.3L1305.5,749.3L1305.5,720.2Z" transform="translate(1308.35,734.75) translate(-1308.35,-734.75)"/>
            <path d="M1316.8,720.2L1322.2,720.2L1330.8,737.1L1330.8,720.2L1336.5,720.2L1336.5,749.3L1331.1,749.3L1322.5,732.4L1322.5,749.3L1316.8,749.3L1316.8,720.2Z" transform="translate(1326.65,734.75) translate(-1326.65,-734.75)"/>
            <path d="M1341.9,720.2L1347.3,720.2L1355.9,737.1L1355.9,720.2L1361.6,720.2L1361.6,749.3L1356.2,749.3L1347.6,732.4L1347.6,749.3L1341.9,749.3L1341.9,720.2Z" transform="translate(1351.75,734.75) translate(-1351.75,-734.75)"/>
            <path d="M1367,720.2L1383.4,720.2L1383.4,725.7L1372.7,725.7L1372.7,732.3L1380.6,732.3L1380.6,737.3L1372.7,737.3L1372.7,743.9L1383.4,743.9L1383.4,749.4L1367,749.4L1367,720.2Z" transform="translate(1375.2,734.8) translate(-1375.2,-734.8)"/>
            <path d="M1387.8,720.2L1397.1,720.2C1402.9,720.2,1406.8,724,1406.8,730.7L1406.8,731.5C1406.8,736,1404.9,739,1401.7,740.4L1406.6,749.2L1400.4,749.2L1396.5,741.7L1393.5,741.7L1393.5,749.2L1387.8,749.2L1387.8,720.2ZM1396.3,736.4C1398.8,736.4,1401.1,735.3,1401.1,731.5L1401.1,730.7C1401.1,726.7,1398.9,725.7,1396.3,725.7L1393.4,725.7L1393.4,736.4L1396.3,736.4Z" transform="translate(1397.3,734.7) translate(-1397.3,-734.7)"/>
        </g>
        <g transform="translate(1661.62,734.15) scale(1.2,1.2) translate(-1629.65,-734.15)">
            <path d="M1542.1,719.5L1551.2,719.5C1556.9,719.5,1561,723.3,1561,730.2L1561,731.4C1561,738.3,1556.9,741.9,1551.2,741.9L1547.8,741.9L1547.8,748.9L1542.1,748.9L1542.1,719.5ZM1550.6,736.4C1553.1,736.4,1555.4,735.2,1555.4,731.3L1555.4,730.2C1555.4,725.9,1553,725,1550.6,725L1547.8,725L1547.8,736.4L1550.6,736.4Z" transform="translate(1551.55,734.2) translate(-1551.55,-734.2)"/>
            <path d="M1565.5,719.5L1571.1,719.5L1577.6,736.6L1584,719.5L1589.6,719.5L1589.6,748.9L1583.9,748.9L1583.9,731.9L1579.4,743.4L1575.5,743.4L1571,732L1571,748.9L1565.3,748.9L1565.3,719.5Z" transform="translate(1577.45,734.2) translate(-1577.45,-734.2)"/>
            <path d="M1602.6,739.2L1608.3,739.2C1608.3,742.6,1610,744,1612.5,744C1614.9,744,1616.6,742.9,1616.6,740.5C1616.6,738,1614,737.3,1611,736.3C1607.2,735,1603,733.4,1603,727.6C1603,722.2,1606.8,719,1612.5,719C1618.1,719,1621.9,722.8,1621.9,728.8L1616.3,728.8C1616.3,725.7,1614.8,724.2,1612.4,724.2C1610,724.2,1608.6,725.4,1608.6,727.6C1608.6,730.1,1611.1,730.9,1613.9,731.8C1617.7,733,1622.2,734.4,1622.2,740.5C1622.2,746.1,1618.3,749.4,1612.4,749.4C1606.6,749.3,1602.6,745.5,1602.6,739.2Z" transform="translate(1612.4,734.2) translate(-1612.4,-734.2)"/>
            <path d="M1626.4,719.5L1631.7,719.5L1640.2,736.6L1640.2,719.5L1645.9,719.5L1645.9,748.9L1640.6,748.9L1632.1,731.9L1632.1,748.9L1626.4,748.9L1626.4,719.5Z" transform="translate(1636.15,734.2) translate(-1636.15,-734.2)"/>
            <path d="M1657.2,719.5L1663.4,719.5L1671.8,748.9L1666,748.9L1664.5,743.1L1656.1,743.1L1654.5,748.9L1648.8,748.9L1657.2,719.5ZM1663.3,738.1L1660.3,726.6L1657.2,738.1L1663.3,738.1Z" transform="translate(1660.3,734.2) translate(-1660.3,-734.2)"/>
            <path d="M1673.7,739.1L1673.7,729C1673.7,723,1677.7,718.9,1683.4,718.9C1689.8,718.9,1693.1,723.1,1693.1,729.9L1693.1,730L1687.4,730L1687.4,729.6C1687.4,725.3,1685.3,724.4,1683.3,724.4C1681.3,724.4,1679.3,725.5,1679.3,728.9L1679.3,739.3C1679.3,742.8,1681.3,743.8,1683.3,743.8C1685.9,743.8,1687.4,742.5,1687.4,738.2L1687.4,737.8L1693.1,737.8L1693.1,738C1693.1,745.4,1689.9,749.3,1683.4,749.3C1677.7,749.3,1673.7,745.1,1673.7,739.1Z" transform="translate(1683.4,734.1) translate(-1683.4,-734.1)"/>
            <path d="M1697.2,719.5L1702.9,719.5L1702.9,731.6L1705.1,731.6L1710.8,719.5L1717.2,719.5L1710,734.1L1717.2,748.9L1710.8,748.9L1705.1,736.7L1702.9,736.7L1702.9,748.9L1697.2,748.9L1697.2,719.5Z" transform="translate(1707.2,734.2) translate(-1707.2,-734.2)"/>
        </g>
    </g>
    <g id="Graph" transform="translate(189.742,155.392) scale(0.231612,0.231612) translate(-725.16,-139.048)">
        <path id="high_x5F_carb_x5F_path" class="st2" d="M199.3,490C238.4,415.7,292.7,332,341.6,339.7C424.1,352.7,432.8,616.5,487,617.3C542.7,618.1,571.4,339.8,629.6,339.7C687.8,339.6,715,617.3,773.4,617.3C831.7,617.2,858.3,339.7,916.4,339.7C974.5,339.7,1001.4,617.3,1059.4,617.3C1117.4,617.3,1143.9,339.8,1202,339.7C1260.2,339.6,1287.3,617.4,1345.4,617.3C1402.9,617.2,1420.3,345.1,1487.7,339.7C1529.5,336.3,1578,436.5,1631.5,617.3" stroke-width="7" stroke="#FF7C83" stroke-miterlimit="10" fill="none" mask="url(#Mask-1)" transform="translate(731.2,139.048) translate(-915.4,-478.254)"/>
        <ellipse id="_a1" class="st3" rx="15.1" ry="15.1" stroke-width="7" stroke="#FF5F62" stroke-miterlimit="10" fill="#FF9CA1" opacity="0" transform="translate(157.4,20.3943) translate(0,0) scale(0.2,0.2) translate(0,0)"/>
        <ellipse id="_a2" class="st3" rx="15.1" ry="15.1" stroke-width="7" stroke="#FF5F62" stroke-miterlimit="10" fill="#FF9CA1" opacity="0" transform="translate(445.4,35.5953) translate(0,0) scale(0.2,0.2) translate(0,0)"/>
        <ellipse id="_a3" class="st3" rx="15.1" ry="15.1" stroke-width="7" stroke="#FF5F62" stroke-miterlimit="10" fill="#FF9CA1" opacity="0" transform="translate(732.233,58.1113) translate(0,0) scale(0.2,0.2) translate(0,0)"/>
        <ellipse id="_a4" class="st3" rx="15.1" ry="15.1" stroke-width="7" stroke="#FF5F62" stroke-miterlimit="10" fill="#FF9CA1" opacity="0" transform="translate(1017.8,77.6203) translate(0,0) scale(0.2,0.2) translate(0,0)"/>
        <ellipse id="_a5" class="st3" rx="15.1" ry="15.1" stroke-width="7" stroke="#FF5F62" stroke-miterlimit="10" fill="#FF9CA1" opacity="0" transform="translate(1303.5,98.3343) translate(0,0) scale(0.2,0.2) translate(0,0)"/>
        <ellipse id="_a6" class="st3" rx="15.1" ry="15.1" stroke-width="7" stroke="#FF5F62" stroke-miterlimit="10" fill="#FF9CA1" opacity="0" transform="translate(302.8,255.288) translate(0,0) scale(0.2,0.2) translate(0,0)"/>
        <ellipse id="_a7" class="st3" rx="15.1" ry="15.1" stroke-width="7" stroke="#FF5F62" stroke-miterlimit="10" fill="#FF9CA1" opacity="0" transform="translate(589.2,241.533) translate(0,0) scale(0.2,0.2) translate(0,0)"/>
        <ellipse id="_a8" class="st3" rx="15.1" ry="15.1" stroke-width="7" stroke="#FF5F62" stroke-miterlimit="10" fill="#FF9CA1" opacity="0" transform="translate(875.2,220.449) translate(0,0) scale(0.2,0.2) translate(0,0)"/>
        <ellipse id="_a9" class="st3" rx="15.1" ry="15.1" stroke-width="7" stroke="#FF5F62" stroke-miterlimit="10" fill="#FF9CA1" opacity="0" transform="translate(1161.2,201.383) translate(0,0) scale(0.2,0.2) translate(0,0)"/>
        <ellipse id="_a10" class="st3" rx="15.1" ry="15.1" stroke-width="7" stroke="#FF5F62" stroke-miterlimit="10" fill="#FF9CA1" opacity="0" transform="translate(1447.3,181.414) scale(0.2,0.2)"/>
        <ellipse id="_a11" class="st5" rx="15.1" ry="15.1" fill="#FF9CA1" stroke="#FF5F62" stroke-miterlimit="10" stroke-width="7" transform="translate(15.1,150.794)"/>
    </g>
    <g id="high_x5F_carb_x5F_label" transform="translate(186.376,54.9575) scale(0.315077,0.315077) translate(-504.75,-188.45)">
        <g transform="translate(587.4,188.45) translate(-587.4,-188.45)">
            <path d="M269,175.3L274.2,175.3L274.2,186.3L281.2,186.3L281.2,175.3L286.4,175.3L286.4,201.7L281.2,201.7L281.2,190.8L274.2,190.8L274.2,201.7L269,201.7L269,175.3Z" transform="translate(277.7,188.5) translate(-277.7,-188.5)"/>
            <path d="M291.6,175.3L296.8,175.3L296.8,201.7L291.6,201.7L291.6,175.3Z" transform="translate(294.2,188.5) translate(-294.2,-188.5)"/>
            <path d="M301.1,193L301.1,184C301.1,178.6,304.7,174.9,309.9,174.9C315.1,174.9,318.7,178.6,318.8,183.8L313.6,183.8C313.6,181,312.1,179.8,310,179.8C307.7,179.8,306.3,181,306.3,184.5L306.3,193.2C306.3,195.9,307.7,197.2,309.9,197.2C311.8,197.2,313.6,196.2,313.6,193.2L313.6,192.8L309.9,192.8L309.9,188.3L318.7,188.3L318.7,193.1C318.7,198.5,315.1,202.2,309.8,202.2C304.7,202.1,301.1,198.4,301.1,193Z" transform="translate(309.95,188.55) translate(-309.95,-188.55)"/>
            <path d="M322.9,175.3L328.1,175.3L328.1,186.3L335.1,186.3L335.1,175.3L340.3,175.3L340.3,201.7L335,201.7L335,190.8L328,190.8L328,201.7L322.8,201.7L322.8,175.3Z" transform="translate(331.55,188.5) translate(-331.55,-188.5)"/>
            <path d="M352.8,193L352.8,183.9C352.8,178.6,356.4,174.8,361.7,174.8C367.5,174.8,370.6,178.6,370.6,184.7L370.6,184.8L365.4,184.8L365.4,184.4C365.4,180.5,363.5,179.7,361.7,179.7C359.9,179.7,358,180.7,358,183.7L358,193.1C358,196.2,359.9,197.1,361.7,197.1C364.1,197.1,365.4,195.9,365.4,192.1L365.4,191.8L370.6,191.8L370.6,191.9C370.6,198.5,367.7,202,361.7,202C356.4,202.1,352.8,198.4,352.8,193Z" transform="translate(361.7,188.401) translate(-361.7,-188.401)"/>
            <path d="M379.7,175.3L385.3,175.3L392.9,201.7L387.6,201.7L386.2,196.5L378.5,196.5L377,201.7L372,201.7L379.7,175.3ZM385.3,192L382.6,181.7L379.8,192L385.3,192Z" transform="translate(382.45,188.5) translate(-382.45,-188.5)"/>
            <path d="M395.6,175.3L404,175.3C409.3,175.3,412.8,178.7,412.8,184.8L412.8,185.5C412.8,189.6,411,192.3,408.2,193.6L412.7,201.6L407,201.6L403.4,194.8L400.7,194.8L400.7,201.6L395.5,201.6L395.5,175.3ZM403.3,190C405.5,190,407.6,189,407.6,185.5L407.6,184.8C407.6,181.2,405.6,180.3,403.3,180.3L400.7,180.3L400.7,190L403.3,190Z" transform="translate(404.15,188.45) translate(-404.15,-188.45)"/>
            <path d="M416.9,175.3L425,175.3C430.2,175.3,433.8,177.6,433.8,182.5L433.8,182.9C433.8,185.7,432.6,187.6,430.5,188.5C432.7,189.5,434.1,191.3,434.1,194.2L434.1,194.5C434.1,199.4,430.5,201.7,425.3,201.7L417,201.7L417,175.3ZM425.2,186.5C426.9,186.5,428.6,185.9,428.6,183.5L428.6,183.1C428.6,180.8,426.7,180.3,424.8,180.3L422,180.3L422,186.5L425.2,186.5ZM425,196.8C427,196.8,428.8,196.3,428.8,193.7L428.8,193.3C428.8,191.1,427,190.5,425.2,190.5L422,190.5L422,196.8L425,196.8Z" transform="translate(425.5,188.5) translate(-425.5,-188.5)"/>
            <path d="M446.3,175.3L451.4,175.3L457.3,190.7L463.2,175.3L468.3,175.3L468.3,201.7L463.1,201.7L463.1,186.5L459,196.8L455.5,196.8L451.4,186.6L451.4,201.7L446.2,201.7L446.2,175.3Z" transform="translate(457.25,188.5) translate(-457.25,-188.5)"/>
            <path d="M473.3,175.3L488.1,175.3L488.1,180.3L478.4,180.3L478.4,186.3L485.5,186.3L485.5,190.8L478.4,190.8L478.4,196.8L488.1,196.8L488.1,201.7L473.3,201.7L473.3,175.3Z" transform="translate(480.7,188.5) translate(-480.7,-188.5)"/>
            <path d="M497.6,175.3L503.2,175.3L510.8,201.7L505.5,201.7L504.1,196.5L496.4,196.5L494.9,201.7L489.7,201.7L497.6,175.3ZM503.1,192L500.4,181.7L497.6,192L503.1,192Z" transform="translate(500.25,188.5) translate(-500.25,-188.5)"/>
            <path d="M513.4,175.3L518.6,175.3L518.6,196.7L527.4,196.7L527.4,201.6L513.5,201.6L513.5,175.3Z" transform="translate(520.4,188.45) translate(-520.4,-188.45)"/>
            <path d="M544.3,173.3L549.3,173.3L541.3,203.6L536.3,203.6L544.3,173.3Z" transform="translate(542.8,188.45) translate(-542.8,-188.45)"/>
            <path d="M560.9,193L560.9,184C560.9,178.6,564.5,174.9,569.7,174.9C574.9,174.9,578.5,178.6,578.6,183.8L573.4,183.8C573.4,181,571.9,179.8,569.8,179.8C567.5,179.8,566.1,181,566.1,184.5L566.1,193.2C566.1,195.9,567.5,197.2,569.7,197.2C571.6,197.2,573.4,196.2,573.4,193.2L573.4,192.8L569.7,192.8L569.7,188.3L578.5,188.3L578.5,193.1C578.5,198.5,574.9,202.2,569.6,202.2C564.6,202.1,560.9,198.4,560.9,193Z" transform="translate(569.75,188.55) translate(-569.75,-188.55)"/>
            <path d="M582.8,175.3L588,175.3L588,196.7L596.8,196.7L596.8,201.6L582.9,201.6L582.9,175.3Z" transform="translate(589.8,188.45) translate(-589.8,-188.45)"/>
            <path d="M601.7,192.2L594.3,175.3L599.7,175.3L604.4,186.4L609.1,175.3L614.4,175.3L606.9,192.2L606.9,201.7L601.7,201.7L601.7,192.2Z" transform="translate(604.35,188.5) translate(-604.35,-188.5)"/>
            <path d="M615.4,193L615.4,183.9C615.4,178.6,619,174.8,624.3,174.8C630.1,174.8,633.2,178.6,633.2,184.7L633.2,184.8L628,184.8L628,184.4C628,180.5,626.1,179.7,624.3,179.7C622.5,179.7,620.6,180.7,620.6,183.7L620.6,193.1C620.6,196.2,622.5,197.1,624.3,197.1C626.7,197.1,628,195.9,628,192.1L628,191.8L633.2,191.8L633.2,191.9C633.2,198.5,630.3,202,624.3,202C619,202.1,615.4,198.4,615.4,193Z" transform="translate(624.3,188.401) translate(-624.3,-188.401)"/>
            <path d="M636.9,175.3L651.7,175.3L651.7,180.3L642,180.3L642,186.3L649.1,186.3L649.1,190.8L642,190.8L642,196.8L651.7,196.8L651.7,201.7L636.9,201.7L636.9,175.3Z" transform="translate(644.3,188.5) translate(-644.3,-188.5)"/>
            <path d="M655.7,175.3L660.8,175.3L666.7,190.7L672.6,175.3L677.7,175.3L677.7,201.7L672.5,201.7L672.5,186.5L668.4,196.8L664.9,196.8L660.8,186.6L660.8,201.7L655.6,201.7L655.6,175.3Z" transform="translate(666.65,188.5) translate(-666.65,-188.5)"/>
            <path d="M682.8,175.3L688,175.3L688,201.7L682.8,201.7L682.8,175.3Z" transform="translate(685.4,188.5) translate(-685.4,-188.5)"/>
            <path d="M692.3,193L692.3,183.9C692.3,178.6,695.9,174.8,701.2,174.8C707,174.8,710.1,178.6,710.1,184.7L710.1,184.8L704.9,184.8L704.9,184.4C704.9,180.5,703,179.7,701.2,179.7C699.4,179.7,697.5,180.7,697.5,183.7L697.5,193.1C697.5,196.2,699.4,197.1,701.2,197.1C703.6,197.1,704.9,195.9,704.9,192.1L704.9,191.8L710.1,191.8L710.1,191.9C710.1,198.5,707.2,202,701.2,202C696,202.1,692.3,198.4,692.3,193Z" transform="translate(701.2,188.401) translate(-701.2,-188.401)"/>
            <path d="M722.3,175.3L727.5,175.3L727.5,201.7L722.3,201.7L722.3,175.3Z" transform="translate(724.9,188.5) translate(-724.9,-188.5)"/>
            <path d="M732.6,175.3L737.5,175.3L745.2,190.6L745.2,175.3L750.4,175.3L750.4,201.7L745.5,201.7L737.7,186.4L737.7,201.7L732.5,201.7L732.5,175.3Z" transform="translate(741.45,188.5) translate(-741.45,-188.5)"/>
            <path d="M755.3,175.3L764,175.3C769.2,175.3,772.9,178.5,772.9,185L772.9,192C772.9,198.4,769.3,201.8,764,201.8L755.3,201.8L755.3,175.3ZM763.4,196.8C765.9,196.8,767.7,195.8,767.7,190.7L767.7,185.6C767.7,182.8,767,180.3,763.4,180.3L760.5,180.3L760.5,196.8L763.4,196.8Z" transform="translate(764.1,188.55) translate(-764.1,-188.55)"/>
            <path d="M777.2,175.3L792,175.3L792,180.3L782.3,180.3L782.3,186.3L789.4,186.3L789.4,190.8L782.3,190.8L782.3,196.8L792,196.8L792,201.7L777.2,201.7L777.2,175.3Z" transform="translate(784.6,188.5) translate(-784.6,-188.5)"/>
            <path d="M800.9,188.1L794.1,175.3L799.7,175.3L803.7,183.6L807.7,175.3L813.2,175.3L806.4,188.1L813.6,201.6L808.1,201.6L803.6,192.4L799.1,201.6L793.6,201.6L800.9,188.1Z" transform="translate(803.6,188.45) translate(-803.6,-188.45)"/>
            <path d="M824.8,175.3L829.9,175.3L835.8,190.7L841.7,175.3L846.8,175.3L846.8,201.7L841.6,201.7L841.6,186.5L837.5,196.8L834,196.8L829.9,186.6L829.9,201.7L824.7,201.7L824.7,175.3Z" transform="translate(835.75,188.5) translate(-835.75,-188.5)"/>
            <path d="M851.7,175.3L866.5,175.3L866.5,180.3L856.8,180.3L856.8,186.3L863.9,186.3L863.9,190.8L856.8,190.8L856.8,196.8L866.5,196.8L866.5,201.7L851.7,201.7L851.7,175.3Z" transform="translate(859.1,188.5) translate(-859.1,-188.5)"/>
            <path d="M876,175.3L881.6,175.3L889.2,201.7L884,201.7L882.6,196.5L875,196.5L873.5,201.7L868.3,201.7L876,175.3ZM881.5,192L878.8,181.7L876,192L881.5,192Z" transform="translate(878.75,188.5) translate(-878.75,-188.5)"/>
            <path d="M891.8,175.3L897,175.3L897,196.7L905.8,196.7L905.8,201.6L891.9,201.6L891.9,175.3Z" transform="translate(898.8,188.45) translate(-898.8,-188.45)"/>
        </g>
        <rect class="st6" width="136.7" height="41.9" fill="#FF5F62" transform="translate(172.05,188.45) translate(-68.35,-20.95)"/>
    </g>
    <g id="low_x5F_carb_x5F_label" transform="translate(184.893,78.5038) scale(0.315077,0.315077) translate(-1331.8,-188.1)">
        <g transform="translate(1411.85,188.4) translate(-1411.85,-188.4)">
            <path d="M1096.3,175.3L1101.5,175.3L1101.5,196.8L1110.3,196.8L1110.3,201.8L1096.3,201.8L1096.3,175.3Z" transform="translate(1103.3,188.55) translate(-1103.3,-188.55)"/>
            <path d="M1112.6,193L1112.6,184C1112.6,178.6,1116.2,174.8,1121.5,174.8C1126.7,174.8,1130.4,178.6,1130.4,184L1130.4,193C1130.4,198.4,1126.7,202.1,1121.5,202.1C1116.2,202.1,1112.6,198.3,1112.6,193ZM1125.2,193.2L1125.2,183.8C1125.2,180.8,1123.4,179.7,1121.5,179.7C1119.7,179.7,1117.8,180.7,1117.8,183.7L1117.8,193.1C1117.8,196.1,1119.5,197.1,1121.5,197.1C1123.2,197.1,1125.2,196.2,1125.2,193.2Z" transform="translate(1121.5,188.45) translate(-1121.5,-188.45)"/>
            <path d="M1132.2,175.3L1137.4,175.3L1141.3,193.3L1145,175.3L1149.7,175.3L1153.4,193.3L1157.3,175.3L1162.5,175.3L1156.3,201.8L1151,201.8L1147.4,184.3L1143.8,201.8L1138.5,201.8L1132.2,175.3Z" transform="translate(1147.35,188.55) translate(-1147.35,-188.55)"/>
            <path d="M1172.6,193L1172.6,183.9C1172.6,178.5,1176.2,174.8,1181.5,174.8C1187.4,174.8,1190.4,178.6,1190.4,184.7L1190.4,184.8L1185.2,184.8L1185.2,184.4C1185.2,180.5,1183.3,179.7,1181.5,179.7C1179.7,179.7,1177.8,180.7,1177.8,183.7L1177.8,193.1C1177.8,196.2,1179.7,197.2,1181.5,197.2C1183.9,197.2,1185.2,196,1185.2,192.2L1185.2,191.9L1190.4,191.9L1190.4,192.1C1190.4,198.7,1187.5,202.3,1181.5,202.3C1176.3,202.1,1172.6,198.4,1172.6,193Z" transform="translate(1181.5,188.55) translate(-1181.5,-188.55)"/>
            <path d="M1199.6,175.3L1205.3,175.3L1213,201.8L1207.7,201.8L1206.3,196.6L1198.6,196.6L1197.1,201.8L1191.8,201.8L1199.6,175.3ZM1205.2,192L1202.5,181.6L1199.7,192L1205.2,192Z" transform="translate(1202.4,188.55) translate(-1202.4,-188.55)"/>
            <path d="M1215.5,175.3L1223.9,175.3C1229.2,175.3,1232.8,178.7,1232.8,184.9L1232.8,185.7C1232.8,189.8,1231,192.5,1228.2,193.8L1232.7,201.8L1227,201.8L1223.4,195L1220.7,195L1220.7,201.8L1215.5,201.8L1215.5,175.3ZM1223.3,190C1225.6,190,1227.7,189,1227.7,185.5L1227.7,184.7C1227.7,181.1,1225.7,180.2,1223.3,180.2L1220.7,180.2L1220.7,190L1223.3,190Z" transform="translate(1224.15,188.55) translate(-1224.15,-188.55)"/>
            <path d="M1236.9,175.3L1245,175.3C1250.2,175.3,1253.8,177.6,1253.8,182.5L1253.8,182.9C1253.8,185.8,1252.6,187.6,1250.5,188.5C1252.8,189.5,1254.1,191.3,1254.1,194.2L1254.1,194.5C1254.1,199.4,1250.5,201.7,1245.3,201.7L1236.9,201.7L1236.9,175.3ZM1245.3,186.5C1247,186.5,1248.7,185.9,1248.7,183.5L1248.7,183C1248.7,180.7,1246.8,180.2,1244.9,180.2L1242.2,180.2L1242.2,186.4L1245.3,186.4ZM1245.1,196.8C1247.1,196.8,1248.9,196.3,1248.9,193.7L1248.9,193.3C1248.9,191,1247.1,190.4,1245.3,190.4L1242.1,190.4L1242.1,196.7L1245.1,196.7Z" transform="translate(1245.5,188.5) translate(-1245.5,-188.5)"/>
            <path d="M1266.4,175.3L1271.5,175.3L1277.4,190.7L1283.3,175.3L1288.4,175.3L1288.4,201.8L1283.2,201.8L1283.2,186.5L1279.1,196.8L1275.6,196.8L1271.5,186.6L1271.5,201.8L1266.3,201.8L1266.3,175.3Z" transform="translate(1277.35,188.55) translate(-1277.35,-188.55)"/>
            <path d="M1293.5,175.3L1308.4,175.3L1308.4,180.3L1298.7,180.3L1298.7,186.3L1305.9,186.3L1305.9,190.8L1298.7,190.8L1298.7,196.8L1308.4,196.8L1308.4,201.8L1293.5,201.8L1293.5,175.3Z" transform="translate(1300.95,188.55) translate(-1300.95,-188.55)"/>
            <path d="M1317.8,175.3L1323.5,175.3L1331.2,201.8L1325.9,201.8L1324.5,196.6L1316.8,196.6L1315.3,201.8L1310,201.8L1317.8,175.3ZM1323.4,192L1320.7,181.6L1317.9,192L1323.4,192Z" transform="translate(1320.6,188.55) translate(-1320.6,-188.55)"/>
            <path d="M1333.7,175.3L1338.9,175.3L1338.9,196.8L1347.7,196.8L1347.7,201.8L1333.7,201.8L1333.7,175.3Z" transform="translate(1340.7,188.55) translate(-1340.7,-188.55)"/>
            <path d="M1364.7,173.2L1369.7,173.2L1361.7,203.6L1356.7,203.6L1364.7,173.2Z" transform="translate(1363.2,188.4) translate(-1363.2,-188.4)"/>
            <path d="M1381.4,193L1381.4,184C1381.4,178.6,1385,174.8,1390.3,174.8C1395.5,174.8,1399.1,178.5,1399.2,183.7L1394,183.7C1394,180.9,1392.5,179.7,1390.4,179.7C1388.1,179.7,1386.7,180.9,1386.7,184.4L1386.7,193.1C1386.7,195.8,1388.1,197.1,1390.3,197.1C1392.2,197.1,1394,196,1394,193.1L1394,192.6L1390.3,192.6L1390.3,188.1L1399.2,188.1L1399.2,192.9C1399.2,198.3,1395.6,202,1390.3,202C1385.1,202.1,1381.4,198.4,1381.4,193Z" transform="translate(1390.3,188.401) translate(-1390.3,-188.401)"/>
            <path d="M1403.3,175.3L1408.5,175.3L1408.5,196.8L1417.3,196.8L1417.3,201.8L1403.3,201.8L1403.3,175.3Z" transform="translate(1410.3,188.55) translate(-1410.3,-188.55)"/>
            <path d="M1422.4,192.2L1414.9,175.3L1420.3,175.3L1425,186.5L1429.7,175.3L1435.1,175.3L1427.6,192.2L1427.6,201.7L1422.4,201.7L1422.4,192.2Z" transform="translate(1425,188.5) translate(-1425,-188.5)"/>
            <path d="M1436,193L1436,183.9C1436,178.5,1439.6,174.8,1444.9,174.8C1450.8,174.8,1453.8,178.6,1453.8,184.7L1453.8,184.8L1448.6,184.8L1448.6,184.4C1448.6,180.5,1446.7,179.7,1444.9,179.7C1443.1,179.7,1441.2,180.7,1441.2,183.7L1441.2,193.1C1441.2,196.2,1443.1,197.2,1444.9,197.2C1447.3,197.2,1448.6,196,1448.6,192.2L1448.6,191.9L1453.8,191.9L1453.8,192.1C1453.8,198.7,1450.9,202.3,1444.9,202.3C1439.7,202.1,1436,198.4,1436,193Z" transform="translate(1444.9,188.55) translate(-1444.9,-188.55)"/>
            <path d="M1457.6,175.3L1472.5,175.3L1472.5,180.3L1462.8,180.3L1462.8,186.3L1470,186.3L1470,190.8L1462.8,190.8L1462.8,196.8L1472.5,196.8L1472.5,201.8L1457.6,201.8L1457.6,175.3Z" transform="translate(1465.05,188.55) translate(-1465.05,-188.55)"/>
            <path d="M1476.5,175.3L1481.6,175.3L1487.5,190.7L1493.4,175.3L1498.5,175.3L1498.5,201.8L1493.3,201.8L1493.3,186.5L1489.2,196.8L1485.7,196.8L1481.6,186.6L1481.6,201.8L1476.4,201.8L1476.4,175.3Z" transform="translate(1487.45,188.55) translate(-1487.45,-188.55)"/>
            <path d="M1503.7,175.3L1508.9,175.3L1508.9,201.8L1503.7,201.8L1503.7,175.3Z" transform="translate(1506.3,188.55) translate(-1506.3,-188.55)"/>
            <path d="M1513.2,193L1513.2,183.9C1513.2,178.5,1516.8,174.8,1522.1,174.8C1528,174.8,1531,178.6,1531,184.7L1531,184.8L1525.8,184.8L1525.8,184.4C1525.8,180.5,1523.9,179.7,1522.1,179.7C1520.3,179.7,1518.4,180.7,1518.4,183.7L1518.4,193.1C1518.4,196.2,1520.3,197.2,1522.1,197.2C1524.5,197.2,1525.8,196,1525.8,192.2L1525.8,191.9L1531,191.9L1531,192.1C1531,198.7,1528.1,202.3,1522.1,202.3C1516.9,202.1,1513.2,198.4,1513.2,193Z" transform="translate(1522.1,188.55) translate(-1522.1,-188.55)"/>
            <path d="M1543.3,175.3L1548.5,175.3L1548.5,201.8L1543.3,201.8L1543.3,175.3Z" transform="translate(1545.9,188.55) translate(-1545.9,-188.55)"/>
            <path d="M1553.6,175.3L1558.5,175.3L1566.3,190.7L1566.3,175.3L1571.5,175.3L1571.5,201.8L1566.6,201.8L1558.8,186.5L1558.8,201.8L1553.6,201.8L1553.6,175.3Z" transform="translate(1562.55,188.55) translate(-1562.55,-188.55)"/>
            <path d="M1576.4,175.3L1585.1,175.3C1590.4,175.3,1594,178.5,1594,185L1594,192C1594,198.4,1590.4,201.8,1585.1,201.8L1576.4,201.8L1576.4,175.3ZM1584.5,196.8C1587,196.8,1588.9,195.8,1588.9,190.6L1588.9,185.5C1588.9,182.6,1588.1,180.2,1584.5,180.2L1581.6,180.2L1581.6,196.8L1584.5,196.8Z" transform="translate(1585.2,188.55) translate(-1585.2,-188.55)"/>
            <path d="M1598.3,175.3L1613.2,175.3L1613.2,180.3L1603.5,180.3L1603.5,186.3L1610.7,186.3L1610.7,190.8L1603.5,190.8L1603.5,196.8L1613.2,196.8L1613.2,201.8L1598.3,201.8L1598.3,175.3Z" transform="translate(1605.75,188.55) translate(-1605.75,-188.55)"/>
            <path d="M1622.1,188.1L1615.2,175.2L1620.8,175.2L1624.9,183.6L1629,175.2L1634.6,175.2L1627.7,188.1L1634.9,201.7L1629.4,201.7L1624.9,192.5L1620.4,201.7L1614.8,201.7L1622.1,188.1Z" transform="translate(1624.85,188.45) translate(-1624.85,-188.45)"/>
            <path d="M1646.1,175.3L1651.2,175.3L1657.1,190.7L1663,175.3L1668.1,175.3L1668.1,201.8L1662.9,201.8L1662.9,186.5L1658.8,196.8L1655.3,196.8L1651.2,186.6L1651.2,201.8L1646,201.8L1646,175.3Z" transform="translate(1657.05,188.55) translate(-1657.05,-188.55)"/>
            <path d="M1673.1,175.3L1688,175.3L1688,180.3L1678.3,180.3L1678.3,186.3L1685.5,186.3L1685.5,190.8L1678.3,190.8L1678.3,196.8L1688,196.8L1688,201.8L1673.1,201.8L1673.1,175.3Z" transform="translate(1680.55,188.55) translate(-1680.55,-188.55)"/>
            <path d="M1697.5,175.3L1703.2,175.3L1710.9,201.8L1705.6,201.8L1704.2,196.6L1696.5,196.6L1695,201.8L1689.7,201.8L1697.5,175.3ZM1703,192L1700.3,181.6L1697.5,192L1703,192Z" transform="translate(1700.3,188.55) translate(-1700.3,-188.55)"/>
            <path d="M1713.4,175.3L1718.6,175.3L1718.6,196.8L1727.4,196.8L1727.4,201.8L1713.4,201.8L1713.4,175.3Z" transform="translate(1720.4,188.55) translate(-1720.4,-188.55)"/>
        </g>
        <rect class="st7" width="136.6" height="41.6" fill="#8BD121" transform="translate(1004.5,188.1) translate(-68.3,-20.8)"/>
    </g>
    <g id="eat" transform="translate(189.903,18.9504) scale(0.339179,0.339179) translate(-915.5,-72.3)">
        <path class="st8" d="M1134.8,109.3L696.2,109.3C688.1,109.3,681.6,104.227,681.6,97.9063L681.6,62.9446C681.6,56.6235,688.1,51.5509,696.2,51.5509L1134.8,51.5509C1142.9,51.5509,1149.4,56.6235,1149.4,62.9446L1149.4,97.9063C1149.4,104.227,1142.8,109.3,1134.8,109.3Z" fill="#44A914" transform="translate(912.552,66.4034) translate(-915.5,-72.3)"/>
        <g transform="translate(913.85,75.35) translate(-913.85,-75.35)">
            <path class="st9" d="M731.1,66.6L721.4,66.6L721.4,71.8L730.6,71.8L730.6,78.7L721.4,78.7L721.4,84.1L731.1,84.1L731.1,91L713.2,91L713.2,59.7L731.1,59.7L731.1,66.6Z" fill="#FFFFFF" transform="translate(722.15,75.35) translate(-722.15,-75.35)"/>
            <path class="st9" d="M755.5,85.9L744.1,85.9L742,91.2L733.4,91.2L745.5,59.8L754.4,59.8L766.2,91.2L757.5,91.2L755.5,85.9ZM753.3,79.7L749.8,69.5L746.4,79.7L753.3,79.7Z" fill="#FFFFFF" transform="translate(749.8,75.5) translate(-749.8,-75.5)"/>
            <path class="st9" d="M780.2,66.6L780.2,91.1L772,91.1L772,66.6L765.3,66.6L765.3,59.7L786.8,59.7L786.8,66.6L780.2,66.6Z" fill="#FFFFFF" transform="translate(776.05,75.4) translate(-776.05,-75.4)"/>
            <path class="st9" d="M820.1,59.7L811.1,70.4C812.4,69.8,813.9,69.4,815.5,69.4C817.9,69.4,820.5,70.3,822.6,72.4C824.8,74.6,825.6,77.2,825.6,79.9C825.6,82.8,824.8,85.6,822.3,88.1C819.2,91.2,815.3,91.8,812.3,91.8C806.9,91.8,803.7,89.8,802,88C800.5,86.4,799.1,84,799.1,80.6C799.1,76.3,801.3,72.2,803.8,68.9L810.8,59.7L820.1,59.7ZM815.8,83.9C816.7,83,817.3,81.7,817.3,80.3C817.3,79.3,817,78.1,815.8,77C814.5,75.8,813.1,75.5,812.2,75.5C811,75.5,809.6,76,808.7,76.9C807.7,77.8,807.1,79.1,807.1,80.2C807.1,81.5,807.6,82.8,808.5,83.8C809.7,85.1,811.2,85.4,812.2,85.4C813.9,85.4,815.1,84.6,815.8,83.9Z" fill="#FFFFFF" transform="translate(812.35,75.75) translate(-812.35,-75.75)"/>
            <path class="st9" d="M852.6,66.6L852.6,91.1L844.4,91.1L844.4,66.6L837.7,66.6L837.7,59.7L859.2,59.7L859.2,66.6L852.6,66.6Z" fill="#FFFFFF" transform="translate(848.45,75.4) translate(-848.45,-75.4)"/>
            <path class="st9" d="M871.1,59.7L871.1,91.1L862.9,91.1L862.9,59.7L871.1,59.7Z" fill="#FFFFFF" transform="translate(867,75.4) translate(-867,-75.4)"/>
            <path class="st9" d="M876.3,91.2L881.6,59.8L889.7,59.8L896.1,76.6L902.8,59.8L911,59.8L915.7,91.2L907.5,91.2L905.2,73.1L897.6,91.2L894.3,91.2L887,73.1L884.3,91.2L876.3,91.2Z" fill="#FFFFFF" transform="translate(896,75.5) translate(-896,-75.5)"/>
            <path class="st9" d="M938.7,66.6L929,66.6L929,71.8L938.2,71.8L938.2,78.7L929,78.7L929,84.1L938.7,84.1L938.7,91L920.8,91L920.8,59.7L938.7,59.7L938.7,66.6Z" fill="#FFFFFF" transform="translate(929.75,75.35) translate(-929.75,-75.35)"/>
            <path class="st9" d="M945.9,81.7C947.6,83.3,950.3,84.9,953.1,84.9C954.7,84.9,955.7,84.4,956.3,83.8C956.8,83.3,957.1,82.6,957.1,81.8C957.1,81.2,956.9,80.5,956.2,79.9C955.4,79.2,954.2,78.9,952.1,78.3L950,77.6C948.7,77.2,946.7,76.5,945.5,75.1C943.9,73.4,943.7,71.1,943.7,69.5C943.7,65.6,945.2,63.3,946.6,61.9C948.2,60.3,950.8,58.9,954.7,58.9C957.8,58.9,961.4,59.9,964.4,61.4L961.1,67.8C958.6,65.9,956.8,65.7,955.7,65.7C954.9,65.7,953.8,65.9,953,66.6C952.5,67.1,952.2,67.6,952.2,68.3C952.2,68.9,952.3,69.3,952.6,69.7C952.8,70,953.4,70.5,955.3,71.1L957.8,71.9C959.8,72.5,961.9,73.2,963.5,75C965.1,76.7,965.5,78.4,965.5,80.6C965.5,83.5,964.8,86.3,962.5,88.5C959.8,91.2,956.6,91.7,953.2,91.7C951.2,91.7,949.3,91.5,947,90.7C946.5,90.5,944.5,89.8,942.2,88.2L945.9,81.7Z" fill="#FFFFFF" transform="translate(953.85,75.3) translate(-953.85,-75.3)"/>
            <path class="st9" d="M1000.9,85.9L989.5,85.9L987.4,91.2L978.8,91.2L990.9,59.8L999.8,59.8L1011.6,91.2L1002.9,91.2L1000.9,85.9ZM998.8,79.7L995.3,69.5L991.9,79.7L998.8,79.7Z" fill="#FFFFFF" transform="translate(995.2,75.5) translate(-995.2,-75.5)"/>
            <path class="st9" d="M1026.2,91.2L1026.2,59.7L1036.9,59.7C1040.1,59.7,1045.3,60.1,1049.4,64C1053.1,67.5,1053.8,72.1,1053.8,75.4C1053.8,79.5,1052.8,83.2,1049.7,86.3C1047.2,88.8,1043,91.1,1037.6,91.1L1026.2,91.1ZM1034.3,84.2L1035.9,84.2C1037.9,84.2,1040.7,84,1042.8,81.9C1043.8,80.9,1045.2,78.9,1045.2,75.4C1045.2,72.5,1044.3,70,1042.7,68.5C1040.8,66.7,1038.2,66.5,1036.2,66.5L1034.2,66.5L1034.2,84.2Z" fill="#FFFFFF" transform="translate(1040,75.45) translate(-1040,-75.45)"/>
            <path class="st9" d="M1076.4,85.9L1065,85.9L1062.9,91.2L1054.3,91.2L1066.4,59.8L1075.3,59.8L1087.1,91.2L1078.4,91.2L1076.4,85.9ZM1074.2,79.7L1070.7,69.5L1067.3,79.7L1074.2,79.7Z" fill="#FFFFFF" transform="translate(1070.7,75.5) translate(-1070.7,-75.5)"/>
            <path class="st9" d="M1094.6,76.1L1083.2,59.7L1093,59.7L1098.9,68.3L1104.6,59.7L1114.5,59.7L1102.8,76.1L1102.8,91.2L1094.6,91.2L1094.6,76.1Z" fill="#FFFFFF" transform="translate(1098.85,75.45) translate(-1098.85,-75.45)"/>
        </g>
    </g>
    <script><![CDATA[/*
 KeyshapeJS v1.1.1 (c) 2018-2021 Pixofield Ltd | pixofield.com/keyshapejs/mit-license */
window.KeyshapeJS=function(){function t(a){return"undefined"!==typeof a}function x(a,b){return a&&0==a.indexOf(b)}function R(a){var b={},c;for(c in a)b[c]=a[c];return b}function H(a){if(!isFinite(a))throw Error("Non-finite value");}function S(a){if(14>=a)return 16;var b=T[a];b||(b=t(da[a])?0|(a.toLowerCase().indexOf("color")==a.length-5?48:0):1);return b}function K(a){return 0<=a?Math.pow(a,1/3):-Math.pow(-a,1/3)}function ea(a,b,c,d){if(0==a)return 0==b?b=-d/c:(a=Math.sqrt(c*c-4*b*d),d=(-c+a)/(2*
b),0<=d&&1>=d?b=d:(d=(-c-a)/(2*b),b=0<=d&&1>=d?d:0)),b;var e=c/a-b*b/(a*a)/3;c=b*b*b/(a*a*a)/13.5-b*c/(a*a)/3+d/a;var n=c*c/4+e*e*e/27;b=-b/(3*a);if(0>=n){if(0==e&&0==c)return-K(d/a);a=Math.sqrt(c*c/4-n);d=Math.acos(-c/2/a);c=Math.cos(d/3);d=Math.sqrt(3)*Math.sin(d/3);a=K(a);e=2*a*c+b;if(0<=e&&1>=e)return e;e=-a*(c+d)+b;if(0<=e&&1>=e)return e;e=a*(d-c)+b;if(0<=e&&1>=e)return e}else{a=K(-c/2+Math.sqrt(n));c=K(-c/2-Math.sqrt(n));d=a+c+b;if(0<=d&&1>=d)return d;d=-(a+c)/2+b;if(0<=d&&1>=d)return d}return 0}
function fa(a,b){if(48==a&&"number"===typeof b)return"rgba("+(b>>>24)+","+(b>>>16&255)+","+(b>>>8&255)+","+(b&255)/255+")";if(64==a)return b=b.map(function(a){return a+"px"}),b.join(",");if(96==a){a="";for(var c=b.length,d=0;d<c;d+=2)a+=b[d],a+=b[d+1].join(",");return a}if(80==a){if(0==b[0])return"none";a="";c=b.length;for(d=0;d<c;)a+=U[b[d]],1==b[d]?a+="("+b[d+1]+") ":5==b[d]?(a+="("+b[d+1]+"px "+b[d+2]+"px "+b[d+3]+"px rgba("+(b[d+4]>>>24)+","+(b[d+4]>>16&255)+","+(b[d+4]>>8&255)+","+(b[d+4]&255)/
255+")) ",d+=3):a=2==b[d]?a+("("+b[d+1]+"px) "):7==b[d]?a+("("+b[d+1]+"deg) "):a+("("+(0>b[d+1]?0:b[d+1])+") "),d+=2;return a}return 32==a?b+"px":b}function y(a){return 0>=a?0:255<=a?255:a}function ha(a,b,c,d){if(16==a||32==a)return(c-b)*d+b;if(0==a)return.5>d?b:c;if(48==a){if("number"===typeof b&&"number"===typeof c){var e=1-d;return(y(e*(b>>>24)+d*(c>>>24))<<24|y(e*(b>>>16&255)+d*(c>>>16&255))<<16|y(e*(b>>>8&255)+d*(c>>>8&255))<<8|y(e*(b&255)+d*(c&255)))>>>0}return.5>d?b:c}if(64==a){0==b.length&&
(b=[0]);0==c.length&&(c=[0]);var n=b.length;b.length!=c.length&&(n=b.length*c.length);var q=[];for(a=0;a<n;++a){var h=b[a%b.length];var g=(c[a%c.length]-h)*d+h;0>g&&(g=0);q.push(g)}return q}if(96==a){if(b.length!=c.length)return.5>d?b:c;n=b.length;q=[];for(a=0;a<n;a+=2){if(b[a]!==c[a])return.5>d?b:c;q[a]=b[a];q[a+1]=[];for(h=0;h<b[a+1].length;++h)q[a+1].push((c[a+1][h]-b[a+1][h])*d+b[a+1][h])}return q}if(80==a){n=b.length;if(n!=c.length)return.5>d?b:c;q=[];for(a=0;a<n;){if(b[a]!=c[a]||1==b[a])return.5>
d?b:c;q[a]=b[a];q[a+1]=(c[a+1]-b[a+1])*d+b[a+1];if(5==b[a]){q[a+2]=(c[a+2]-b[a+2])*d+b[a+2];q[a+3]=(c[a+3]-b[a+3])*d+b[a+3];e=1-d;var f=b[a+4],l=c[a+4];g=e*(f>>>24)+d*(l>>>24);var m=e*(f>>16&255)+d*(l>>16&255);h=e*(f>>8&255)+d*(l>>8&255);e=e*(f&255)+d*(l&255);q[a+4]=(y(m)<<16|y(h)<<8|y(e))+16777216*(y(g)|0);a+=3}a+=2}return q}return 0}function V(a,b){a:{var c=a+b[2];var d=b[4].length;for(var e=0;e<d;++e)if(c<b[4][e]){c=e;break a}c=d-1}d=b[2];e=b[4][c-1]-d;a=(a-e)/(b[4][c]-d-e);if(b[6]&&b[6].length>
c-1)if(d=b[6][c-1],1==d[0])if(0>=a)a=0;else if(1<=a)a=1;else{e=d[1];var n=d[3];a=ea(3*e-3*n+1,-6*e+3*n,3*e,-a);a=3*a*(1-a)*(1-a)*d[2]+3*a*a*(1-a)*d[4]+a*a*a}else 2==d[0]?(d=d[1],a=Math.ceil(a*d)/d):3==d[0]&&(d=d[1],a=Math.floor(a*d)/d);return ha(b[1]&240,b[5][c-1],b[5][c],a)}function L(){u||(v=(new Date).getTime()+W)}function O(a){if(a||!E){for(var b=!1,c=0;c<w.length;++c)w[c].J(a)&&(b=!0);if(a)for(;0<I.length;)if(a=I.shift(),c=a[0],1==a[1])c.onfinish&&(c.onfinish(),b=!0),c.I();else if(2==a[1]&&c.onloop)c.onloop();
return b}}function X(){L();O(!0)&&!u?(E=!0,M(X)):E=!1}function N(){E||(E=!0,M(X))}function Y(a,b){var c=[];a.split(b).forEach(function(a){c.push(parseFloat(a))});return c}function A(a){-1==a.indexOf(",")&&(a=a.replace(" ",","));return Y(a,",")}function Z(a){a._ks||(a._ks={});if(!a._ks.transform){for(var b=a._ks.transform=[],c=0;14>=c;++c)b[c]=0;b[10]=1;b[11]=1;if(a=a.getAttribute("transform")){a=a.trim().split(") ");for(c=a.length-2;0<=c;--c)if(x(a[c],"translate(")){for(var d=0;d<c;d++)a.shift();
break}c=a.shift();x(c,"translate(")&&(c=A(c.substring(10)),b[1]=c[0],b[2]=t(c[1])?c[1]:0,c=a.shift());x(c,"rotate(")&&(c=A(c.substring(7)),b[6]=c[0],c=a.shift());x(c,"skewX(")&&(c=A(c.substring(6)),b[7]=c[0],c=a.shift());x(c,"skewY(")&&(c=A(c.substring(6)),b[8]=c[0],c=a.shift());x(c,"scale(")&&(c=A(c.substring(6)),b[10]=c[0],b[11]=t(c[1])?c[1]:c[0],c=a.shift());x(c,"translate(")&&(c=A(c.substring(10)),b[13]=c[0],b[14]=t(c[1])?c[1]:0)}}}function aa(a){this.h=a;this.A=[];this.C=[];this.v=0;this.s=this.a=
this.c=null;this.i=this.f=this.g=0;this.b=1;this.j=this.F=this.o=!1}function J(a,b,c){b=a[b];void 0===b&&(b=a[c]);return b}function ia(a){return Array.isArray(a)?a:x(a,"cubic-bezier(")?(a=a.substring(13,a.length-1).split(","),[1,parseFloat(a[0]),parseFloat(a[1]),parseFloat(a[2]),parseFloat(a[3])]):x(a,"steps(")?(a=a.substring(6,a.length-1).split(","),[a[1]&&"start"==a[1].trim()?2:3,parseFloat(a[0])]):[0]}function ja(a){a=a.trim();return x(a,"#")?(parseInt(a.substring(1),16)<<8)+255:x(a,"rgba(")?(a=
a.substring(5,a.length-1),a=a.split(","),(parseInt(a[0],10)<<24)+(parseInt(a[1],10)<<16)+(parseInt(a[2],10)<<8)+255*parseFloat(a[3])<<0):a}function ba(a){!1===a.j&&(w.push(a),a.j=!0,!1!==a.h.autoplay&&a.play());return this}function P(a){if(!0===a.j){a._cancel();var b=w.indexOf(a);-1<b&&w.splice(b,1);b=I.indexOf(a);-1<b&&I.splice(b,1);a.j=!1}return this}var Q=Error("Not in timeline list"),ca="mpath posX posY    rotate skewX skewY  scaleX scaleY  anchorX anchorY".split(" "),ka=" translate translate    rotate skewX skewY  scale scale  translate translate".split(" "),
U="none url blur brightness contrast drop-shadow grayscale hue-rotate invert opacity saturate sepia".split(" "),M=window.requestAnimationFrame||window.webkitRequestAnimationFrame||window.mozRequestAnimationFrame||window.oRequestAnimationFrame||window.msRequestAnimationFrame||null;M||(M=function(a){window.setTimeout(a,16)});var la=navigator.vendor.match(/apple/i),T={d:97,fill:48,fillOpacity:16,filter:80,height:33,opacity:16,offsetDistance:33,stroke:48,strokeDasharray:64,strokeDashoffset:32,strokeOpacity:16,
strokeWidth:32,transform:1,width:33},da=window.getComputedStyle(document.documentElement),E=!1,v=(new Date).getTime(),u,W=0,w=[],I=[];aa.prototype={B:function(a){var b=0;if(null!==this.c){var c=this.l();0<this.b&&null!==c&&c>=this.f?this.i?(this.c=v-this.g/this.b,this.i--,b=2):(b=1,a?this.a=c:this.a=this.s?Math.max(this.s,this.f):this.f):0>this.b&&null!==c&&c<=this.g?this.i&&Infinity!=this.f?(this.c=v-this.f/this.b,this.i--,b=2):(this.i=0,b=1,a?this.a=c:this.a=this.s?Math.min(this.s,this.g):this.g):
null!==c&&0!=this.b&&(a&&null!==this.a&&(this.c=v-this.a/this.b),this.a=null)}this.s=this.l();return b},J:function(a){a&&(this.o&&(this.o=!1,null===this.c&&(0!=this.b&&null!==this.a?(this.c=v-this.a/this.b,this.a=null):this.c=v)),null===this.a&&null!==this.c&&(a=this.B(!1),0!=a&&I.push([this,a])));a=this.l();if(null===a)return!1;for(var b=this.A,c=this.C,d=0;d<b.length;++d){for(var e=b[d],n=!1,q=0;q<c[d].length;++q){var h=c[d][q],g=h[0];if(null!==g){var f=h[2];var l=h[4].length,m=h[4][l-1]-f;f=0==
m?h[5][l-1]:a<=f?h[5][0]:a>=f+h[3]?0==h[3]%m?h[5][l-1]:V(h[3]%m,h):V((a-f)%m,h);0==g?(e._ks.mpath=h[8],e._ks.transform[g]=f,n=!0):14>=g?(e._ks.transform[g]=f,n=!0):(f=fa(h[1]&240,f),h[1]&1?e.setAttribute(g,f):e.style[g]=f)}}if(n){n=e;Z(n);q=n._ks.transform;h="";if(g=n._ks.mpath)l=q[0],0>l&&(l=0),100<l&&(l=100),l=l*g[2]/100,f=g[1].getPointAtLength(l),h="translate("+f.x+","+f.y+") ",g[0]&&(.5>l?(l=f,f=g[1].getPointAtLength(.5)):l=g[1].getPointAtLength(l-.5),h+="rotate("+180*Math.atan2(f.y-l.y,f.x-l.x)/
Math.PI+") ");for(g=1;g<q.length;++g)f=q[g],f!=(10==g||11==g?1:0)&&(h+=" "+ka[g]+"(",h=2>=g?h+(1==g?f+",0":"0,"+f):13<=g?h+(13==g?f+",0":"0,"+f):10<=g?h+(10==g?f+",1":"1,"+f):h+f,h+=")");n.setAttribute("transform",h)}la&&e.setAttribute("opacity",e.getAttribute("opacity"))}return"running"==this.m()},I:function(){!1!==this.h.autoremove&&"finished"==this.m()&&P(this)},D:function(){if(!this.F){this.F=!0;for(var a=this.A,b=this.C,c=0;c<a.length;++c)for(var d=a[c],e=0;e<b[c].length;++e)14>=b[c][e][0]&&
Z(d)}},u:function(a){if("number"==typeof a)return a;if(!t(this.h.markers)||!t(this.h.markers[a]))throw Error("Invalid marker: "+a);return+this.h.markers[a]},play:function(a){t(a)&&null!==a&&(a=this.u(a),H(a),0>this.b&&a<this.g&&(a=this.g),0<this.b&&a>this.f&&(a=this.f),this.w(a,!0));if(!this.j)throw Q;a=this.l();if(0<this.b&&(null===a||a>=this.f))this.a=this.g;else if(0>this.b&&(null===a||a<=this.g)){if(Infinity==this.f)throw Error("Cannot seek to Infinity");this.a=this.f}else 0==this.b&&null===a&&
(this.a=this.g);if(null===this.a)return this;this.c=null;this.o=!0;this.D();N();return this},pause:function(a){if(!this.j)throw Q;t(a)&&(a=this.u(a),H(a));if("paused"!=this.m()){L();var b=this.l();if(null===b)if(0<=this.b)this.a=this.g;else{if(Infinity==this.f)throw Error("Cannot seek to Infinity");this.a=this.f}null!==this.c&&null===this.a&&(this.a=b);this.c=null;this.o=!1;this.B(!1);this.D();N()}t(a)&&this.w(a,!0);return this},range:function(a,b){if(0==arguments.length)return{"in":this.g,out:this.f};
var c=this.u(a),d=this.v;t(b)&&(d=this.u(b));H(c);if(0>c||0>d||c>=d||isNaN(d))throw Error("Invalid range");var e=this.m();this.g=c;this.f=d;"finished"==e&&"running"==this.m()&&this.play();return this},loop:function(a){if(!t(a))return{count:this.i};this.i=!0===a?Infinity:Math.floor(a);if(0>this.i||isNaN(this.i))this.i=0;return this},l:function(){return null!==this.a?this.a:null===this.c?null:(v-this.c)*this.b},w:function(a,b){b&&L();null!==a&&(this.D(),null!==this.a||null===this.c||0==this.b?(this.a=
a,O(!1)):this.c=v-a/this.b,this.j||(this.c=null),this.s=null,this.B(!0),N())},G:function(){return this.l()},time:function(a){if(t(a)){if(!this.j)throw Q;a=this.u(a);H(a);this.w(a,!0);return this}return this.G()},m:function(){var a=this.l();return this.o?"running":null===a?"idle":null===this.c?"paused":0<this.b&&a>=this.f||0>this.b&&a<=this.g?"finished":"running"},state:function(){return this.m()},duration:function(){return this.v},H:function(a){H(a);L();var b=this.l();this.b=a;null!==b&&this.w(b,
!1)},rate:function(a){return t(a)?(this.H(a),this):this.b},markers:function(a){return t(a)?(this.h.markers=R(a),this):t(this.h.markers)?this.h.markers:{}},marker:function(a){return t(this.h.markers)?this.h.markers[a]:void 0},_cancel:function(){if(!this.j||"idle"==this.m())return this;this.c=this.a=null;this.o=!1;return this}};return{version:"1.1.1",animate:function(){var a={};1==arguments.length%2&&(a=R(arguments[arguments.length-1]));a=new aa(a);for(var b=arguments,c=0,d=0;d<b.length-1;d+=2){var e=
b[d];var n=e instanceof Element?e:document.getElementById(e.substring(1));if(!n)throw Error("Invalid target: "+e);e=n;n=b[d+1];e._ks||(e._ks={});for(var q=[],h=0;h<n.length;++h){var g=n[h],f=J(g,"p","property");if("string"!=typeof f||-1!=f.indexOf("-")||""===f||!(0<T[f]||0<=ca.indexOf(f)))throw Error("Invalid property: "+f);var l=ca.indexOf(f);""!==f&&0<=l&&(f=l);l=S(f);var m=J(g,"t","times");if(!m||2>m.length)throw Error("Not enough times");m=m.slice();if(!isFinite(m[0])||0>m[0])throw Error("Invalid time: "+
m[0]);for(var B=1;B<m.length;++B)if(!isFinite(m[B])||0>m[B]||m[B]<m[B-1])throw Error("Invalid time: "+m[B]);B=m[0];var v=m[m.length-1]-B,y=g.iterations||0;1>y&&(y=1);v*=y;c<v+B&&(c=v+B);var u=J(g,"v","values");if(!u||u.length!=m.length)throw Error("Values do not match times");u=u.slice();for(var C=f,k=u,w=S(C)&240,p=0;p<k.length;++p)if(96==w){for(var G=k[p].substring(6,k[p].length-2).match(/[A-DF-Za-df-z][-+0-9eE., ]*/ig),A=[],r=0;r<G.length;++r){A.push(G[r][0]);for(var z=1<G[r].trim().length?G[r].substring(1).split(","):
[],F=0;F<z.length;++F)z[F]=parseFloat(z[F]);A.push(z)}k[p]=A}else if(48==w)x(k[p],"#")?(G=9==k[p].length,k[p]=parseInt(k[p].substring(1),16),G||(k[p]=256*k[p]|255)):x(k[p],"url(")||"none"==k[p]||(console.warn("unsupported color: "+k[p]),k[p]=0);else if(80==w){G=k;A=p;r=k[p];if("none"==r)r=[0];else{z=[];for(var D=r.indexOf("(");0<D;)if(F=U.indexOf(r.substring(0,D)),0<=F){z.push(F);var E=r.indexOf(") ");0>E&&(E=r.length-1);D=r.substring(D+1,E).split(" ");5==F?(z.push(parseFloat(D[0])),z.push(parseFloat(D[1])),
z.push(parseFloat(D[2])),z.push(ja(D[3]))):1==F?z.push(D[0]):z.push(parseFloat(D[0]));r=r.substring(E+1).trim();D=r.indexOf("(")}else break;r=z}G[A]=r}else 64==w?"none"!=k[p]?/^[0-9 .]*$/.test(k[p])?k[p]=Y(k[p]," "):(console.warn("unsupported value: "+k[p]),k[p]=[0]):k[p]=[0]:32==w?(H(k[p]),k[p]=parseFloat(k[p])):0===C&&(k[p]=parseFloat(k[p]));C=J(g,"e","easing");k=m.length;for(C||(C=[]);C.length<k;)C.push([1,0,0,.58,1]);for(k=0;k<C.length;++k)C[k]=ia(C[k]);l=[f,l,B,v,m,u,C,y];m=J(g,"mp","motionPath");
t(m)&&0===f&&(l[8]=[],l[8][0]=g.motionRotate,g=document.createElementNS("http://www.w3.org/2000/svg","path"),m||(m="M0,0"),g.setAttribute("d",m),l[8][1]=g,l[8][2]=g.getTotalLength());q.push(l)}0<q.length&&(a.A.push(e),a.C.push(q))}a.v=c;a.g=0;a.f=a.v;ba(a);return a},add:ba,remove:P,removeAll:function(){for(var a=w.length-1;0<=a;--a)P(w[a]);return this},timelines:function(){return w.slice()},globalPlay:function(){u&&(W=u-(new Date).getTime(),u=void 0,N());return this},globalPause:function(){u||(u=
v,O(!1));return this},globalState:function(){return u?"paused":"running"}}}();
]]></script>
    <script><![CDATA[if(KeyshapeJS.version.indexOf('1.')!=0)throw Error('Expected KeyshapeJS v1.*.*');window.ks=document.ks=KeyshapeJS;(function(ks){
ks.animate("#high_x5F_carb_x5F_path",[{p:'stroke',t:[0,2000],v:['#ff7c83','#bff840'],e:[[0],[0]]},{p:'d',t:[0,2000],v:["path('M199.3,490C238.4,415.7,292.7,332,341.6,339.7C424.1,352.7,432.8,616.5,487,617.3C542.7,618.1,571.4,339.8,629.6,339.7C687.8,339.6,715,617.3,773.4,617.3C831.7,617.2,858.3,339.7,916.4,339.7C974.5,339.7,1001.4,617.3,1059.4,617.3C1117.4,617.3,1143.9,339.8,1202,339.7C1260.2,339.6,1287.3,617.4,1345.4,617.3C1402.9,617.2,1420.3,345.1,1487.7,339.7C1529.5,336.3,1578,436.5,1631.5,617.3')","path('M199.3,490C246.407,520.613,307.061,451.114,341.6,451.114C389.196,451.114,432.8,519.813,487,520.613C542.7,521.413,571.4,451.214,629.6,451.114C687.8,451.014,715,520.613,773.4,520.613C831.7,520.513,858.3,451.114,916.4,451.114C974.5,451.114,1001.4,520.613,1059.4,520.613C1117.4,520.613,1143.9,451.214,1202,451.114C1260.2,451.014,1287.3,520.713,1345.4,520.613C1402.9,520.513,1420.3,456.514,1487.7,451.114C1529.5,447.714,1571.95,462.486,1631.5,520.613')"],e:[[1,0,0,0.58,1],[0]]}],
"#_a0",[{p:'mpath',t:[0,2000],v:['0%','100%'],e:[[1,0,0,0.58,1],[0]],mp:"M-1229.48,407.25L232.215,407.25"}],
"#_a1",[{p:'mpath',t:[200,1900],v:['0%','100%'],e:[[1,0,0,0.58,1],[0]],mp:"M157.4,20.3943L157.4,113.594"},{p:'scaleX',t:[0,200],v:[0.2,1],e:[[0],[0]]},{p:'scaleY',t:[0,200],v:[0.2,1],e:[[0],[0]]},{p:'opacity',t:[0,200],v:[0,1],e:[[0],[0]]},{p:'stroke',t:[0,2000],v:['#ff5f62','#8ecc09'],e:[[0],[0]]},{p:'fill',t:[0,2000],v:['#ff9ca1','#cdf462'],e:[[0],[0]]}],
"#_a2",[{p:'mpath',t:[400,2000],v:['0%','100%'],e:[[1,0,0,0.58,1],[0]],mp:"M445.4,35.5953L445.4,115.594"},{p:'scaleX',t:[300,500],v:[0.2,1],e:[[0],[0]]},{p:'scaleY',t:[300,500],v:[0.2,1],e:[[0],[0]]},{p:'opacity',t:[300,500],v:[0,1],e:[[0],[0]]},{p:'stroke',t:[0,2000],v:['#ff5f62','#8ecc09'],e:[[0],[0]]},{p:'fill',t:[0,2000],v:['#ff9ca1','#cdf462'],e:[[0],[0]]}],
"#_a3",[{p:'mpath',t:[700,2000],v:['0%','100%'],e:[[1,0,0,0.58,1],[0]],mp:"M732.233,58.1113L732.2,113.594"},{p:'scaleX',t:[600,800],v:[0.2,1],e:[[0],[0]]},{p:'scaleY',t:[600,800],v:[0.2,1],e:[[0],[0]]},{p:'opacity',t:[600,800],v:[0,1],e:[[0],[0]]},{p:'stroke',t:[0,2000],v:['#ff5f62','#8ecc09'],e:[[0],[0]]},{p:'fill',t:[0,2000],v:['#ff9ca1','#cdf462'],e:[[0],[0]]}],
"#_a4",[{p:'mpath',t:[1000,2000],v:['0%','100%'],e:[[1,0,0,0.58,1],[0]],mp:"M1017.8,77.6203L1017.8,113.594"},{p:'scaleX',t:[900,1100],v:[0.2,1],e:[[0],[0]]},{p:'scaleY',t:[900,1100],v:[0.2,1],e:[[0],[0]]},{p:'opacity',t:[900,1100],v:[0,1],e:[[0],[0]]},{p:'stroke',t:[0,2000],v:['#ff5f62','#8ecc09'],e:[[0],[0]]},{p:'fill',t:[0,2000],v:['#ff9ca1','#cdf462'],e:[[0],[0]]}],
"#_a5",[{p:'mpath',t:[1400,2000],v:['0%','100%'],e:[[0],[0]],mp:"M1303.5,98.3343L1303.5,111.908"},{p:'scaleX',t:[1300,1500],v:[0.2,1],e:[[0],[0]]},{p:'scaleY',t:[1300,1500],v:[0.2,1],e:[[0],[0]]},{p:'opacity',t:[1300,1500],v:[0,1],e:[[0],[0]]},{p:'stroke',t:[0,2000],v:['#ff5f62','#8ecc09'],e:[[0],[0]]},{p:'fill',t:[200,2000],v:['#ff9ca1','#cdf462'],e:[[0],[0]]}],
"#_a6",[{p:'mpath',t:[300,2000],v:['0%','100%'],e:[[1,0,0,0.58,1],[0]],mp:"M302.8,255.288L302.8,181.414"},{p:'scaleX',t:[200,400],v:[0.2,1],e:[[0],[0]]},{p:'scaleY',t:[200,400],v:[0.2,1],e:[[0],[0]]},{p:'opacity',t:[200,400],v:[0,1],e:[[0],[0]]},{p:'stroke',t:[0,2000],v:['#ff5f62','#8ecc09'],e:[[0],[0]]},{p:'fill',t:[0,2000],v:['#ff9ca1','#cdf462'],e:[[0],[0]]}],
"#_a7",[{p:'mpath',t:[500,2000],v:['0%','100%'],e:[[1,0,0,0.58,1],[0]],mp:"M589.2,241.533L589.2,181.414"},{p:'scaleX',t:[400,600],v:[0.2,1],e:[[0],[0]]},{p:'scaleY',t:[400,600],v:[0.2,1],e:[[0],[0]]},{p:'opacity',t:[400,600],v:[0,1],e:[[0],[0]]},{p:'stroke',t:[0,2000],v:['#ff5f62','#8ecc09'],e:[[0],[0]]},{p:'fill',t:[0,2000],v:['#ff9ca1','#cdf462'],e:[[0],[0]]}],
"#_a8",[{p:'mpath',t:[800,2000],v:['0%','100%'],e:[[1,0,0,0.58,1],[0]],mp:"M875.2,220.449L875.2,181.407"},{p:'scaleX',t:[700,900],v:[0.2,1],e:[[0],[0]]},{p:'scaleY',t:[700,900],v:[0.2,1],e:[[0],[0]]},{p:'opacity',t:[700,900],v:[0,1],e:[[0],[0]]},{p:'stroke',t:[0,2000],v:['#ff5f62','#8ecc09'],e:[[0],[0]]},{p:'fill',t:[0,2000],v:['#ff9ca1','#cdf462'],e:[[0],[0]]}],
"#_a9",[{p:'mpath',t:[1200,2000],v:['0%','100%'],e:[[1,0,0,0.58,1],[0]],mp:"M1161.2,201.383L1161.2,181.414"},{p:'scaleX',t:[1100,1300],v:[0.2,1],e:[[0],[0]]},{p:'scaleY',t:[1100,1300],v:[0.2,1],e:[[0],[0]]},{p:'opacity',t:[1100,1300],v:[0,1],e:[[0],[0]]},{p:'stroke',t:[0,2000],v:['#ff5f62','#8ecc09'],e:[[0],[0]]},{p:'fill',t:[0,2000],v:['#ff9ca1','#cdf462'],e:[[0],[0]]}],
"#_a10",[{p:'scaleX',t:[1600,1800],v:[0.2,1],e:[[0],[0]]},{p:'scaleY',t:[1600,1800],v:[0.2,1],e:[[0],[0]]},{p:'opacity',t:[1600,1800],v:[0,1],e:[[0],[0]]},{p:'stroke',t:[0,2000],v:['#ff5f62','#8ecc09'],e:[[0],[0]]},{p:'fill',t:[0,2000],v:['#ff9ca1','#cdf462'],e:[[0],[0]]}],
"#_a11",[{p:'stroke',t:[0,2000],v:['#ff5f62','#8ecc09'],e:[[0],[0]]},{p:'fill',t:[0,2000],v:['#ff9ca1','#cdf462'],e:[[0],[0]]}],
{autoremove:false}).range(0,2500).loop(true);
if(document.location.search.substr(1).split('&').indexOf('global=paused')>=0)ks.globalPause()})(KeyshapeJS);
]]></script>
</svg>
