<?xml version="1.0" encoding="utf-8"?>
<!-- Generator: Adobe Illustrator 26.0.3, SVG Export Plug-In . SVG Version: 6.00 Build 0)  -->
<svg version="1.1" id="Layer_1" xmlns="http://www.w3.org/2000/svg" xmlns:xlink="http://www.w3.org/1999/xlink" x="0px" y="0px"
	 viewBox="0 0 115.8 108.1" style="enable-background:new 0 0 115.8 108.1;" xml:space="preserve">
<style type="text/css">
	.st1{fill:#FFFFFF;}
	.st2{fill:#FAA82F;}
	.st3{clip-path:url(#SVGID_00000045583791392899916880000011337974839629084290_);}
	.st4{fill:#231F20;}
	.st5{clip-path:url(#SVGID_00000097458704707391002960000017005341001918760889_);}
	.st6{fill:#1A1A1A;}
	.st7{fill:#EC1C24;}
	.st8{fill:#221F1F;}
</style>
<g id="Group_1593" transform="translate(-1415.884 -479.647)">
	<g id="Group_1592" transform="translate(-169.314 -19.244)">
		<g id="Group_1591" transform="translate(1613 498.891)">
			<rect id="Rectangle_1379" x="1.2" y="14.9" class="st1" width="60.2" height="85.5"/>
			<path id="Path_2401" class="st2" d="M60.9,99.9H1.7V15.4h59.2L60.9,99.9z M61.8,14.4H0.7v86.5h61.1V14.4z"/>
			<rect id="Rectangle_1380" x="0.8" y="62.3" class="st2" width="60.9" height="29"/>
			<g id="Group_1588" transform="translate(0.605 15.227)">
				<g>
					<defs>
						<rect id="SVGID_1_" x="0" y="0" width="61.2" height="85.1"/>
					</defs>
					<clipPath id="SVGID_00000034090911390102590220000007865358913905419169_">
						<use xlink:href="#SVGID_1_"  style="overflow:visible;"/>
					</clipPath>
					<g id="Group_1587" style="clip-path:url(#SVGID_00000034090911390102590220000007865358913905419169_);">
						<path id="Path_2402" class="st4" d="M61.3,4.8C45.4,9.6,31.2,19,20.6,31.9c-2.1,2.4-4,5-5.7,7.7c-0.1,0.2,0.3,0.2,0.2-0.1
							c-0.2-0.3-0.5-0.5-0.7-0.8c-1-1.2-2.1-2.3-3.2-3.4C8,31.9,4.2,29,0.1,26.8c-0.2-0.1-0.6,5.2-0.6,5.5c0,0.8-0.4,4.9,0.6,5.5
							c5.9,2.9,10.8,7.7,14.7,12.5c0.1,0.3,0.2,0.3,0.3,0c9.5-15.8,27.1-28.9,46.1-34.5c0.9-0.3,0.6-4.8,0.6-5.5
							C61.9,9.9,61.7,4.6,61.3,4.8"/>
						<path id="Path_2403" class="st1" d="M61.3,2.8c-15.9,4.9-30,14.3-40.6,27.1c-2.1,2.4-4,5-5.7,7.7c-0.1,0.2,0.3,0.2,0.2-0.1
							c-0.2-0.3-0.5-0.5-0.7-0.8c-1-1.2-2.1-2.3-3.2-3.5C8,29.9,4.2,27.1,0.1,24.9c-0.2-0.1-0.6,5.2-0.6,5.5c0,0.8-0.4,4.9,0.6,5.5
							c5.9,2.9,10.8,7.7,14.7,12.5c0.1,0.3,0.2,0.3,0.3,0c9.5-15.8,27.1-28.9,46.1-34.5c0.9-0.3,0.6-4.8,0.6-5.5
							C61.9,8,61.7,2.7,61.3,2.8"/>
						<path id="Path_2404" class="st2" d="M61.3,3.8c-15.9,4.9-30,14.3-40.6,27.1c-2.1,2.4-4,5-5.7,7.7c-0.1,0.2,0.3,0.2,0.2-0.1
							c-0.2-0.3-0.5-0.5-0.7-0.8c-1-1.2-2.1-2.3-3.2-3.4C8,30.9,4.2,28,0.1,25.8c-0.2-0.1-0.6,5.2-0.6,5.5c0,0.8-0.4,4.9,0.6,5.5
							c5.9,2.9,10.8,7.7,14.7,12.5c0.1,0.3,0.2,0.3,0.3,0c9.5-15.8,27.1-28.9,46.1-34.5c0.9-0.3,0.6-4.8,0.6-5.5
							C61.9,9,61.7,3.7,61.3,3.8"/>
					</g>
				</g>
			</g>
			<g id="Group_1590">
				<g>
					<defs>
						<rect id="SVGID_00000091734195517875428980000004276551350336436869_" x="0" y="0" width="68.3" height="108.1"/>
					</defs>
					<clipPath id="SVGID_00000132089993435782028950000006300229257868968619_">
						<use xlink:href="#SVGID_00000091734195517875428980000004276551350336436869_"  style="overflow:visible;"/>
					</clipPath>
					<g id="Group_1589" style="clip-path:url(#SVGID_00000132089993435782028950000006300229257868968619_);">
						<path id="Path_2405" class="st6" d="M5.5,97.4l-1.4-3.8l0.6-0.1c0.4,1.1,0.8,2.1,1.1,3.3h0c0.4-1.2,0.8-2.3,1.2-3.3l0.5,0.1
							l-1.6,3.9L5.5,97.4z"/>
						<path id="Path_2406" class="st6" d="M7.2,96c0-0.8,0.6-1.4,1.3-1.4c0.8,0,1.4,0.6,1.4,1.3c0,0,0,0.1,0,0.1
							c0.1,0.8-0.5,1.4-1.3,1.5S7.2,97,7.2,96.2C7.2,96.1,7.2,96.1,7.2,96 M7.7,96c0,0.5,0.2,1.1,0.8,1.1s0.8-0.6,0.8-1.1
							c0-0.5-0.2-1.1-0.8-1.1S7.7,95.5,7.7,96"/>
						<path id="Path_2407" class="st6" d="M11.4,94.6h0.7v0.3h-0.7v1.6c0,0.4,0.1,0.6,0.4,0.6c0.1,0,0.3,0,0.4-0.1l0.1,0.3
							c-0.2,0.1-0.4,0.2-0.6,0.2c-0.6,0-0.8-0.3-0.8-0.9v-1.7h-0.4v-0.3h0.4V94l0.5-0.2L11.4,94.6z"/>
						<path id="Path_2408" class="st6" d="M13.2,96c0,0.6,0.4,1,0.9,1.1c0,0,0,0,0,0c0.3,0,0.5-0.1,0.8-0.2l0.1,0.3
							c-0.3,0.2-0.6,0.3-0.9,0.3c-0.7,0.1-1.4-0.5-1.4-1.3c0-0.1,0-0.2,0-0.2c-0.1-0.7,0.5-1.3,1.2-1.4c0,0,0.1,0,0.1,0
							c0.8,0,1.1,0.8,1.1,1.5L13.2,96z M14.6,95.7c0-0.4-0.2-0.8-0.6-0.8c-0.4,0-0.8,0.4-0.8,0.8c0,0,0,0,0,0H14.6z"/>
						<path id="Path_2409" class="st6" d="M17.9,97L17.9,97c-0.2,0.3-0.6,0.5-1,0.5c-0.8,0-1.2-0.6-1.2-1.5c0-0.7,0.5-1.4,1.3-1.4
							c0.3,0,0.7,0.1,0.9,0.4h0v-1.7h0.5v4.1h-0.5V97z M17.9,95.9c0-0.5-0.3-1-0.8-1c-0.6,0-0.8,0.5-0.8,1s0.3,1.2,0.8,1.2
							C17.6,97.1,17.9,96.5,17.9,95.9"/>
						<path id="Path_2410" class="st6" d="M21.3,93.3h0.5v1.7h0c0.2-0.3,0.5-0.5,0.9-0.5c0.7,0,1.3,0.6,1.3,1.3c0,0,0,0.1,0,0.1
							c0.1,0.8-0.5,1.4-1.2,1.5c0,0-0.1,0-0.1,0c-0.3,0-0.7-0.2-0.9-0.4h0v0.4h-0.5L21.3,93.3z M23.4,95.9c0-0.5-0.3-1-0.8-1
							c-0.6,0-0.9,0.4-0.9,1.2c0,0.5,0.2,1,0.9,1C23.2,97.1,23.4,96.4,23.4,95.9"/>
						<path id="Path_2411" class="st6" d="M24.8,94.6c0.3,0.7,0.6,1.4,0.9,2.3h0c0.3-0.8,0.6-1.6,0.9-2.3l0.4,0.1l-1.4,3.2
							c-0.3,0.6-0.6,0.9-1.1,0.9h-0.2v-0.4h0.2c0.3,0,0.6-0.1,1-1.2l-1.1-2.5L24.8,94.6z"/>
						<path id="Path_2412" class="st6" d="M32.5,94.2c-0.3-0.2-0.7-0.3-1-0.3c-0.8,0-1.5,0.6-1.5,1.4c0,0.1,0,0.1,0,0.2
							c-0.1,0.8,0.6,1.6,1.4,1.6c0,0,0.1,0,0.1,0c0.3,0,0.7-0.1,1-0.3l0.2,0.3c-0.4,0.2-0.8,0.4-1.2,0.4c-1.1,0.1-2-0.7-2.1-1.8
							c0-0.1,0-0.2,0-0.2c0-1.1,1-2,2.1-2c0,0,0.1,0,0.1,0c0.4,0,0.9,0.1,1.2,0.4L32.5,94.2z"/>
						<path id="Path_2413" class="st6" d="M33.4,96c0-0.8,0.6-1.4,1.3-1.4c0.8,0,1.4,0.6,1.4,1.3c0,0,0,0.1,0,0.1
							c0.1,0.8-0.5,1.4-1.3,1.5c-0.8,0.1-1.4-0.5-1.5-1.3C33.4,96.1,33.4,96.1,33.4,96 M33.9,96c0,0.5,0.2,1.1,0.8,1.1
							s0.8-0.6,0.8-1.1c0-0.5-0.2-1.1-0.8-1.1S33.9,95.5,33.9,96"/>
						<path id="Path_2414" class="st6" d="M37.5,95c0.3-0.3,0.6-0.4,1-0.4c0.6,0,1,0.4,1,1.1v1.8h-0.5v-1.7c0-0.5-0.2-0.8-0.7-0.8
							c-0.4,0-0.8,0.3-0.8,0.7c0,0,0,0.1,0,0.1v1.7H37v-2.8h0.5L37.5,95z"/>
						<path id="Path_2415" class="st6" d="M41.8,95.1c-0.1-0.1-0.3-0.2-0.5-0.2c-0.2,0-0.4,0.1-0.4,0.3s0.3,0.4,0.6,0.6
							c0.4,0.3,0.6,0.5,0.6,0.9c-0.1,0.5-0.5,0.8-1,0.8c-0.3,0-0.6-0.1-0.9-0.4l0.2-0.3c0.2,0.2,0.4,0.3,0.6,0.3
							c0.2,0,0.4-0.1,0.5-0.4c0,0,0,0,0,0c0-0.3-0.3-0.5-0.6-0.7c-0.3-0.2-0.6-0.4-0.6-0.8c0-0.4,0.4-0.7,0.9-0.7
							c0.3,0,0.5,0.1,0.7,0.3L41.8,95.1z"/>
						<path id="Path_2416" class="st6" d="M44.7,97.1c-0.2,0.2-0.6,0.4-0.9,0.4c-0.6,0-1-0.4-1-1.1v-1.8h0.5v1.7
							c0,0.5,0.2,0.8,0.7,0.8c0.4,0,0.7-0.3,0.7-0.9v-1.6h0.5v2.8h-0.5L44.7,97.1z"/>
						<path id="Path_2417" class="st6" d="M46.8,95c0.2-0.3,0.5-0.4,0.9-0.4c0.3,0,0.7,0.1,0.9,0.4c0.3-0.2,0.6-0.4,1-0.4
							c0.5,0,0.9,0.4,0.9,0.8c0,0,0,0.1,0,0.1v1.9h-0.5v-1.7c0-0.4-0.1-0.8-0.6-0.8c-0.4,0-0.7,0.2-0.7,0.8v1.7h-0.5v-1.7
							c0-0.5-0.2-0.8-0.6-0.8c-0.4,0-0.7,0.3-0.7,0.8v1.7h-0.5v-2.8h0.5L46.8,95z"/>
						<path id="Path_2418" class="st6" d="M51.8,96c0,0.6,0.4,1,0.9,1.1c0,0,0,0,0,0c0.3,0,0.5-0.1,0.8-0.2l0.1,0.3
							c-0.3,0.2-0.6,0.3-0.9,0.3c-0.7,0.1-1.4-0.5-1.4-1.3c0-0.1,0-0.2,0-0.2c-0.1-0.7,0.5-1.3,1.2-1.4c0,0,0.1,0,0.1,0
							c0.8,0,1.1,0.8,1.1,1.5L51.8,96z M53.2,95.7c0-0.4-0.2-0.8-0.6-0.8c-0.4,0-0.8,0.4-0.8,0.8c0,0,0,0,0,0H53.2z"/>
						<path id="Path_2419" class="st6" d="M55,95l0.2-0.2c0.2-0.2,0.5-0.3,0.7-0.1c0.1,0,0.1,0.1,0.1,0.2l-0.2,0.3
							c-0.1-0.1-0.2-0.1-0.4-0.1c-0.3,0-0.5,0.3-0.5,0.9v1.5h-0.5v-2.8H55L55,95z"/>
						<path id="Path_2420" class="st6" d="M57.9,95.1c-0.1-0.1-0.3-0.2-0.5-0.2c-0.2,0-0.4,0.1-0.4,0.3s0.3,0.4,0.6,0.6
							c0.4,0.3,0.6,0.5,0.6,0.9c-0.1,0.5-0.5,0.8-1,0.8c-0.3,0-0.6-0.1-0.9-0.4l0.2-0.3c0.2,0.2,0.4,0.3,0.6,0.3
							c0.2,0,0.4-0.1,0.5-0.4c0,0,0,0,0,0c0-0.3-0.3-0.5-0.6-0.7c-0.3-0.2-0.6-0.4-0.6-0.8c0-0.4,0.4-0.7,0.9-0.7
							c0.3,0,0.5,0.1,0.7,0.3L57.9,95.1z"/>
						<path id="Path_2421" class="st6" d="M9.6,106.2c-0.1,0.2-0.2,0.3-0.4,0.3c-0.1,0-0.2,0-0.4-0.1c-0.1-0.1-0.3-0.1-0.4-0.1
							c-0.2,0-0.2,0.1-0.3,0.2l-0.1-0.1c0.1-0.2,0.2-0.3,0.5-0.3c0.1,0,0.3,0,0.4,0.1c0.1,0.1,0.2,0.1,0.3,0.1
							c0.1,0,0.2-0.1,0.3-0.2L9.6,106.2z"/>
						<path id="Path_2422" class="st6" d="M11.4,104.8h0.7c0.3,0,0.7,0.2,0.7,0.5c0,0,0,0.1,0,0.1c0,0.3-0.1,0.6-0.4,0.7l0.6,1
							l-0.3,0.1l-0.6-1h-0.4v1h-0.3L11.4,104.8z M11.7,106h0.2c0.3,0,0.5-0.2,0.5-0.4c0,0,0-0.1,0-0.1c0-0.2-0.1-0.4-0.3-0.4
							c0,0-0.1,0-0.1,0h-0.3L11.7,106z"/>
						<path id="Path_2423" class="st6" d="M13.7,106.4c0,0.3,0.2,0.6,0.6,0.7c0.2,0,0.3-0.1,0.5-0.1l0.1,0.2
							c-0.2,0.1-0.4,0.2-0.6,0.2c-0.5,0-0.9-0.3-0.9-0.8c0-0.1,0-0.1,0-0.2c0-0.4,0.3-0.8,0.8-0.9c0,0,0,0,0.1,0
							c0.5,0,0.7,0.5,0.7,0.9L13.7,106.4z M14.5,106.2c0-0.3-0.1-0.5-0.4-0.5c-0.3,0-0.5,0.2-0.5,0.5c0,0,0,0,0,0H14.5z"/>
						<path id="Path_2424" class="st6" d="M16.2,105.8c-0.1-0.1-0.2-0.1-0.3-0.1c-0.1,0-0.3,0.1-0.3,0.2s0.2,0.2,0.4,0.4
							c0.2,0.2,0.4,0.3,0.4,0.6c0,0.3-0.3,0.5-0.6,0.5c-0.2,0-0.4-0.1-0.5-0.2l0.2-0.2c0.1,0.1,0.2,0.2,0.4,0.2
							c0.1,0,0.3-0.1,0.3-0.2c0,0,0,0,0,0c0-0.2-0.2-0.3-0.3-0.4c-0.2-0.1-0.4-0.3-0.4-0.5c0-0.3,0.3-0.4,0.6-0.4
							c0.2,0,0.3,0.1,0.4,0.2L16.2,105.8z"/>
						<path id="Path_2425" class="st6" d="M17.1,106.4c0,0.3,0.2,0.6,0.6,0.7c0.2,0,0.3-0.1,0.5-0.1l0.1,0.2
							c-0.2,0.1-0.4,0.2-0.6,0.2c-0.5,0-0.9-0.3-0.9-0.8c0-0.1,0-0.1,0-0.2c0-0.4,0.3-0.8,0.8-0.9c0,0,0,0,0.1,0
							c0.5,0,0.7,0.5,0.7,0.9L17.1,106.4z M18,106.2c0-0.3-0.1-0.5-0.4-0.5c-0.3,0-0.5,0.2-0.5,0.5c0,0,0,0,0,0H18z"/>
						<path id="Path_2426" class="st6" d="M19.7,107c-0.1,0.1-0.3,0.2-0.4,0.2c-0.3,0-0.5-0.2-0.5-0.5c0,0,0,0,0-0.1
							c0-0.3,0.3-0.5,0.6-0.6l0.4-0.1c0-0.2-0.2-0.3-0.3-0.3c-0.2,0-0.3,0.1-0.5,0.2l-0.1-0.2c0.2-0.2,0.4-0.2,0.6-0.2
							c0.3,0,0.6,0.2,0.6,0.5c0,0,0,0.1,0,0.1v0.8c0,0.1,0,0.3,0.1,0.4h-0.3c0-0.1-0.1-0.2,0-0.3L19.7,107z M19.5,106.3
							c-0.3,0.1-0.4,0.2-0.4,0.4c0,0.1,0.1,0.3,0.2,0.3c0,0,0,0,0,0c0.2,0,0.5-0.3,0.5-0.8L19.5,106.3z"/>
						<path id="Path_2427" class="st6" d="M21.1,105.7l0.1-0.1c0.1-0.1,0.3-0.2,0.5-0.1c0,0,0.1,0.1,0.1,0.1l-0.1,0.2
							c-0.1,0-0.2-0.1-0.2-0.1c-0.2,0-0.3,0.2-0.3,0.5v0.9h-0.3v-1.7h0.3L21.1,105.7z"/>
						<path id="Path_2428" class="st6" d="M23.4,107.1c-0.2,0.1-0.3,0.2-0.5,0.2c-0.5,0-0.9-0.3-0.9-0.8c0,0,0-0.1,0-0.1
							c0-0.5,0.4-0.9,0.9-0.9c0,0,0.1,0,0.1,0c0.2,0,0.3,0,0.5,0.1l-0.1,0.2c-0.1-0.1-0.2-0.1-0.4-0.1c-0.3,0-0.6,0.3-0.6,0.6
							c0,0,0,0,0,0.1c0,0.3,0.2,0.6,0.5,0.7c0,0,0,0,0.1,0c0.2,0,0.3,0,0.4-0.1L23.4,107.1z"/>
						<path id="Path_2429" class="st6" d="M24.2,105.7c0.2-0.2,0.4-0.3,0.6-0.3c0.4,0,0.6,0.2,0.6,0.7v1.1h-0.3v-1
							c0-0.3-0.1-0.5-0.4-0.5c-0.3,0-0.5,0.2-0.5,0.5c0,0,0,0,0,0v1h-0.3v-2.5h0.3L24.2,105.7z"/>
						<path id="Path_2430" class="st6" d="M27.3,104.7h0.3v1.1h0c0.1-0.2,0.3-0.3,0.6-0.3c0.4,0,0.8,0.3,0.8,0.8c0,0,0,0,0,0.1
							c0.1,0.5-0.3,0.9-0.8,1c0,0,0,0-0.1,0c-0.2,0-0.4-0.1-0.5-0.3h0v0.2h-0.3L27.3,104.7z M28.6,106.3c0-0.3-0.2-0.6-0.5-0.6
							c-0.4,0-0.5,0.3-0.5,0.7c0,0.3,0.2,0.7,0.5,0.7S28.6,106.6,28.6,106.3"/>
						<path id="Path_2431" class="st6" d="M29.5,105.5c0.2,0.4,0.4,0.9,0.5,1.4h0c0.2-0.5,0.4-1,0.5-1.4l0.3,0.1l-0.9,2
							c-0.2,0.4-0.4,0.6-0.7,0.6h-0.2v-0.2h0.1c0.2,0,0.4-0.1,0.6-0.7l-0.7-1.6L29.5,105.5z"/>
						<path id="Path_2432" class="st6" d="M32.5,107.2v-2.4h0.8c0.4,0,0.6,0.2,0.6,0.5c0,0.3-0.2,0.6-0.5,0.6v0
							c0.3,0,0.6,0.2,0.6,0.6c0,0,0,0,0,0c0,0.4-0.4,0.7-0.8,0.7c0,0,0,0,0,0L32.5,107.2z M32.9,105.8H33c0.3,0,0.5-0.2,0.5-0.5
							c0-0.2-0.1-0.3-0.4-0.3h-0.3V105.8z M32.9,107h0.3c0.2,0,0.5-0.1,0.5-0.4c0,0,0,0,0,0c0-0.3-0.3-0.5-0.6-0.5h-0.3L32.9,107z"
							/>
						<path id="Path_2433" class="st6" d="M35,105.7l0.1-0.1c0.1-0.1,0.3-0.2,0.5-0.1c0,0,0.1,0.1,0.1,0.1l-0.1,0.2
							c-0.1,0-0.2-0.1-0.2-0.1c-0.2,0-0.3,0.2-0.3,0.5v0.9h-0.3v-1.7H35L35,105.7z"/>
						<path id="Path_2434" class="st6" d="M36.8,107c-0.1,0.1-0.3,0.2-0.4,0.2c-0.3,0-0.5-0.2-0.5-0.5c0,0,0,0,0-0.1
							c0-0.3,0.3-0.5,0.6-0.6l0.4-0.1c0-0.2-0.2-0.3-0.3-0.3c-0.2,0-0.3,0.1-0.5,0.2l-0.1-0.2c0.2-0.2,0.4-0.2,0.6-0.2
							c0.3,0,0.6,0.2,0.6,0.5c0,0,0,0.1,0,0.1v0.8c0,0.1,0,0.3,0.1,0.4H37c0-0.1-0.1-0.2,0-0.3L36.8,107z M36.6,106.3
							c-0.3,0.1-0.4,0.2-0.4,0.4c0,0.1,0.1,0.3,0.2,0.3c0,0,0,0,0,0c0.2,0,0.5-0.3,0.5-0.8L36.6,106.3z"/>
						<path id="Path_2435" class="st6" d="M38.2,105.7c0.2-0.2,0.4-0.3,0.6-0.3c0.4,0,0.6,0.2,0.6,0.7v1.1h-0.3v-1.1
							c0-0.3-0.1-0.5-0.4-0.5c-0.3,0-0.5,0.2-0.5,0.5c0,0,0,0,0,0v1h-0.3v-1.7h0.3L38.2,105.7z"/>
						<path id="Path_2436" class="st6" d="M41.3,107L41.3,107c-0.1,0.2-0.4,0.3-0.6,0.3c-0.5,0-0.8-0.4-0.8-0.9
							c0-0.5,0.3-0.9,0.8-0.9c0.2,0,0.4,0.1,0.6,0.3h0v-1h0.3v2.5h-0.3L41.3,107z M41.3,106.3c0-0.3-0.2-0.6-0.5-0.6
							c-0.4,0-0.5,0.3-0.5,0.7s0.2,0.7,0.5,0.7C41.2,107.1,41.3,106.7,41.3,106.3"/>
						<path id="Path_2437" class="st6" d="M43.5,105.2c-0.1-0.1-0.3-0.2-0.4-0.2c-0.2,0-0.4,0.1-0.4,0.3c0,0,0,0,0,0
							c0,0.2,0.1,0.3,0.5,0.5c0.3,0.2,0.5,0.5,0.5,0.8c0,0.4-0.4,0.7-0.7,0.6c0,0,0,0,0,0c-0.3,0-0.5-0.1-0.7-0.3l0.1-0.2
							c0.1,0.1,0.3,0.2,0.5,0.2c0.2,0,0.4-0.1,0.4-0.3c0,0,0,0,0-0.1c0-0.3-0.4-0.5-0.6-0.6s-0.4-0.3-0.4-0.6c0-0.3,0.3-0.6,0.7-0.6
							c0.2,0,0.4,0.1,0.6,0.2L43.5,105.2z"/>
						<path id="Path_2438" class="st6" d="M44.6,105.8L44.6,105.8c0.1-0.2,0.3-0.3,0.6-0.3c0.4,0,0.8,0.3,0.8,0.8c0,0,0,0,0,0.1
							c0.1,0.5-0.3,0.9-0.8,1c0,0,0,0-0.1,0c-0.2,0-0.4-0.1-0.5-0.3h0v1.1h-0.3v-2.6h0.3V105.8z M45.6,106.3c0-0.3-0.2-0.6-0.5-0.6
							c-0.4,0-0.5,0.3-0.5,0.7c0,0.3,0.2,0.7,0.5,0.7S45.6,106.6,45.6,106.3"/>
						<path id="Path_2439" class="st6" d="M47.4,107c-0.1,0.1-0.3,0.2-0.4,0.2c-0.3,0-0.5-0.2-0.5-0.5c0,0,0,0,0-0.1
							c0-0.3,0.3-0.5,0.6-0.6l0.4-0.1c0-0.2-0.2-0.3-0.3-0.3c-0.2,0-0.3,0.1-0.5,0.2l-0.1-0.2c0.2-0.2,0.4-0.2,0.6-0.2
							c0.3,0,0.6,0.2,0.6,0.5c0,0,0,0.1,0,0.1v0.8c0,0.1,0,0.3,0.1,0.4h-0.3c0-0.1-0.1-0.2,0-0.3L47.4,107z M47.2,106.3
							c-0.3,0.1-0.4,0.2-0.4,0.4c0,0.1,0.1,0.3,0.2,0.3c0,0,0,0,0,0c0.2,0,0.5-0.3,0.5-0.8L47.2,106.3z"/>
						<path id="Path_2440" class="st6" d="M48.8,105.7l0.1-0.1c0.1-0.1,0.3-0.2,0.5-0.1c0,0,0.1,0.1,0.1,0.1l-0.1,0.2
							c-0.1,0-0.2-0.1-0.2-0.1c-0.2,0-0.3,0.2-0.3,0.5v0.9h-0.3v-1.7h0.3L48.8,105.7z"/>
						<path id="Path_2441" class="st6" d="M49.8,104.7h0.3v1.5h0.1l0.7-0.7l0.2,0.1l-0.6,0.6l0.7,0.9l-0.3,0.1l-0.8-1h0v0.9h-0.3
							L49.8,104.7z"/>
						<path id="Path_2442" class="st6" d="M54.4,106.2c-0.1,0.2-0.2,0.3-0.4,0.3c-0.1,0-0.2,0-0.4-0.1c-0.1-0.1-0.3-0.1-0.4-0.1
							c-0.2,0-0.2,0.1-0.3,0.2l-0.1-0.1c0.1-0.2,0.2-0.3,0.5-0.3c0.1,0,0.3,0,0.4,0.1c0.1,0.1,0.2,0.1,0.3,0.1
							c0.1,0,0.2-0.1,0.3-0.2L54.4,106.2z"/>
						<path id="Path_2443" class="st6" d="M64.6,16.5c0-1,0.9-1.9,1.9-1.8c1,0,1.9,0.9,1.8,1.9c0,1-0.9,1.8-1.9,1.8
							C65.4,18.5,64.5,17.6,64.6,16.5C64.6,16.5,64.6,16.5,64.6,16.5 M68,16.5c0-0.9-0.8-1.5-1.6-1.5c-0.9,0-1.5,0.8-1.5,1.6
							c0,0.8,0.7,1.5,1.5,1.5C67.3,18.1,68,17.4,68,16.5 M65.7,15.4h0.8c0.5,0,0.7,0.2,0.7,0.5c0,0.3-0.1,0.5-0.4,0.6l0.5,0.9
							l-0.5,0.1l-0.4-0.8h-0.2v0.8h-0.5L65.7,15.4z M66.2,16.4h0.2c0.2,0,0.3-0.1,0.3-0.3c0,0,0,0,0,0c0-0.2-0.1-0.3-0.3-0.3
							c0,0,0,0-0.1,0h-0.2L66.2,16.4z"/>
						<path id="Path_2444" class="st6" d="M4.2,75.3v-8h2.9c1.4,0,2.3,0.6,2.3,1.7c0,0.9-0.7,1.8-1.6,2v0c1.1,0,2,0.8,2.1,2
							c0,1.4-1.2,2.4-3,2.4L4.2,75.3z M5.9,70.7h0.5c0.8,0.1,1.5-0.5,1.6-1.3c0,0,0,0,0-0.1c0-0.7-0.5-1-1.2-1H5.9L5.9,70.7z
							 M5.9,74.3h0.8c0.9,0,1.6-0.5,1.6-1.4c0-0.9-0.7-1.3-1.6-1.3H5.9L5.9,74.3z"/>
						<path id="Path_2445" class="st6" d="M15.7,68.4H13v2.2h2.6v1.1H13v2.6h3.2v1.1h-4.8v-8h4.3L15.7,68.4z"/>
						<path id="Path_2446" class="st6" d="M21.5,68.7c-0.4-0.3-0.8-0.4-1.3-0.5c-0.7,0-1,0.4-1,0.8c0,0.5,0.6,0.9,1.5,1.7
							c1.1,0.9,1.6,1.5,1.6,2.5c0,1-1,2.2-2.8,2.2c-0.9,0-1.7-0.3-2.4-0.8l0.6-0.9c0.5,0.4,1,0.6,1.6,0.6c0.6,0.1,1.2-0.4,1.2-1
							c0,0,0-0.1,0-0.1c0-0.9-1.1-1.5-1.7-2c-0.8-0.6-1.4-1.1-1.4-2.2s1.1-1.9,2.5-1.9c0.7,0,1.5,0.2,2,0.7L21.5,68.7z"/>
						<path id="Path_2447" class="st6" d="M25.4,75.3v-6.9H23v-1.1h6.6v1.1h-2.5v6.9H25.4z"/>
						<path id="Path_2448" class="st6" d="M40.8,75.3h-1.2c-1.5-1.8-3.1-3.7-4.6-5.7h0v5.7h-1.3v-8h1.2c1.5,1.8,3.1,3.7,4.6,5.7h0
							v-5.7h1.3L40.8,75.3z"/>
						<path id="Path_2449" class="st6" d="M47,68.4h-2.7v2.2h2.6v1.1h-2.6v2.6h3.2v1.1h-4.8v-8H47L47,68.4z"/>
						<path id="Path_2450" class="st6" d="M54.3,67.3c0.6,2.1,1.3,4.1,1.9,6.4h0c0.5-2.4,1.1-4.5,1.6-6.6l1.3,0.2L57,75.3h-1.6
							c-0.6-1.9-1.2-3.8-1.8-6h0c-0.6,2.2-1.1,4.1-1.7,6h-1.7l-2.2-7.9l1.6-0.2c0.5,2.1,1.1,4.2,1.6,6.6h0c0.6-2.3,1.3-4.4,1.9-6.4
							H54.3z"/>
						<path id="Path_2451" class="st6" d="M5.4,88.1H3.7V80h2.6c1.8,0,3,0.8,3,2.3c-0.1,1.6-1.5,2.8-3.1,2.7c0,0-0.1,0-0.1,0H5.7v-1
							l0.4,0c0.8,0,1.5-0.7,1.5-1.5c0,0,0-0.1,0-0.1c0-0.8-0.5-1.3-1.5-1.3H5.4L5.4,88.1z"/>
						<path id="Path_2452" class="st6" d="M10.9,80h2.8c1.6,0,2.6,0.7,2.6,2.1c0,1-0.5,1.9-1.4,2.4l1.9,3.5l-1.7,0.3l-1.6-3.4h-1
							v3.3h-1.6V80z M12.6,83.8h0.7c0.8,0,1.4-0.5,1.5-1.3c0,0,0-0.1,0-0.1c0-0.6-0.4-1.2-1.1-1.2c-0.1,0-0.1,0-0.2,0h-0.8
							L12.6,83.8z"/>
						<path id="Path_2453" class="st6" d="M17.9,83.9c0.1-2.2,2.1-3.9,4.3-3.8c2.2,0.1,3.9,2.1,3.8,4.3c-0.1,2.1-1.9,3.8-4.1,3.8
							c-2.2,0-4-1.7-4.1-3.9C17.8,84.2,17.8,84,17.9,83.9 M24.2,83.9c0-1.5-0.7-2.9-2.3-2.9s-2.3,1.4-2.3,2.9c0,1.6,0.6,3.2,2.3,3.2
							S24.2,85.5,24.2,83.9"/>
						<path id="Path_2454" class="st6" d="M30.5,80c3.3,0,4.4,1.9,4.4,3.8c0,2.7-1.7,4.3-4.6,4.3h-2.7V80L30.5,80z M29.4,87h1
							c1.9,0,2.9-1,2.9-3.2c0.1-1.4-0.9-2.6-2.2-2.7c-0.2,0-0.3,0-0.5,0h-1.2L29.4,87z"/>
						<path id="Path_2455" class="st6" d="M38.3,80v4.7c0,1.6,0.5,2.5,1.8,2.5c1.2,0,1.7-1.1,1.7-2.4V80h1.5V85
							c0.1,1.7-1.1,3.1-2.8,3.2c-0.2,0-0.3,0-0.5,0c-2.2,0-3.4-1.1-3.4-3.3v-5L38.3,80z"/>
						<path id="Path_2456" class="st6" d="M51.3,81.4c-0.5-0.3-1.1-0.4-1.7-0.5c-1.5,0-2.8,1.2-2.9,2.7c0,0.1,0,0.2,0,0.3
							c-0.1,1.6,1.1,3,2.7,3.1c0.1,0,0.2,0,0.3,0c0.6,0,1.1-0.1,1.6-0.4l0.5,1c-0.7,0.4-1.4,0.5-2.2,0.6c-2.8,0-4.6-1.9-4.6-4.2
							c0-2.2,1.8-4.2,4.6-4.2c0.8,0,1.5,0.2,2.2,0.6L51.3,81.4z"/>
						<path id="Path_2457" class="st6" d="M55.2,88.1v-7h-2.5V80h6.7v1.1h-2.5v7H55.2z"/>
						<rect id="Rectangle_1382" x="1.2" y="0.5" class="st1" width="60.2" height="12.5"/>
						<path id="Path_2458" class="st2" d="M60.8,12.5H1.7V1h59.2V12.5z M61.8,0H0.7v13.4h61.1V0z"/>
						<path id="Path_2459" class="st7" d="M14.5,7h1.8c0.1-0.5-0.3-1-0.8-1.1c0,0,0,0-0.1,0C15,5.9,14.5,6.2,14.5,7 M41.6,7h1.8
							c0.1-0.5-0.3-1-0.8-1.1c0,0,0,0-0.1,0C42.1,5.9,41.6,6.2,41.6,7 M47.1,7h1.8c0.1-0.5-0.3-1-0.8-1.1c0,0,0,0-0.1,0
							C47.5,5.9,47.1,6.4,47.1,7C47.1,7,47.1,7,47.1,7 M57,10C57,9.9,57,9.9,57,10C57,9.9,57,9.9,57,10C57,9.9,57,9.9,57,10L57,10
							L57,10L57,10C57,10,57,10,57,10 M57,10C57,10,57,10,57,10C57,10,57,10.1,57,10c0.1,0.1,0.1,0.1,0.1,0.2H57
							C57,10.1,56.9,10.1,57,10c-0.1,0-0.1,0-0.1,0h0v0.1h-0.1V9.8H57c0,0,0.1,0,0.1,0C57.1,9.9,57.1,9.9,57,10
							C57.1,10,57.1,10,57,10C57,10,57,10,57,10 M57.1,10.2c0,0,0.1-0.1,0.1-0.2c0-0.1,0-0.1-0.1-0.2c-0.1-0.1-0.3-0.1-0.4,0
							c0,0-0.1,0.1-0.1,0.2c0,0.1,0,0.1,0.1,0.2C56.9,10.3,57,10.3,57.1,10.2C57.1,10.2,57.1,10.2,57.1,10.2 M57.3,10
							c0,0.1,0,0.1-0.1,0.2c0,0.1-0.1,0.1-0.1,0.1c-0.1,0-0.1,0.1-0.2,0.1c-0.1,0-0.1,0-0.2-0.1c-0.1,0-0.1-0.1-0.1-0.1
							c0,0,0-0.1-0.1-0.2c0-0.1,0-0.1,0.1-0.2c0-0.1,0.1-0.1,0.1-0.1c0,0,0.1,0,0.2-0.1c0.1,0,0.1,0,0.2,0.1c0.1,0,0.1,0.1,0.1,0.1
							C57.2,9.9,57.3,9.9,57.3,10 M56.5,10.3h-1.7L53.1,8l-0.6,0.4v0.4H53v1.4h-2.6V8.9h0.5v-5h-0.7V2.6h2.3V7l1.2-0.9H53V4.7h3.1
							v1.4h-0.5l-1.2,0.9l1.4,1.8h0.7L56.5,10.3z M50.5,7.5c0,0.1,0,0.2,0,0.4h-3.3C47,9,47.4,9.3,48,9.3c0.5,0,0.9-0.3,0.9-0.8
							c0,0,0,0,0-0.1h1.4c0,0.9-0.5,2-2.4,2c-1.5,0.1-2.7-1.1-2.8-2.6c0-0.1,0-0.2,0-0.3c-0.1-1.5,1.1-2.8,2.6-2.8
							c0.1,0,0.1,0,0.2,0C49.7,4.7,50.5,5.9,50.5,7.5 M45,7.5c0,0.1,0,0.2,0,0.4h-3.3c-0.1,1.1,0.3,1.4,0.9,1.4
							c0.5,0,0.9-0.3,0.9-0.8c0,0,0,0,0-0.1h1.4c0,0.9-0.5,2-2.4,2c-1.5,0.1-2.7-1.1-2.8-2.6c0-0.1,0-0.2,0-0.3
							c-0.1-1.5,1.1-2.8,2.6-2.8c0.1,0,0.1,0,0.2,0C44.2,4.7,45,5.9,45,7.5 M39.8,6.1h-0.5l-1.2,4.2h-1.6L35.7,8L35,10.3h-1.7
							l-1.4-4.2h-0.5V4.7h2.9v1.4h-0.7l0.8,2.2l1-3.6h0.9l1.2,3.6l0.7-2.2h-0.7V4.7h2.4L39.8,6.1z M28.2,6.2c0,0.2,0.2,0.3,0.7,0.5
							L29.7,7c0.9,0.2,1.5,0.9,1.6,1.8c0,0.9-0.7,1.7-1.7,1.7c-0.1,0-0.2,0-0.3,0c-0.6,0-1.2-0.2-1.7-0.6v0.5h-1.4V8.4h1.4
							c0.1,0.6,0.6,1,1.1,1c0.4,0,0.6-0.2,0.6-0.4c0-0.3-0.2-0.4-0.9-0.6l-0.7-0.2c-0.8-0.2-1.4-0.9-1.5-1.7c0-1,0.9-1.8,1.8-1.7
							c0,0,0,0,0,0c0.6-0.1,1.1,0.1,1.6,0.5l0-0.4h1.4v1.7h-1.5c0-0.5-0.5-0.7-0.9-0.7C28.4,5.8,28.2,6,28.2,6.2 M26.2,6.1h-0.5
							l-1.2,4.2h-1.6L22,8l-0.7,2.3h-1.7l-1.4-4.2h-0.5V4.7h2.9v1.4h-0.7l0.8,2.2l1-3.6h0.9l1.2,3.6l0.7-2.2h-0.7V4.7h2.4L26.2,6.1z
							 M17.9,7.5c0,0.1,0,0.2,0,0.4h-3.3c-0.1,1.1,0.3,1.4,0.9,1.4c0.5,0,0.9-0.3,0.9-0.8c0,0,0,0,0-0.1h1.4c0,0.9-0.5,2-2.4,2
							c-1.5,0.1-2.7-1.1-2.8-2.6c0-0.1,0-0.2,0-0.3c-0.1-1.5,1.1-2.8,2.6-2.8c0.1,0,0.1,0,0.2,0C17.1,4.7,17.9,5.9,17.9,7.5 M13,4
							h-0.7v6.3h-1.4L7.6,6v2.9h0.7v1.4H5.3V8.9H6V4H5.3V2.6h2.3l3.1,4V4H9.9V2.6h3L13,4z"/>
						<path id="Path_2460" class="st8" d="M30.9,59.7l0.9-0.9c1.1-1.1,1.5-1.7,1.5-2.2c0-0.4-0.3-0.7-0.7-0.7c0,0,0,0,0,0
							c-0.4,0-0.8,0.2-1,0.5L31.1,56c0.4-0.4,1-0.7,1.6-0.7c0.8,0,1.5,0.4,1.5,1.2c0,0.5-0.2,0.9-1.2,1.9l-0.9,1h2.1v0.7h-3.4
							L30.9,59.7z"/>
						<path id="Path_2461" class="st8" d="M38.7,57.7c0-1.1,0.5-2.4,1.7-2.4s1.7,1.3,1.7,2.3c0,1.5-0.7,2.5-1.7,2.5
							S38.7,59.2,38.7,57.7 M41.2,57.7c0-1.1-0.3-1.7-0.8-1.7s-0.8,0.6-0.8,1.7c0,1.3,0.3,1.9,0.8,1.9S41.2,59,41.2,57.7"/>
						<path id="Path_2462" class="st8" d="M46.8,59.7l0.9-0.9c1.1-1.1,1.5-1.7,1.5-2.2c0-0.4-0.3-0.7-0.7-0.7c0,0,0,0,0,0
							c-0.4,0-0.8,0.2-1,0.5L47,56c0.4-0.4,1-0.7,1.6-0.7c0.8,0,1.5,0.4,1.5,1.2c0,0.5-0.2,0.9-1.2,1.9l-0.9,1h2.1v0.7h-3.4V59.7z"
							/>
						<path id="Path_2463" class="st8" d="M54.5,59.7l0.9-0.9c1.1-1.1,1.5-1.7,1.5-2.2c0-0.4-0.3-0.7-0.7-0.7c0,0,0,0,0,0
							c-0.4,0-0.8,0.2-1,0.5L54.7,56c0.4-0.4,1-0.7,1.6-0.7c0.8,0,1.5,0.4,1.5,1.2c0,0.5-0.2,0.9-1.2,1.9l-0.9,1h2.1v0.7h-3.4V59.7z
							"/>
					</g>
				</g>
			</g>
		</g>
	</g>
</g>
<g>
	<path d="M93.9,2.9l-0.1-1.4h0.8l-0.1,1.4l1.4-0.5l0.2,0.7l-1.4,0.4l0.9,1.1L95,5.1l-0.8-1.2l-0.8,1.2l-0.6-0.5l0.9-1.1l-1.4-0.4
		l0.2-0.7L93.9,2.9z"/>
</g>
</svg>
