<svg xmlns="http://www.w3.org/2000/svg" width="67.792" height="68" viewBox="0 0 67.792 68">
  <g id="coach" transform="translate(33.896 34)">
    <g id="Group_3311" data-name="Group 3311" transform="translate(-33.896 -34)">
      <g id="Group_3310" data-name="Group 3310">
        <path id="Path_6568" data-name="Path 6568" d="M67.74,62.684A4.618,4.618,0,0,1,63.177,68H4.614A4.618,4.618,0,0,1,.052,62.684,18.308,18.308,0,0,1,6.213,51.118c3.661-3.193,8.87-5.416,15.924-6.791,1.111-.217,1.869-1.533,1.869-3.146C16.4,34.728,14.939,28.3,14.939,18.788a19.128,19.128,0,0,1,4.9-13.261C23.246,1.911,28.107,0,33.9,0S44.547,1.911,47.957,5.527a19.128,19.128,0,0,1,4.9,13.261c0,1.3-.029,2.533-.093,3.724a.242.242,0,0,0,0,.036c-.424,7.521-2.41,13.071-8.971,18.634,0,1.613.759,2.929,1.868,3.146,7.054,1.375,12.263,3.6,15.924,6.791A18.308,18.308,0,0,1,67.74,62.684Zm-2.8,2.223a2.35,2.35,0,0,0,.542-1.883,16.12,16.12,0,0,0-5.407-10.188c-3.136-2.735-7.594-4.707-13.605-6.011a15.746,15.746,0,0,1-1.457,4.948c-1.459,2.946-4.574,6.458-11.12,6.458s-9.659-3.513-11.12-6.457a15.769,15.769,0,0,1-1.457-4.95C15.31,48.13,10.85,50.1,7.714,52.837a16.109,16.109,0,0,0-5.4,10.188,2.336,2.336,0,0,0,2.3,2.693H63.177A2.321,2.321,0,0,0,64.942,64.907ZM50.49,22.234c.057-1.1.08-2.24.08-3.446a20.173,20.173,0,0,0-.259-3.231,20.786,20.786,0,0,1-9.484,2.457,16.674,16.674,0,0,1-7.436-1.731c-6.422-3.159-13.586-2.027-15.752-1.573a19.659,19.659,0,0,0-.418,4.077c0,11.7,2.906,16.235,8.628,20.959a1.147,1.147,0,0,1,.411.782c.226,2.6-.882,4.834-2.716,5.715C23.782,48.71,25.22,55.95,33.9,55.95s10.114-7.24,10.351-9.707c-1.833-.881-2.94-3.117-2.714-5.715a1.145,1.145,0,0,1,.409-.782c4.363-3.6,6.592-7.107,7.681-11.308a22.209,22.209,0,0,1-6.339,5.12,1.156,1.156,0,0,1-.54.137h0v.418A1.086,1.086,0,0,1,41.657,35.2H35.55a1.085,1.085,0,0,1-1.084-1.086V30.993a1.085,1.085,0,0,1,1.084-1.086h6.107a1.086,1.086,0,0,1,1.086,1.086v.251A16.671,16.671,0,0,0,50.49,22.234Zm-.715-9A15.346,15.346,0,0,0,46.3,7.092c-2.969-3.146-7.257-4.81-12.4-4.81s-9.433,1.664-12.4,4.81a15.083,15.083,0,0,0-3.149,5.158c3.216-.536,9.844-1.069,16.055,1.987C41.09,17.527,47.676,14.425,49.775,13.238Z" transform="translate(0 0)" fill="#006b00"/>
        <path id="Path_6569" data-name="Path 6569" d="M75.205,262.419a2.35,2.35,0,0,1-.542,1.883,2.321,2.321,0,0,1-1.765.81H14.335a2.336,2.336,0,0,1-2.3-2.693,16.109,16.109,0,0,1,5.4-10.188c3.136-2.735,7.6-4.707,13.605-6.011a15.769,15.769,0,0,0,1.457,4.95c1.461,2.944,4.574,6.457,11.12,6.457s9.661-3.513,11.12-6.458a15.746,15.746,0,0,0,1.457-4.948c6.011,1.3,10.469,3.277,13.605,6.011A16.12,16.12,0,0,1,75.205,262.419Z" transform="translate(-9.721 -199.395)" fill="#e5eaa9"/>
        <path id="Path_6570" data-name="Path 6570" d="M124.416,16.81a15.346,15.346,0,0,1,3.478,6.147c-2.1,1.187-8.685,4.288-15.376,1-6.211-3.056-12.839-2.524-16.055-1.987a15.083,15.083,0,0,1,3.149-5.158c2.969-3.146,7.257-4.81,12.4-4.81S121.448,13.664,124.416,16.81Z" transform="translate(-78.119 -9.718)" fill="#e5eaa9"/>
      </g>
    </g>
  </g>
</svg>
