<svg xmlns="http://www.w3.org/2000/svg" width="133.402" height="20.527" viewBox="0 0 133.402 20.527"><g transform="translate(1363.705 -4493.785)"><path d="M10.791,0,7.456,6.757,0,7.841,5.4,13.1,4.122,20.527l6.67-3.506,6.67,3.506L16.187,13.1l5.4-5.259L14.126,6.757Z" transform="translate(-1363.704 4493.785)" fill="#f4c74e"/><path d="M10.791,0,7.456,6.757,0,7.841,5.4,13.1,4.122,20.527l6.67-3.506,6.67,3.506L16.187,13.1l5.4-5.259L14.126,6.757Z" transform="translate(-1337.121 4493.785)" fill="#f4c74e"/><path d="M10.791,0,7.456,6.757,0,7.841,5.4,13.1,4.122,20.527l6.67-3.506,6.67,3.506L16.187,13.1l5.4-5.259L14.126,6.757Z" transform="translate(-1307.795 4493.785)" fill="#f4c74e"/><path d="M10.791,0,7.456,6.757,0,7.841,5.4,13.1,4.122,20.527l6.67-3.506,6.67,3.506L16.187,13.1l5.4-5.259L14.126,6.757Z" transform="translate(-1279.84 4493.785)" fill="#f4c74e"/><path d="M10.791,0,7.456,6.757,0,7.841,5.4,13.1,4.122,20.527l6.67-3.506,6.67,3.506L16.187,13.1l5.4-5.259L14.126,6.757Z" transform="translate(-1251.885 4493.785)" fill="#f4c74e"/></g></svg>