<svg xmlns="http://www.w3.org/2000/svg" width="73.848" height="68" viewBox="0 0 73.848 68">
  <g id="laptop" transform="translate(36.924 34)">
    <g id="Group_3308" data-name="Group 3308" transform="translate(-36.924 -34)">
      <path id="Path_6549" data-name="Path 6549" d="M72.92,59.319v2.1A6.589,6.589,0,0,1,66.338,68H6.582A6.589,6.589,0,0,1,0,61.418v-2.1c0-.026,0-.05,0-.076s0-.024,0-.036a1.041,1.041,0,0,1,.022-.138.058.058,0,0,1,0-.018.9.9,0,0,1,.034-.12c0-.01.008-.02.012-.032a1,1,0,0,1,.046-.106.071.071,0,0,1,.008-.018l5.248-10.3V14.261a6.756,6.756,0,0,1,6.748-6.748h35.2A14.073,14.073,0,1,1,67.543,25.808V48.475l5.248,10.3a.071.071,0,0,0,.008.018c.016.034.032.07.046.106,0,.012.008.022.012.032.012.04.024.08.034.12a.058.058,0,0,0,0,.018,1.039,1.039,0,0,1,.02.138.217.217,0,0,1,0,.036C72.918,59.269,72.92,59.293,72.92,59.319Zm-2.394,2.1v-.9H2.394v.9a4.193,4.193,0,0,0,4.189,4.189H66.338A4.193,4.193,0,0,0,70.527,61.418Zm-.756-3.3-4.159-8.164H7.31L3.149,58.123Zm1.683-44.045a11.683,11.683,0,1,0-20.2,7.994,1.2,1.2,0,0,1,.036,1.6L49.494,25.76H59.772A11.694,11.694,0,0,0,71.454,14.078Zm-6.3,33.487V27.085a14,14,0,0,1-5.377,1.069H46.891a1.2,1.2,0,0,1-.908-1.975L48.8,22.9A14.09,14.09,0,0,1,46.324,9.907h-34.2a4.358,4.358,0,0,0-4.354,4.354v33.3Z" fill="#006b00"/>
      <path id="Path_6550" data-name="Path 6550" d="M80.133,303.4v.9a4.193,4.193,0,0,1-4.189,4.189H16.189A4.193,4.193,0,0,1,12,304.3v-.9Z" transform="translate(-9.606 -242.884)" fill="#e5eaa9"/>
      <path id="Path_6551" data-name="Path 6551" d="M78.253,250.47l4.159,8.164H15.79l4.161-8.164ZM53.52,254.509a1.839,1.839,0,0,0-1.837-1.839H46.521a1.839,1.839,0,1,0,0,3.678h5.162A1.838,1.838,0,0,0,53.52,254.509Z" transform="translate(-12.641 -200.511)" fill="#e5eaa9"/>
      <path id="Path_6552" data-name="Path 6552" d="M317.186,60.06a2.1,2.1,0,1,1-2.1,2.1A2.1,2.1,0,0,1,317.186,60.06Z" transform="translate(-252.242 -48.08)" fill="#006b00"/>
      <path id="Path_6553" data-name="Path 6553" d="M291.248,60.06a2.1,2.1,0,1,1-2.1,2.1A2.1,2.1,0,0,1,291.248,60.06Z" transform="translate(-231.476 -48.08)" fill="#006b00"/>
      <path id="Path_6554" data-name="Path 6554" d="M265.316,60.06a2.1,2.1,0,1,1-2.1,2.1A2.1,2.1,0,0,1,265.316,60.06Z" transform="translate(-210.718 -48.08)" fill="#006b00"/>
      <path id="Path_6555" data-name="Path 6555" d="M140.915,108.812v2.415a1.2,1.2,0,0,1-1.2,1.2H114.247a1.2,1.2,0,0,1-1.2-1.2v-2.415a9.579,9.579,0,0,1,8.349-9.486,7.91,7.91,0,1,1,11.168,0A9.577,9.577,0,0,1,140.915,108.812Zm-2.394,1.219v-1.219a7.182,7.182,0,0,0-7.173-7.175h-8.73a7.184,7.184,0,0,0-7.175,7.175v1.219Zm-6.022-16.3a5.516,5.516,0,1,0-5.517,5.515A5.522,5.522,0,0,0,132.5,93.729Z" transform="translate(-90.501 -68.702)" fill="#006b00"/>
      <path id="Path_6556" data-name="Path 6556" d="M148.127,172.295v1.219H125.05v-1.219a7.184,7.184,0,0,1,7.175-7.175h8.73A7.182,7.182,0,0,1,148.127,172.295Z" transform="translate(-100.108 -132.185)" fill="#e5eaa9"/>
      <path id="Path_6557" data-name="Path 6557" d="M160.765,97.82a5.515,5.515,0,1,1-5.515,5.515A5.522,5.522,0,0,1,160.765,97.82Z" transform="translate(-124.284 -78.309)" fill="#e5eaa9"/>
      <path id="Path_6558" data-name="Path 6558" d="M168.94,262.039a1.839,1.839,0,0,1-1.3,3.139h-5.162a1.839,1.839,0,1,1,0-3.678h5.162A1.823,1.823,0,0,1,168.94,262.039Z" transform="translate(-128.599 -209.341)" fill="#006b00"/>
    </g>
  </g>
</svg>
