<svg xmlns="http://www.w3.org/2000/svg" width="59.217" height="68" viewBox="0 0 59.217 68">
  <g id="phone" transform="translate(29.608 34)">
    <g id="Group_3307" data-name="Group 3307" transform="translate(-29.608 -34)">
      <path id="Path_6536" data-name="Path 6536" d="M57.291,30.823A7.976,7.976,0,0,1,59.216,35.1c0,1.189-.971,2.678-1.968,3.891a10.816,10.816,0,0,1,1.968,4.892c0,2.755-3.8,6.553-6.553,6.553h-.034v9.914a3.263,3.263,0,0,1-3.26,3.26H38.8a38.629,38.629,0,0,1-6.507,4.272,1.063,1.063,0,1,1-.978-1.888A44.812,44.812,0,0,0,35.3,63.608H18.629a3.263,3.263,0,0,1-3.26-3.26V26.315s0-.005,0-.007c0-.025,0-.05,0-.074a.193.193,0,0,1,0-.032c0-.023.007-.048.011-.071l.005-.034c0-.018.009-.035.014-.055s.007-.03.012-.046a.237.237,0,0,1,.012-.032.437.437,0,0,1,.025-.067.119.119,0,0,1,.011-.021A.55.55,0,0,1,15.5,25.8a.177.177,0,0,1,.014-.025c.012-.023.027-.044.041-.066l0-.005c2.549-3.666,5.3-8.253,5.3-9.274,0-1.54-.271-3.182-1.028-3.318a13.9,13.9,0,0,0-2.554,2.264.865.865,0,0,1-.083.1c-2.288,2.336-4.867,5.36-5.153,5.7a1.713,1.713,0,0,0-.275.466C8.578,29.61,6.519,35.756,6.519,37.293V58.154c0,1.585-.792,3.671-2.356,6.2A34.627,34.627,0,0,1,1.89,67.6,1.063,1.063,0,1,1,.235,66.268c1.156-1.434,4.157-5.69,4.157-8.115V37.293c0-2.653,3.776-12.385,5.4-16.446a3.931,3.931,0,0,1,.626-1.049c.282-.33,2.7-3.162,4.952-5.5V3.26A3.263,3.263,0,0,1,18.629,0H49.37a3.263,3.263,0,0,1,3.26,3.26V15.6a2.972,2.972,0,0,1,1.133-.234,4.338,4.338,0,0,1,4.357,4.49,5.357,5.357,0,0,1-2.235,3.972c.207.259.434.557.663.881a7.1,7.1,0,0,1,1.572,3.8A4.633,4.633,0,0,1,57.291,30.823Zm-.2,4.275a5.288,5.288,0,0,0-1.12-2.48l-.142.165-.027.032q-.274.311-.56.619c-.016.016-.034.034-.05.051q-.12.128-.245.255l-.05.05q-.29.3-.587.578l-.067.064-.23.213-.076.069c-.09.082-.181.163-.271.241l-.025.021q-.146.128-.292.25c-.027.023-.053.044-.08.066-.073.06-.144.119-.216.175-.03.025-.06.05-.09.073-.078.062-.156.122-.234.183l-.055.043c-.1.071-.191.142-.285.209l-.069.048c-.046.034-.094.067-.14.1-2.1,2.414-2.841,3.914-2.841,4.467,0,1.131.195,1.131,1.131,1.131a1.668,1.668,0,0,0,.643-.2,9.68,9.68,0,0,0,1.866-1.239c.011-.012.021-.023.032-.034s.051-.048.078-.071A18.707,18.707,0,0,0,55.1,38.23C56.559,36.594,57.089,35.46,57.089,35.1Zm0,8.783a8.711,8.711,0,0,0-1.326-3.265c-.021.021-.044.043-.067.064-.053.053-.106.1-.161.156s-.082.08-.122.119c-.06.057-.121.112-.181.167-.037.034-.073.067-.108.1-.071.064-.142.126-.213.188l-.08.071c-.1.085-.2.17-.294.252a18.448,18.448,0,0,0-2.04,3.015,6.971,6.971,0,0,0-.966,2.427c0,.948.25,1.028.356,1.062a2.805,2.805,0,0,0,.776.071C54.235,48.307,57.089,45.452,57.089,43.881ZM55.113,30.263c.854-1.207.879-1.7.879-1.753,0-.9-1.032-2.473-1.968-3.6-.055.019-.112.041-.168.058-.016.007-.034.011-.051.018-.064.019-.128.039-.193.057l-.076.021c-.073.018-.147.035-.223.05-.03.007-.06.012-.09.018-.078.012-.156.025-.234.032-.021,0-.043,0-.066.005-.074.007-.151.011-.225.012l-.034,0h-.016a.059.059,0,0,0-.018,0v2.23a1.063,1.063,0,0,1-.3.741C49.8,30.752,48.237,33.21,48.237,34c0,1.133.195,1.133,1.133,1.133a3.322,3.322,0,0,0,1.508-.7A18.669,18.669,0,0,0,54.9,30.548C54.976,30.452,55.045,30.357,55.113,30.263Zm.879-10.4c0-.025-.027-2.363-2.23-2.363a1.964,1.964,0,0,0-1.326.945.3.3,0,0,1-.018.025,4.178,4.178,0,0,0-.888,2.359,2.63,2.63,0,0,0,.622,2.088l.027.018a.774.774,0,0,0,.484.124,2.678,2.678,0,0,0,1.126-.374C54.861,22.105,55.992,20.925,55.992,19.86ZM50.57,43.842c-.035,0-.069,0-.1,0-.892,0-3.258,0-3.258-3.258a6.651,6.651,0,0,1,1.411-3.363c-1.058-.121-2.51-.674-2.51-3.226,0-2.161,3.2-5.754,4.392-7.014v-2.7a4.777,4.777,0,0,1-1.1-3.462,6.151,6.151,0,0,1,1.1-3.336V8.714H17.5v3.511c1.287-1.126,1.8-1.246,2.232-1.246a2.82,2.82,0,0,1,2.556,1.663,8.409,8.409,0,0,1,.7,3.791c0,2.061-3.978,8.024-5.49,10.213V55.991H50.5v-6.1a3.132,3.132,0,0,1-1.1-2.716A8.023,8.023,0,0,1,50.57,43.842ZM50.5,60.348v-2.23H17.5v2.23a1.134,1.134,0,0,0,1.133,1.133H49.37A1.134,1.134,0,0,0,50.5,60.348Zm0-53.761V3.26A1.134,1.134,0,0,0,49.37,2.127H18.629A1.134,1.134,0,0,0,17.5,3.26V6.587Z" transform="translate(0)" fill="#006b00"/>
      <path id="Path_6537" data-name="Path 6537" d="M131.714,327.88v2.23a1.134,1.134,0,0,1-1.133,1.133H99.84a1.134,1.134,0,0,1-1.133-1.133v-2.23Z" transform="translate(-81.211 -269.762)" fill="#e5eaa9"/>
      <path id="Path_6538" data-name="Path 6538" d="M131.714,13.133V16.46H98.707V13.133A1.134,1.134,0,0,1,99.84,12h30.741A1.134,1.134,0,0,1,131.714,13.133Zm-11.048,1.1a1.064,1.064,0,0,0-1.064-1.064h-1.1a1.064,1.064,0,0,0,0,2.127h1.1A1.064,1.064,0,0,0,120.665,14.23Zm-5.426,0a1.064,1.064,0,0,0-1.064-1.064h-4.483a1.064,1.064,0,0,0,0,2.127h4.483A1.064,1.064,0,0,0,115.24,14.23Z" transform="translate(-81.211 -9.873)" fill="#e5eaa9"/>
      <path id="Path_6539" data-name="Path 6539" d="M151.648,133.675a1.06,1.06,0,0,1,0,1.5l-12.076,12.076a1.061,1.061,0,0,1-1.5,0l-7.686-7.684a1.066,1.066,0,0,1,0-1.5l3.293-3.293a1.063,1.063,0,0,1,1.5,0l3.639,3.639,8.031-8.03a1.061,1.061,0,0,1,1.5,0Zm-2.256.752-1.789-1.79-8.031,8.031a1.063,1.063,0,0,1-1.5,0l-3.641-3.639-1.789,1.79L138.82,145Z" transform="translate(-107.016 -107.015)" fill="#006b00"/>
      <path id="Path_6540" data-name="Path 6540" d="M229.948,97.206a1.066,1.066,0,0,1,0,1.5l-1.98,1.98a1.064,1.064,0,0,1-1.5-1.5l1.98-1.98A1.066,1.066,0,0,1,229.948,97.206Z" transform="translate(-186.065 -79.72)" fill="#006b00"/>
      <path id="Path_6541" data-name="Path 6541" d="M229.948,234.446a1.064,1.064,0,0,1-1.5,1.5l-1.98-1.98a1.064,1.064,0,0,1,1.5-1.5Z" transform="translate(-186.065 -191.005)" fill="#006b00"/>
      <path id="Path_6542" data-name="Path 6542" d="M159.521,144.55l1.788,1.79-10.571,10.573-6.181-6.181,1.788-1.79,3.641,3.639a1.063,1.063,0,0,0,1.5,0Z" transform="translate(-118.934 -118.928)" fill="#e5eaa9"/>
      <path id="Path_6543" data-name="Path 6543" d="M206.558,18.58a1.064,1.064,0,0,1,0,2.127h-1.1a1.064,1.064,0,0,1,0-2.127Z" transform="translate(-168.167 -15.287)" fill="#006b00"/>
      <path id="Path_6544" data-name="Path 6544" d="M187.944,249.924v2.8a1.064,1.064,0,0,1-2.127,0v-2.8a1.064,1.064,0,1,1,2.127,0Z" transform="translate(-152.88 -204.749)" fill="#006b00"/>
      <path id="Path_6545" data-name="Path 6545" d="M187.944,76.624v2.8a1.064,1.064,0,1,1-2.127,0v-2.8a1.064,1.064,0,0,1,2.127,0Z" transform="translate(-152.88 -62.167)" fill="#006b00"/>
      <path id="Path_6546" data-name="Path 6546" d="M160.233,18.58a1.064,1.064,0,1,1,0,2.127h-4.483a1.064,1.064,0,0,1,0-2.127Z" transform="translate(-127.268 -15.287)" fill="#006b00"/>
      <path id="Path_6547" data-name="Path 6547" d="M138.1,99.186a1.064,1.064,0,1,1-1.5,1.5l-1.978-1.98a1.063,1.063,0,0,1,1.5-1.5Z" transform="translate(-110.498 -79.72)" fill="#006b00"/>
      <path id="Path_6548" data-name="Path 6548" d="M138.1,232.466a1.066,1.066,0,0,1,0,1.5l-1.98,1.98a1.063,1.063,0,0,1-1.5-1.5l1.978-1.98A1.066,1.066,0,0,1,138.1,232.466Z" transform="translate(-110.498 -191.005)" fill="#006b00"/>
    </g>
  </g>
</svg>
