<svg xmlns="http://www.w3.org/2000/svg" width="67.644" height="67.832" viewBox="0 0 67.644 67.832">
  <g id="pizza" transform="translate(-34.178 33.916)">
    <g id="Group_3304" data-name="Group 3304" transform="translate(34.178 -33.916)">
      <path id="Path_6508" data-name="Path 6508" d="M251.317,20.923a1.029,1.029,0,0,1-.73,1.262L223.078,29.5a1,1,0,0,1-.264.036,1.031,1.031,0,0,1-.994-1.3L229.248.762a1.032,1.032,0,0,1,1.264-.726,29.483,29.483,0,0,1,20.8,20.887Zm-5.748.464,3.473-.924a27.408,27.408,0,0,0-18.078-18.15l-.937,3.468A23.945,23.945,0,0,1,245.569,21.387Zm-21.3,5.664,19.3-5.133A21.873,21.873,0,0,0,229.487,7.772Z" transform="translate(-183.707 0)" fill="#006b00"/>
      <path id="Path_6509" data-name="Path 6509" d="M288.809,31.618l-3.473.924a23.945,23.945,0,0,0-15.543-15.606l.937-3.468a27.409,27.409,0,0,1,18.078,18.15Z" transform="translate(-223.474 -11.156)" fill="#e5eaa9"/>
      <path id="Path_6510" data-name="Path 6510" d="M58,73.433A29.493,29.493,0,1,1,37.175,52.54l.027.007a1.019,1.019,0,0,1,.714,1.26l-1.473,5.451a1.078,1.078,0,0,1-.053.148L30.952,79.56l20.327-5.406L56.737,72.7A1.029,1.029,0,0,1,58,73.433ZM55.976,88.158a27.441,27.441,0,0,0,.276-13.2l-3.47.924a23.843,23.843,0,0,1-5.748,21.27L49.567,99.7A27.25,27.25,0,0,0,55.976,88.158Zm-5.453-1.471a21.766,21.766,0,0,0,.263-10.27l-19.3,5.133L45.577,95.693A21.628,21.628,0,0,0,50.524,86.687ZM48.1,101.149l-2.532-2.543a23.78,23.78,0,0,1-21.291,5.671l-.934,3.465A27.438,27.438,0,0,0,48.1,101.149Zm-3.988-4L30.023,83l-5.2,19.282a21.713,21.713,0,0,0,19.3-5.14Zm-9.4-39.4.937-3.465a27.227,27.227,0,0,0-19.836,2.95,27.812,27.812,0,0,0-4.951,3.629L13.4,63.406a24.116,24.116,0,0,1,4.206-3.065A23.678,23.678,0,0,1,34.718,57.748ZM28.964,79.021l5.2-19.284a21.628,21.628,0,0,0-15.532,2.39,22.056,22.056,0,0,0-3.775,2.74ZM22.831,101.75l5.2-19.282L8.738,87.6A21.789,21.789,0,0,0,22.831,101.75Zm4.675-21.273L13.4,66.32A21.815,21.815,0,0,0,8.2,85.61Zm-6.148,26.729.936-3.465A23.856,23.856,0,0,1,6.744,88.13l-3.466.922A27.439,27.439,0,0,0,21.358,107.206ZM11.941,64.859,9.407,62.314A27.456,27.456,0,0,0,2.744,87.063l3.468-.922a23.872,23.872,0,0,1,5.729-21.282Z" transform="translate(0 -42.674)" fill="#006b00"/>
      <path id="Path_6511" data-name="Path 6511" d="M283.181,188.068A27.424,27.424,0,0,1,276.5,212.8l-2.532-2.541a23.843,23.843,0,0,0,5.748-21.27Z" transform="translate(-226.928 -155.78)" fill="#e5eaa9"/>
      <path id="Path_6512" data-name="Path 6512" d="M282.04,86.479a3.656,3.656,0,1,1-5-1.339A3.631,3.631,0,0,1,282.04,86.479Zm-2.369,3.212a1.6,1.6,0,1,0-2.34-1.8,1.576,1.576,0,0,0,.16,1.212A1.6,1.6,0,0,0,279.671,89.691Z" transform="translate(-227.964 -70.118)" fill="#006b00"/>
      <path id="Path_6513" data-name="Path 6513" d="M275.737,212.929c.788.455,1.183,1.25.879,1.777s-1.19.584-1.98.127-1.183-1.252-.879-1.777S274.947,212.472,275.737,212.929Z" transform="translate(-226.673 -176.117)" fill="#006b00"/>
      <path id="Path_6514" data-name="Path 6514" d="M273.345,63.636a1.1,1.1,0,1,1-1.5.4A1.1,1.1,0,0,1,273.345,63.636Z" transform="translate(-225.048 -52.588)" fill="#006b00"/>
      <path id="Path_6515" data-name="Path 6515" d="M245.926,235.228a3.658,3.658,0,1,1-5,1.339A3.662,3.662,0,0,1,245.926,235.228Zm-.446,3.966a1.6,1.6,0,1,0-2.925-.385,1.577,1.577,0,0,0,.745.968A1.6,1.6,0,0,0,245.48,239.194Z" transform="translate(-199.159 -194.438)" fill="#006b00"/>
      <path id="Path_6516" data-name="Path 6516" d="M158.217,325.788l2.532,2.543a27.437,27.437,0,0,1-24.757,6.593l.934-3.465a23.78,23.78,0,0,0,21.29-5.671Z" transform="translate(-112.645 -269.856)" fill="#e5eaa9"/>
      <path id="Path_6517" data-name="Path 6517" d="M257.2,126.1c.9.125,1.566.716,1.483,1.317s-.884.989-1.786.864-1.567-.716-1.483-1.317S256.3,125.979,257.2,126.1Z" transform="translate(-211.561 -104.435)" fill="#006b00"/>
      <path id="Path_6518" data-name="Path 6518" d="M225.513,310.066a1.1,1.1,0,1,1-1.5.4A1.1,1.1,0,0,1,225.513,310.066Z" transform="translate(-185.429 -256.71)" fill="#006b00"/>
      <path id="Path_6519" data-name="Path 6519" d="M219.363,231.706a1.1,1.1,0,1,1-1.5.4A1.1,1.1,0,0,1,219.363,231.706Z" transform="translate(-180.335 -191.804)" fill="#006b00"/>
      <path id="Path_6520" data-name="Path 6520" d="M88.091,64.172l-.937,3.465a23.678,23.678,0,0,0-17.11,2.594A24.118,24.118,0,0,0,65.837,73.3L63.3,70.751a27.812,27.812,0,0,1,4.951-3.629,27.227,27.227,0,0,1,19.836-2.95Z" transform="translate(-52.435 -52.563)" fill="#e5eaa9"/>
      <path id="Path_6521" data-name="Path 6521" d="M170.9,295.018a3.658,3.658,0,1,1-3.659,3.659A3.662,3.662,0,0,1,170.9,295.018Zm1.6,3.659a1.6,1.6,0,1,0-1.6,1.6A1.6,1.6,0,0,0,172.5,298.677Z" transform="translate(-138.53 -244.368)" fill="#006b00"/>
      <path id="Path_6522" data-name="Path 6522" d="M180.973,264.558c.608,0,1.1.738,1.1,1.65s-.491,1.65-1.1,1.65-1.1-.738-1.1-1.65S180.366,264.558,180.973,264.558Z" transform="translate(-148.992 -219.138)" fill="#006b00"/>
      <path id="Path_6523" data-name="Path 6523" d="M139.65,109.228a3.657,3.657,0,1,1-3.657,3.657A3.661,3.661,0,0,1,139.65,109.228Zm1.6,3.657a1.6,1.6,0,1,0-1.6,1.6A1.6,1.6,0,0,0,141.247,112.885Z" transform="translate(-112.645 -90.475)" fill="#006b00"/>
      <path id="Path_6524" data-name="Path 6524" d="M155.192,165.768a1.1,1.1,0,1,1-1.1,1.1A1.1,1.1,0,0,1,155.192,165.768Z" transform="translate(-127.638 -137.308)" fill="#006b00"/>
      <path id="Path_6525" data-name="Path 6525" d="M130.965,254.309a1.1,1.1,0,1,1-1.5-.4A1.1,1.1,0,0,1,130.965,254.309Z" transform="translate(-106.781 -210.192)" fill="#006b00"/>
      <path id="Path_6526" data-name="Path 6526" d="M119.636,206.337c.215.568-.3,1.291-1.154,1.614s-1.717.124-1.933-.445.3-1.291,1.154-1.614S119.421,205.769,119.636,206.337Z" transform="translate(-96.499 -170.416)" fill="#006b00"/>
      <path id="Path_6527" data-name="Path 6527" d="M115.75,312.939c.3.525-.089,1.322-.879,1.777s-1.676.4-1.98-.127.091-1.322.879-1.777S115.446,312.414,115.75,312.939Z" transform="translate(-93.426 -258.852)" fill="#006b00"/>
      <path id="Path_6528" data-name="Path 6528" d="M38.109,280.379l-.936,3.465a27.439,27.439,0,0,1-18.08-18.154l3.466-.922A23.855,23.855,0,0,0,38.109,280.379Z" transform="translate(-15.815 -219.312)" fill="#e5eaa9"/>
      <path id="Path_6529" data-name="Path 6529" d="M110.343,120.918c.608,0,1.1.738,1.1,1.65s-.491,1.65-1.1,1.65-1.1-.738-1.1-1.65S109.736,120.918,110.343,120.918Z" transform="translate(-90.488 -100.158)" fill="#006b00"/>
      <path id="Path_6530" data-name="Path 6530" d="M86.4,264.309a3.656,3.656,0,1,1-5-1.339A3.66,3.66,0,0,1,86.4,264.309Zm-2.368,3.212a1.6,1.6,0,1,0-2.182-.585A1.6,1.6,0,0,0,84.036,267.521Z" transform="translate(-65.916 -217.417)" fill="#006b00"/>
      <path id="Path_6531" data-name="Path 6531" d="M69,170.04a3.659,3.659,0,0,1-1.835,6.826A3.658,3.658,0,0,1,64,171.379,3.662,3.662,0,0,1,69,170.04Zm-.445,3.966a1.6,1.6,0,0,0-.585-2.18,1.578,1.578,0,0,0-.8-.215,1.6,1.6,0,1,0,1.382,2.395Z" transform="translate(-52.607 -140.442)" fill="#006b00"/>
      <path id="Path_6532" data-name="Path 6532" d="M19.351,114.4l2.534,2.544a23.872,23.872,0,0,0-5.729,21.282l-3.468.922A27.456,27.456,0,0,1,19.351,114.4Z" transform="translate(-9.944 -94.758)" fill="#e5eaa9"/>
      <ellipse id="Ellipse_476" data-name="Ellipse 476" cx="1.1" cy="1.1" rx="1.1" ry="1.1" transform="translate(9.886 38.065)" fill="#006b00"/>
    </g>
  </g>
</svg>
