<svg xmlns="http://www.w3.org/2000/svg" width="60" height="60" viewBox="0 0 60 60"><g transform="translate(-686.5 -1766.924)"><circle cx="30" cy="30" r="30" transform="translate(686.5 1766.924)" fill="#fff5e4"/><g transform="translate(716.477 1796.841)"><g transform="translate(-21.7 -14.405)"><path d="M40.594,2.5a.915.915,0,0,0-.871-.753h-.315a4.629,4.629,0,0,0-2.84,1.147,4.814,4.814,0,0,0-1.285,2.658A14.791,14.791,0,0,0,35.2,8.159v5.556a2.2,2.2,0,0,0,.91,1.643v8.962a1.712,1.712,0,0,0,1.711,1.709h.651l-.1-.1a2,2,0,0,0,1.315-1.61V15.354A2.306,2.306,0,0,0,40.6,13.7ZM38.208,14.118l-.2.055v10.1a.184.184,0,0,1-.2.177.174.174,0,0,1-.127-.059.2.2,0,0,1-.049-.147V14.182l-.186-.06c-.422-.139-.648-.38-.648-.5V8.084c0-1.194,0-3,.977-3.976a2.3,2.3,0,0,1,1.061-.564V13.621C38.846,13.777,38.626,14,38.208,14.118Z" transform="translate(2.803 0.139)" fill="#79ab4f"/><path d="M6.392,2.43l-.011-.149a1,1,0,0,0-.958-.728.927.927,0,0,0-.86.9L4.941,8A1.278,1.278,0,0,1,4.3,9.263c-.026.016-.055.023-.081.038l0-6.934a1.09,1.09,0,0,0-.805-.805l-.051-.009H3.33a.866.866,0,0,0-.855.877v6.9a1.378,1.378,0,0,1-.157-.073,1.228,1.228,0,0,1-.555-1.279l.228-5.55V2.254a.77.77,0,0,0-.826-.7.848.848,0,0,0-.775.857L.015,7.94a2.971,2.971,0,0,0,1.423,2.84,3.785,3.785,0,0,0,1.038.392l0,14.145a.916.916,0,0,0,.859.746h.025a.925.925,0,0,0,.865-.8L4.223,11.158a4.708,4.708,0,0,0,1.128-.379A2.962,2.962,0,0,0,6.77,7.95Z" transform="translate(0 0.124)" fill="#79ab4f"/><path d="M21.409,0h-.036a14.405,14.405,0,0,0-10.21,24.566A14.314,14.314,0,0,0,21.338,28.81h0A14.671,14.671,0,0,0,35.778,14.37,14.435,14.435,0,0,0,21.409,0Zm-.071,1.86A12.578,12.578,0,1,1,8.761,14.438,12.679,12.679,0,0,1,21.337,1.86Z" transform="translate(0.555)" fill="#79ab4f"/><path d="M12.041,11.771c0,3.341,2.863,5.973,7.2,9.957l1.638,1.478,1.615-1.456c4.348-3.995,7.22-6.632,7.22-9.973A4.934,4.934,0,0,0,24.87,6.762h-.14a5.329,5.329,0,0,0-3.853,1.672,5.327,5.327,0,0,0-3.851-1.672,4.95,4.95,0,0,0-4.984,4.869Zm1.862,0A3.171,3.171,0,0,1,14.8,9.52a3.1,3.1,0,0,1,2.178-.9h.044A3.5,3.5,0,0,1,19.66,9.862l1.215,1.444L22.09,9.862a3.492,3.492,0,0,1,2.642-1.244h.037a3.121,3.121,0,0,1,2.184.9,3.172,3.172,0,0,1,.9,2.236,5.815,5.815,0,0,1-1.6,3.635,52.105,52.105,0,0,1-5.019,5l-.35.323-.351-.323A52.214,52.214,0,0,1,15.5,15.38,5.777,5.777,0,0,1,13.9,11.766Z" transform="translate(0.96 0.539)" fill="#79ab4f"/></g></g></g></svg>