<svg xmlns="http://www.w3.org/2000/svg" width="60" height="60" viewBox="0 0 60 60"><g transform="translate(-290 -2584)"><circle cx="30" cy="30" r="30" transform="translate(290 2584)" fill="#fff5e4"/><g transform="translate(319.56 2613.545)"><path d="M43.121,13.918a.31.31,0,0,0-.084-.253c0-.169.084-.337.084-.506a4.37,4.37,0,0,0-3.88-4.3A4.4,4.4,0,0,0,31.4,7.929v-.59C31.4,3.205,29.118,0,26.25,0a4.335,4.335,0,0,0-3.627,2.193A4.386,4.386,0,0,0,19.08,0c-2.868,0-5.061,3.121-5.146,7.17h0C12.5,4.386,8.03,3.037,7.861,2.952a.728.728,0,0,0-.928.506h0a15.653,15.653,0,0,0-.675,5.23C3.981,7.676.691,8.351.522,8.351a.657.657,0,0,0-.506.759A11.362,11.362,0,0,0,2.21,13.918,12.673,12.673,0,0,0,3.053,18.3c0,.084.084.253.084.337,1.94,4.808,6.5,9.363,12.147,11.809v3.88a.756.756,0,0,0,.759.759H29.2a.756.756,0,0,0,.759-.759h0v-3.88c5.652-2.446,10.207-7,12.147-11.809.084-.084.084-.169.084-.337A11.37,11.37,0,0,0,43.121,13.918Zm-39.393.675H41.687a12.437,12.437,0,0,1-.675,2.952H4.4a11.565,11.565,0,0,1-.675-2.952ZM23.382,9.616a.81.81,0,0,0,.759.59,2.989,2.989,0,0,1,2.952,2.952H14.441a12.635,12.635,0,0,0,.169-1.856,3.1,3.1,0,0,1,2.278-1.1h0a.81.81,0,0,0,.759-.59A2.9,2.9,0,0,1,21.1,7.339a3.123,3.123,0,0,1,2.278,2.278Zm8.857,0a2.928,2.928,0,0,1,5.736,0,.81.81,0,0,0,.759.59,2.989,2.989,0,0,1,2.952,2.952H28.528a3.047,3.047,0,0,1,2.952-2.952.739.739,0,0,0,.759-.59Zm-5.9-8.182c1.94,0,3.627,2.7,3.627,5.82a12.584,12.584,0,0,1-.169,1.771,4.777,4.777,0,0,0-2.024,1.6,4.3,4.3,0,0,0-3.121-1.94,4.437,4.437,0,0,0-1.94-2.362c.253-2.7,1.771-4.892,3.627-4.892ZM19,1.434a3.451,3.451,0,0,1,2.868,2.278,21.126,21.126,0,0,0-.59,2.193A4.327,4.327,0,0,0,16.3,8.773a2.463,2.463,0,0,0-.759.169,10.384,10.384,0,0,1-.169-1.687c0-3.121,1.687-5.82,3.627-5.82ZM8.114,4.639c1.181.422,3.627,1.6,4.471,3.205a5.925,5.925,0,0,1,.506,2.952,5.16,5.16,0,0,0-.422,1.012L10.392,7.423A.781.781,0,0,0,9.38,7.086.712.712,0,0,0,9.042,8.1l2.7,5.061h-.169a8.435,8.435,0,0,1-3.458-2.952C7.271,8.52,7.777,5.9,8.114,4.639Zm-1.94,5.4c.169.169.337.253.506.422.084.169.084.253.169.422a9.208,9.208,0,0,0,1.1,1.434c.169.253.253.59.422.844H8.2l-3.88-2.531a.654.654,0,0,0-.844.169.654.654,0,0,0,.169.844l2.278,1.518h-2.7A8.585,8.585,0,0,1,1.45,9.532c1.1-.169,3.374-.422,4.724.506ZM28.528,33.573H16.887V30.62H28.612v2.952Zm.59-4.386H16.3A21.593,21.593,0,0,1,4.993,18.98H40.422a21.907,21.907,0,0,1-11.3,10.207Z" transform="translate(-21.56 -17.546)" fill="#79ab4f"/></g></g></svg>