<svg xmlns="http://www.w3.org/2000/svg" width="41.986" height="68" viewBox="0 0 41.986 68">
  <g id="shake" transform="translate(20.993 34)">
    <g id="Group_3306" data-name="Group 3306" transform="translate(-20.993 -34)">
      <g id="Group_3305" data-name="Group 3305">
        <path id="Path_6533" data-name="Path 6533" d="M41.986,24.36v6.488A1.088,1.088,0,0,1,40.9,31.935H37.79L34.929,67a1.089,1.089,0,0,1-1.083,1H8.013A1.089,1.089,0,0,1,6.93,67L4.067,31.935H1.087A1.088,1.088,0,0,1,0,30.848V24.36a1.088,1.088,0,0,1,1.087-1.087H2.605v-.607A18.351,18.351,0,0,1,23.156,4.456L24.408.74A1.086,1.086,0,0,1,25.785.057l5.1,1.719a1.087,1.087,0,0,1,.683,1.377L30.313,6.891A18.308,18.308,0,0,1,39.29,22.666v.607H40.9A1.088,1.088,0,0,1,41.986,24.36Zm-2.174,5.4V25.447H2.174v4.314H39.812Zm-2.7-6.488v-.607A16.146,16.146,0,0,0,28.486,8.358a1.084,1.084,0,0,1-.522-1.308l1.2-3.562L26.12,2.465,24.926,6.009a1.087,1.087,0,0,1-1.216.725A16.18,16.18,0,0,0,4.779,22.666v.607Zm-2.4,19.65.9-10.988H6.249l.9,10.988ZM33.391,59.117,34.534,45.1H7.323L8.468,59.117Zm-.549,6.709.371-4.535H8.646l.37,4.535Z" transform="translate(0 0)" fill="#006b00"/>
        <path id="Path_6534" data-name="Path 6534" d="M63.85,176.266l-.9,10.988H35.387l-.9-10.988Z" transform="translate(-28.241 -144.331)" fill="#e5eaa9"/>
        <path id="Path_6535" data-name="Path 6535" d="M72.287,338.3l-.371,4.535H48.09l-.37-4.535Z" transform="translate(-39.074 -277.005)" fill="#e5eaa9"/>
      </g>
    </g>
  </g>
</svg>
