<svg xmlns="http://www.w3.org/2000/svg" width="74.702" height="68" viewBox="0 0 74.702 68">
  <g id="skillet" transform="translate(37.351 34)">
    <g id="Group_3309" data-name="Group 3309" transform="translate(-37.351 -34)">
      <path id="Path_6559" data-name="Path 6559" d="M74.7,58.31a2.987,2.987,0,0,1-.217,1.1,1.607,1.607,0,0,1-.073.209L67.757,74.164a11.842,11.842,0,0,1-7.477,6.445,77.327,77.327,0,0,1-21.635,3.169,71.673,71.673,0,0,1-20.922-3.121,11.836,11.836,0,0,1-7.318-6.4L3.717,59.638a.2.2,0,0,1-.011-.021,1.21,1.21,0,0,1-.067-.193,2.967,2.967,0,0,1-.224-1.114c0-2.036,1.973-3.706,6.03-5.106a65.237,65.237,0,0,1,13.06-2.651,4.118,4.118,0,0,1,.52-.634l2.436-2.438-7.344-7.344-.546.546a1.292,1.292,0,0,1-1.784.037L1.365,27.448A4.2,4.2,0,0,1,0,24.421v-.09A4.229,4.229,0,0,1,4.319,20.1a4.193,4.193,0,0,1,3.027,1.365L20.621,35.888a1.29,1.29,0,0,1-.039,1.786l-.641.641,7.346,7.344,2.436-2.438a4.188,4.188,0,0,1,5.916,0l6.458,6.46c1.436.028,2.977.08,4.581.159,1.679-1.507,9.207-8.737,16.016-15.334a5.345,5.345,0,0,1,7.681,7.427l-8.633,9.53C68.969,52.783,74.7,54.943,74.7,58.31Zm-2.633.2a.474.474,0,0,0,.054-.2c0-.522-1.481-2.221-8.251-3.773a106.192,106.192,0,0,0-19.122-2.2l2.995,2.995a4.183,4.183,0,0,1,0,5.916l-3.076,3.076c16.379-.568,26.32-3.551,27.4-5.772l0,0s0-.006,0-.011a.088.088,0,0,1,.011-.019Zm-6.658,14.58L70.072,62.9c-6.666,2.79-19.475,4.091-31.013,4.091S14.715,65.694,8.047,62.9l4.706,10.282a9.244,9.244,0,0,0,5.721,5,71,71,0,0,0,41.086-.056A9.27,9.27,0,0,0,65.411,73.092ZM68.464,40.2a2.765,2.765,0,0,0-3.975-3.842c-2.782,2.7-10.353,10.022-14.266,13.7,2.814.209,5.712.505,8.485.907ZM46.39,58.286a1.591,1.591,0,0,0-.469-1.135L33.814,45.046a1.6,1.6,0,0,0-2.266,0l-6.7,6.7a1.6,1.6,0,0,0,0,2.268l10.36,10.36q1.874.045,3.85.045c.634,0,1.258,0,1.875-.011l4.987-4.985A1.59,1.59,0,0,0,46.39,58.286ZM31.425,64.237l-8.4-8.4a4.17,4.17,0,0,1-1.208-2.6,60.09,60.09,0,0,0-11.531,2.408C6.894,56.814,6,57.9,6,58.31a.488.488,0,0,0,.058.211l-.011,0a.2.2,0,0,0,.011.021l.006.013C7.066,60.67,16.244,63.5,31.425,64.237ZM17.884,36.724,5.448,23.213a1.653,1.653,0,1,0-2.335,2.337L16.624,37.984Z" transform="translate(0 -15.778)" fill="#006b00"/>
      <path id="Path_6560" data-name="Path 6560" d="M99.455,219.213,94.795,229.4a9.27,9.27,0,0,1-5.852,5.041,71,71,0,0,1-41.086.056,9.244,9.244,0,0,1-5.721-5L37.43,219.213C44.1,222,56.909,223.3,68.443,223.3S92.789,222,99.455,219.213Z" transform="translate(-29.383 -172.087)" fill="#e5eaa9"/>
      <path id="Path_6561" data-name="Path 6561" d="M251.689,92.841a2.776,2.776,0,0,1,.172,3.887L242.105,107.5c-2.773-.4-5.671-.7-8.485-.907,3.913-3.68,11.484-11.007,14.266-13.7A2.767,2.767,0,0,1,251.689,92.841Z" transform="translate(-183.397 -72.305)" fill="#e5eaa9"/>
      <path id="Path_6562" data-name="Path 6562" d="M224.835,9.531c1.778,1.78,2.556,3.665,2.311,5.6-.428,3.386-3.915,5.484-4.063,5.57a1.29,1.29,0,0,1-1.316-2.219c.034-.019,2.558-1.559,2.82-3.683a4.274,4.274,0,0,0-1.578-3.448c-1.78-1.78-2.556-3.665-2.311-5.607.428-3.386,3.915-5.482,4.063-5.57A1.29,1.29,0,1,1,226.073,2.4c-.022.015-2.554,1.554-2.816,3.683A4.261,4.261,0,0,0,224.835,9.531Z" transform="translate(-173.219 0)" fill="#006b00"/>
      <path id="Path_6563" data-name="Path 6563" d="M160.683,161.553a1.289,1.289,0,1,1-1.823,1.823l-7.974-7.974a1.289,1.289,0,1,1,1.823-1.823Z" transform="translate(-118.152 -120.266)" fill="#006b00"/>
      <path id="Path_6564" data-name="Path 6564" d="M170.671,9.531c1.78,1.78,2.558,3.665,2.313,5.6-.428,3.386-3.915,5.484-4.063,5.57a1.29,1.29,0,0,1-1.316-2.219c.032-.019,2.558-1.559,2.821-3.683a4.274,4.274,0,0,0-1.578-3.448c-1.78-1.78-2.558-3.665-2.311-5.607.428-3.386,3.915-5.482,4.063-5.57A1.289,1.289,0,1,1,171.911,2.4c-.021.015-2.554,1.554-2.816,3.683A4.265,4.265,0,0,0,170.671,9.531Z" transform="translate(-130.7 0)" fill="#006b00"/>
      <path id="Path_6565" data-name="Path 6565" d="M142.823,179.413A1.289,1.289,0,1,1,141,181.236l-7.973-7.974a1.289,1.289,0,0,1,1.823-1.823Z" transform="translate(-104.131 -134.286)" fill="#006b00"/>
      <path id="Path_6566" data-name="Path 6566" d="M116.505,9.531c1.78,1.78,2.558,3.665,2.313,5.6-.43,3.386-3.917,5.484-4.065,5.57a1.272,1.272,0,0,1-.654.181,1.291,1.291,0,0,1-.662-2.4c.034-.019,2.56-1.559,2.823-3.683a4.274,4.274,0,0,0-1.578-3.448c-1.78-1.78-2.558-3.665-2.313-5.607.43-3.386,3.917-5.482,4.065-5.57A1.289,1.289,0,1,1,117.746,2.4c-.021.015-2.554,1.554-2.818,3.683A4.274,4.274,0,0,0,116.505,9.531Z" transform="translate(-88.178 0)" fill="#006b00"/>
      <path id="Path_6567" data-name="Path 6567" d="M14.866,32.634,27.3,46.146l-1.26,1.26L12.531,34.971a1.653,1.653,0,1,1,2.335-2.337Z" transform="translate(-9.419 -25.2)" fill="#e5eaa9"/>
    </g>
  </g>
</svg>
