<svg xmlns="http://www.w3.org/2000/svg" width="52.306" height="35.923" viewBox="0 0 52.306 35.923"><g transform="translate(26.153 17.962)"><g transform="translate(-26.153 -17.962)"><rect width="50.545" height="31.616" transform="translate(0.88 0.881)" fill="#fff"/><path d="M51.425,33.377H.881A.88.88,0,0,1,0,32.5V.881A.88.88,0,0,1,.881,0H51.425a.88.88,0,0,1,.881.881V32.5A.88.88,0,0,1,51.425,33.377ZM1.761,31.616H50.544V1.761H1.761Z" transform="translate(0 0)" fill="#64a535"/><g transform="translate(33.077 0)"><rect width="17.468" height="31.616" transform="translate(0.88 0.881)" fill="#fff"/><path d="M74.7,33.377H57.229a.88.88,0,0,1-.881-.881V.881A.88.88,0,0,1,57.229,0H74.7a.88.88,0,0,1,.881.881V32.5A.88.88,0,0,1,74.7,33.377ZM58.109,31.616H73.816V1.761H58.109Z" transform="translate(-56.348 0)" fill="#64a535"/></g><g transform="translate(37.847 13.422)"><rect width="1.977" height="1.761" transform="translate(3.867)" fill="#64a535"/><rect width="1.975" height="1.761" transform="translate(7.735)" fill="#64a535"/><rect width="1.976" height="1.761" fill="#64a535"/></g><g transform="translate(37.847 17.139)"><rect width="1.977" height="1.761" transform="translate(3.867)" fill="#64a535"/><rect width="1.975" height="1.761" transform="translate(7.735)" fill="#64a535"/><rect width="1.976" height="1.761" fill="#64a535"/></g><g transform="translate(0 5.569)"><rect width="33.077" height="20.478" transform="translate(0.88 0.88)" fill="#f9f09f"/><path d="M33.957,31.726H.881A.88.88,0,0,1,0,30.846V10.368a.88.88,0,0,1,.881-.881H33.957a.88.88,0,0,1,.881.881V30.846A.88.88,0,0,1,33.957,31.726Zm-32.2-1.761H33.077V11.248H1.761Z" transform="translate(0 -9.487)" fill="#64a535"/></g><rect width="1.761" height="11.43" transform="translate(28.09 11.578)" fill="#64a535"/><g transform="translate(37.201 4.051)"><rect width="9.241" height="5.472" transform="translate(0.88 0.88)" fill="#f9f09f"/><path d="M73.5,14.134H64.255a.88.88,0,0,1-.881-.881V7.782a.88.88,0,0,1,.881-.881H73.5a.88.88,0,0,1,.881.881v5.472A.88.88,0,0,1,73.5,14.134Zm-8.36-1.761h7.48V8.662h-7.48Z" transform="translate(-63.374 -6.901)" fill="#64a535"/></g><g transform="translate(38.294 21.368)"><path d="M66.736,41.429a3.527,3.527,0,1,1,3.527,3.527A3.53,3.53,0,0,1,66.736,41.429Z" transform="translate(-65.855 -37.021)" fill="#f9f09f"/><path d="M69.644,45.217a4.407,4.407,0,1,1,4.407-4.407A4.412,4.412,0,0,1,69.644,45.217Zm0-7.054a2.646,2.646,0,1,0,2.646,2.646A2.65,2.65,0,0,0,69.644,38.163Z" transform="translate(-65.236 -36.402)" fill="#64a535"/></g><path d="M14.571,58.166H12.81V55.62H8.9v2.546H7.136V54.74a.881.881,0,0,1,.881-.881h5.674a.881.881,0,0,1,.881.881Z" transform="translate(-2.947 -22.243)" fill="#64a535"/><path d="M77,58.166H75.237V55.62H71.323v2.546H69.562V54.74a.88.88,0,0,1,.881-.881h5.675A.88.88,0,0,1,77,54.74Z" transform="translate(-28.728 -22.243)" fill="#64a535"/><g transform="translate(9.863 11.647)"><path d="M19.272,31.212l-.83-1.554.415.777-.43-.768a1.725,1.725,0,0,0,.724-1.541,3.514,3.514,0,0,0-.945-1.742,5.1,5.1,0,0,1-1.4-3.074,4.477,4.477,0,0,1,1.517-3.468l1.075,1.395a2.731,2.731,0,0,0-.831,2.073,3.743,3.743,0,0,0,1.035,2,4.772,4.772,0,0,1,1.313,2.819A3.481,3.481,0,0,1,19.272,31.212Z" transform="translate(-16.802 -19.842)" fill="#64a535"/><path d="M25.795,31.212l-.83-1.554.415.777-.43-.768a1.725,1.725,0,0,0,.723-1.541,3.517,3.517,0,0,0-.944-1.742,5.1,5.1,0,0,1-1.4-3.074,4.479,4.479,0,0,1,1.517-3.468l1.075,1.395a2.731,2.731,0,0,0-.831,2.073,3.744,3.744,0,0,0,1.036,2,4.772,4.772,0,0,1,1.312,2.819A3.481,3.481,0,0,1,25.795,31.212Z" transform="translate(-19.496 -19.842)" fill="#64a535"/><path d="M33.05,31.212l-.83-1.554.415.777-.43-.768a1.725,1.725,0,0,0,.723-1.541,3.517,3.517,0,0,0-.945-1.742,5.1,5.1,0,0,1-1.4-3.074A4.479,4.479,0,0,1,32.1,19.842l1.075,1.395a2.731,2.731,0,0,0-.831,2.073,3.744,3.744,0,0,0,1.036,2,4.772,4.772,0,0,1,1.312,2.819A3.481,3.481,0,0,1,33.05,31.212Z" transform="translate(-22.492 -19.842)" fill="#64a535"/></g></g></g></svg>
