<svg xmlns="http://www.w3.org/2000/svg" width="55.733" height="49.659" viewBox="0 0 55.733 49.659"><g transform="translate(35.177 31.344)"><g transform="translate(-35.177 -31.344)"><ellipse cx="25.039" cy="5.371" rx="25.039" ry="5.371" transform="translate(4.345 25.563)" fill="#fff"/><path d="M67.694,95.372l5.835-4.777a.836.836,0,0,1,1.175.143l7.6,9.28a.839.839,0,0,1-.093,1.182l-3.567,2.922q-2.657-.047-5.006-.2L67.6,96.551A.839.839,0,0,1,67.694,95.372Z" transform="translate(-51.31 -68.828)" fill="#fff"/><g transform="translate(17.665)"><path d="M107.362,14.3a1.065,1.065,0,0,1,.906-1.2,2.7,2.7,0,0,0,2.086-1.745,2.827,2.827,0,0,0-.556-2.73c-.752-.821-2.35-1.613-2.535-3.326-.209-1.938,1.446-3.95,2.451-4.978a1.064,1.064,0,0,1,1.521,1.489c-1.374,1.4-1.922,2.648-1.856,3.26.071.658,1.19,1.246,1.988,2.117a4.972,4.972,0,0,1,1,4.866,4.865,4.865,0,0,1-3.414,3.082A1.217,1.217,0,0,1,107.362,14.3Z" transform="translate(-99.306 0)" fill="#29353a"/><path d="M74.108,14.3a1.084,1.084,0,0,1,.906-1.2A2.7,2.7,0,0,0,77.1,11.353a2.827,2.827,0,0,0-.556-2.73C75.79,7.8,74.194,7.009,74.009,5.3,73.8,3.36,75.455,1.347,76.46.319a1.064,1.064,0,0,1,1.521,1.489c-1.374,1.4-1.922,2.649-1.856,3.26.071.658,1.19,1.246,1.988,2.117a4.973,4.973,0,0,1,1,4.865,4.858,4.858,0,0,1-3.59,3.12C74.809,15.307,74.175,15.036,74.108,14.3Z" transform="translate(-73.991 0)" fill="#29353a"/><path d="M143.175,14.3a1.072,1.072,0,0,1,.905-1.2,2.7,2.7,0,0,0,2.086-1.745,2.827,2.827,0,0,0-.556-2.73c-.752-.821-2.35-1.612-2.535-3.326-.21-1.937,1.445-3.95,2.45-4.978a1.064,1.064,0,0,1,1.521,1.489c-1.374,1.4-1.922,2.648-1.856,3.259.071.66,1.189,1.245,1.988,2.117a4.972,4.972,0,0,1,1,4.866,4.863,4.863,0,0,1-3.453,3.091C143.958,15.314,143.265,15.057,143.175,14.3Z" transform="translate(-126.568 0)" fill="#29353a"/></g><g transform="translate(0 1.279)"><path d="M44.182,29.2l5.835-6.279A3.638,3.638,0,0,0,49,17.409a4.541,4.541,0,0,0-5.8.783S32.761,28.119,32.71,28.212c-.716-.017-3.82-.024-4.536-.024a1.064,1.064,0,1,0,0,2.127c14.91,0,25.432,3.118,25.432,4.72,0,1.442-8.084,4.214-22.937,4.35l1.578-1.292a2.969,2.969,0,0,0,.391-4.176l-7.6-9.28a2.966,2.966,0,0,0-4.171-.439l-2.2,1.8-4.921-6.009.31-.255a1.064,1.064,0,0,0,.186-1.449L5.853,6.8A3.341,3.341,0,0,0,1.1,6.039a3.3,3.3,0,0,0-.162,4.777l9.61,10.493a1.058,1.058,0,0,0,.785.346,2.458,2.458,0,0,0,.766-.318l4.918,6.012-1.984,1.624a2.862,2.862,0,0,0-.671.785C6.573,31.273,3.32,32.686,3.32,35.036a2.427,2.427,0,0,0,.523,1.475c0,.167,5.7,11.849,5.8,12.035,1.716,3.2,9.2,5.19,19.537,5.19,9.015,0,19.165-1.671,20.291-5.336.313-.69,5.186-10.5,5.735-11.89a2.424,2.424,0,0,0,.523-1.475C55.733,32.247,50.865,30.284,44.182,29.2Zm-8.564-.879L44.791,19.6a2.46,2.46,0,0,1,3.123-.365,1.516,1.516,0,0,1,.5,2.275l-6.8,7.318C39.7,28.594,37.684,28.422,35.618,28.317ZM11.44,19.13,2.513,9.379a1.185,1.185,0,0,1-.026-1.724,1.187,1.187,0,0,1,1.647.394l7.8,10.679Zm4.944,11.491,5.835-4.777a.836.836,0,0,1,1.175.143l7.6,9.28a.839.839,0,0,1-.093,1.182l-3.567,2.922q-2.657-.047-5.006-.2L16.291,31.8A.839.839,0,0,1,16.384,30.621ZM5.449,35.036c0-.365,1.461-1.965,8.576-3.19a2.969,2.969,0,0,0,.621,1.3l4.737,5.787C10.3,38.065,5.449,36.153,5.449,35.036ZM47.444,47.768c-.423,1.569-7.17,3.839-18.26,3.839-10.161,0-16.577-2.046-17.658-4.056-.115-.222-2.593-5.25-4.4-8.905,5.577,2.2,16,2.872,22.4,2.872s16.806-.673,22.385-2.87C47.518,47.491,47.475,47.649,47.444,47.768Z" transform="translate(0 -5.357)" fill="#29353a"/><g transform="translate(18.876 22.986)"><g transform="translate(3.062)"><path d="M97.142,109.5l-5.014-6.125a1.064,1.064,0,1,1,1.647-1.348l5.014,6.124a1.064,1.064,0,1,1-1.647,1.348Z" transform="translate(-91.887 -101.633)" fill="#29353a"/></g><g transform="translate(0 2.507)"><path d="M84.315,120,79.3,113.871a1.064,1.064,0,0,1,1.647-1.348l5.014,6.125A1.064,1.064,0,1,1,84.315,120Z" transform="translate(-79.06 -112.133)" fill="#29353a"/></g></g></g><path d="M18.22,25.843,9.294,16.093a1.185,1.185,0,0,1-.026-1.724,1.187,1.187,0,0,1,1.647.394l7.8,10.679Z" transform="translate(-6.781 -10.791)" fill="#fff"/><path d="M149.184,71.325l9.173-8.714a2.46,2.46,0,0,1,3.123-.365,1.516,1.516,0,0,1,.5,2.275l-6.8,7.318C153.269,71.6,151.249,71.431,149.184,71.325Z" transform="translate(-113.566 -47.086)" fill="#fff"/><path d="M70.177,153.909c-.423,1.569-7.17,3.839-18.26,3.839-10.161,0-16.577-2.046-17.658-4.056-.115-.222-2.593-5.25-4.4-8.905,5.577,2.2,16,2.872,22.4,2.872s16.806-.673,22.385-2.87C70.251,153.632,70.208,153.789,70.177,153.909Z" transform="translate(-22.734 -110.218)" fill="#fff"/></g></g></svg>