<svg xmlns="http://www.w3.org/2000/svg" width="56.824" height="50.632" viewBox="0 0 56.824 50.632"><g transform="translate(0 0)"><ellipse cx="25.529" cy="5.476" rx="25.529" ry="5.476" transform="translate(4.43 26.064)" fill="#f8ef9f"/><path d="M67.7,95.469l5.95-4.871a.853.853,0,0,1,1.2.146l7.746,9.462a.856.856,0,0,1-.095,1.2l-3.637,2.98q-2.709-.047-5.1-.207l-6.151-7.512A.855.855,0,0,1,67.7,95.469Z" transform="translate(-50.995 -68.406)" fill="#fff"/><g transform="translate(18.011)"><path d="M107.364,14.58a1.086,1.086,0,0,1,.923-1.225,2.756,2.756,0,0,0,2.127-1.779,2.883,2.883,0,0,0-.566-2.784c-.767-.837-2.4-1.644-2.585-3.391-.213-1.976,1.474-4.027,2.5-5.075a1.085,1.085,0,0,1,1.551,1.518c-1.4,1.431-1.96,2.7-1.892,3.324.073.671,1.213,1.27,2.027,2.158a5.069,5.069,0,0,1,1.017,4.961,4.96,4.96,0,0,1-3.481,3.143A1.24,1.24,0,0,1,107.364,14.58Z" transform="translate(-99.15 0)" fill="#64a535"/><path d="M74.11,14.58a1.1,1.1,0,0,1,.923-1.225,2.757,2.757,0,0,0,2.128-1.779,2.883,2.883,0,0,0-.567-2.783c-.769-.838-2.4-1.646-2.585-3.391-.214-1.975,1.474-4.027,2.5-5.075a1.085,1.085,0,1,1,1.551,1.518c-1.4,1.431-1.96,2.7-1.893,3.324.073.671,1.213,1.27,2.027,2.159a5.07,5.07,0,0,1,1.018,4.96,4.953,4.953,0,0,1-3.66,3.181C74.825,15.607,74.178,15.33,74.11,14.58Z" transform="translate(-73.991 0)" fill="#64a535"/><path d="M143.177,14.58a1.093,1.093,0,0,1,.923-1.225,2.755,2.755,0,0,0,2.127-1.779,2.882,2.882,0,0,0-.566-2.784c-.766-.837-2.4-1.644-2.584-3.391-.214-1.975,1.473-4.027,2.5-5.075a1.085,1.085,0,1,1,1.551,1.518c-1.4,1.431-1.96,2.7-1.892,3.323.073.673,1.212,1.269,2.027,2.159a5.069,5.069,0,0,1,1.017,4.961,4.959,4.959,0,0,1-3.52,3.152C143.976,15.614,143.269,15.352,143.177,14.58Z" transform="translate(-126.245 0)" fill="#64a535"/></g><g transform="translate(0 1.304)"><path d="M45.047,29.663,51,23.26a3.709,3.709,0,0,0-1.037-5.616,4.63,4.63,0,0,0-5.918.8S33.4,28.565,33.351,28.66c-.73-.017-3.895-.024-4.625-.024a1.084,1.084,0,1,0,0,2.169c15.2,0,25.93,3.179,25.93,4.813,0,1.47-8.242,4.3-23.386,4.435l1.609-1.317a3.028,3.028,0,0,0,.4-4.258l-7.746-9.462a3.024,3.024,0,0,0-4.253-.448l-2.244,1.838-5.017-6.127.316-.26a1.084,1.084,0,0,0,.19-1.478L5.968,6.824a3.407,3.407,0,0,0-4.842-.772,3.365,3.365,0,0,0-.165,4.871l9.8,10.7a1.079,1.079,0,0,0,.8.353,2.506,2.506,0,0,0,.781-.324l5.015,6.129-2.023,1.655a2.918,2.918,0,0,0-.684.8C6.7,31.78,3.385,33.221,3.385,35.617a2.474,2.474,0,0,0,.533,1.5c0,.17,5.816,12.081,5.918,12.271,1.75,3.264,9.384,5.292,19.92,5.292,9.192,0,19.54-1.7,20.689-5.441.319-.7,5.287-10.708,5.847-12.123a2.472,2.472,0,0,0,.533-1.5C56.824,32.774,51.861,30.773,45.047,29.663Zm-8.732-.9,9.353-8.885a2.509,2.509,0,0,1,3.184-.372,1.545,1.545,0,0,1,.514,2.32L42.433,29.29C40.481,29.049,38.421,28.874,36.316,28.767ZM11.664,19.4l-9.1-9.942A1.209,1.209,0,0,1,2.536,7.7a1.21,1.21,0,0,1,1.68.4l7.95,10.888Zm5.041,11.716,5.95-4.871a.853.853,0,0,1,1.2.146L31.6,35.853a.856.856,0,0,1-.095,1.2l-3.637,2.98q-2.709-.047-5.1-.207L16.61,32.318A.855.855,0,0,1,16.705,31.116Zm-11.149,4.5c0-.372,1.49-2,8.744-3.252a3.027,3.027,0,0,0,.633,1.329l4.83,5.9C10.5,38.706,5.556,36.756,5.556,35.617ZM48.373,48.6c-.431,1.6-7.31,3.914-18.617,3.914-10.36,0-16.9-2.086-18-4.136-.117-.226-2.644-5.353-4.482-9.08,5.686,2.242,16.312,2.928,22.836,2.928s17.135-.686,22.823-2.926C48.448,48.316,48.4,48.477,48.373,48.6Z" transform="translate(0 -5.357)" fill="#64a535"/><g transform="translate(19.245 23.436)"><g transform="translate(3.122)"><path d="M97.245,109.65l-5.112-6.245a1.085,1.085,0,1,1,1.679-1.374l5.112,6.244a1.085,1.085,0,1,1-1.679,1.375Z" transform="translate(-91.887 -101.633)" fill="#64a535"/></g><g transform="translate(0 2.556)"><path d="M84.418,120.15l-5.112-6.245a1.085,1.085,0,0,1,1.679-1.375l5.112,6.245a1.085,1.085,0,0,1-1.679,1.375Z" transform="translate(-79.06 -112.133)" fill="#64a535"/></g></g></g><path d="M18.4,26.072,9.3,16.13a1.209,1.209,0,0,1-.027-1.758,1.21,1.21,0,0,1,1.68.4L18.9,25.663Z" transform="translate(-6.739 -10.724)" fill="#fff"/><path d="M149.184,71.511l9.353-8.885a2.509,2.509,0,0,1,3.184-.372,1.545,1.545,0,0,1,.514,2.32L155.3,72.034C153.349,71.793,151.29,71.618,149.184,71.511Z" transform="translate(-112.869 -46.797)" fill="#fff"/><path d="M70.967,154.087c-.431,1.6-7.31,3.914-18.617,3.914-10.36,0-16.9-2.086-18-4.136-.117-.226-2.644-5.353-4.482-9.08,5.686,2.242,16.312,2.928,22.836,2.928s17.135-.686,22.823-2.926C71.042,153.8,71,153.966,70.967,154.087Z" transform="translate(-22.594 -109.541)" fill="#fff"/></g></svg>
