<svg xmlns="http://www.w3.org/2000/svg" width="72.061" height="59.366" viewBox="0 0 72.061 59.366">
  <path id="Path_5414" data-name="Path 5414" d="M69.164,26.951h-8l4.026-3.839a2.613,2.613,0,0,0,.178-3.688c-.062-.062-.116-.124-.178-.178a3.031,3.031,0,0,0-4.106,0L52.9,26.951H47.567a10.969,10.969,0,0,0-3.244-5.333L46.989,17.3,58.152,14.49a2.855,2.855,0,0,0,1.306-.711,2.665,2.665,0,0,0,.755-2.666,2.915,2.915,0,0,0-3.555-1.929L51.1,10.669,55.121,4.11A2.666,2.666,0,0,0,54.233.457l-.178-.08a3,3,0,0,0-3.973,1L46.065,7.914,44.572,2.67A2.915,2.915,0,0,0,41.017.741,2.667,2.667,0,0,0,38.911,3.87c.005.027.011.053.017.08v.133l3.022,10.5-2.666,4.337a12.552,12.552,0,0,0-3.244-.471,12.964,12.964,0,0,0-3.244.471l-2.666-4.337,3-10.479A2.71,2.71,0,0,0,31.2.787h-.127a2.933,2.933,0,0,0-3.555,1.929l-1.5,5.2L21.988,1.372a2.986,2.986,0,0,0-3.964-1,2.667,2.667,0,0,0-1.138,3.555,1.064,1.064,0,0,0,.071.133l4.026,6.6L15.42,9.247a2.9,2.9,0,0,0-3.555,1.929,2.667,2.667,0,0,0,1.84,3.288,1.355,1.355,0,0,0,.2.053L25.09,17.334l2.666,4.3-.142.116a10.917,10.917,0,0,0-3.093,5.2H19.189L11,19.272a3.031,3.031,0,0,0-4.115,0,2.6,2.6,0,0,0-.179,3.679h0a1.678,1.678,0,0,0,.178.178l4.071,3.822h-8a2.738,2.738,0,1,0-.444,5.457H11L6.924,36.23a2.613,2.613,0,0,0-.178,3.688l.178.178a3.048,3.048,0,0,0,4.115,0l8.186-7.688h5.333a10.961,10.961,0,0,0,3.235,5.333l-2.666,4.31L13.909,44.833a2.666,2.666,0,0,0-2.1,3.128l.007.036.053.2A2.906,2.906,0,0,0,15.42,50.13l5.555-1.4-4.017,6.532a2.667,2.667,0,0,0,.933,3.653l.142.08a3.065,3.065,0,0,0,3.511-.427A2.505,2.505,0,0,0,21.988,58l4.026-6.532,1.493,5.217a2.924,2.924,0,0,0,3.555,1.929,3.037,3.037,0,0,0,1.306-.693,2.666,2.666,0,0,0,.747-2.666l-3-10.487,2.666-4.337a12.525,12.525,0,0,0,3.244.471,12.176,12.176,0,0,0,3.244-.471l2.666,4.319-3,10.5A2.72,2.72,0,0,0,40.9,58.563H41a2.915,2.915,0,0,0,3.555-1.929l1.493-5.217,4.017,6.532a2.986,2.986,0,0,0,3.964,1,2.665,2.665,0,0,0,1.157-3.589c-.02-.039-.042-.079-.064-.117L51.1,48.717l5.546,1.4a3.021,3.021,0,0,0,2.817-.7,2.581,2.581,0,0,0,.747-1.226,2.719,2.719,0,0,0-1.941-3.32l-.014,0h-.1L46.989,42.024l-2.666-4.3.142-.107a11.068,11.068,0,0,0,3.1-5.208H52.9L61.085,40.1a3.031,3.031,0,0,0,4.106,0,2.613,2.613,0,0,0,.178-3.688c-.062-.062-.116-.124-.178-.178L61.12,32.408h8a2.984,2.984,0,0,0,2.053-.791,2.663,2.663,0,0,0,.889-1.929A2.826,2.826,0,0,0,69.164,26.951ZM29.916,29.688a5.6,5.6,0,0,1,1.778-4.079,6.366,6.366,0,0,1,4.337-1.68,5.972,5.972,0,0,1,6.132,5.75,6.114,6.114,0,0,1-6.132,5.75A5.946,5.946,0,0,1,29.916,29.688Z" fill="#64a535"/>
</svg>
