<svg id="Diagram" xmlns="http://www.w3.org/2000/svg" width="286.308" height="273.495" viewBox="0 0 286.308 273.495">
  <g id="Lines" transform="translate(26.048 52.688) rotate(-2)">
    <path id="Path_1500" data-name="Path 1500" d="M394.344,180.842c1.474.983,2.94,2.015,4.357,3.068a3.672,3.672,0,1,0,4.382-5.894c-1.517-1.127-3.086-2.233-4.664-3.285a3.672,3.672,0,0,0-4.075,6.111Z" transform="translate(-227.414 -157.82)" fill="rgba(0,156,219,0.36)"/>
    <path id="Path_1501" data-name="Path 1501" d="M221.584,233.621a3.669,3.669,0,0,0,4.8-1.992c.677-1.637,1.4-3.277,2.163-4.873a3.673,3.673,0,0,0-6.634-3.152c-.813,1.71-1.592,3.467-2.316,5.221A3.672,3.672,0,0,0,221.584,233.621Z" transform="translate(-213.219 -161.7)" fill="rgba(0,156,219,0.36)"/>
    <path id="Path_1502" data-name="Path 1502" d="M231.777,213.04a3.672,3.672,0,0,0,5.094-1.015c.982-1.472,2.016-2.937,3.072-4.356a3.673,3.673,0,1,0-5.893-4.385c-1.13,1.519-2.237,3.087-3.288,4.661A3.673,3.673,0,0,0,231.777,213.04Z" transform="translate(-214.105 -160.087)" fill="rgba(0,156,219,0.36)"/>
    <path id="Path_1503" data-name="Path 1503" d="M248.389,195.94a3.661,3.661,0,0,0,2.6-1.079c1.249-1.251,2.546-2.487,3.856-3.674a3.672,3.672,0,1,0-4.93-5.444c-1.4,1.269-2.79,2.592-4.126,3.931a3.673,3.673,0,0,0,2.6,6.266Z" transform="translate(-215.298 -158.694)" fill="rgba(0,156,219,0.36)"/>
    <path id="Path_1504" data-name="Path 1504" d="M428.6,216.613a3.672,3.672,0,1,0,6.3-3.782c-.973-1.62-2-3.237-3.056-4.806a3.672,3.672,0,1,0-6.095,4.1C426.73,213.588,427.69,215.1,428.6,216.613Z" transform="translate(-230.067 -160.464)" fill="rgba(0,156,219,0.36)"/>
    <path id="Path_1505" data-name="Path 1505" d="M415.255,198.8a3.673,3.673,0,1,0,5.443-4.932c-1.27-1.4-2.594-2.789-3.934-4.125a3.673,3.673,0,0,0-5.184,5.2C412.832,196.2,414.069,197.493,415.255,198.8Z" transform="translate(-228.87 -159.012)" fill="rgba(0,156,219,0.36)"/>
    <path id="Path_1506" data-name="Path 1506" d="M442.786,252.983c.346,1.732.653,3.5.91,5.243a3.674,3.674,0,0,0,3.629,3.138,3.724,3.724,0,0,0,.539-.039,3.672,3.672,0,0,0,3.1-4.167c-.275-1.873-.6-3.762-.975-5.618a3.673,3.673,0,0,0-7.2,1.443Z" transform="translate(-231.507 -163.917)" fill="rgba(0,156,219,0.36)"/>
    <path id="Path_1507" data-name="Path 1507" d="M436.287,231.71c.678,1.626,1.324,3.292,1.919,4.953a3.673,3.673,0,1,0,6.915-2.477c-.637-1.778-1.329-3.563-2.055-5.3a3.673,3.673,0,0,0-6.78,2.828Z" transform="translate(-230.958 -162.119)" fill="rgba(0,156,219,0.36)"/>
    <path id="Path_1508" data-name="Path 1508" d="M215.641,255.814a3.622,3.622,0,0,0,.712.071,3.675,3.675,0,0,0,3.6-2.966c.341-1.737.731-3.484,1.16-5.195a3.673,3.673,0,1,0-7.125-1.786c-.459,1.833-.878,3.7-1.242,5.565A3.671,3.671,0,0,0,215.641,255.814Z" transform="translate(-212.675 -163.473)" fill="rgba(0,156,219,0.36)"/>
    <path id="Path_1509" data-name="Path 1509" d="M308.841,386.756c-1.732-.342-3.48-.734-5.2-1.164a3.673,3.673,0,0,0-1.788,7.125c1.836.461,3.708.88,5.563,1.245a3.672,3.672,0,1,0,1.42-7.206Z" transform="translate(-219.749 -175.124)" fill="rgba(0,156,219,0.36)"/>
    <path id="Path_1510" data-name="Path 1510" d="M374.465,380.377c-1.629.677-3.3,1.318-4.954,1.909a3.673,3.673,0,1,0,2.462,6.92c1.777-.632,3.562-1.319,5.308-2.045a3.673,3.673,0,1,0-2.816-6.784Z" transform="translate(-225.315 -174.683)" fill="rgba(0,156,219,0.35)"/>
    <path id="Path_1511" data-name="Path 1511" d="M247.131,351.577a3.672,3.672,0,1,0-5.447,4.927c1.27,1.4,2.591,2.793,3.928,4.128a3.673,3.673,0,1,0,5.191-5.2C249.553,354.187,248.318,352.889,247.131,351.577Z" transform="translate(-214.972 -172.249)" fill="rgba(0,156,219,0.36)"/>
    <path id="Path_1512" data-name="Path 1512" d="M353.156,386.835c-1.736.344-3.5.647-5.247.9a3.673,3.673,0,0,0,.524,7.307,3.746,3.746,0,0,0,.533-.039c1.869-.272,3.761-.6,5.618-.965a3.673,3.673,0,0,0-1.428-7.206Z" transform="translate(-223.489 -175.229)" fill="rgba(0,156,219,0.36)"/>
    <path id="Path_1513" data-name="Path 1513" d="M394.116,369.872c-1.469.984-2.981,1.942-4.494,2.847a3.672,3.672,0,1,0,3.77,6.3c1.621-.969,3.239-1.994,4.811-3.046a3.673,3.673,0,0,0-4.087-6.1Z" transform="translate(-227.015 -173.795)" fill="rgba(0,156,219,0.36)"/>
    <path id="Path_1514" data-name="Path 1514" d="M330.924,389c-1.753,0-3.523-.044-5.26-.13a3.673,3.673,0,1,0-.366,7.336c1.858.093,3.751.14,5.626.14h.068a3.644,3.644,0,0,0,3.638-3.673A3.7,3.7,0,0,0,330.924,389Z" transform="translate(-221.609 -175.401)" fill="rgba(0,156,219,0.36)"/>
    <path id="Path_1515" data-name="Path 1515" d="M268.884,171.631c-1.621.972-3.238,2-4.806,3.053a3.672,3.672,0,1,0,4.094,6.1c1.464-.984,2.976-1.944,4.491-2.852a3.673,3.673,0,1,0-3.778-6.3Z" transform="translate(-216.75 -157.574)" fill="rgba(0,156,219,0.36)"/>
    <path id="Path_1516" data-name="Path 1516" d="M267.958,369.635c-1.473-.985-2.938-2.02-4.353-3.075a3.673,3.673,0,0,0-4.39,5.89c1.516,1.129,3.083,2.237,4.66,3.291a3.672,3.672,0,1,0,4.083-6.106Z" transform="translate(-216.364 -173.516)" fill="rgba(0,156,219,0.36)"/>
    <path id="Path_1517" data-name="Path 1517" d="M290.247,161.506c-1.777.635-3.561,1.326-5.306,2.052a3.673,3.673,0,1,0,2.824,6.78c1.629-.678,3.3-1.323,4.954-1.915a3.673,3.673,0,0,0-2.473-6.917Z" transform="translate(-218.406 -156.77)" fill="rgba(0,156,219,0.36)"/>
    <path id="Path_1518" data-name="Path 1518" d="M287.555,380.222c-1.64-.678-3.28-1.407-4.873-2.166a3.673,3.673,0,0,0-3.156,6.633c1.708.813,3.463,1.593,5.219,2.32a3.673,3.673,0,1,0,2.81-6.787Z" transform="translate(-217.976 -174.487)" fill="rgba(0,156,219,0.36)"/>
    <path id="Path_1588" data-name="Path 1588" d="M1.636,6.729c1.474.983,2.94,2.015,4.357,3.068A3.672,3.672,0,1,0,10.375,3.9C8.858,2.775,7.289,1.67,5.71.618A3.672,3.672,0,0,0,1.636,6.729Z" transform="translate(146.292 7.33) rotate(-8)" fill="rgba(0,156,219,0.36)"/>
  </g>
  <g id="Burger" transform="translate(0 151.154)">
    <g id="Group_1245" data-name="Group 1245" transform="translate(-21.383)">
      <path id="Path_1519" data-name="Path 1519" d="M211.8,280.7a1.641,1.641,0,0,0-2.2.735l-1.642,3.281a1.641,1.641,0,0,0,2.936,1.468l1.642-3.282A1.641,1.641,0,0,0,211.8,280.7Zm26.993.735a1.641,1.641,0,1,0-2.936,1.467l1.641,3.282a1.641,1.641,0,1,0,2.936-1.468Zm-14.6-4.189a1.64,1.64,0,0,0-1.641,1.641v3.283a1.641,1.641,0,0,0,3.282,0V278.89A1.641,1.641,0,0,0,224.2,277.249Zm-34.464,19.694H258.66A1.641,1.641,0,0,0,260.3,295.3c0-15.383-16.2-27.9-36.105-27.9s-36.1,12.516-36.1,27.9A1.641,1.641,0,0,0,189.732,296.943ZM224.2,270.684c17.364,0,31.622,10.165,32.751,22.976h-65.5C192.575,280.849,206.832,270.684,224.2,270.684Zm29.541,36.105h-7.875l2.188-3.283h7.328a1.641,1.641,0,0,0,0-3.282H248.05a3.278,3.278,0,0,0-2.731,1.462l-5.167,7.751-12.578-8.385a4.909,4.909,0,0,0-2.731-.828h-31.96a1.641,1.641,0,0,0,0,3.282h31.96a1.641,1.641,0,0,1,.911.276l4.51,3.007H194.655a6.537,6.537,0,0,0-4.3,11.488,6.522,6.522,0,0,0-2.268,4.923v9.846a6.571,6.571,0,0,0,6.564,6.565h59.082a6.571,6.571,0,0,0,6.564-6.565V323.2a6.522,6.522,0,0,0-2.268-4.923,6.537,6.537,0,0,0-4.3-11.488Zm3.282,26.258a3.286,3.286,0,0,1-3.282,3.283H194.655a3.287,3.287,0,0,1-3.282-3.283v-3.5a6.878,6.878,0,0,0,2.941-1.873,2.857,2.857,0,0,1,4.639,0,6.057,6.057,0,0,0,9.162,0,2.851,2.851,0,0,1,4.631,0,6.046,6.046,0,0,0,9.152,0,2.849,2.849,0,0,1,4.629,0,6.048,6.048,0,0,0,9.154,0,2.848,2.848,0,0,1,4.628,0,6.047,6.047,0,0,0,9.153,0,2.842,2.842,0,0,1,4.622,0,6.887,6.887,0,0,0,2.934,1.873Zm0-7.146c-.211-.17-.424-.374-.668-.606a6.046,6.046,0,0,0-9.151,0,2.846,2.846,0,0,1-4.627,0,6.05,6.05,0,0,0-9.154,0,2.848,2.848,0,0,1-4.629,0,6.049,6.049,0,0,0-9.154,0,2.846,2.846,0,0,1-4.627,0,6.052,6.052,0,0,0-9.155,0,2.854,2.854,0,0,1-4.637,0,6.062,6.062,0,0,0-9.164,0c-.247.236-.464.441-.679.614V323.2a3.287,3.287,0,0,1,3.282-3.282h59.082a3.286,3.286,0,0,1,3.282,3.282Zm-3.282-9.266H194.655a3.282,3.282,0,1,1,0-6.564h40.532l3.144,2.1a3.286,3.286,0,0,0,4.552-.91l.791-1.186h10.063a3.282,3.282,0,0,1,0,6.564Z" transform="translate(-166.708 -267.402)" fill="#009cdb"/>
    </g>
  </g>
  <rect id="Rectangle_1160" data-name="Rectangle 1160" width="100" height="102" transform="translate(90.289)" fill="#fff"/>
  <g id="Clock" transform="translate(190.289 146.303)">
    <g id="Group_1333" data-name="Group 1333" transform="translate(9.168 9.102)">
      <path id="Path_1582" data-name="Path 1582" d="M435.477,184.517" transform="translate(-357.868 -148.397)" fill="#009cdb" stroke="#273133" stroke-linecap="round" stroke-miterlimit="10" stroke-width="2"/>
      <path id="Path_1583" data-name="Path 1583" d="M429.917,179.2a2.209,2.209,0,0,0-3.027-.814l-11.622,6.751a2.232,2.232,0,0,1-2.243,0l-8.01-4.652a2.234,2.234,0,0,0-3.062.822h0a2.26,2.26,0,0,0,.819,3.077l10.253,5.955a2.232,2.232,0,0,0,2.243,0l13.842-8.042a2.257,2.257,0,0,0,.819-3.076Z" transform="translate(-378.271 -152.329)" fill="#009cdb"/>
      <path id="Path_1584" data-name="Path 1584" d="M471.595,195.662h-4.609c0-.085.015-.169.01-.256a44.283,44.283,0,0,0-4.736-17.412,2.4,2.4,0,0,0-4.47,1.687,44.117,44.117,0,0,1,4.754,19.509h4.851a.479.479,0,0,1,.378.772l-6.661,8.725a.583.583,0,0,1-.976,0l-6.661-8.725a.48.48,0,0,1,.378-.772h5.032a41.107,41.107,0,0,0-3.439-16.228,35.744,35.744,0,0,0-32.5-20.862,35.5,35.5,0,0,0-4.223.274c-.394.045-.782.113-1.172.177-.906.15-1.813.308-2.709.516-.646.151-1.286.309-1.919.493-.832.245-1.64.536-2.45.833-.827.3-1.642.644-2.445,1.012-.752.345-1.5.691-2.225,1.089-.652.358-1.276.765-1.906,1.165-.515.327-1.026.654-1.523,1.005-.571.4-1.13.822-1.679,1.262-.624.5-1.222,1.028-1.812,1.566-.377.346-.768.67-1.132,1.033a36.55,36.55,0,0,0-2.762,3.09c-.123.156-.236.322-.357.48a36.057,36.057,0,0,0-2.262,3.3c-.058.093-.128.174-.184.269l.016.01a35.9,35.9,0,0,0,59.073,40.611,2.248,2.248,0,0,0-.471-3.248l-.058-.039a2.22,2.22,0,0,0-2.942.43c-9.326,12.141-26.6,16.454-41.757,7.55a28.327,28.327,0,0,1-11.529-13.1c-4.827-11.071-3.391-21.821,1.663-30.119a32.326,32.326,0,0,1,2.018-2.94c.093-.121.176-.247.273-.366a31.585,31.585,0,0,1,2.448-2.737c.289-.288.6-.551.9-.827q.82-.759,1.683-1.455.688-.549,1.4-1.057c.465-.33.944-.638,1.427-.941.524-.332,1.044-.672,1.589-.972q1.3-.715,2.666-1.3c.545-.235,1.109-.429,1.67-.633.637-.23,1.275-.458,1.929-.648.494-.145,1-.267,1.5-.388q1.13-.268,2.288-.451c.422-.068.842-.143,1.27-.195a31.539,31.539,0,0,1,3.7-.238c1.056,0,2.1.056,3.129.158.382.039.752.114,1.129.166.64.089,1.281.168,1.908.295.462.092.909.224,1.364.337.523.131,1.048.248,1.56.4s.981.34,1.469.516c.447.161.9.313,1.337.493.511.211,1.005.454,1.5.691.391.187.789.366,1.172.569.505.267.994.564,1.483.859.351.211.705.416,1.048.641.486.319.954.662,1.422,1.007.321.237.645.47.956.719.458.367.9.754,1.339,1.147.29.258.58.516.861.785.428.412.838.843,1.244,1.278.261.282.521.564.773.856.39.45.762.915,1.125,1.387.236.306.468.616.693.931q.517.723.989,1.477.317.5.614,1.013.443.761.843,1.548c.184.364.359.732.529,1.1.244.527.476,1.062.689,1.6.154.39.295.788.433,1.186.191.545.374,1.094.534,1.653.119.417.221.839.324,1.263.136.561.268,1.121.374,1.692.082.441.139.889.2,1.337.08.57.16,1.141.21,1.719.006.072.008.145.011.219H450a2.334,2.334,0,0,0-1.842,3.754l10.8,14.138a2.2,2.2,0,0,0,3.689,0l10.794-14.138A2.334,2.334,0,0,0,471.595,195.662Z" transform="translate(-387.068 -162.099)" fill="#009cdb"/>
    </g>
    <g id="Group_1334" data-name="Group 1334">
      <path id="Path_1585" data-name="Path 1585" d="M430.795,204.654a2.268,2.268,0,0,1-.915-.193,2.011,2.011,0,0,1-.415-.209,3.1,3.1,0,0,1-.369-.306,3.4,3.4,0,0,1-.3-.371,3.479,3.479,0,0,1-.224-.419,3.429,3.429,0,0,1-.128-.451,2.2,2.2,0,0,1-.048-.467,2.352,2.352,0,0,1,.048-.483,4.319,4.319,0,0,1,.128-.451,3.261,3.261,0,0,1,.224-.4,2.34,2.34,0,0,1,.3-.371,3.1,3.1,0,0,1,.369-.306,3.412,3.412,0,0,1,.415-.226,3.759,3.759,0,0,1,.451-.129,2.261,2.261,0,0,1,.93,0,3.648,3.648,0,0,1,.449.129,3.429,3.429,0,0,1,.417.226,2.528,2.528,0,0,1,.673.677,3.482,3.482,0,0,1,.224.4,4.308,4.308,0,0,1,.127.451,2.356,2.356,0,0,1,.05.483,2.205,2.205,0,0,1-.05.467,3.429,3.429,0,0,1-.127.451,3.718,3.718,0,0,1-.224.419,3.405,3.405,0,0,1-.3.371,2.335,2.335,0,0,1-.369.306,2.022,2.022,0,0,1-.417.209,2.088,2.088,0,0,1-.449.145A2.164,2.164,0,0,1,430.795,204.654Z" transform="translate(-352.975 -129.941)" fill="#009cdb"/>
      <path id="Path_1586" data-name="Path 1586" d="M425.807,247.113h0a2.408,2.408,0,0,1-2.389-2.433h0a2.418,2.418,0,0,1,2.421-2.4h0a2.407,2.407,0,0,1,2.389,2.431h0a2.4,2.4,0,0,1-2.4,2.4h-.016Zm7.15-2.9a2.406,2.406,0,0,1,1.828-2.868h0a2.4,2.4,0,0,1,2.87,1.837h0a2.423,2.423,0,0,1-1.828,2.882h0a2.775,2.775,0,0,1-.513.05h0A2.429,2.429,0,0,1,432.957,244.213ZM415.8,245.905h0a2.444,2.444,0,0,1-1.781-2.916h0a2.4,2.4,0,0,1,2.9-1.788h0a2.4,2.4,0,0,1,1.778,2.9h0a2.411,2.411,0,0,1-2.341,1.869h0A3.527,3.527,0,0,1,415.8,245.905Zm26.357-4.286a2.425,2.425,0,0,1,1.121-3.222h0a2.389,2.389,0,0,1,3.206,1.144h0a2.422,2.422,0,0,1-1.121,3.222h0a2.411,2.411,0,0,1-1.042.242h0A2.385,2.385,0,0,1,442.159,241.619Zm-35.832.822a2.418,2.418,0,0,1-1.074-3.239h0a2.4,2.4,0,0,1,3.222-1.08h0a2.418,2.418,0,0,1,1.073,3.239h0A2.407,2.407,0,0,1,407.4,242.7h0A2.338,2.338,0,0,1,406.328,242.441Zm44.2-5.43a2.418,2.418,0,0,1,.385-3.4h0A2.393,2.393,0,0,1,454.3,234h0a2.436,2.436,0,0,1-.386,3.4h0a2.389,2.389,0,0,1-1.489.516h0A2.4,2.4,0,0,1,450.528,237.011Zm-52.649-.064a2.438,2.438,0,0,1-.337-3.416h0a2.386,2.386,0,0,1,3.383-.322h0a2.431,2.431,0,0,1,.337,3.4h0a2.421,2.421,0,0,1-1.861.886h0A2.449,2.449,0,0,1,397.879,236.947Zm-7.022-7.251a2.437,2.437,0,0,1,.417-3.4h0a2.4,2.4,0,0,1,3.381.435l-.014-.016a2.438,2.438,0,0,1-.417,3.4h0a2.4,2.4,0,0,1-1.475.5h0A2.346,2.346,0,0,1,390.857,229.7ZM385.6,221.06a2.436,2.436,0,0,1,1.154-3.222h0a2.416,2.416,0,0,1,3.206,1.176h0a2.422,2.422,0,0,1-1.17,3.206h0a2.257,2.257,0,0,1-1.012.226h0A2.409,2.409,0,0,1,385.6,221.06Zm-3.222-9.587a2.438,2.438,0,0,1,1.844-2.884h0a2.426,2.426,0,0,1,2.87,1.853h0a2.439,2.439,0,0,1-1.844,2.884h0a2.9,2.9,0,0,1-.513.048h0A2.429,2.429,0,0,1,382.376,211.473Zm1.363-7.637a2.408,2.408,0,0,1-2.389-2.433h0a2.407,2.407,0,0,1,2.437-2.385h0a2.4,2.4,0,0,1,2.373,2.433h0a2.39,2.39,0,0,1-2.4,2.385h-.016Zm.609-9.571a2.415,2.415,0,0,1-1.8-2.9h0a2.394,2.394,0,0,1,2.884-1.8h0a2.415,2.415,0,0,1,1.8,2.9h0a2.415,2.415,0,0,1-2.341,1.869h0A2.013,2.013,0,0,1,384.348,194.265Zm2.677-9.216a2.421,2.421,0,0,1-1.106-3.222h0a2.386,2.386,0,0,1,3.222-1.112h0a2.421,2.421,0,0,1,1.1,3.222h0a2.4,2.4,0,0,1-2.163,1.37h0A2.278,2.278,0,0,1,387.025,185.049Zm4.665-8.378a2.419,2.419,0,0,1-.37-3.4h0a2.4,2.4,0,0,1,3.384-.354h0a2.434,2.434,0,0,1,.369,3.4V176.3a2.4,2.4,0,0,1-1.876.9h0A2.332,2.332,0,0,1,391.691,176.671Zm59.75-6.284h0a2.434,2.434,0,0,1-.337-3.4h0a2.406,2.406,0,0,1,3.384-.338h0a2.421,2.421,0,0,1,.337,3.4h0a2.369,2.369,0,0,1-1.86.886h0A2.4,2.4,0,0,1,451.44,170.387Zm-53.369-.838a2.436,2.436,0,0,1,.4-3.4h0a2.407,2.407,0,0,1,3.383.387h0a2.438,2.438,0,0,1-.4,3.4h0a2.367,2.367,0,0,1-1.491.516h0A2.425,2.425,0,0,1,398.071,169.549Zm45.818-4.076h0a2.421,2.421,0,0,1-1.074-3.239h0a2.391,2.391,0,0,1,3.224-1.1h0a2.441,2.441,0,0,1,1.09,3.239h0a2.439,2.439,0,0,1-2.164,1.353h0A2.638,2.638,0,0,1,443.889,165.473Zm-38.012-1.45a2.413,2.413,0,0,1,1.138-3.222h0a2.4,2.4,0,0,1,3.206,1.128h0a2.424,2.424,0,0,1-1.138,3.222h0a2.4,2.4,0,0,1-1.04.242h0A2.42,2.42,0,0,1,405.877,164.023Zm29.581-1.643a2.426,2.426,0,0,1-1.8-2.916h0a2.431,2.431,0,0,1,2.9-1.788h0a2.407,2.407,0,0,1,1.778,2.916h0A2.4,2.4,0,0,1,436,162.444h0A2.1,2.1,0,0,1,435.458,162.379Zm-20.745-2a2.415,2.415,0,0,1,1.828-2.884h0a2.417,2.417,0,0,1,2.87,1.837h0a2.416,2.416,0,0,1-1.828,2.884h0a1.954,1.954,0,0,1-.513.064h0A2.415,2.415,0,0,1,414.713,160.381Zm11.816.9a2.4,2.4,0,0,1-2.389-2.433h0a2.418,2.418,0,0,1,2.421-2.4h0a2.422,2.422,0,0,1,2.389,2.449h0a2.412,2.412,0,0,1-2.4,2.385h-.016Z" transform="translate(-381.35 -156.45)" fill="#009cdb"/>
      <path id="Path_1587" data-name="Path 1587" d="M431.125,171.6a2.165,2.165,0,0,1-.465-.048,1.461,1.461,0,0,1-.451-.129,3.543,3.543,0,0,1-.415-.226,2.126,2.126,0,0,1-.369-.306,2.2,2.2,0,0,1-.3-.354,3.479,3.479,0,0,1-.224-.419c-.048-.145-.1-.306-.128-.451a2.31,2.31,0,0,1-.048-.467,2.408,2.408,0,0,1,2.87-2.385,2.122,2.122,0,0,1,.449.145,2.771,2.771,0,0,1,.786.516,2.458,2.458,0,0,1,.705,1.724,2.36,2.36,0,0,1-.192.918,2.131,2.131,0,0,1-.208.419,2.82,2.82,0,0,1-.673.661,3.438,3.438,0,0,1-.417.226,1.451,1.451,0,0,1-.449.129A2.177,2.177,0,0,1,431.125,171.6Z" transform="translate(-352.776 -150.139)" fill="#009cdb"/>
    </g>
  </g>
  <g id="Salad" transform="translate(91.289 20.985)">
    <path id="Salad-2" data-name="Salad" d="M106.638,48.657a1.537,1.537,0,0,0-.106-.521,8.95,8.95,0,0,0,.106-1.04,9.364,9.364,0,0,0-8.307-9.275,9.34,9.34,0,0,0-16.745-1.973c.025-.412.078-.821.078-1.239,0-8.753-4.8-15.609-10.926-15.609-3.1,0-5.838,1.776-7.811,4.645C60.9,20.708,58.123,19,55.129,19c-6.078,0-10.836,6.752-10.914,15.406-.012-.025-.019-.053-.031-.078-3.066-5.875-12.656-8.888-13.061-9.016a1.55,1.55,0,0,0-1.945,1.018,32.087,32.087,0,0,0-1.364,11.151c-4.861-2.126-11.95-.659-12.275-.587a1.341,1.341,0,0,0-1.033,1.58c.062.306,1.377,6.553,4.729,10.3a27.147,27.147,0,0,0,1.867,9.4,1.507,1.507,0,0,0,.25.693c4.121,10.249,13.9,19.995,25.973,25.149v8.348a1.561,1.561,0,0,0,1.561,1.561h28.1a1.561,1.561,0,0,0,1.561-1.561V84.014c12.075-5.154,21.852-14.9,25.973-25.149a1.507,1.507,0,0,0,.25-.693A27.136,27.136,0,0,0,106.638,48.657ZM22.41,50.218h81.047a24.672,24.672,0,0,1-1.355,6.244H23.765A24.808,24.808,0,0,1,22.41,50.218Zm41.96-10.6a1.673,1.673,0,0,0,1.686,1.236A6.25,6.25,0,0,1,72.3,47.1H58.413a2.027,2.027,0,0,0-.275-.016c-.072.006-.172,0-.259.016H45.311c.162-1.186.284-2.526.334-3.93a6.3,6.3,0,0,1,4.886-2.3h.028a1.607,1.607,0,0,0,1.573-1.252,6.242,6.242,0,0,1,12.237,0Zm18.98,0a6.243,6.243,0,0,1,12.237,0,1.864,1.864,0,0,0,1.686,1.239,6.25,6.25,0,0,1,6.244,6.244H89.637a2.1,2.1,0,0,0-.278-.016c-.084.006-.178,0-.262.016H75.421a6.379,6.379,0,0,1,6.353-6.228A1.6,1.6,0,0,0,83.35,39.613ZM70.738,22.122c4.23,0,7.8,5.719,7.8,12.487a18.349,18.349,0,0,1-.434,3.865,9.379,9.379,0,0,0-4.255,3.5,9.45,9.45,0,0,0-6.74-4.149,9.382,9.382,0,0,0-4.058-4.97C63.586,26.773,66.833,22.122,70.738,22.122Zm-15.609,0c2.366,0,4.614,1.789,6.112,4.786a20.119,20.119,0,0,0-1.189,4.776A9.23,9.23,0,0,0,49.4,37.79a9.2,9.2,0,0,0-1.711.356,18.835,18.835,0,0,1-.365-3.537C47.325,27.841,50.9,22.122,55.129,22.122Zm-23.4,6.721c2.619,1.021,7.864,3.425,9.69,6.924a14.177,14.177,0,0,1,1.133,6.315,9.572,9.572,0,0,0-.971,2.107L36.63,34.88a1.561,1.561,0,1,0-2.757,1.467L39.586,47.1h-.312c-3.712-2.051-6.356-4.3-7.427-6.353C30.033,37.256,31.063,31.574,31.725,28.843ZM27.651,40.412a7.636,7.636,0,0,1,1.065.946c.112.281.225.562.362.827a12.943,12.943,0,0,0,2.432,3.153c.312.6.584,1.189.834,1.758h-.359L23.69,41.758a1.343,1.343,0,1,0-1.452,2.26L27.024,47.1H21.339c-2.07-2.207-3.315-5.841-3.865-7.808C19.869,38.954,24.811,38.555,27.651,40.412ZM75.421,90.8H50.447V84.557H75.421Zm1.255-9.365H49.192C38.275,76.971,29.3,68.558,25.035,59.583h75.8C96.564,68.558,87.592,76.971,76.676,81.435Z" transform="translate(-14.478 -19)" fill="#009cdb"/>
  </g>
</svg>
