<svg xmlns="http://www.w3.org/2000/svg" width="95.567" height="355.663" viewBox="0 0 95.567 355.663">
  <g id="Group_1342" data-name="Group 1342" transform="translate(-11.934 -2699.053)">
    <g id="Diagram-Mobile" transform="translate(-1 664.204)">
      <g id="Component_45_1" data-name="Component 45 – 1" transform="translate(12.934 2034.85)">
        <line id="Line_101" data-name="Line 101" x1="0.651" y2="256.076" transform="translate(47.915 71.447)" fill="none" stroke="rgba(0,156,219,0.35)" stroke-linecap="round" stroke-miterlimit="10" stroke-width="5" stroke-dasharray="6 10"/>
        <ellipse id="Ellipse_44" data-name="Ellipse 44" cx="41.283" cy="41.414" rx="41.283" ry="41.414" transform="translate(7.568)" fill="#fff"/>
        <ellipse id="Ellipse_45" data-name="Ellipse 45" cx="39.783" cy="39.914" rx="39.783" ry="39.914" transform="translate(9.295 275.834)" fill="#fff"/>
        <ellipse id="Ellipse_46" data-name="Ellipse 46" cx="47.783" cy="47.914" rx="47.783" ry="47.914" transform="translate(0 129.025)" fill="#fff"/>
        <g id="Burger" transform="translate(14.777 276.1)">
          <g id="Group_1245" data-name="Group 1245" transform="translate(0)">
            <path id="Path_1519" data-name="Path 1519" d="M210.159,279.783a1.527,1.527,0,0,0-2.049.684l-1.528,3.054a1.528,1.528,0,0,0,2.733,1.367l1.528-3.055A1.528,1.528,0,0,0,210.159,279.783Zm25.124.684a1.527,1.527,0,1,0-2.733,1.366l1.527,3.055a1.528,1.528,0,1,0,2.733-1.367Zm-13.587-3.9a1.527,1.527,0,0,0-1.527,1.527v3.055a1.528,1.528,0,0,0,3.055,0v-3.055A1.527,1.527,0,0,0,221.7,276.568ZM189.618,294.9h64.155a1.527,1.527,0,0,0,1.527-1.528c0-14.318-15.075-25.968-33.605-25.968s-33.6,11.65-33.6,25.968A1.527,1.527,0,0,0,189.618,294.9ZM221.7,270.457c16.162,0,29.432,9.461,30.483,21.385H191.213C192.264,279.918,205.535,270.457,221.7,270.457Zm27.5,33.605h-7.329l2.036-3.055h6.82a1.528,1.528,0,0,0,0-3.055H243.9a3.051,3.051,0,0,0-2.542,1.36l-4.809,7.214-11.707-7.8a4.569,4.569,0,0,0-2.542-.77H192.551a1.528,1.528,0,0,0,0,3.055H222.3a1.527,1.527,0,0,1,.848.257l4.2,2.8H194.2a6.085,6.085,0,0,0-4,10.693,6.071,6.071,0,0,0-2.111,4.582V328.5a6.116,6.116,0,0,0,6.109,6.11h54.991a6.116,6.116,0,0,0,6.109-6.11v-9.165a6.071,6.071,0,0,0-2.111-4.582,6.085,6.085,0,0,0-4-10.693Zm3.054,24.44a3.058,3.058,0,0,1-3.054,3.055H194.2a3.059,3.059,0,0,1-3.055-3.055v-3.26a6.4,6.4,0,0,0,2.737-1.743,2.659,2.659,0,0,1,4.317,0,5.638,5.638,0,0,0,8.528,0,2.653,2.653,0,0,1,4.31,0,5.627,5.627,0,0,0,8.519,0,2.652,2.652,0,0,1,4.308,0,5.629,5.629,0,0,0,8.52,0,2.651,2.651,0,0,1,4.308,0,5.628,5.628,0,0,0,8.52,0,2.646,2.646,0,0,1,4.3,0,6.41,6.41,0,0,0,2.731,1.743Zm0-6.651c-.2-.159-.395-.348-.622-.564a5.627,5.627,0,0,0-8.518,0,2.649,2.649,0,0,1-4.307,0,5.631,5.631,0,0,0-8.52,0,2.65,2.65,0,0,1-4.308,0,5.63,5.63,0,0,0-8.52,0,2.649,2.649,0,0,1-4.307,0,5.633,5.633,0,0,0-8.521,0,2.656,2.656,0,0,1-4.316,0,5.643,5.643,0,0,0-8.529,0c-.23.22-.432.411-.632.571v-2.519a3.059,3.059,0,0,1,3.055-3.055h54.991a3.058,3.058,0,0,1,3.054,3.055Zm-3.054-8.624H194.2a3.055,3.055,0,1,1,0-6.109h37.725l2.926,1.951a3.059,3.059,0,0,0,4.236-.847l.736-1.1h9.367a3.055,3.055,0,0,1,0,6.109Z" transform="translate(-188.091 -267.402)" fill="#009cdb"/>
          </g>
        </g>
      </g>
    </g>
    <g id="Salad" transform="translate(18 2713.985)">
      <path id="Salad-2" data-name="Salad" d="M94.638,44.7a1.327,1.327,0,0,0-.092-.452,7.728,7.728,0,0,0,.092-.9,8.126,8.126,0,0,0-7.225-8.037A8.136,8.136,0,0,0,72.848,33.6c.022-.357.068-.711.068-1.074,0-7.585-4.173-13.526-9.5-13.526a8.365,8.365,0,0,0-6.794,4.025C54.857,20.48,52.44,19,49.836,19c-5.287,0-9.425,5.851-9.493,13.35-.011-.022-.016-.046-.027-.068-2.666-5.091-11.008-7.7-11.361-7.812a1.349,1.349,0,0,0-1.692.882,27.708,27.708,0,0,0-1.187,9.663c-4.228-1.842-10.394-.571-10.677-.509a1.162,1.162,0,0,0-.9,1.369c.054.265,1.2,5.678,4.114,8.924a23.447,23.447,0,0,0,1.624,8.145,1.3,1.3,0,0,0,.217.6c3.584,8.881,12.088,17.326,22.591,21.792V82.57a1.356,1.356,0,0,0,1.358,1.353H68.843A1.356,1.356,0,0,0,70.2,82.57V75.337C80.7,70.87,89.208,62.425,92.792,53.544a1.3,1.3,0,0,0,.217-.6A23.437,23.437,0,0,0,94.638,44.7ZM21.377,46.051H91.872a21.31,21.31,0,0,1-1.178,5.41H22.556A21.427,21.427,0,0,1,21.377,46.051Zm36.5-9.187a1.455,1.455,0,0,0,1.466,1.071,5.426,5.426,0,0,1,5.431,5.41H52.693a1.77,1.77,0,0,0-.239-.014c-.062.005-.149,0-.225.014H41.3c.141-1.028.247-2.188.291-3.406a5.49,5.49,0,0,1,4.249-1.991h.024a1.4,1.4,0,0,0,1.369-1.085,5.433,5.433,0,0,1,10.644,0Zm16.509,0a5.434,5.434,0,0,1,10.644,0,1.621,1.621,0,0,0,1.466,1.074,5.426,5.426,0,0,1,5.431,5.41H79.851a1.836,1.836,0,0,0-.242-.014c-.073.005-.155,0-.228.014h-11.9a5.538,5.538,0,0,1,5.526-5.4A1.394,1.394,0,0,0,74.382,36.862ZM63.413,21.705c3.679,0,6.788,4.956,6.788,10.82a15.843,15.843,0,0,1-.377,3.349,8.151,8.151,0,0,0-3.7,3.03,8.224,8.224,0,0,0-5.862-3.6A8.137,8.137,0,0,0,56.73,31C57.192,25.736,60.016,21.705,63.413,21.705Zm-13.576,0c2.058,0,4.013,1.55,5.317,4.147a17.38,17.38,0,0,0-1.035,4.139,8.041,8.041,0,0,0-9.265,5.291,8.026,8.026,0,0,0-1.488.308,16.262,16.262,0,0,1-.318-3.065C43.048,26.661,46.157,21.705,49.836,21.705ZM29.48,27.529c2.278.885,6.84,2.968,8.428,6A12.244,12.244,0,0,1,38.893,39a8.279,8.279,0,0,0-.844,1.826l-4.3-8.067a1.357,1.357,0,0,0-2.4,1.271l4.969,9.314h-.272c-3.228-1.777-5.528-3.722-6.46-5.5C28.008,34.819,28.9,29.9,29.48,27.529ZM25.936,37.554a6.634,6.634,0,0,1,.926.82c.1.243.2.487.315.717a11.221,11.221,0,0,0,2.115,2.732c.272.522.508,1.031.725,1.523H29.7L22.49,38.72a1.165,1.165,0,1,0-1.263,1.958l4.163,2.667H20.446a17.532,17.532,0,0,1-3.362-6.765C19.167,36.291,23.465,35.945,25.936,37.554ZM67.486,81.217H45.763v-5.41H67.486ZM68.577,73.1H44.672c-9.5-3.868-17.3-11.159-21.011-18.936H89.588C85.876,61.944,78.072,69.234,68.577,73.1Z" transform="translate(-14.478 -19)" fill="#009cdb"/>
    </g>
    <g id="Clock" transform="translate(20 2838.303)">
      <g id="Group_1333" data-name="Group 1333" transform="translate(7.926 7.797)">
        <path id="Path_1582" data-name="Path 1582" d="M435.477,184.517" transform="translate(-368.376 -153.576)" fill="#009cdb" stroke="#273133" stroke-linecap="round" stroke-miterlimit="10" stroke-width="2"/>
        <path id="Path_1583" data-name="Path 1583" d="M426.091,179.037a1.92,1.92,0,0,0-2.617-.7l-10.048,5.783a1.946,1.946,0,0,1-1.939,0l-6.925-3.985a1.942,1.942,0,0,0-2.648.7h0a1.926,1.926,0,0,0,.708,2.636l8.864,5.1a1.946,1.946,0,0,0,1.939,0l11.968-6.889a1.923,1.923,0,0,0,.708-2.635Z" transform="translate(-381.436 -156.022)" fill="#009cdb"/>
        <path id="Path_1584" data-name="Path 1584" d="M460.151,190.85h-3.985c0-.073.013-.145.008-.219a37.662,37.662,0,0,0-4.095-14.916,2.085,2.085,0,0,0-2.8-.9,2.063,2.063,0,0,0-1.067,2.348,37.51,37.51,0,0,1,4.11,16.711h4.194a.41.41,0,0,1,.327.661l-5.759,7.474a.506.506,0,0,1-.844,0l-5.759-7.474a.411.411,0,0,1,.327-.661h4.351a34.936,34.936,0,0,0-2.973-13.9,30.8,30.8,0,0,0-31.752-17.636c-.341.039-.676.1-1.013.152-.783.128-1.568.264-2.343.442-.559.13-1.112.265-1.659.422-.719.21-1.418.46-2.118.714-.715.259-1.419.552-2.114.867-.65.3-1.3.592-1.924.933-.564.306-1.1.656-1.648,1-.445.28-.887.56-1.317.861-.493.346-.977.7-1.451,1.081-.539.426-1.056.881-1.566,1.342-.326.3-.664.574-.979.885a31.407,31.407,0,0,0-2.388,2.647c-.107.134-.2.276-.309.411a30.879,30.879,0,0,0-1.956,2.825c-.05.08-.111.149-.159.23l.014.008A30.779,30.779,0,0,0,409.182,222.6a31.155,31.155,0,0,0,33.4-10.659,1.915,1.915,0,0,0-.408-2.782l-.05-.033a1.932,1.932,0,0,0-2.544.369c-8.063,10.4-23,14.095-36.1,6.468a24.338,24.338,0,0,1-9.968-11.221c-4.174-9.483-2.932-18.692,1.437-25.8a27.678,27.678,0,0,1,1.745-2.519c.08-.1.152-.211.236-.313a27.138,27.138,0,0,1,2.117-2.345c.25-.247.521-.472.782-.708q.709-.65,1.456-1.246.595-.47,1.214-.905c.4-.283.816-.547,1.234-.806.453-.284.9-.576,1.374-.832q1.123-.613,2.305-1.115c.471-.2.959-.367,1.444-.542.55-.2,1.1-.392,1.668-.555.427-.124.861-.229,1.3-.333q.977-.23,1.978-.386c.365-.058.728-.123,1.1-.167a27.522,27.522,0,0,1,3.2-.2c.913,0,1.814.048,2.706.135.33.033.65.1.976.142.553.076,1.108.144,1.65.253.4.079.786.192,1.18.288.452.112.907.213,1.349.346s.848.291,1.27.442c.387.138.778.268,1.156.422.442.181.869.389,1.3.592.338.16.682.313,1.013.487.437.229.859.483,1.282.736.3.181.61.356.907.549.42.273.825.567,1.229.863.277.2.557.4.826.616.4.315.779.646,1.157.983.251.221.5.442.744.672.37.353.725.722,1.076,1.094.226.242.451.483.668.733.337.385.658.784.973,1.188.2.262.4.527.6.8q.447.619.855,1.266.274.429.531.868.383.652.729,1.326c.159.312.311.627.458.945.211.451.412.91.6,1.375.133.334.255.675.374,1.016.165.467.323.937.462,1.416.1.357.191.719.28,1.082.118.48.232.961.323,1.449.071.378.121.762.176,1.146.069.489.139.977.182,1.473.006.062.007.124.01.188h-3.643a2,2,0,0,0-1.593,3.216l9.334,12.111a1.916,1.916,0,0,0,3.189,0l9.333-12.111A2,2,0,0,0,460.151,190.85Z" transform="translate(-387.068 -162.099)" fill="#009cdb"/>
      </g>
      <g id="Group_1334" data-name="Group 1334">
        <path id="Path_1585" data-name="Path 1585" d="M430.469,203.961a1.878,1.878,0,0,1-.4-.041,1.856,1.856,0,0,1-.39-.124,1.744,1.744,0,0,1-.359-.179,2.682,2.682,0,0,1-.319-.262,2.922,2.922,0,0,1-.263-.317,2.979,2.979,0,0,1-.194-.359,2.921,2.921,0,0,1-.111-.386,1.87,1.87,0,0,1-.042-.4,2,2,0,0,1,.042-.414,3.68,3.68,0,0,1,.111-.386,2.792,2.792,0,0,1,.194-.345,2.009,2.009,0,0,1,.263-.317,2.676,2.676,0,0,1,.319-.262,2.955,2.955,0,0,1,.359-.193,3.278,3.278,0,0,1,.39-.11,1.973,1.973,0,0,1,.8,0,3.174,3.174,0,0,1,.388.11,2.971,2.971,0,0,1,.36.193,2.177,2.177,0,0,1,.582.58,2.977,2.977,0,0,1,.194.345,3.671,3.671,0,0,1,.11.386,2,2,0,0,1,.043.414,1.876,1.876,0,0,1-.043.4,2.92,2.92,0,0,1-.11.386,3.18,3.18,0,0,1-.194.359,2.923,2.923,0,0,1-.263.317,2.016,2.016,0,0,1-.319.262,1.755,1.755,0,0,1-.36.179,1.816,1.816,0,0,1-.388.124A1.886,1.886,0,0,1,430.469,203.961Z" transform="translate(-363.186 -139.961)" fill="#009cdb"/>
        <path id="Path_1586" data-name="Path 1586" d="M419.788,234.113h0a2.072,2.072,0,0,1-2.065-2.084h0a2.081,2.081,0,0,1,2.093-2.057h0a2.072,2.072,0,0,1,2.065,2.083h0a2.069,2.069,0,0,1-2.079,2.058h-.014Zm6.182-2.484a2.061,2.061,0,0,1,1.58-2.457h0a2.078,2.078,0,0,1,2.481,1.573h0a2.075,2.075,0,0,1-1.58,2.469h0a2.42,2.42,0,0,1-.444.043h0A2.1,2.1,0,0,1,425.97,231.629Zm-14.832,1.449h0a2.093,2.093,0,0,1-1.54-2.5h0a2.078,2.078,0,0,1,2.51-1.532h0a2.057,2.057,0,0,1,1.537,2.484h0a2.08,2.08,0,0,1-2.024,1.6h0A3.077,3.077,0,0,1,411.138,233.078Zm22.788-3.671a2.069,2.069,0,0,1,.969-2.76h0a2.074,2.074,0,0,1,2.772.98h0a2.066,2.066,0,0,1-.969,2.76h0a2.1,2.1,0,0,1-.9.207h0A2.064,2.064,0,0,1,433.926,229.407Zm-30.98.7a2.063,2.063,0,0,1-.929-2.774h0a2.081,2.081,0,0,1,2.786-.925h0a2.062,2.062,0,0,1,.927,2.774h0a2.083,2.083,0,0,1-1.856,1.146h0A2.037,2.037,0,0,1,402.946,230.111Zm38.216-4.651a2.059,2.059,0,0,1,.333-2.912h0a2.082,2.082,0,0,1,2.925.331h0a2.074,2.074,0,0,1-.334,2.912h0a2.078,2.078,0,0,1-1.288.442h0A2.083,2.083,0,0,1,441.162,225.46Zm-45.521-.055a2.075,2.075,0,0,1-.291-2.926h0a2.076,2.076,0,0,1,2.925-.276h0a2.069,2.069,0,0,1,.291,2.912h0a2.1,2.1,0,0,1-1.609.759h0A2.13,2.13,0,0,1,395.641,225.4Zm-6.071-6.211a2.074,2.074,0,0,1,.36-2.912h0a2.085,2.085,0,0,1,2.923.373l-.012-.014a2.076,2.076,0,0,1-.36,2.912h0a2.09,2.09,0,0,1-1.275.428h0A2.035,2.035,0,0,1,389.57,219.194Zm-4.547-7.4a2.078,2.078,0,0,1,1-2.76h0a2.1,2.1,0,0,1,2.772,1.008h0a2.066,2.066,0,0,1-1.012,2.747h0a1.967,1.967,0,0,1-.875.193h0A2.085,2.085,0,0,1,385.023,211.8Zm-2.786-8.212a2.088,2.088,0,0,1,1.594-2.471h0a2.1,2.1,0,0,1,2.481,1.587h0a2.089,2.089,0,0,1-1.594,2.471h0a2.527,2.527,0,0,1-.444.041h0A2.1,2.1,0,0,1,382.237,203.584Zm1.178-6.542a2.072,2.072,0,0,1-2.065-2.084h0a2.072,2.072,0,0,1,2.107-2.043h0A2.062,2.062,0,0,1,385.508,195h0a2.057,2.057,0,0,1-2.079,2.043h-.014Zm.527-8.2a2.068,2.068,0,0,1-1.552-2.484h0a2.07,2.07,0,0,1,2.494-1.546h0a2.068,2.068,0,0,1,1.554,2.484h0a2.084,2.084,0,0,1-2.024,1.6h0A1.756,1.756,0,0,1,383.942,188.843Zm2.315-7.895a2.065,2.065,0,0,1-.956-2.76h0a2.072,2.072,0,0,1,2.786-.952h0a2.065,2.065,0,0,1,.955,2.76h0a2.079,2.079,0,0,1-1.87,1.173h0A1.985,1.985,0,0,1,386.257,180.948Zm4.034-7.177a2.059,2.059,0,0,1-.32-2.912h0a2.093,2.093,0,0,1,2.926-.3h0a2.071,2.071,0,0,1,.319,2.912v-.014a2.079,2.079,0,0,1-1.622.773h0A2.028,2.028,0,0,1,390.291,173.771Zm51.66-5.383h0a2.072,2.072,0,0,1-.291-2.912h0a2.094,2.094,0,0,1,2.926-.29h0a2.061,2.061,0,0,1,.291,2.912h0a2.056,2.056,0,0,1-1.608.759h0A2.085,2.085,0,0,1,441.951,168.389Zm-46.143-.718a2.074,2.074,0,0,1,.347-2.912h0a2.1,2.1,0,0,1,2.925.331h0a2.075,2.075,0,0,1-.347,2.912h0a2.059,2.059,0,0,1-1.289.442h0A2.1,2.1,0,0,1,395.807,167.671Zm39.615-3.492h0a2.065,2.065,0,0,1-.929-2.774h0a2.076,2.076,0,0,1,2.788-.939h0a2.082,2.082,0,0,1,.943,2.774h0a2.111,2.111,0,0,1-1.871,1.159h0A2.3,2.3,0,0,1,435.422,164.179Zm-32.865-1.242a2.059,2.059,0,0,1,.984-2.76h0a2.088,2.088,0,0,1,2.772.966h0a2.068,2.068,0,0,1-.984,2.76h0a2.089,2.089,0,0,1-.9.207h0A2.094,2.094,0,0,1,402.557,162.937Zm25.576-1.408a2.078,2.078,0,0,1-1.554-2.5h0a2.1,2.1,0,0,1,2.51-1.532h0a2.061,2.061,0,0,1,1.537,2.5h0a2.068,2.068,0,0,1-2.024,1.587h0A1.828,1.828,0,0,1,428.132,161.529ZM410.2,159.818a2.068,2.068,0,0,1,1.58-2.471h0a2.09,2.09,0,0,1,2.481,1.573h0a2.069,2.069,0,0,1-1.58,2.471h0a1.7,1.7,0,0,1-.444.055h0A2.084,2.084,0,0,1,410.2,159.818Zm10.216.773a2.063,2.063,0,0,1-2.065-2.084h0a2.081,2.081,0,0,1,2.093-2.056h0a2.084,2.084,0,0,1,2.065,2.1h0a2.076,2.076,0,0,1-2.079,2.043h-.014Z" transform="translate(-381.35 -156.45)" fill="#009cdb"/>
        <path id="Path_1587" data-name="Path 1587" d="M430.8,170.909a1.889,1.889,0,0,1-.4-.041,1.273,1.273,0,0,1-.39-.11,3.072,3.072,0,0,1-.359-.193,1.834,1.834,0,0,1-.319-.262,1.889,1.889,0,0,1-.263-.3,2.972,2.972,0,0,1-.194-.359c-.042-.124-.083-.262-.111-.386a1.962,1.962,0,0,1-.042-.4,2.1,2.1,0,0,1,.61-1.477,2.158,2.158,0,0,1,1.871-.566,1.848,1.848,0,0,1,.388.124,2.4,2.4,0,0,1,.679.442,2.1,2.1,0,0,1,.61,1.477,2.005,2.005,0,0,1-.166.787,1.819,1.819,0,0,1-.18.359,2.428,2.428,0,0,1-.582.566,2.983,2.983,0,0,1-.36.193,1.264,1.264,0,0,1-.388.11A1.9,1.9,0,0,1,430.8,170.909Z" transform="translate(-363.058 -152.524)" fill="#009cdb"/>
      </g>
    </g>
  </g>
</svg>
