<svg xmlns="http://www.w3.org/2000/svg" width="59.865" height="30.81" viewBox="0 0 59.865 30.81">
  <path id="Path_1591" data-name="Path 1591" d="M22.375,38.15c.36-2.58.9-6.6,1.44-9.78a6.425,6.425,0,0,0,3.6,1.02c5.37,0,7.17-6.93,7.17-10.44,0-1.38-1.08-3.27-2.85-3.27-1.98,0-5.13,3.6-7.08,7.98l-.12-.06c.27-1.62,1.59-4.74,1.59-6.03,0-1.47-1.86-1.95-2.91-1.89-.21.96-1.08,6.81-1.83,11.01-.78,4.41-1.74,8.79-1.92,9.9-.18,1.08,1.32,1.62,2.4,1.62A2.642,2.642,0,0,0,22.375,38.15ZM27.6,27.38a5.587,5.587,0,0,1-3.24-1.14c2.37-4.53,5.01-7.62,6.12-7.62.45,0,.66.45.66,1.35C31.135,22.52,29.455,27.38,27.6,27.38Zm10.83,2.01c2.55,0,5.88-6.39,6.63-8.34.03-.42-.48-.84-.78-.75-1.23,2.55-3.6,6.51-5.04,6.51-.15,0-.21-.21-.21-.51a17.462,17.462,0,0,1,.48-2.88c1.44-6.78,3.15-12.33,3.15-14.1,0-1.74-1.29-1.92-3.03-1.92-1.71,7.65-3.84,18.03-3.84,19.29A2.685,2.685,0,0,0,38.425,29.39Zm7.17,0c2.37,0,4.41-2.91,6-5.61l.09.06a19.484,19.484,0,0,0-.63,3.09,2.51,2.51,0,0,0,2.61,2.46c2.61,0,5.76-6.33,6.69-8.34.03-.39-.54-.84-.84-.75-1.35,2.58-3.51,6.42-5.1,6.42q-.09,0-.09-.27a38.562,38.562,0,0,1,.96-5.4,15.709,15.709,0,0,0,1.47-4.2c-.36-.87-1.68-1.17-3.06-1.17-.81,1.32-.84,2.94-1.05,4.56-1.74,3.36-4.86,6.57-6.09,6.57-.36,0-.51-.39-.51-.93,0-2.1,1.71-7.35,1.92-7.89a2.056,2.056,0,0,0,.12-.66,1.96,1.96,0,0,0-2.07-1.77,1.912,1.912,0,0,0-.72.12,42.4,42.4,0,0,0-2.16,10.23C43.135,28.37,44.275,29.39,45.6,29.39Zm25.62-8.34a.723.723,0,0,0-.72-.72,18.278,18.278,0,0,1-3.72,5.28,4.58,4.58,0,0,0,.45-1.86c0-1.62-1.11-3.27-2.19-4.86-.45-.69-.93-1.38-1.29-2.04a4.158,4.158,0,0,0,.27-1.23.809.809,0,0,0-.9-.78,2.226,2.226,0,0,0-2.34,1.86,3.085,3.085,0,0,0-.03.54,27.191,27.191,0,0,1-2.88,6.03.958.958,0,0,0,.81.87,32.683,32.683,0,0,0,2.46-4.8,10.86,10.86,0,0,0,1.53,2.55,5.944,5.944,0,0,1,1.47,3.12,1.928,1.928,0,0,1-2.16,1.98,2.683,2.683,0,0,1-2.43-1.56,2.6,2.6,0,0,0-1.38,2.07c0,.96.78,1.8,2.46,1.89h.3a3.631,3.631,0,0,0,.57-.03C67.705,28.79,70.855,22.55,71.215,21.05Zm5.22,1.14a72.3,72.3,0,0,1,2.88-12.18,2.168,2.168,0,0,0-1.98-1.68c-1.17,0-2.73,7.86-3,11.43a4.225,4.225,0,0,0-.03.6c0,1.41.51,1.86,1.53,1.86A4.225,4.225,0,0,0,76.435,22.19Zm-1.92,7.2a1.784,1.784,0,0,0,1.77-1.95,1.592,1.592,0,0,0-1.59-1.65,1.764,1.764,0,0,0-1.83,1.86A1.572,1.572,0,0,0,74.515,29.39Z" transform="translate(-19.45 -7.4)" fill="#009cdb"/>
</svg>
