<svg xmlns="http://www.w3.org/2000/svg" width="48.613" height="46.262" viewBox="0 0 48.613 46.262">
  <g id="Group_1211" data-name="Group 1211" transform="translate(-308.044 -492.072)">
    <path id="Path_1476" data-name="Path 1476" d="M326.905,525.6h-5.178l-6.474,8.622v-8.609H311.54a2.5,2.5,0,0,1-2.5-2.5V495.57a2.5,2.5,0,0,1,2.5-2.5h41.592a2.528,2.528,0,0,1,2.524,2.5v27.512a2.494,2.494,0,0,1-2.469,2.513H347.06" transform="translate(0 0)" fill="none" stroke="#009cdb" stroke-linejoin="round" stroke-width="2"/>
    <g id="Group_1209" data-name="Group 1209" transform="translate(318.243 500.48)">
      <line id="Line_93" data-name="Line 93" x1="28.216" fill="none" stroke="#009cdb" stroke-linejoin="round" stroke-width="2"/>
      <line id="Line_94" data-name="Line 94" x1="17.724" transform="translate(0 11.507)" fill="none" stroke="#009cdb" stroke-linejoin="round" stroke-width="2"/>
      <line id="Line_95" data-name="Line 95" x1="27.651" transform="translate(0 5.754)" fill="none" stroke="#009cdb" stroke-linejoin="round" stroke-width="2"/>
      <line id="Line_96" data-name="Line 96" x1="13.616" transform="translate(0 17.262)" fill="none" stroke="#009cdb" stroke-linejoin="round" stroke-width="2"/>
    </g>
    <g id="Group_1210" data-name="Group 1210" transform="translate(328.102 510.623)">
      <path id="Path_1477" data-name="Path 1477" d="M342.172,536.61l-9.425,5,2.392-10.718L346.7,515.519c.638-.846,2.116-.82,3.288.055l2.985,2.244c1.171.878,1.606,2.3.968,3.143Z" transform="translate(-332.747 -514.901)" fill="none" stroke="#009cdb" stroke-linejoin="round" stroke-width="2"/>
      <line id="Line_97" data-name="Line 97" x1="1.886" y1="1.418" transform="translate(0.825 23.649)" fill="none" stroke="#009cdb" stroke-linejoin="round" stroke-width="2"/>
      <line id="Line_98" data-name="Line 98" x1="6.768" y1="5.089" transform="translate(2.891 15.818)" fill="none" stroke="#009cdb" stroke-linejoin="round" stroke-width="2"/>
      <line id="Line_99" data-name="Line 99" x1="6.77" y1="5.088" transform="translate(11.668 4.144)" fill="none" stroke="#009cdb" stroke-linejoin="round" stroke-width="2"/>
      <line id="Line_100" data-name="Line 100" y1="8.434" x2="6.341" transform="translate(6.417 9.74)" fill="none" stroke="#009cdb" stroke-linejoin="round" stroke-width="2"/>
    </g>
  </g>
</svg>
