<svg id="Group_2595" data-name="Group 2595" xmlns="http://www.w3.org/2000/svg" xmlns:xlink="http://www.w3.org/1999/xlink" width="63.5" height="63.5" viewBox="0 0 63.5 63.5">
  <defs>
    <clipPath id="clip-path">
      <rect id="Rectangle_1905" data-name="Rectangle 1905" width="63.5" height="63.5" fill="none"/>
    </clipPath>
  </defs>
  <g id="Group_2594" data-name="Group 2594" clip-path="url(#clip-path)">
    <path id="Path_5306" data-name="Path 5306" d="M4.625,56.938V45.313A5.8,5.8,0,0,1,8.5,39.858V58.875H6.562a1.939,1.939,0,0,1-1.937-1.937" fill="#fff"/>
    <path id="Path_5307" data-name="Path 5307" d="M58.875,56.938a1.939,1.939,0,0,1-1.937,1.937H55V39.858a5.8,5.8,0,0,1,3.875,5.455Z" fill="#fff"/>
    <path id="Path_5308" data-name="Path 5308" d="M12.375,31.75a19.375,19.375,0,0,1,38.75,0V58.875H12.375Z" fill="#fff"/>
    <path id="Path_5309" data-name="Path 5309" d="M17.911,31.73a1.925,1.925,0,0,0,2.2-1.641,11.786,11.786,0,0,1,23.288,0A1.939,1.939,0,0,0,45.31,31.75a2.059,2.059,0,0,0,.279-.02,1.938,1.938,0,0,0,1.642-2.194,15.662,15.662,0,0,0-30.962,0,1.937,1.937,0,0,0,1.642,2.194" fill="#64a535"/>
    <path id="Path_5310" data-name="Path 5310" d="M17.911,31.73a1.925,1.925,0,0,0,2.2-1.641,11.786,11.786,0,0,1,23.288,0A1.939,1.939,0,0,0,45.31,31.75a2.059,2.059,0,0,0,.279-.02,1.938,1.938,0,0,0,1.642-2.194,15.662,15.662,0,0,0-30.962,0A1.937,1.937,0,0,0,17.911,31.73Z" fill="none" stroke="#fff" stroke-miterlimit="10" stroke-width="1.5"/>
    <path id="Path_5311" data-name="Path 5311" d="M45.312,35.625H18.188a1.938,1.938,0,0,0-1.938,1.938v7.75A9.7,9.7,0,0,0,25.938,55H37.563a9.7,9.7,0,0,0,9.687-9.687v-7.75a1.938,1.938,0,0,0-1.938-1.938m-1.937,9.688a5.819,5.819,0,0,1-5.812,5.812H25.938a5.819,5.819,0,0,1-5.813-5.812V39.5h23.25Z" fill="#64a535"/>
    <path id="Path_5312" data-name="Path 5312" d="M45.312,35.625H18.188a1.938,1.938,0,0,0-1.938,1.938v7.75A9.7,9.7,0,0,0,25.938,55H37.563a9.7,9.7,0,0,0,9.687-9.687v-7.75A1.938,1.938,0,0,0,45.312,35.625Zm-1.937,9.688a5.819,5.819,0,0,1-5.812,5.812H25.938a5.819,5.819,0,0,1-5.813-5.812V39.5h23.25Z" fill="none" stroke="#fff" stroke-miterlimit="10" stroke-width="1.5"/>
    <path id="Path_5313" data-name="Path 5313" d="M55,35.82V31.75A23.27,23.27,0,0,0,39.5,9.856V8.5A7.75,7.75,0,0,0,24,8.5V9.856A23.27,23.27,0,0,0,8.5,31.75v4.07A9.707,9.707,0,0,0,.75,45.313V56.938a5.818,5.818,0,0,0,5.812,5.811H56.938a5.818,5.818,0,0,0,5.812-5.811V45.313A9.707,9.707,0,0,0,55,35.82M27.875,8.5a3.875,3.875,0,0,1,7.75,0v.35a21.626,21.626,0,0,0-7.75,0ZM4.625,56.938V45.313A5.8,5.8,0,0,1,8.5,39.858V58.875H6.562a1.939,1.939,0,0,1-1.937-1.937m7.75-25.188a19.375,19.375,0,0,1,38.75,0V58.875H12.375Zm46.5,25.188a1.939,1.939,0,0,1-1.937,1.937H55V39.858a5.8,5.8,0,0,1,3.875,5.455Z" fill="#64a535"/>
    <path id="Path_5314" data-name="Path 5314" d="M55,35.82V31.75A23.27,23.27,0,0,0,39.5,9.856V8.5A7.75,7.75,0,0,0,24,8.5V9.856A23.27,23.27,0,0,0,8.5,31.75v4.07A9.707,9.707,0,0,0,.75,45.313V56.938a5.818,5.818,0,0,0,5.812,5.811H56.938a5.818,5.818,0,0,0,5.812-5.811V45.313A9.707,9.707,0,0,0,55,35.82ZM27.875,8.5a3.875,3.875,0,0,1,7.75,0v.35a21.626,21.626,0,0,0-7.75,0ZM4.625,56.938V45.313A5.8,5.8,0,0,1,8.5,39.858V58.875H6.562A1.939,1.939,0,0,1,4.625,56.938Zm7.75-25.188a19.375,19.375,0,0,1,38.75,0V58.875H12.375Zm46.5,25.188a1.939,1.939,0,0,1-1.937,1.937H55V39.858a5.8,5.8,0,0,1,3.875,5.455Z" fill="none" stroke="#fff" stroke-miterlimit="10" stroke-width="1.5"/>
    <path id="Path_5315" data-name="Path 5315" d="M44.124,45.323a6.415,6.415,0,0,1-6.207,6.593H25.5a6.416,6.416,0,0,1-6.208-6.593V38.73h24.83Z" fill="#f8ef9f"/>
  </g>
</svg>
