<svg xmlns="http://www.w3.org/2000/svg" xmlns:xlink="http://www.w3.org/1999/xlink" width="56.647" height="56.647" viewBox="0 0 56.647 56.647"><defs><clipPath id="a"><rect width="56.647" height="56.647" fill="none"/></clipPath></defs><g clip-path="url(#a)"><path d="M4.625,55.095V44.724a5.176,5.176,0,0,1,3.457-4.866V56.823H6.353a1.729,1.729,0,0,1-1.728-1.728" transform="translate(-0.499 -4.301)" fill="#fff"/><path d="M58.457,55.095a1.729,1.729,0,0,1-1.728,1.728H55V39.858a5.176,5.176,0,0,1,3.457,4.866Z" transform="translate(-5.935 -4.301)" fill="#fff"/><path d="M12.375,29.659a17.284,17.284,0,1,1,34.568,0v24.2H12.375Z" transform="translate(-1.335 -1.335)" fill="#fff"/><path d="M17.732,30.059A1.717,1.717,0,0,0,19.69,28.6a10.514,10.514,0,0,1,20.775,0,1.73,1.73,0,0,0,1.709,1.482,1.836,1.836,0,0,0,.249-.018A1.729,1.729,0,0,0,43.888,28.1a13.972,13.972,0,0,0-27.621,0,1.728,1.728,0,0,0,1.465,1.957" transform="translate(-1.754 -1.754)" fill="#29353a"/><path d="M17.732,30.059A1.717,1.717,0,0,0,19.69,28.6a10.514,10.514,0,0,1,20.775,0,1.73,1.73,0,0,0,1.709,1.482,1.836,1.836,0,0,0,.249-.018A1.729,1.729,0,0,0,43.888,28.1a13.972,13.972,0,0,0-27.621,0A1.728,1.728,0,0,0,17.732,30.059Z" transform="translate(-1.754 -1.754)" fill="none" stroke="#fff" stroke-miterlimit="10" stroke-width="1.5"/><path d="M42.176,35.625h-24.2a1.729,1.729,0,0,0-1.729,1.729v6.914a8.652,8.652,0,0,0,8.643,8.642h10.37A8.652,8.652,0,0,0,43.9,44.268V37.354a1.729,1.729,0,0,0-1.729-1.729m-1.728,8.643a5.191,5.191,0,0,1-5.185,5.185H24.893a5.191,5.191,0,0,1-5.186-5.185V39.083H40.448Z" transform="translate(-1.754 -3.844)" fill="#29353a"/><path d="M42.176,35.625h-24.2a1.729,1.729,0,0,0-1.729,1.729v6.914a8.652,8.652,0,0,0,8.643,8.642h10.37A8.652,8.652,0,0,0,43.9,44.268V37.354A1.729,1.729,0,0,0,42.176,35.625Zm-1.728,8.643a5.191,5.191,0,0,1-5.185,5.185H24.893a5.191,5.191,0,0,1-5.186-5.185V39.083H40.448Z" transform="translate(-1.754 -3.844)" fill="none" stroke="#fff" stroke-miterlimit="10" stroke-width="1.5"/><path d="M49.146,32.035V28.4A20.759,20.759,0,0,0,35.318,8.873V7.664a6.914,6.914,0,0,0-13.827,0v1.21A20.759,20.759,0,0,0,7.664,28.4v3.631A8.659,8.659,0,0,0,.75,40.5v10.37a5.19,5.19,0,0,0,5.185,5.184h44.94a5.19,5.19,0,0,0,5.185-5.184V40.5a8.659,8.659,0,0,0-6.914-8.469M24.948,7.664a3.457,3.457,0,0,1,6.914,0v.312a19.292,19.292,0,0,0-6.914,0ZM4.207,50.875V40.5a5.176,5.176,0,0,1,3.457-4.866V52.6H5.935a1.729,1.729,0,0,1-1.728-1.728M11.12,28.4a17.284,17.284,0,1,1,34.568,0V52.6H11.12ZM52.6,50.875A1.729,1.729,0,0,1,50.875,52.6H49.146V35.638A5.176,5.176,0,0,1,52.6,40.5Z" transform="translate(-0.081 -0.081)" fill="#29353a"/><path d="M49.146,32.035V28.4A20.759,20.759,0,0,0,35.318,8.873V7.664a6.914,6.914,0,0,0-13.827,0v1.21A20.759,20.759,0,0,0,7.664,28.4v3.631A8.659,8.659,0,0,0,.75,40.5v10.37a5.19,5.19,0,0,0,5.185,5.184h44.94a5.19,5.19,0,0,0,5.185-5.184V40.5A8.659,8.659,0,0,0,49.146,32.035ZM24.948,7.664a3.457,3.457,0,0,1,6.914,0v.312a19.292,19.292,0,0,0-6.914,0ZM4.207,50.875V40.5a5.176,5.176,0,0,1,3.457-4.866V52.6H5.935A1.729,1.729,0,0,1,4.207,50.875ZM11.12,28.4a17.284,17.284,0,1,1,34.568,0V52.6H11.12ZM52.6,50.875A1.729,1.729,0,0,1,50.875,52.6H49.146V35.638A5.176,5.176,0,0,1,52.6,40.5Z" transform="translate(-0.081 -0.081)" fill="none" stroke="#fff" stroke-miterlimit="10" stroke-width="1.5"/><path d="M41.444,44.612a5.723,5.723,0,0,1-5.537,5.882H24.832a5.724,5.724,0,0,1-5.538-5.882V38.73h22.15Z" transform="translate(-2.082 -4.18)" fill="#fff"/></g></svg>