<svg xmlns="http://www.w3.org/2000/svg" width="43.565" height="43.565" viewBox="0 0 43.565 43.565"><g transform="translate(21.782 21.782)"><g transform="translate(-22.046 -22.046)"><path d="M56,28.507a5.335,5.335,0,0,1-8.089,2.162A4.5,4.5,0,0,1,39.525,28.4a4.553,4.553,0,0,1,.047-.644,5.333,5.333,0,0,1-2.7-8.345,5.332,5.332,0,0,1,1.948-6.658A21.041,21.041,0,1,0,56,28.507Z" transform="translate(-13.511 -11.511)" fill="#fff"/><path d="M30.782,50.565a21.782,21.782,0,1,1,3.375-43.3.725.725,0,0,1,.285,1.324,4.606,4.606,0,0,0-1.684,5.752.726.726,0,0,1-.085.739,4.563,4.563,0,0,0-.947,2.8,4.638,4.638,0,0,0,3.278,4.412.725.725,0,0,1,.509.8,3.85,3.85,0,0,0-.039.542,3.776,3.776,0,0,0,7.038,1.9.725.725,0,0,1,1.06-.214,4.609,4.609,0,0,0,6.989-1.869.725.725,0,0,1,1.37.114,21.8,21.8,0,0,1-21.15,27.006Zm0-42.114A20.32,20.32,0,1,0,50.87,25.634a6.065,6.065,0,0,1-7.537,1.255,5.226,5.226,0,0,1-9.309-3.264q0-.075,0-.15a6.1,6.1,0,0,1-3.75-5.6,6,6,0,0,1,1-3.333,6.061,6.061,0,0,1,1.075-6.03C31.829,8.471,31.3,8.451,30.782,8.451Z" transform="translate(-8.736 -6.736)" fill="#29353a"/><g transform="translate(3.773 7.631)"><path d="M66.287,69.2A1.25,1.25,0,0,1,65.2,67.328l2.218-3.842a1.25,1.25,0,0,1,2.165,0l2.218,3.842A1.25,1.25,0,0,1,70.724,69.2Z" transform="translate(-61.156 -62.861)" fill="#fff"/><path d="M68.752,71.3a.875.875,0,0,1-.758-1.312l2.218-3.842a.875.875,0,0,1,1.516,0l2.218,3.842a.875.875,0,0,1-.758,1.312Z" transform="translate(-63.621 -65.33)" fill="#fff" stroke="#2c3539" stroke-linecap="round" stroke-linejoin="round" stroke-width="0.923"/><path d="M39.995,154.321a1.241,1.241,0,0,1-.884-.366l-3.137-3.137a1.25,1.25,0,0,1,.56-2.091l4.285-1.148a1.25,1.25,0,0,1,1.531,1.531L41.2,153.395a1.25,1.25,0,0,1-1.207.926Z" transform="translate(-35.608 -136.369)" fill="#fff"/><path d="M42.461,156.414a.874.874,0,0,1-.619-.256l-3.137-3.137a.875.875,0,0,1,.392-1.464l4.285-1.148a.875.875,0,0,1,1.072,1.072l-1.148,4.285a.875.875,0,0,1-.845.649Z" transform="translate(-38.074 -138.837)" fill="#fff" stroke="#2c3539" stroke-linecap="round" stroke-linejoin="round" stroke-width="0.923"/><path d="M115.9,158.309a1.25,1.25,0,0,1-.367-.055l-3.391-1.042a1.25,1.25,0,0,1-.484-2.11l2.6-2.415a1.25,1.25,0,0,1,2.07.636l.793,3.458a1.25,1.25,0,0,1-1.218,1.529Z" transform="translate(-101.286 -140.549)" fill="#fff"/><path d="M118.371,160.4a.879.879,0,0,1-.257-.038l-3.391-1.042a.875.875,0,0,1-.339-1.477l2.6-2.415a.875.875,0,0,1,1.449.445l.793,3.458a.875.875,0,0,1-.853,1.07Z" transform="translate(-103.753 -143.017)" fill="#fff" stroke="#2c3539" stroke-linecap="round" stroke-linejoin="round" stroke-width="0.923"/><path d="M194.208,188.658a1.244,1.244,0,0,1-.717-.226l-3.633-2.546a1.25,1.25,0,0,1,.189-2.157l4.021-1.874a1.249,1.249,0,0,1,1.245.109,1.253,1.253,0,0,1,.528,1.133l-.388,4.419a1.253,1.253,0,0,1-.717,1.024A1.24,1.24,0,0,1,194.208,188.658Z" transform="translate(-169.052 -166.06)" fill="#fff"/><path d="M196.676,190.752a.875.875,0,0,1-.5-.159l-3.633-2.546a.875.875,0,0,1,.133-1.51l4.021-1.874a.875.875,0,0,1,1.241.87l-.388,4.419a.875.875,0,0,1-.872.8Z" transform="translate(-171.52 -168.529)" fill="#fff" stroke="#2c3539" stroke-linecap="round" stroke-linejoin="round" stroke-width="0.923"/><path d="M132.166,229.382a1.25,1.25,0,0,1-1.231-1.033l-.769-4.37a1.25,1.25,0,0,1,1.659-1.391l4.169,1.519a1.25,1.25,0,0,1,.375,2.132l-3.4,2.851A1.252,1.252,0,0,1,132.166,229.382Z" transform="translate(-117.679 -201.458)" fill="#fff"/><path d="M134.633,231.475a.875.875,0,0,1-.862-.723L133,226.383a.875.875,0,0,1,1.161-.974l4.168,1.519a.875.875,0,0,1,.263,1.493l-3.4,2.85A.875.875,0,0,1,134.633,231.475Z" transform="translate(-120.146 -203.926)" fill="#fff" stroke="#2c3539" stroke-linecap="round" stroke-linejoin="round" stroke-width="0.923"/><path d="M193.714,268.052a1.243,1.243,0,0,1-.986-.482l-2.179-2.8a1.25,1.25,0,0,1,.815-2.006l3.514-.487a1.269,1.269,0,0,1,.172-.012,1.25,1.25,0,0,1,1.158,1.72l-1.335,3.286a1.253,1.253,0,0,1-.986.768A1.268,1.268,0,0,1,193.714,268.052Z" transform="translate(-169.887 -235.967)" fill="#fff"/><path d="M196.18,270.144a.876.876,0,0,1-.69-.337l-2.179-2.8a.875.875,0,0,1,.57-1.4l3.514-.487a.875.875,0,0,1,.931,1.2l-1.335,3.286a.875.875,0,0,1-.69.537A.858.858,0,0,1,196.18,270.144Z" transform="translate(-172.353 -238.435)" fill="#fff" stroke="#2c3539" stroke-linecap="round" stroke-linejoin="round" stroke-width="0.923"/><path d="M68.185,225.837a1.25,1.25,0,0,1-1.207-1.573l.918-3.426a1.25,1.25,0,0,1,2.091-.56l2.508,2.508a1.25,1.25,0,0,1-.561,2.091l-3.426.918A1.247,1.247,0,0,1,68.185,225.837Z" transform="translate(-62.804 -199.199)" fill="#fff"/><path d="M70.652,227.931a.875.875,0,0,1-.845-1.1l.918-3.426a.875.875,0,0,1,1.464-.392l2.508,2.508a.875.875,0,0,1-.392,1.464l-3.426.918A.879.879,0,0,1,70.652,227.931Z" transform="translate(-65.27 -201.668)" fill="#fff" stroke="#2c3539" stroke-linecap="round" stroke-linejoin="round" stroke-width="0.923"/><path d="M261.9,188.736a1.25,1.25,0,0,1-1.083-1.875l1.774-3.072a1.25,1.25,0,0,1,2.165,0l1.774,3.072a1.25,1.25,0,0,1-1.083,1.875Z" transform="translate(-230.975 -167.298)" fill="#fff"/><path d="M264.368,190.829a.875.875,0,0,1-.758-1.312l1.774-3.072a.875.875,0,0,1,1.516,0l1.774,3.072a.875.875,0,0,1-.758,1.312Z" transform="translate(-233.439 -169.766)" fill="#fff" stroke="#2c3539" stroke-linecap="round" stroke-linejoin="round" stroke-width="0.923"/><path d="M142.237,96.59a.875.875,0,0,1-.852-.677l-.8-3.455a.875.875,0,0,1,1.107-1.035l3.394,1.033a.875.875,0,0,1,.343,1.476l-2.591,2.423A.876.876,0,0,1,142.237,96.59Z" transform="translate(-126.718 -87.623)" fill="#fff" stroke="#2c3539" stroke-linecap="round" stroke-linejoin="round" stroke-width="0.923"/></g></g></g></svg>