<svg xmlns="http://www.w3.org/2000/svg" width="49.831" height="44.451" viewBox="0 0 49.831 44.451"><g transform="translate(24.943 22.226)"><g transform="translate(-24 -21.338)"><ellipse cx="15.97" cy="15.97" rx="15.97" ry="15.97" transform="translate(8.029 5.368)" fill="#fff" stroke="#2c3539" stroke-linecap="round" stroke-linejoin="round" stroke-width="1.774"/><path d="M49.468,21.775l-2.586,2.586V22.338A21.341,21.341,0,0,0,5.826,14.17a.043.043,0,0,0,.024.058.043.043,0,0,0,.058-.023,21.253,21.253,0,0,1,40.886,8.133v2.023l-2.586-2.586a.044.044,0,0,0-.062.062L46.807,24.5a.042.042,0,0,0,.031.013.043.043,0,0,0,.031-.013l2.662-2.662a.044.044,0,1,0-.062-.062Z" transform="translate(-1.544 -1)" fill="none" stroke="#2c3539" stroke-linecap="round" stroke-linejoin="round" stroke-width="1.774"/><path d="M44.694,32.883a.043.043,0,0,0-.058.024A21.253,21.253,0,0,1,3.75,24.774V22.75l2.586,2.587a.044.044,0,0,0,.031.012.046.046,0,0,0,.031-.012.044.044,0,0,0,0-.063L3.737,22.612c-.005,0-.012,0-.019,0s-.005-.012-.012-.012-.007.01-.013.012-.013,0-.018,0L1.013,25.274a.044.044,0,0,0,0,.063.044.044,0,0,0,.062,0L3.662,22.75v2.024a21.341,21.341,0,0,0,41.056,8.168A.044.044,0,0,0,44.694,32.883Z" transform="translate(-1 -3.435)" fill="none" stroke="#2c3539" stroke-linecap="round" stroke-linejoin="round" stroke-width="1.774"/><g transform="translate(7.985 5.323)"><path d="M28,7.044V9.174a.044.044,0,1,0,.089,0V7.044a.044.044,0,0,0-.089,0Z" transform="translate(-12.03 -7)" fill="none" stroke="#2c3539" stroke-linecap="round" stroke-linejoin="round" stroke-width="1.774"/><path d="M28,40.643v2.13a.044.044,0,0,0,.089,0v-2.13a.044.044,0,0,0-.089,0Z" transform="translate(-12.03 -10.789)" fill="none" stroke="#2c3539" stroke-linecap="round" stroke-linejoin="round" stroke-width="1.774"/><path d="M45.774,25h-2.13a.044.044,0,0,0,0,.089h2.13a.044.044,0,1,0,0-.089Z" transform="translate(-13.789 -9.03)" fill="none" stroke="#2c3539" stroke-linecap="round" stroke-linejoin="round" stroke-width="1.775"/><path d="M10.044,25a.044.044,0,0,0,0,.089h2.129a.044.044,0,0,0,0-.089Z" transform="translate(-10 -9.03)" fill="none" stroke="#2c3539" stroke-linecap="round" stroke-linejoin="round" stroke-width="1.775"/></g><g transform="translate(17.473 12.967)"><path d="M30.725,15.615l-4.284,5.117a5.3,5.3,0,0,1,2.1-.473,4.882,4.882,0,0,1,3.4,1.443,4.831,4.831,0,0,1,1.42,3.584,5.272,5.272,0,0,1-1.555,3.923,6.557,6.557,0,0,1-4.8,1.78,6.577,6.577,0,0,1-4.937-1.825,4.926,4.926,0,0,1-1.375-3.517,9.708,9.708,0,0,1,2.231-5.613l3.359-4.418ZM28.674,27.2a2.418,2.418,0,0,0,.7-1.712,2.15,2.15,0,0,0-.7-1.578,2.453,2.453,0,0,0-1.735-.7,2.641,2.641,0,0,0-1.691.654A2.207,2.207,0,0,0,24.5,25.42a2.5,2.5,0,0,0,.653,1.713,2.458,2.458,0,0,0,1.782.767A2.392,2.392,0,0,0,28.674,27.2Z" transform="translate(-20.694 -15.615)" fill="#f9f09f"/><path d="M30.725,15.615l-4.284,5.117a5.3,5.3,0,0,1,2.1-.473,4.882,4.882,0,0,1,3.4,1.443,4.831,4.831,0,0,1,1.42,3.584,5.272,5.272,0,0,1-1.555,3.923,6.557,6.557,0,0,1-4.8,1.78,6.577,6.577,0,0,1-4.937-1.825,4.926,4.926,0,0,1-1.375-3.517,9.708,9.708,0,0,1,2.231-5.613l3.359-4.418ZM28.674,27.2a2.418,2.418,0,0,0,.7-1.712,2.15,2.15,0,0,0-.7-1.578,2.453,2.453,0,0,0-1.735-.7,2.641,2.641,0,0,0-1.691.654A2.207,2.207,0,0,0,24.5,25.42a2.5,2.5,0,0,0,.653,1.713,2.458,2.458,0,0,0,1.782.767A2.392,2.392,0,0,0,28.674,27.2Z" transform="translate(-20.694 -15.615)" fill="none" stroke="#2c3539" stroke-linejoin="round" stroke-width="2.662"/><path d="M30.725,15.615l-4.284,5.117a5.3,5.3,0,0,1,2.1-.473,4.882,4.882,0,0,1,3.4,1.443,4.831,4.831,0,0,1,1.42,3.584,5.272,5.272,0,0,1-1.555,3.923,6.557,6.557,0,0,1-4.8,1.78,6.577,6.577,0,0,1-4.937-1.825,4.926,4.926,0,0,1-1.375-3.517,9.708,9.708,0,0,1,2.231-5.613l3.359-4.418ZM28.674,27.2a2.418,2.418,0,0,0,.7-1.712,2.15,2.15,0,0,0-.7-1.578,2.453,2.453,0,0,0-1.735-.7,2.641,2.641,0,0,0-1.691.654A2.207,2.207,0,0,0,24.5,25.42a2.5,2.5,0,0,0,.653,1.713,2.458,2.458,0,0,0,1.782.767A2.392,2.392,0,0,0,28.674,27.2Z" transform="translate(-20.694 -15.615)" fill="#fff"/></g></g></g></svg>