<svg xmlns="http://www.w3.org/2000/svg" width="48" height="33.627" viewBox="0 0 48 33.627"><g transform="translate(24 16.814)"><g transform="translate(-24 -16.814)"><ellipse cx="14.785" cy="14.785" rx="14.785" ry="14.785" transform="translate(9.799 2.451)" fill="#fff"/><g transform="translate(8.173 0.276)"><path d="M23.256.221h-.041a16.675,16.675,0,0,0-11.82,28.438,16.565,16.565,0,0,0,11.779,4.913h0A16.982,16.982,0,0,0,39.89,16.857,16.711,16.711,0,0,0,23.256.221Zm-.082,2.154A14.561,14.561,0,1,1,8.614,16.935,14.677,14.677,0,0,1,23.173,2.375Z" transform="translate(-6.539 -0.221)" fill="#29353a"/><path d="M11.612,12.783c0,3.866,3.313,6.913,8.332,11.525l1.895,1.711,1.87-1.686c5.034-4.623,8.359-7.678,8.359-11.545a5.713,5.713,0,0,0-5.606-5.8H26.3a6.169,6.169,0,0,0-4.461,1.936A6.165,6.165,0,0,0,17.38,6.982a5.733,5.733,0,0,0-5.769,5.637Zm2.155-.005a3.672,3.672,0,0,1,1.034-2.6,3.58,3.58,0,0,1,2.522-1.045h.051a4.049,4.049,0,0,1,3.057,1.439l1.406,1.671,1.407-1.671A4.035,4.035,0,0,1,26.3,9.133h.044a3.606,3.606,0,0,1,2.527,1.04,3.672,3.672,0,0,1,1.037,2.588,6.727,6.727,0,0,1-1.85,4.208,60.332,60.332,0,0,1-5.812,5.787l-.4.374-.406-.374a60.458,60.458,0,0,1-5.828-5.8A6.687,6.687,0,0,1,13.767,12.778Z" transform="translate(-5.272 1.468)" fill="#29353a"/></g><path d="M39.024.691A1.95,1.95,0,0,0,37.563,0h-.008a1.837,1.837,0,0,0-.745.157A1.992,1.992,0,0,0,36.18.6a8.4,8.4,0,0,0-1.834,4.544,36.4,36.4,0,0,0-.414,3.873c-.1,1.534-.147,3.285-.155,5.352a4.036,4.036,0,0,0,.12,1.007,3.843,3.843,0,0,0,.315.82,5.285,5.285,0,0,0,.734,1.02,2.266,2.266,0,0,1,.154.182,1.155,1.155,0,0,1,.2.767L34.129,30.517a2.659,2.659,0,0,0,.64,2,2.662,2.662,0,0,0,1.882.917l.124,0h.013a2.667,2.667,0,0,0,2.666-2.662l.106-28.6A2.253,2.253,0,0,0,39.024.691ZM36.966,18.324a2.825,2.825,0,0,0-.5-1.894,3.954,3.954,0,0,0-.262-.321,2.418,2.418,0,0,1-.754-1.735c.03-7.377.625-11.266,1.931-12.61a.249.249,0,0,1,.174-.091c.135,0,.332.176.331.492l-.106,28.6a.985.985,0,0,1-.295.7.952.952,0,0,1-.747.287.993.993,0,0,1-.942-1.087Z" transform="translate(8.44)" fill="#29353a"/><path d="M2.652,9.562h.006a.684.684,0,0,0,.681-.677L3.4,1.726a.679.679,0,0,0-.681-.686.683.683,0,0,0-.681.676L1.976,8.874A.682.682,0,0,0,2.652,9.562Zm.069-8.209Z" transform="translate(0.494 0.26)" fill="#29353a"/><path d="M4.411,9.562h0a.684.684,0,0,0,.676-.686L5.031,1.717a.683.683,0,0,0-.685-.677.681.681,0,0,0-.677.686l.06,7.158A.684.684,0,0,0,4.411,9.562Z" transform="translate(0.917 0.26)" fill="#29353a"/><path d="M8.12,1.7a.852.852,0,0,0-.889-.78h0a.835.835,0,0,0-.576.287.822.822,0,0,0-.2.584l.174,7.29a3.754,3.754,0,0,1-.1,1.382l-.131.149c-.067.076-.156.166-.256.267a4.087,4.087,0,0,0-1.427,2.46l.422,17.128a.914.914,0,0,1-.252.675.941.941,0,0,1-1.325,0,.911.911,0,0,1-.252-.684l.479-17.127a3.048,3.048,0,0,0-1.15-2.082,4.607,4.607,0,0,1-.4-.425,4.241,4.241,0,0,1-.422-.619,2.964,2.964,0,0,1-.129-1.1l.172-7.224a.838.838,0,0,0-.2-.606A.87.87,0,0,0,1.015.98a.846.846,0,0,0-.836.8L.005,9.025a5.855,5.855,0,0,0,.007.641,3.314,3.314,0,0,0,.3,1.29,8.4,8.4,0,0,0,.635.956,4.158,4.158,0,0,0,.516.534c.314.289.637.586.64.855L1.624,30.388a2.6,2.6,0,0,0,1.551,2.495A2.587,2.587,0,0,0,6.087,32.3,2.594,2.594,0,0,0,6.8,30.4L6.382,13.363c.029-.4.56-.93.912-1.277.127-.127.241-.24.344-.357L7.8,11.54a2.753,2.753,0,0,0,.5-1.716,8.2,8.2,0,0,0-.011-.851Z" transform="translate(0 0.229)" fill="#29353a"/><path d="M13.212,12.348a3.667,3.667,0,0,1,1.034-2.6A3.575,3.575,0,0,1,16.767,8.7h.051a4.052,4.052,0,0,1,3.058,1.439l1.406,1.671,1.406-1.671A4.037,4.037,0,0,1,25.747,8.7h.043a3.611,3.611,0,0,1,2.528,1.04,3.677,3.677,0,0,1,1.037,2.588A6.728,6.728,0,0,1,27.5,16.54a60.32,60.32,0,0,1-5.811,5.787l-.4.374-.406-.374a60.3,60.3,0,0,1-5.827-5.8A6.687,6.687,0,0,1,13.212,12.348Z" transform="translate(3.301 2.174)" fill="#fff"/></g></g></svg>