<svg xmlns="http://www.w3.org/2000/svg" width="54.477" height="37.414" viewBox="0 0 54.477 37.414"><g transform="translate(36.75 25.24)"><g transform="translate(-36.75 -25.24)"><rect width="52.643" height="32.928" transform="translate(0.917 0.917)" fill="#fff"/><path d="M53.559,34.762H.917A.917.917,0,0,1,0,33.845V.917A.917.917,0,0,1,.917,0H53.559a.917.917,0,0,1,.917.917V33.845A.917.917,0,0,1,53.559,34.762ZM1.834,32.928H52.642V1.834H1.834Z" fill="#29353a"/><g transform="translate(34.45)"><rect width="18.193" height="32.928" transform="translate(0.917 0.917)" fill="#fff"/><path d="M75.458,34.762H57.265a.917.917,0,0,1-.917-.917V.917A.917.917,0,0,1,57.265,0H75.458a.917.917,0,0,1,.917.917V33.845A.917.917,0,0,1,75.458,34.762ZM58.182,32.928H74.541V1.834H58.182Z" transform="translate(-56.348)" fill="#29353a"/></g><g transform="translate(39.418 13.979)"><rect width="2.059" height="1.834" transform="translate(4.028)" fill="#29353a"/><rect width="2.057" height="1.834" transform="translate(8.056)" fill="#29353a"/><rect width="2.058" height="1.834" fill="#29353a"/></g><g transform="translate(39.418 17.85)"><rect width="2.059" height="1.834" transform="translate(4.028)" fill="#29353a"/><rect width="2.057" height="1.834" transform="translate(8.056)" fill="#29353a"/><rect width="2.058" height="1.834" fill="#29353a"/></g><g transform="translate(0 5.8)"><rect width="34.45" height="21.328" transform="translate(0.917 0.917)" fill="#fff"/><path d="M35.367,32.65H.917A.917.917,0,0,1,0,31.732V10.4a.917.917,0,0,1,.917-.917h34.45a.917.917,0,0,1,.917.917V31.732A.917.917,0,0,1,35.367,32.65ZM1.834,30.815H34.45V11.321H1.834Z" transform="translate(0 -9.487)" fill="#29353a"/></g><rect width="1.834" height="11.905" transform="translate(29.256 12.058)" fill="#29353a"/><g transform="translate(38.745 4.219)"><rect width="9.624" height="5.699" transform="translate(0.917 0.917)" fill="#fff"/><path d="M73.915,14.434H64.291a.917.917,0,0,1-.917-.917v-5.7a.917.917,0,0,1,.917-.917h9.624a.917.917,0,0,1,.917.917v5.7A.917.917,0,0,1,73.915,14.434ZM65.208,12.6H73V8.735h-7.79Z" transform="translate(-63.374 -6.901)" fill="#29353a"/></g><g transform="translate(39.884 22.255)"><path d="M66.736,41.575a3.673,3.673,0,1,1,3.674,3.673A3.676,3.676,0,0,1,66.736,41.575Z" transform="translate(-65.819 -36.985)" fill="#fff"/><path d="M69.827,45.582a4.59,4.59,0,1,1,4.59-4.59A4.6,4.6,0,0,1,69.827,45.582Zm0-7.346a2.756,2.756,0,1,0,2.756,2.756A2.759,2.759,0,0,0,69.827,38.236Z" transform="translate(-65.236 -36.402)" fill="#29353a"/></g><path d="M14.88,58.345H13.046V55.693H8.97v2.652H7.136V54.776a.917.917,0,0,1,.917-.917h5.91a.917.917,0,0,1,.917.917Z" transform="translate(-2.773 -20.931)" fill="#29353a"/><path d="M77.306,58.345H75.472V55.693H71.4v2.652H69.562V54.776a.917.917,0,0,1,.917-.917h5.91a.917.917,0,0,1,.917.917Z" transform="translate(-27.034 -20.931)" fill="#29353a"/><g transform="translate(10.272 12.131)"><path d="M19.374,31.684l-.864-1.618.432.809-.448-.8a1.8,1.8,0,0,0,.754-1.605,3.66,3.66,0,0,0-.984-1.815,5.312,5.312,0,0,1-1.461-3.2,4.663,4.663,0,0,1,1.58-3.612l1.12,1.453a2.844,2.844,0,0,0-.866,2.159,3.9,3.9,0,0,0,1.078,2.08,4.97,4.97,0,0,1,1.367,2.936A3.626,3.626,0,0,1,19.374,31.684Z" transform="translate(-16.802 -19.842)" fill="#29353a"/><path d="M25.9,31.684l-.864-1.618.432.809-.448-.8a1.8,1.8,0,0,0,.753-1.605,3.663,3.663,0,0,0-.984-1.815,5.313,5.313,0,0,1-1.462-3.2,4.665,4.665,0,0,1,1.58-3.612l1.12,1.453a2.844,2.844,0,0,0-.866,2.159,3.9,3.9,0,0,0,1.079,2.08A4.97,4.97,0,0,1,27.6,28.47,3.626,3.626,0,0,1,25.9,31.684Z" transform="translate(-19.337 -19.842)" fill="#29353a"/><path d="M33.152,31.684l-.864-1.618.432.809-.448-.8a1.8,1.8,0,0,0,.753-1.605,3.663,3.663,0,0,0-.984-1.815,5.313,5.313,0,0,1-1.462-3.2,4.665,4.665,0,0,1,1.58-3.612l1.12,1.453a2.844,2.844,0,0,0-.866,2.159,3.9,3.9,0,0,0,1.079,2.08A4.97,4.97,0,0,1,34.86,28.47,3.626,3.626,0,0,1,33.152,31.684Z" transform="translate(-22.156 -19.842)" fill="#29353a"/></g></g></g></svg>