<svg xmlns="http://www.w3.org/2000/svg" width="47.077" height="38.31" viewBox="0 0 47.077 38.31"><g transform="translate(23.537 19.155)"><g transform="translate(-24 -19.616)"><path d="M47.579,15.7a.338.338,0,0,0-.092-.276c0-.184.092-.368.092-.553a4.771,4.771,0,0,0-4.236-4.7,4.808,4.808,0,0,0-8.565-1.013V8.512C34.779,4,32.292.5,29.161.5A4.733,4.733,0,0,0,25.2,2.894,4.788,4.788,0,0,0,21.333.5C18.2.5,15.808,3.907,15.716,8.328h0c-1.566-3.039-6.446-4.512-6.631-4.6a.794.794,0,0,0-1.013.553h0a17.089,17.089,0,0,0-.737,5.71C4.849,8.88,1.257,9.617,1.073,9.617a.717.717,0,0,0-.553.829A12.4,12.4,0,0,0,2.915,15.7a13.835,13.835,0,0,0,.921,4.789c0,.092.092.276.092.368C6.046,26.1,11.019,31.074,17.189,33.745v4.236a.825.825,0,0,0,.829.829H32.384a.825.825,0,0,0,.829-.829h0V33.745c6.17-2.671,11.143-7.644,13.261-12.893.092-.092.092-.184.092-.368A12.412,12.412,0,0,0,47.579,15.7Zm-43.007.737H46.014a13.577,13.577,0,0,1-.737,3.223H5.309a12.626,12.626,0,0,1-.737-3.223ZM26.03,11a.885.885,0,0,0,.829.645,3.263,3.263,0,0,1,3.223,3.223H16.268a13.794,13.794,0,0,0,.184-2.026,3.385,3.385,0,0,1,2.486-1.2h0A.885.885,0,0,0,19.768,11a3.168,3.168,0,0,1,3.776-2.486A3.409,3.409,0,0,1,26.03,11Zm9.67,0a3.2,3.2,0,0,1,6.262,0,.885.885,0,0,0,.829.645,3.263,3.263,0,0,1,3.223,3.223H31.647a3.326,3.326,0,0,1,3.223-3.223A.807.807,0,0,0,35.7,11ZM29.253,2.066c2.118,0,3.96,2.947,3.96,6.354a13.739,13.739,0,0,1-.184,1.934,5.215,5.215,0,0,0-2.21,1.75,4.694,4.694,0,0,0-3.407-2.118,4.844,4.844,0,0,0-2.118-2.579c.276-2.947,1.934-5.341,3.96-5.341Zm-8.012,0a3.768,3.768,0,0,1,3.131,2.486,23.061,23.061,0,0,0-.645,2.394,4.724,4.724,0,0,0-5.433,3.131,2.689,2.689,0,0,0-.829.184,11.337,11.337,0,0,1-.184-1.842c0-3.407,1.842-6.354,3.96-6.354Zm-11.88,3.5c1.289.46,3.96,1.75,4.881,3.5a6.469,6.469,0,0,1,.553,3.223,5.633,5.633,0,0,0-.46,1.105L11.848,8.6a.853.853,0,0,0-1.105-.368.778.778,0,0,0-.368,1.105l2.947,5.525h-.184a9.209,9.209,0,0,1-3.776-3.223C8.44,9.8,8.993,6.946,9.361,5.565ZM7.243,11.459c.184.184.368.276.553.46.092.184.092.276.184.46a10.053,10.053,0,0,0,1.2,1.566c.184.276.276.645.46.921H9.453L5.217,12.1a.714.714,0,0,0-.921.184.714.714,0,0,0,.184.921l2.486,1.658H4.02a9.373,9.373,0,0,1-1.934-3.96c1.2-.184,3.684-.46,5.157.553Zm24.4,25.694H18.939V33.929h12.8v3.223Zm.645-4.789h-14A23.574,23.574,0,0,1,5.954,21.221H44.632a23.916,23.916,0,0,1-12.34,11.143Z" transform="translate(-0.04 -0.04)" fill="#29353a"/><path d="M27.384,11.68a.885.885,0,0,0,.829.645,3.263,3.263,0,0,1,3.223,3.223H17.622a13.8,13.8,0,0,0,.184-2.026,3.385,3.385,0,0,1,2.486-1.2h0a.885.885,0,0,0,.829-.645A3.168,3.168,0,0,1,24.9,9.194a3.409,3.409,0,0,1,2.486,2.486Z" transform="translate(-1.394 -0.721)" fill="#fff"/><path d="M38.374,11.68a3.2,3.2,0,0,1,6.262,0,.885.885,0,0,0,.829.645,3.263,3.263,0,0,1,3.223,3.223H34.322a3.326,3.326,0,0,1,3.223-3.223.807.807,0,0,0,.829-.645Z" transform="translate(-2.714 -0.721)" fill="#fff"/><path d="M32.76,34.143h-14A23.574,23.574,0,0,1,6.422,23H45.1A23.916,23.916,0,0,1,32.76,34.143Z" transform="translate(-0.508 -1.819)" fill="#fff"/><path d="M4.922,17.8H46.363a13.578,13.578,0,0,1-.737,3.223H5.659A12.626,12.626,0,0,1,4.922,17.8Z" transform="translate(-0.389 -1.408)" fill="#fff"/><path d="M31.382,2.2c2.118,0,3.96,2.947,3.96,6.354a13.739,13.739,0,0,1-.184,1.934,5.215,5.215,0,0,0-2.21,1.75A4.694,4.694,0,0,0,29.54,10.12a4.844,4.844,0,0,0-2.118-2.579C27.7,4.594,29.356,2.2,31.382,2.2Z" transform="translate(-2.169 -0.174)" fill="#fff"/><path d="M22.682,2.2a3.768,3.768,0,0,1,3.131,2.486,23.063,23.063,0,0,0-.645,2.394,4.724,4.724,0,0,0-5.433,3.131,2.689,2.689,0,0,0-.829.184,11.337,11.337,0,0,1-.184-1.842c0-3.407,1.842-6.354,3.96-6.354Z" transform="translate(-1.481 -0.174)" fill="#fff"/><path d="M10.079,6c1.289.46,3.96,1.75,4.881,3.5a6.469,6.469,0,0,1,.553,3.223,5.633,5.633,0,0,0-.46,1.105L12.565,9.039a.853.853,0,0,0-1.105-.368.778.778,0,0,0-.368,1.105L14.039,15.3h-.184a9.209,9.209,0,0,1-3.776-3.223C9.158,10.236,9.71,7.381,10.079,6Z" transform="translate(-0.757 -0.475)" fill="#fff"/><path d="M7.379,12.337c.184.184.368.276.553.46.092.184.092.276.184.46a10.053,10.053,0,0,0,1.2,1.566c.184.276.276.645.46.921H9.589L5.353,12.982a.714.714,0,0,0-.921.184.714.714,0,0,0,.184.921L7.1,15.745H4.156a9.373,9.373,0,0,1-1.934-3.96c1.2-.184,3.684-.46,5.157.553Z" transform="translate(-0.176 -0.918)" fill="#fff"/><path d="M33.231,40.023H20.522V36.8h12.8v3.223Z" transform="translate(-1.623 -2.91)" fill="#fff"/></g></g></svg>