<svg xmlns="http://www.w3.org/2000/svg" width="212.658" height="14.9" viewBox="0 0 212.658 14.9"><g transform="matrix(1, 0.017, -0.017, 1, 136.045, 9.536)"><path d="M211.525,6.437C193.271,4.566,187.569,2.9,169.164,1.762S132.273,0,113.776,0c-18.5-.013-37,.561-55.435,1.608S21.513,4.138,3.183,5.9C1.18,6.1-.231,7.432.032,8.887s2.1,2.477,4.108,2.283a.618.618,0,0,0,.065-.008l.04,0C22.392,9.1,40.593,8.29,58.862,6.952s36.6-2.214,54.956-2.508,36.716-.029,55.076.837c18.347.828,24.05,1.215,42.336,2.781a1.109,1.109,0,0,0,1.257-.717C212.559,6.9,212.128,6.5,211.525,6.437Z" transform="translate(-135.995 -7.164)" fill="#f4c74a" fill-rule="evenodd"/></g></svg>
