<svg xmlns="http://www.w3.org/2000/svg" width="167.805" height="15.049" viewBox="0 0 167.805 15.049"><g transform="matrix(1, 0.017, -0.017, 1, 136.061, 9.536)"><path d="M166.854,6.973c-14.4-2.027-18.9-3.83-33.415-5.065S104.338,0,89.748,0C75.157-.013,60.565.608,46.02,1.742S16.97,4.482,2.511,6.395a2.877,2.877,0,1,0,.755,5.7.363.363,0,0,0,.051-.009l.031,0C17.663,9.859,32.021,8.98,46.431,7.531s28.871-2.4,43.35-2.717q21.721-.5,43.445.906c14.472.9,18.971,1.316,33.4,3.013a.888.888,0,0,0,.232-1.76Z" transform="translate(-135.995 -7.164)" fill="#b85126" fill-rule="evenodd"/></g></svg>
