<svg xmlns="http://www.w3.org/2000/svg" width="22.199" height="18.165" viewBox="0 0 22.199 18.165"><g transform="translate(11.099 9.083)"><path d="M21.328,8.247h-2.45L20.13,7.076a.789.789,0,0,0,.054-1.116l-.054-.054a.926.926,0,0,0-1.252,0l-2.5,2.368H14.74a3.349,3.349,0,0,0-1.007-1.633l.817-1.334,3.43-.871a.871.871,0,0,0,.408-.218.817.817,0,0,0,.218-.817.9.9,0,0,0-1.089-.6L15.8,3.265,17.027,1.25A.817.817,0,0,0,16.754.134H16.7a.926.926,0,0,0-1.225.3L14.25,2.421,13.814.815a.9.9,0,0,0-1.089-.6.817.817,0,0,0-.653.953h0v.054L13,4.435l-.817,1.334a3.839,3.839,0,0,0-1.007-.136,3.975,3.975,0,0,0-1.007.136L9.349,4.435,10.3,1.25A.844.844,0,0,0,9.7.243H9.676a.9.9,0,0,0-1.089.6L8.124,2.421,6.872.406a.926.926,0,0,0-1.2-.3A.817.817,0,0,0,5.32,1.2V1.25L6.573,3.265,4.858,2.829a.9.9,0,0,0-1.089.6A.817.817,0,0,0,4.34,4.435h.054l3.43.871.817,1.307H8.587A3.348,3.348,0,0,0,7.634,8.22H6L3.5,5.878a.926.926,0,0,0-1.252,0A.789.789,0,0,0,2.19,6.994h0l.054.054L3.5,8.22H1.046A.844.844,0,1,0,.91,9.88H3.524L2.271,11.105a.789.789,0,0,0-.054,1.143l.054.054a.926.926,0,0,0,1.252,0l2.5-2.368H7.662a3.348,3.348,0,0,0,.98,1.633l-.817,1.307-3.4.844a.817.817,0,0,0-.653.98h0v.054a.9.9,0,0,0,1.089.6l1.715-.436L5.348,16.9A.817.817,0,0,0,5.62,18.02h.054a.926.926,0,0,0,1.089-.136l.136-.163,1.225-1.987.463,1.633a.9.9,0,0,0,1.089.6.926.926,0,0,0,.408-.218.817.817,0,0,0,.218-.817l-.926-3.212.817-1.334a3.838,3.838,0,0,0,1.007.136,3.73,3.73,0,0,0,1.007-.136l.817,1.334-.953,3.212a.844.844,0,0,0,.6,1.007H12.7a.9.9,0,0,0,1.089-.6l.463-1.606,1.225,2.015a.926.926,0,0,0,1.225.3.817.817,0,0,0,.354-1.089h-.027L15.8,14.971l1.688.436a.926.926,0,0,0,.871-.218.789.789,0,0,0,.218-.381.844.844,0,0,0-.6-1.007h-.027l-3.4-.926-.817-1.307h.027a3.4,3.4,0,0,0,.953-1.606h1.633l2.5,2.368a.926.926,0,0,0,1.252,0,.789.789,0,0,0,.054-1.143l-.054-.054L18.85,9.962H21.3a.926.926,0,0,0,.626-.245.817.817,0,0,0,.272-.6A.871.871,0,0,0,21.328,8.247ZM9.322,9.091a1.715,1.715,0,0,1,.544-1.252A1.96,1.96,0,0,1,11.2,7.321a1.824,1.824,0,0,1,1.878,1.77A1.878,1.878,0,0,1,11.2,10.86a1.824,1.824,0,0,1-1.878-1.77Z" transform="translate(-11.099 -9.083)" fill="#254b9b"/></g></svg>
