<svg xmlns="http://www.w3.org/2000/svg" width="193.211" height="10.177" viewBox="0 0 193.211 10.177"><g transform="translate(135.995 7.164)"><path d="M192.329,5.853c-16.6-1.7-21.782-3.215-38.517-4.251S120.269,0,103.451,0c-16.819-.011-33.639.51-50.4,1.462S19.561,3.762,2.894,5.368C1.073,5.544-.21,6.757.029,8.08s1.913,2.252,3.735,2.076a.562.562,0,0,0,.059-.008l.036,0c16.5-1.869,33.05-2.607,49.661-3.823S86.8,4.309,103.489,4.041s33.384-.027,50.078.761c16.682.753,21.868,1.1,38.494,2.529a1.008,1.008,0,0,0,1.143-.652C193.269,6.278,192.877,5.911,192.329,5.853Z" transform="translate(-135.995 -7.164)" fill="#129eda" fill-rule="evenodd"/></g></svg>
