<svg xmlns="http://www.w3.org/2000/svg" width="57.52" height="68.154" viewBox="0 0 57.52 68.154"><g transform="translate(27.085 32.093)"><g transform="translate(-27.085 -32.093)"><g transform="translate(35.902 22.605)"><path d="M26.047,19.022h8.295V16.4H26.047Z" transform="translate(-26.047 -16.4)" fill="#29353a"/></g><g transform="translate(35.902 27.098)"><path d="M26.047,22.282h12.73V19.66H26.047Z" transform="translate(-26.047 -19.66)" fill="#29353a"/></g><g transform="translate(17.87 35.966)"><path d="M14.276,30.112a1.312,1.312,0,0,0-.928,2.24l2.719,2.719a1.3,1.3,0,0,0,.926.386h0a1.3,1.3,0,0,0,.923-.382l6.743-6.743a1.312,1.312,0,0,0-1.807-1.9L17,32.289,15.2,30.5A1.307,1.307,0,0,0,14.276,30.112Z" transform="translate(-12.965 -26.093)" fill="#29353a"/></g><g transform="translate(35.902 37.09)"><path d="M26.047,29.529h8.295v-2.62H26.047Z" transform="translate(-26.047 -26.909)" fill="#29353a"/></g><g transform="translate(35.902 41.582)"><path d="M26.047,32.79h12.73V30.168H26.047Z" transform="translate(-26.047 -30.168)" fill="#29353a"/></g><g transform="translate(17.868 50.448)"><path d="M14.277,40.62a1.311,1.311,0,0,0-.928,2.24l2.719,2.721a1.317,1.317,0,0,0,1.853,0l6.742-6.746a1.312,1.312,0,0,0-1.793-1.915l-.061.061L17,42.8,15.2,41A1.311,1.311,0,0,0,14.277,40.62Z" transform="translate(-12.963 -36.6)" fill="#29353a"/></g><g transform="translate(35.902 51.574)"><path d="M26.047,40.037h8.295v-2.62H26.047Z" transform="translate(-26.047 -37.417)" fill="#29353a"/></g><g transform="translate(35.902 56.066)"><path d="M26.047,43.3h12.73V40.676H26.047Z" transform="translate(-26.047 -40.676)" fill="#29353a"/></g><path d="M33.887,11.519,35.043,10.2l-10.684.642L22.641,0l-6.3,8.992L7.02,3.73l2.874,10.52L0,18.46l9.822,4.153L6.766,33.187l4.52-2.555V68.154H57.52V11.519ZM7.057,18.452l6.13-2.609L11.42,9.378l5.742,3.243,3.825-5.458,1.042,6.583,6.582-.4-4.422,5.034,4.364,5.034-6.605-.358-1.151,6.6-3.748-5.453-5.76,3.257,1.861-6.438Zm47.887,47.13H13.862V29.176l2.346-1.326,6.143,8.937,1.891-10.842,10.648.576L27.847,18.4l3.778-4.3H54.944Z" fill="#29353a"/></g></g></svg>