<svg xmlns="http://www.w3.org/2000/svg" width="54.556" height="62.554" viewBox="0 0 54.556 62.554"><g transform="translate(30.121 34.091)"><g transform="translate(-28.622 -33.025)"><g transform="translate(0 9.998)"><path d="M279.353,174.225c.74.89,1.98,2.58,1.98,3.839,0,.82-.89,2.189-2.06,3.5a17.894,17.894,0,0,1-1.939,1.87c-.01.01-.01.01-.01.02a9.891,9.891,0,0,1-1.99,1.33,2.461,2.461,0,0,1-1,.279c-1,0-2-.109-2-2,0-1.24,1.72-3.439,2.91-4.8A17.89,17.89,0,0,0,279.353,174.225Z" transform="translate(-229.343 -157.068)" fill="none" stroke="#000" stroke-linejoin="round" stroke-width="2.133"/><path d="M289.66,219.687c.74.88,2.06,3.24,2.06,4.5,0,1.939-3,5-5,5a3.246,3.246,0,0,1-1-.109c-.57-.181-1-.66-1-1.89a7.117,7.117,0,0,1,1-2.679,17.829,17.829,0,0,1,1.99-2.929c0-.011,0-.011.01-.021A17.9,17.9,0,0,0,289.66,219.687Z" transform="translate(-239.731 -195.192)" fill="none" stroke="#000" stroke-linejoin="round" stroke-width="2.133"/><path d="M287.721,92.714a2.989,2.989,0,0,1,3,3.119c0,1.4-1.26,2.749-2.509,3.419a3.3,3.3,0,0,1-1.49.46,1.685,1.685,0,0,1-1-.29,3.139,3.139,0,0,1-1-2.709,4.754,4.754,0,0,1,1.01-2.74A2.661,2.661,0,0,1,287.721,92.714Z" transform="translate(-239.731 -88.715)" fill="none" stroke="#000" stroke-linejoin="round" stroke-width="2.133"/><path d="M275.139,137.68a4.433,4.433,0,0,1-.98,2.16,17.89,17.89,0,0,1-4.108,4.039,4.005,4.005,0,0,1-1.91.8c-1,0-2-.109-2-2s4-6,4-6v-3.289a1.685,1.685,0,0,0,1,.29,3.3,3.3,0,0,0,1.49-.46S275.139,135.89,275.139,137.68Z" transform="translate(-224.149 -122.683)" fill="none" stroke="#000" stroke-linejoin="round" stroke-width="2.133"/><path d="M20,80.936s5-7.188,5-9c0-2.689-.75-4-2-4-.46,0-1.66,1.07-3,2.439v.011c-1.87,1.909-4.009,4.379-4.739,5.238a2.559,2.559,0,0,0-.41.69C14.008,78.417,10,88.543,10,90.934v19c0,3.039-4,8-4,8" transform="translate(-6 -67.938)" fill="none" stroke="#000" stroke-linecap="round" stroke-linejoin="round" stroke-width="2.133"/><g transform="translate(19.794 6.038)" fill="none"><path d="M10.662,15.226l5.353,3.231-1.42-6.089,4.729-4.1L13.1,7.743,10.662,2,8.228,7.743,2,8.271l4.729,4.1-1.42,6.089Z" stroke="none"/><path d="M 7.577094078063965 15.33572959899902 L 10.66151428222656 13.47409915924072 L 13.74593067169189 15.33572959899902 L 12.92738437652588 11.82690906524658 L 15.65377616882324 9.465023994445801 L 12.06729412078857 9.160738945007324 L 10.66151142120361 5.843900203704834 L 9.25572395324707 9.160738945007324 L 5.669251918792725 9.465023994445801 L 8.395654678344727 11.82690906524658 L 7.577094078063965 15.33572959899902 M 16.01432418823242 18.45687866210938 L 10.66151428222656 15.22613906860352 L 5.308694362640381 18.45687866210938 L 6.729184150695801 12.36782932281494 L 2.000004291534424 8.270938873291016 L 8.22762393951416 7.742579460144043 L 10.66151428222656 1.999999284744263 L 13.09539413452148 7.742579460144043 L 19.32302474975586 8.270938873291016 L 14.59384441375732 12.36782932281494 L 16.01432418823242 18.45687866210938 Z" stroke="none" fill="#000"/></g></g><path d="M92.714,18.437V8a2.006,2.006,0,0,1,2-2h27.995a2.006,2.006,0,0,1,2,2V21.257" transform="translate(-78.717 -6)" fill="none" stroke="#000" stroke-linecap="round" stroke-linejoin="round" stroke-width="2.133"/><line x2="4.082" transform="translate(24.969 2.999)" fill="none" stroke="#000" stroke-linecap="round" stroke-linejoin="round" stroke-width="2.133"/><line x2="1" transform="translate(32.994 2.999)" fill="none" stroke="#000" stroke-linecap="round" stroke-linejoin="round" stroke-width="2.133"/><g transform="translate(21.68 12.197)"><line y1="2.55" transform="translate(8.315 0)" fill="none" stroke="#000" stroke-linecap="round" stroke-linejoin="round" stroke-width="2.133"/><line x1="1.803" y1="1.803" transform="translate(0 3.444)" fill="none" stroke="#000" stroke-linecap="round" stroke-linejoin="round" stroke-width="2.133"/><line y1="1.803" x2="1.803" transform="translate(14.826 3.444)" fill="none" stroke="#000" stroke-linecap="round" stroke-linejoin="round" stroke-width="2.133"/></g><path d="M124.708,278.528v10a2.006,2.006,0,0,1-2,2H94.714a2.006,2.006,0,0,1-2-2" transform="translate(-78.717 -234.537)" fill="none" stroke="#000" stroke-linecap="round" stroke-linejoin="round" stroke-width="2.133"/><g transform="translate(21.68 37.475)"><line y2="2.55" transform="translate(8.315 2.697)" fill="none" stroke="#000" stroke-linecap="round" stroke-linejoin="round" stroke-width="2.133"/><line x2="1.803" y2="1.803" transform="translate(14.826 0)" fill="none" stroke="#000" stroke-linecap="round" stroke-linejoin="round" stroke-width="2.133"/><line x1="1.803" y2="1.803" fill="none" stroke="#000" stroke-linecap="round" stroke-linejoin="round" stroke-width="2.133"/></g><line x1="31.994" transform="translate(13.997 5.999)" fill="none" stroke="#000" stroke-linejoin="round" stroke-width="2.133"/><line x2="31.994" transform="translate(13.997 50.99)" fill="none" stroke="#000" stroke-linecap="round" stroke-linejoin="round" stroke-width="2.133"/><path d="M106.711,185.451a33.177,33.177,0,0,0,6-4h-18a2.006,2.006,0,0,1-2-2V148.458" transform="translate(-78.717 -125.462)" fill="none" stroke="#000" stroke-linecap="round" stroke-linejoin="round" stroke-width="2.133"/></g></g></svg>