<svg xmlns="http://www.w3.org/2000/svg" width="58.757" height="47.136" viewBox="0 0 58.757 47.136"><g transform="translate(29.378 23.568)"><g transform="translate(-28.23 -22.42)"><path d="M20.142,80.722a7.95,7.95,0,0,1-2.514-3.462C13.363,73.611,7.5,76.381,7.5,76.381c.9,3.5,2.413,5.571,4.113,6.753h9.4A16.129,16.129,0,0,0,20.142,80.722Z" transform="translate(-7.5 -64.98)" fill="none" stroke="#000" stroke-linecap="round" stroke-linejoin="round" stroke-width="2.297"/><path d="M133.243,19.453a4.882,4.882,0,0,1,4.744-3.706,5,5,0,0,1,.735.056,12.748,12.748,0,0,1,1.6-4.953c-1.217-2.056-2.979-3.35-4.941-3.35-3.672,0-6.649,4.533-6.649,10.124a11.061,11.061,0,0,0,.655,3.984A5.224,5.224,0,0,1,133.243,19.453Z" transform="translate(-110.168 -7.5)" fill="none" stroke="#000" stroke-linecap="round" stroke-linejoin="round" stroke-width="2.297"/><path d="M48.233,126.049H33.968S36.123,141.97,51.261,146.6v-.031h17.82v.031c15.138-4.633,17.293-20.553,17.293-20.553H48.233Z" transform="translate(-29.915 -107.895)" fill="none" stroke="#000" stroke-linecap="round" stroke-linejoin="round" stroke-width="2.297"/><path d="M146.9,260.065v6.164h17.82v-6.164Z" transform="translate(-125.552 -221.389)" fill="none" stroke="#000" stroke-linecap="round" stroke-linejoin="round" stroke-width="2.297"/><path d="M194.275,15.856a4.855,4.855,0,0,1,3.775,3.591,5.037,5.037,0,0,1,4.76,4.961,5.034,5.034,0,0,1,4.227-4.886,13.442,13.442,0,0,0,.128-1.9c0-5.591-2.977-10.124-6.649-10.124-1.961,0-3.724,1.294-4.941,3.35a12.748,12.748,0,0,0-1.6,4.953C194.076,15.818,194.176,15.835,194.275,15.856Z" transform="translate(-165.421 -7.5)" fill="none" stroke="#000" stroke-linecap="round" stroke-linejoin="round" stroke-width="2.297"/><path d="M265.972,65.056a4.855,4.855,0,0,0-3.775-3.591,5.027,5.027,0,0,0-1.034-.109,4.882,4.882,0,0,0-4.744,3.706c-.18.014-.357.038-.53.069a5.034,5.034,0,0,0-4.227,4.886v1.246h19.071V70.017A5.037,5.037,0,0,0,265.972,65.056Z" transform="translate(-214.272 -53.109)" fill="none" stroke="#000" stroke-linecap="round" stroke-linejoin="round" stroke-width="2.297"/><path d="M146.195,71.263V70.017a5.037,5.037,0,0,0-4.76-4.961,4.855,4.855,0,0,0-3.775-3.591c-.1-.021-.2-.038-.3-.053a5,5,0,0,0-.735-.056,4.882,4.882,0,0,0-4.744,3.706,5.224,5.224,0,0,0-3.856,2.155,4.808,4.808,0,0,0-.9,2.8v1.246Z" transform="translate(-108.806 -53.109)" fill="none" stroke="#000" stroke-linecap="round" stroke-linejoin="round" stroke-width="2.297"/><path d="M73.412,47.935a12.2,12.2,0,0,0,5.124,2.342c4.307-11.752-7.167-13.619-7.167-13.619C70.143,40,70.2,42.544,70.9,44.472A7.95,7.95,0,0,0,73.412,47.935Z" transform="translate(-60.77 -32.193)" fill="none" stroke="#000" stroke-linecap="round" stroke-linejoin="round" stroke-width="2.297"/><line x2="3.583" y2="6.809" transform="translate(14.183 11.274)" fill="none" stroke="#000" stroke-linecap="round" stroke-linejoin="round" stroke-width="2.297"/><line x2="6.292" y2="3.144" transform="translate(7.222 15.009)" fill="none" stroke="#000" stroke-linecap="round" stroke-linejoin="round" stroke-width="2.297"/><line x2="48.836" transform="translate(5.823 24.156)" fill="none" stroke="#000" stroke-linecap="round" stroke-linejoin="round" stroke-width="2.297"/></g></g></svg>