<svg xmlns="http://www.w3.org/2000/svg" width="146.771" height="13.717" viewBox="0 0 146.771 13.717"><g transform="matrix(1, 0.017, -0.017, 1, 136.044, 9.536)"><path d="M145.929,6.418C133.336,4.553,129.4,2.893,116.7,1.757S91.254,0,78.494,0C65.732-.012,52.97.56,40.249,1.6S14.842,4.125,2.2,5.886A2.632,2.632,0,0,0,.022,8.86a2.547,2.547,0,0,0,2.834,2.276.3.3,0,0,0,.045-.008l.028,0c12.519-2.05,25.077-2.859,37.68-4.192s25.251-2.207,37.914-2.5,25.33-.029,38,.834c12.657.826,16.592,1.212,29.207,2.773a.789.789,0,0,0,.867-.715A.814.814,0,0,0,145.929,6.418Z" transform="translate(-135.995 -7.164)" fill="#602770" fill-rule="evenodd"/></g></svg>
