<svg xmlns="http://www.w3.org/2000/svg" width="188.589" height="174.248" viewBox="0 0 188.589 174.248">
  <g id="Fit_For_Summer" data-name="Fit For Summer" transform="translate(94.294 87.977)">
    <g id="Group_4356" data-name="Group 4356" transform="translate(-93.06 -85.016)">
      <g id="Path_13849" data-name="Path 13849" transform="translate(9.919 -2.113)" fill="none" stroke-miterlimit="10">
        <path d="M136.607,16.829,106.892,2.446a3.3,3.3,0,0,0-4.409,1.533l-.045.091a3.272,3.272,0,0,0-2.879-1.786L66.544,2.226A3.259,3.259,0,0,0,63.72,3.913a3.3,3.3,0,0,0-4.37-1.467L29.667,16.9a3.3,3.3,0,0,0-1.523,4.413L55.119,76.717a3.3,3.3,0,0,0,4.413,1.523L75.5,70.468l15.385.027,16,7.745a3.3,3.3,0,0,0,4.411-1.533l26.85-55.468A3.3,3.3,0,0,0,136.607,16.829Z" stroke="none"/>
        <path d="M 60.78122711181641 2.114692687988281 C 60.30023956298828 2.114692687988281 59.81195831298828 2.220970153808594 59.34992980957031 2.445777893066406 L 29.66726684570312 16.89621353149414 C 28.03082275390625 17.6920051574707 27.34710693359375 19.67169570922852 28.14431762695312 21.30952835083008 L 55.11875915527344 76.71690368652344 C 55.91455078125 78.35334014892578 57.89563751220703 79.03704833984375 59.53207397460938 78.23986053466797 L 75.49565887451172 70.46821594238281 L 90.880615234375 70.49484252929688 L 106.8792190551758 78.23986053466797 C 108.518440246582 79.0328369140625 110.4967346191406 78.34634399414062 111.2897186279297 76.70710754394531 L 138.1394653320312 21.23948669433594 C 138.9324645996094 19.60023498535156 138.2459716796875 17.62194442749023 136.6067199707031 16.82896423339844 L 106.8918228149414 2.445777893066406 C 105.2539825439453 1.651390075683594 103.2757263183594 2.339309692382812 102.4827194213867 3.978530883789062 L 102.4378662109375 4.069587707519531 C 101.8844680786133 3.024406433105469 100.8210525512695 2.284652709960938 99.55873870849609 2.283256530761719 L 66.54434204101562 2.225799560546875 C 66.54195404052734 2.225791931152344 66.53941345214844 2.225791931152344 66.53703308105469 2.225791931152344 C 65.31704711914062 2.225791931152344 64.29032897949219 2.922676086425781 63.71981811523438 3.912673950195312 C 63.13662719726562 2.777297973632812 61.98194885253906 2.114692687988281 60.78122711181641 2.114692687988281 M 60.78121948242188 -0.8477859497070312 C 61.85688018798828 -0.8477859497070312 62.88620758056641 -0.576263427734375 63.79010009765625 -0.0815582275390625 C 64.64099884033203 -0.5114822387695312 65.58058929443359 -0.7366790771484375 66.53703308105469 -0.7366790771484375 L 66.54949188232422 -0.7366790771484375 L 99.56388092041016 -0.6792221069335938 C 100.5413436889648 -0.6781463623046875 101.485107421875 -0.4428024291992188 102.3311614990234 -0.01229095458984375 C 103.2826614379883 -0.5589599609375 104.3596649169922 -0.8470382690429688 105.4577789306641 -0.8470382690429688 C 106.4093017578125 -0.846954345703125 107.3265686035156 -0.6359100341796875 108.1846313476562 -0.2197418212890625 L 137.8974304199219 14.16242218017578 C 139.4023284912109 14.89042663574219 140.5341186523438 16.16278076171875 141.0836334228516 17.74477767944336 C 141.6327362060547 19.32552719116211 141.5342407226562 21.02479934692383 140.8063049316406 22.52959060668945 L 113.9562225341797 77.99786376953125 C 113.4341354370117 79.07713317871094 112.6181335449219 79.97894287109375 111.5967559814453 80.60517120361328 C 110.607780456543 81.2115478515625 109.4724731445312 81.53205108642578 108.3135681152344 81.53205108642578 C 107.3635711669922 81.53205108642578 106.4469451904297 81.3216552734375 105.5891571044922 80.90671539306641 L 90.19882202148438 73.45614624023438 L 76.17603302001953 73.431884765625 L 60.82880401611328 80.90346527099609 C 59.96834564208984 81.3226318359375 59.04736328125 81.53531646728516 58.09211730957031 81.53531646728516 C 56.93567657470703 81.53531646728516 55.80227661132812 81.21598815917969 54.81444549560547 80.61186218261719 C 53.79413604736328 79.98783874511719 52.97809600830078 79.08900451660156 52.45458984375 78.01248931884766 L 25.480712890625 22.60627746582031 C 24.74879455566406 21.10256958007812 24.64659118652344 19.40302658081055 25.19282531738281 17.82050704956055 C 25.73918151855469 16.23763275146484 26.86811828613281 14.96321868896484 28.37167358398438 14.23204803466797 L 58.05319976806641 -0.2178268432617188 C 58.91250610351562 -0.6359329223632812 59.83013153076172 -0.8477859497070312 60.78121948242188 -0.8477859497070312 Z" stroke="none" fill="#29353a"/>
      </g>
      <g id="Group_4327" data-name="Group 4327" transform="translate(0 31.254)">
        <path id="Path_13850" data-name="Path 13850" d="M15.606,25.833V45.368a1.413,1.413,0,0,1-1.412,1.414H2.295A1.413,1.413,0,0,0,.881,48.194v53.251a1.412,1.412,0,0,0,.967,1.339l3.3,1.1,12.171,4.336a1.415,1.415,0,0,1,.731,2.064c-4.4,7.291-4.566,7.832-4.566,9.335v5.215a1.41,1.41,0,0,0,1.54,1.407l11.95-1.1c.027,0,1.17-.08,14.4-1a1.418,1.418,0,0,1,1.519,1.408v9.84a1.415,1.415,0,0,0,.75,1.248l49.645,26.394a1.408,1.408,0,0,0,1.327,0l49.645-26.394a1.415,1.415,0,0,0,.75-1.248v-9.84a1.4,1.4,0,0,1,1.5-1.409l14.449,1.009,11.888,1.089a1.412,1.412,0,0,0,1.541-1.4l.027-5.215c0-1.523-.171-2.068-4.56-9.341a1.411,1.411,0,0,1,.724-2.062l15.386-5.484a1.392,1.392,0,0,0,.923-1.3l.062-3.309L187,93.266l-.109-45.075a1.412,1.412,0,0,0-1.412-1.409H172.026a1.414,1.414,0,0,1-1.414-1.414V25.833a1.413,1.413,0,0,0-1.414-1.412H17.02A1.413,1.413,0,0,0,15.606,25.833Z" transform="translate(-0.881 -24.421)" fill="#fff5e4" stroke="#29353a" stroke-miterlimit="10" stroke-width="2.469"/>
      </g>
      <g id="Group_4329" data-name="Group 4329" transform="translate(85.222 0.003)">
        <g id="Group_4328" data-name="Group 4328">
          <path id="Path_13851" data-name="Path 13851" d="M124.545,21.239,97.7,76.707a3.3,3.3,0,0,1-4.411,1.533L63.57,63.856a3.306,3.306,0,0,1-1.533-4.41L88.887,3.978A3.3,3.3,0,0,1,93.3,2.446l29.715,14.383A3.3,3.3,0,0,1,124.545,21.239Z" transform="translate(-61.708 -2.115)" fill="#8dc63f" stroke="#fff5e4" stroke-miterlimit="10" stroke-width="1.318"/>
        </g>
      </g>
      <g id="Group_4330" data-name="Group 4330" transform="translate(93.958 8.099)">
        <path id="Path_13852" data-name="Path 13852" d="M113.945,23.027l-20.137,41.6a1.1,1.1,0,0,1-1.471.511,3.3,3.3,0,0,0-4.409,1.533,1.1,1.1,0,0,1-1.47.511L70.609,59.511A1.1,1.1,0,0,1,70.1,58.04a3.3,3.3,0,0,0-1.533-4.409,1.1,1.1,0,0,1-.511-1.47l20.139-41.6a1.1,1.1,0,0,1,1.47-.511,3.307,3.307,0,0,0,4.411-1.533A1.1,1.1,0,0,1,95.542,8l15.847,7.672a1.1,1.1,0,0,1,.511,1.47,3.3,3.3,0,0,0,1.533,4.409A1.1,1.1,0,0,1,113.945,23.027ZM93.3,63.157h0Zm-1.04-.38,19.276-39.819a5.519,5.519,0,0,1-1.992-5.732L95.473,10.417a5.519,5.519,0,0,1-5.732,1.992L70.466,52.229A5.519,5.519,0,0,1,72.46,57.96L86.525,64.77A5.519,5.519,0,0,1,92.257,62.777Z" transform="translate(-67.943 -7.894)" fill="#29353a"/>
      </g>
      <g id="Group_4331" data-name="Group 4331" transform="translate(108.211 28.996)">
        <path id="Path_13853" data-name="Path 13853" d="M94.843,35.448a8.8,8.8,0,1,1-4.088-11.76A8.813,8.813,0,0,1,94.843,35.448ZM80.977,28.735a6.6,6.6,0,1,0,8.82-3.067A6.61,6.61,0,0,0,80.977,28.735Z" transform="translate(-78.116 -22.809)" fill="#29353a"/>
      </g>
      <g id="Group_4332" data-name="Group 4332" transform="translate(122.626 17.879)">
        <path id="Path_13854" data-name="Path 13854" d="M92.894,16.454l-2.4,4.953a1.1,1.1,0,0,1-1.981-.96l2.4-4.953a1.1,1.1,0,0,1,1.981.96Z" transform="translate(-88.405 -14.874)" fill="#29353a"/>
      </g>
      <g id="Group_4333" data-name="Group 4333" transform="translate(106.803 50.565)">
        <path id="Path_13855" data-name="Path 13855" d="M81.6,39.784l-2.4,4.953a1.1,1.1,0,0,1-1.981-.96l2.4-4.953a1.1,1.1,0,0,1,1.981.96Z" transform="translate(-77.111 -38.204)" fill="#29353a"/>
      </g>
      <g id="Group_4335" data-name="Group 4335" transform="translate(37.731)">
        <g id="Group_4334" data-name="Group 4334">
          <path id="Path_13856" data-name="Path 13856" d="M28.144,21.31,55.119,76.717a3.3,3.3,0,0,0,4.413,1.523L89.215,63.79a3.3,3.3,0,0,0,1.523-4.413L63.763,3.969A3.3,3.3,0,0,0,59.35,2.446L29.667,16.9A3.3,3.3,0,0,0,28.144,21.31Z" transform="translate(-27.811 -2.113)" fill="#8dc63f" stroke="#fff5e4" stroke-miterlimit="10" stroke-width="1.318"/>
        </g>
      </g>
      <g id="Group_4336" data-name="Group 4336" transform="translate(46.062 8.109)">
        <path id="Path_13857" data-name="Path 13857" d="M33.869,23.076,54.1,64.631a1.1,1.1,0,0,0,1.471.509,3.3,3.3,0,0,1,4.413,1.523,1.1,1.1,0,0,0,1.471.507l15.832-7.707a1.1,1.1,0,0,0,.507-1.471,3.305,3.305,0,0,1,1.523-4.413,1.1,1.1,0,0,0,.509-1.471L59.594,10.552a1.1,1.1,0,0,0-1.471-.509A3.305,3.305,0,0,1,53.709,8.52a1.1,1.1,0,0,0-1.471-.507L36.408,15.72a1.1,1.1,0,0,0-.509,1.471A3.305,3.305,0,0,1,34.376,21.6,1.1,1.1,0,0,0,33.869,23.076ZM54.607,63.16h0Zm1.038-.382L36.28,23a5.518,5.518,0,0,0,1.981-5.736l14.05-6.841a5.52,5.52,0,0,0,5.737,1.981L77.412,52.181a5.519,5.519,0,0,0-1.98,5.736l-14.051,6.84A5.519,5.519,0,0,0,55.645,62.777Z" transform="translate(-33.757 -7.901)" fill="#29353a"/>
      </g>
      <g id="Group_4337" data-name="Group 4337" transform="translate(60.348 28.996)">
        <path id="Path_13858" data-name="Path 13858" d="M44.842,35.466A8.8,8.8,0,1,0,48.9,23.7,8.813,8.813,0,0,0,44.842,35.466Zm13.851-6.743a6.6,6.6,0,1,1-8.827-3.047A6.61,6.61,0,0,1,58.693,28.723Z" transform="translate(-43.954 -22.809)" fill="#29353a"/>
      </g>
      <g id="Group_4338" data-name="Group 4338" transform="translate(58.898 17.899)">
        <path id="Path_13859" data-name="Path 13859" d="M43.031,16.471l2.408,4.947a1.1,1.1,0,1,0,1.978-.963l-2.408-4.947a1.1,1.1,0,1,0-1.978.963Z" transform="translate(-42.919 -14.889)" fill="#29353a"/>
      </g>
      <g id="Group_4339" data-name="Group 4339" transform="translate(74.793 50.55)">
        <path id="Path_13860" data-name="Path 13860" d="M54.376,39.776l2.408,4.947a1.1,1.1,0,0,0,1.98-.963l-2.408-4.949a1.1,1.1,0,0,0-1.98.964Z" transform="translate(-54.265 -38.193)" fill="#29353a"/>
      </g>
      <g id="Group_4341" data-name="Group 4341" transform="translate(73.049 0.113)">
        <g id="Group_4340" data-name="Group 4340" transform="translate(0 0)">
          <path id="Path_13861" data-name="Path 13861" d="M92.744,5.558l-.108,61.625a3.3,3.3,0,0,1-3.306,3.3l-33.013-.057a3.305,3.305,0,0,1-3.3-3.306l.108-61.625a3.3,3.3,0,0,1,3.306-3.3l33.014.057A3.3,3.3,0,0,1,92.744,5.558Z" transform="translate(-53.02 -2.194)" fill="#8dc63f" stroke="#fff5e4" stroke-miterlimit="10" stroke-width="1.318"/>
        </g>
      </g>
      <g id="Group_4342" data-name="Group 4342" transform="translate(78.567 5.148)">
        <path id="Path_13862" data-name="Path 13862" d="M85.65,11.331,85.569,57.55a1.1,1.1,0,0,1-1.1,1.1,3.305,3.305,0,0,0-3.308,3.3,1.1,1.1,0,0,1-1.1,1.1L62.45,63.011a1.1,1.1,0,0,1-1.1-1.1,3.305,3.305,0,0,0-3.3-3.308,1.1,1.1,0,0,1-1.1-1.1l.08-46.218a1.1,1.1,0,0,1,1.1-1.1,3.305,3.305,0,0,0,3.306-3.3,1.1,1.1,0,0,1,1.1-1.1l17.607.031a1.1,1.1,0,0,1,1.1,1.1,3.305,3.305,0,0,0,3.3,3.306A1.1,1.1,0,0,1,85.65,11.331ZM84.47,56.447h0Zm-1.1.109.077-44.24a5.521,5.521,0,0,1-4.284-4.3L63.536,7.99a5.521,5.521,0,0,1-4.3,4.284l-.077,44.24a5.516,5.516,0,0,1,4.283,4.3l15.627.027A5.519,5.519,0,0,1,83.371,56.557Z" transform="translate(-56.958 -5.788)" fill="#29353a"/>
      </g>
      <g id="Group_4343" data-name="Group 4343" transform="translate(84.109 24.972)">
        <path id="Path_13863" data-name="Path 13863" d="M78.521,28.757a8.8,8.8,0,1,1-8.789-8.82A8.814,8.814,0,0,1,78.521,28.757ZM63.115,28.73a6.6,6.6,0,1,0,6.613-6.592A6.609,6.609,0,0,0,63.115,28.73Z" transform="translate(-60.914 -19.937)" fill="#29353a"/>
      </g>
      <g id="Group_4344" data-name="Group 4344" transform="translate(91.839 11.767)">
        <path id="Path_13864" data-name="Path 13864" d="M68.642,11.615l-.01,5.5a1.1,1.1,0,1,1-2.2,0l.01-5.5a1.1,1.1,0,0,1,2.2,0Z" transform="translate(-66.431 -10.512)" fill="#29353a"/>
      </g>
      <g id="Group_4345" data-name="Group 4345" transform="translate(91.776 48.082)">
        <path id="Path_13865" data-name="Path 13865" d="M68.6,37.533l-.01,5.5a1.1,1.1,0,1,1-2.2,0l.01-5.5a1.1,1.1,0,0,1,2.2,0Z" transform="translate(-66.386 -36.432)" fill="#29353a"/>
      </g>
      <path id="Path_13866" data-name="Path 13866" d="M177.384,50.975H163.178A1.477,1.477,0,0,1,161.7,49.5V30.83a1.477,1.477,0,0,0-1.477-1.475H21.947a1.477,1.477,0,0,0-1.477,1.475V49.5A1.476,1.476,0,0,1,19,50.975H6.763a1.477,1.477,0,0,0-1.477,1.477v43.66l.136-.029,19.25,6.858a1.469,1.469,0,0,1,.772,2.148c-1.678,2.774-4.359,7.222-6.036,10.012a1.485,1.485,0,0,0,1.405,2.254c7.505-.673,15.791-1.3,24.892-1.824a1.5,1.5,0,0,1,1.582,1.477v12.657a1.473,1.473,0,0,0,.783,1.3l43.41,23.081a1.479,1.479,0,0,0,1.386,0l43.41-23.081a1.473,1.473,0,0,0,.783-1.3V117.006a1.5,1.5,0,0,1,1.582-1.477c9.1.52,17.386,1.152,24.892,1.824a1.486,1.486,0,0,0,1.405-2.254c-1.677-2.788-4.357-7.236-6.036-10.012a1.471,1.471,0,0,1,.772-2.148l19.3-6.876-.025-.01.045.01.063-4.856V81.163l-.2-28.723A1.476,1.476,0,0,0,177.384,50.975ZM33.175,106.361c.368-.6.745-1.219,1.091-1.785a1.467,1.467,0,0,1,1.257-.7H45.813a1.476,1.476,0,0,1,1.475,1.477v1.061a1.482,1.482,0,0,1-1.4,1.472q-5.891.332-11.356.719A1.471,1.471,0,0,1,33.175,106.361Zm103.885.05v-1.061a1.476,1.476,0,0,1,1.475-1.477h10.289a1.467,1.467,0,0,1,1.257.7c.346.566.722,1.181,1.091,1.785a1.471,1.471,0,0,1-1.355,2.242q-5.456-.385-11.356-.719A1.482,1.482,0,0,1,137.061,106.411Z" transform="translate(0.886 8.812)" fill="#29353a"/>
      <path id="Path_13867" data-name="Path 13867" d="M117.333,90.981V103.4L78.367,124.115,39.4,103.4V90.981A550.82,550.82,0,0,1,117.333,90.981Z" transform="translate(14.568 32.969)" fill="#8dabb4"/>
      <g id="Group_4346" data-name="Group 4346" transform="translate(72.051 127.553)">
        <path id="Path_13868" data-name="Path 13868" d="M69.774,93.154l2.647,5.266,5.827.892-4.188,4.149.95,5.813-5.236-2.7-5.244,2.7.957-5.813L61.3,99.312l5.82-.892Z" transform="translate(-48.7 -93.154)" fill="#29353a"/>
        <path id="Path_13869" data-name="Path 13869" d="M78.613,93.569l2.542,2.3,3.345-.743-1.4,3.127,1.741,2.946-3.4-.359L79.17,103.4l-.708-3.346-3.14-1.364,2.963-1.712Z" transform="translate(-43.077 -92.988)" fill="#29353a"/>
        <path id="Path_13870" data-name="Path 13870" d="M58.538,93.569,56,95.864l-3.345-.743,1.395,3.127-1.739,2.946,3.4-.359,2.275,2.568.706-3.346,3.144-1.364L58.867,96.98Z" transform="translate(-52.307 -92.988)" fill="#29353a"/>
      </g>
      <path id="Path_13871" data-name="Path 13871" d="M25.6,85.635Q22.4,90.9,19.2,96.193c18.647-1.572,40.516-2.766,67.4-2.792,26.888.027,48.752,1.22,67.4,2.792q-3.2-5.3-6.406-10.558,3.2-4.518,6.406-9a467.079,467.079,0,0,0-134.8,0Q22.4,81.115,25.6,85.635Z" transform="translate(6.465 25.811)" fill="#8dc63f"/>
      <g id="Group_4348" data-name="Group 4348" transform="translate(35.751 102.345)">
        <g id="Group_4347" data-name="Group 4347">
          <path id="Path_13872" data-name="Path 13872" d="M26.993,86.237q1.391-.219,2.784-.426a.949.949,0,0,0,1.181.909c.423-.062.97-.263.876-.9-.137-.939-1.842-.941-3.319-1.492a2.867,2.867,0,0,1-2.071-2.313A3.08,3.08,0,0,1,28.32,78.6q-.1-.628-.191-1.257l.984-.146.16,1.075c.127-.02.27-.055.416-.077.128-.018.259-.022.387-.041q-.078-.538-.157-1.075.5-.074,1-.143c.062.429.122.857.184,1.288a3.5,3.5,0,0,1,2.787,3q-1.393.189-2.785.388c-.119-.818-.626-.947-1.041-.887-.448.066-.9.319-.817.864.14.922,1.781.912,3.208,1.408a2.9,2.9,0,0,1,2.177,2.436,3.237,3.237,0,0,1-1.97,3.519c.057.389.113.778.171,1.167l-.961.137c-.05-.333-.1-.665-.15-1-.125.018-.247.05-.371.069-.14.021-.283.027-.408.045.052.333.1.665.153,1l-.946.14c-.063-.4-.125-.8-.186-1.2A3.635,3.635,0,0,1,26.993,86.237Z" transform="translate(-26.398 -74.451)" fill="#29353a"/>
          <path id="Path_13873" data-name="Path 13873" d="M32.654,81.272q-.174-1.288-.346-2.578c1.185-.157,1.478-.409,1.37-1.244q1.318-.168,2.635-.328.654,5.363,1.321,10.728-1.387.166-2.773.346-.473-3.545-.936-7.091Z" transform="translate(-24.028 -74.376)" fill="#29353a"/>
          <path id="Path_13874" data-name="Path 13874" d="M37.1,84.372l-.437-3.693a3.579,3.579,0,0,1,3.378-4.133,3.589,3.589,0,0,1,4.151,3.339l.357,3.7a3.746,3.746,0,0,1-7.449.786Zm3.853.7c.392-.041.9-.2.8-1.114q-.2-1.94-.406-3.882c-.1-.93-.6-.985-1.034-.94-.447.048-.93.207-.829,1.136q.214,1.94.427,3.881C40.016,85.062,40.559,85.111,40.953,85.069Z" transform="translate(-22.294 -74.618)" fill="#29353a"/>
          <path id="Path_13875" data-name="Path 13875" d="M43.343,83.7q-.172-1.851-.342-3.7a3.778,3.778,0,0,1,7.532-.605q.13,1.856.263,3.71a3.739,3.739,0,0,1-7.454.6Zm3.826.794c.392-.032.9-.179.829-1.094q-.156-1.946-.308-3.892c-.073-.932-.576-1-1.007-.964-.448.035-.934.184-.856,1.114l.328,3.891C46.233,84.461,46.775,84.523,47.169,84.492Z" transform="translate(-19.748 -74.853)" fill="#29353a"/>
          <path id="Path_13876" data-name="Path 13876" d="M49.41,75.924q1.433-.093,2.864-.175.122,2.131.245,4.263l.605-.035q.58-2.169,1.177-4.339,1.561-.08,3.122-.147-.914,2.736-1.8,5.475,1.147,2.656,2.266,5.321-1.513.065-3.026.143-.8-2.051-1.61-4.1l-.6.035.244,4.171q-1.389.08-2.777.17Q49.764,81.316,49.41,75.924Z" transform="translate(-17.169 -75.03)" fill="#29353a"/>
          <path id="Path_13877" data-name="Path 13877" d="M58.493,82.711q-.059-1.86-.116-3.717A3.763,3.763,0,0,1,65.9,78.75q-1.419.015-2.837.039c-.017-.935-.514-1.033-.946-1.024-.448.008-.925.126-.9,1.061q.044,1.952.09,3.9c.022.918.558,1.012.934,1,.394-.008.911-.125.894-1.042v-.076c-.3,0-.6.01-.9.017q-.025-1.179-.048-2.358,1.864-.036,3.73-.055.011,1.171.022,2.341a3.721,3.721,0,0,1-7.441.15Z" transform="translate(-13.574 -75.162)" fill="#29353a"/>
          <path id="Path_13878" data-name="Path 13878" d="M64.937,75.257q1.425-.006,2.848,0-.017,5.4-.032,10.806-1.381,0-2.763,0Q64.965,80.66,64.937,75.257Z" transform="translate(-10.942 -75.126)" fill="#29353a"/>
          <path id="Path_13879" data-name="Path 13879" d="M67.716,75.258q1.433.008,2.865.028.582,3.329,1.139,6.661.666-3.31,1.356-6.619,1.431.029,2.864.071-1.45,5.363-2.826,10.738-1.473-.031-2.948-.05Q68.981,80.669,67.716,75.258Z" transform="translate(-9.827 -75.124)" fill="#29353a"/>
          <path id="Path_13880" data-name="Path 13880" d="M74.466,75.382q3.194.1,6.387.258l-.13,2.614q-1.757-.086-3.512-.156-.034.826-.066,1.652,1.326.053,2.654.115-.055,1.177-.112,2.354-1.318-.061-2.637-.113l-.063,1.575q1.73.069,3.458.154l-.13,2.6q-3.1-.153-6.194-.251Q74.294,80.782,74.466,75.382Z" transform="translate(-7.259 -75.074)" fill="#29353a"/>
          <path id="Path_13881" data-name="Path 13881" d="M82.494,75.705q1.528.09,3.056.195,1.089,5.489,2.082,10.983-1.387-.105-2.776-.2-.147-.923-.3-1.845-1.137-.076-2.274-.144l-.534,1.793q-1.387-.082-2.777-.153Q80.692,81.011,82.494,75.705Zm1.687,6.761q-.191-1.538-.388-3.077-.416,1.5-.828,3Z" transform="translate(-5.312 -74.945)" fill="#29353a"/>
          <path id="Path_13882" data-name="Path 13882" d="M85.562,75.979q1.433.107,2.864.227.309,3.281.594,6.563.86-3.184,1.739-6.362,1.269.114,2.541.237.265,3.285.5,6.571.906-3.171,1.827-6.338,1.431.147,2.862.307-1.816,5.235-3.568,10.485-1.419-.149-2.837-.284-.231-3.159-.485-6.319-.843,3.058-1.667,6.118-1.419-.128-2.839-.244Q86.371,81.459,85.562,75.979Z" transform="translate(-2.67 -74.835)" fill="#29353a"/>
          <path id="Path_13883" data-name="Path 13883" d="M97.911,77.059q1.526.181,3.054.375.765,5.544,1.426,11.088-1.387-.187-2.773-.364c-.06-.619-.123-1.24-.185-1.859q-1.137-.143-2.271-.279-.324.878-.643,1.757-1.389-.164-2.775-.317Q95.789,82.248,97.911,77.059ZM99.2,83.907q-.1-1.547-.2-3.095-.509,1.473-1.012,2.946Z" transform="translate(0.611 -74.402)" fill="#29353a"/>
          <path id="Path_13884" data-name="Path 13884" d="M102.3,84.891q-.9-3.682-1.858-7.363,1.469.2,2.941.4.391,2.074.765,4.147.977-1.879,1.966-3.751,1.454.216,2.907.446-1.984,3.253-3.92,6.525-.286,1.862-.573,3.723-1.385-.206-2.771-.4Q102.032,86.755,102.3,84.891Z" transform="translate(3.299 -74.214)" fill="#29353a"/>
        </g>
      </g>
      <g id="_2022-NSFM-Logo_horiz_comp" data-name="2022-NSFM-Logo horiz comp" transform="translate(31.494 43.263)">
        <g id="Group_4353" data-name="Group 4353">
          <g id="Group_4349" data-name="Group 4349" transform="translate(91.801 6.956)">
            <path id="Path_13885" data-name="Path 13885" d="M88.883,38.1h2.179v1.09a2.745,2.745,0,0,1,2.264-1.233,2.3,2.3,0,0,1,2.165,1.219,3.159,3.159,0,0,1,2.522-1.219c1.62,0,2.593.975,2.593,2.823v5H98.428V41.5c0-1.033-.46-1.562-1.276-1.562s-1.318.53-1.318,1.562v4.284H93.655V41.5c0-1.033-.458-1.562-1.275-1.562s-1.318.53-1.318,1.562v4.284H88.883Z" transform="translate(-88.883 -37.957)" fill="#fff"/>
            <path id="Path_13886" data-name="Path 13886" d="M98.334,41.985v-.029a3.825,3.825,0,0,1,3.8-4c2.565,0,3.741,1.992,3.741,4.171,0,.172-.014.373-.029.573H100.5a1.781,1.781,0,0,0,1.877,1.5,2.518,2.518,0,0,0,1.863-.789l1.247,1.1a4.058,4.058,0,0,1-7.152-2.536Zm5.418-.646a1.648,1.648,0,0,0-1.62-1.634,1.711,1.711,0,0,0-1.662,1.634Z" transform="translate(-85.093 -37.957)" fill="#fff"/>
            <path id="Path_13887" data-name="Path 13887" d="M104.871,38.1h2.177v1.09a2.72,2.72,0,0,1,2.25-1.233c1.649,0,2.609,1.09,2.609,2.853v4.972h-2.179V41.5c0-1.033-.488-1.562-1.318-1.562s-1.362.53-1.362,1.562v4.284h-2.177Z" transform="translate(-82.471 -37.957)" fill="#fff"/>
          </g>
          <g id="Group_4350" data-name="Group 4350" transform="translate(76.978 7.941)">
            <path id="Path_13888" data-name="Path 13888" d="M78.974,41.351H78.3V40.72h.671v-.426a1.716,1.716,0,0,1,.425-1.255,1.432,1.432,0,0,1,1.048-.378,2.193,2.193,0,0,1,.8.123v.632a2.423,2.423,0,0,0-.708-.122c-.567,0-.85.339-.85,1.038v.4H81.24v.623H79.7v4.241h-.727Z" transform="translate(-78.303 -38.66)" fill="#fff"/>
            <path id="Path_13889" data-name="Path 13889" d="M80.507,42.617V42.6a2.546,2.546,0,0,1,5.091-.02v.02a2.535,2.535,0,0,1-2.56,2.55A2.5,2.5,0,0,1,80.507,42.617Zm4.345,0V42.6a1.848,1.848,0,0,0-1.813-1.908,1.8,1.8,0,0,0-1.785,1.889v.02a1.832,1.832,0,0,0,1.8,1.9A1.8,1.8,0,0,0,84.852,42.617Z" transform="translate(-77.419 -38.103)" fill="#fff"/>
            <path id="Path_13890" data-name="Path 13890" d="M84.808,40.148h.729v1.275a2.089,2.089,0,0,1,1.992-1.36v.785h-.056a1.968,1.968,0,0,0-1.936,2.237v1.946h-.729Z" transform="translate(-75.694 -38.098)" fill="#fff"/>
          </g>
          <g id="NS_Men" data-name="NS Men">
            <g id="Group_4352" data-name="Group 4352">
              <path id="Path_13891" data-name="Path 13891" d="M23.367,46.812,23.36,35.735h.031L30.2,43.177l0-7.2h1.517l.006,10.89h-.031L24.88,39.425l0,7.385Z" transform="translate(-23.36 -31.892)" fill="#fff"/>
              <path id="Path_13892" data-name="Path 13892" d="M37.107,37.943l0,8.035H35.658V44.817h-.031a2.668,2.668,0,0,1-2.351,1.164c-1.594,0-3.08-.759-3.081-2.637l0-5.4h1.485l0,5.181c0,1.163.821,1.536,1.733,1.536a2.137,2.137,0,0,0,2.212-2.407l0-4.312Z" transform="translate(-20.62 -31.006)" fill="#fff"/>
              <path id="Path_13893" data-name="Path 13893" d="M40.378,39.93h-2.09l0,4.094c0,.993.311,1.3,1.394,1.3.34,0,.666-.063.991-.094l-.263,1.349a9.015,9.015,0,0,1-1.191.063,2.331,2.331,0,0,1-2.415-2.4l0-4.311H35.581l.525-1.32h.7V36.626l1.485-.357v2.343h2.089Z" transform="translate(-18.459 -31.678)" fill="#fff"/>
              <path id="Path_13894" data-name="Path 13894" d="M39.857,46.074l-.006-8.035h1.394v1.381h.031a2.583,2.583,0,0,1,2.414-1.725h.743l-.618,1.489c-1.332-.077-2.476.9-2.474,2.934v3.957Z" transform="translate(-16.746 -31.106)" fill="#fff"/>
              <path id="Path_13895" data-name="Path 13895" d="M44.077,45.973l-.006-8.036h1.485l.006,8.035Z" transform="translate(-15.054 -31.009)" fill="#fff"/>
              <path id="Path_13896" data-name="Path 13896" d="M58,46.017c1.495-.007,2.693-.754,2.694-2.376h0a1.825,1.825,0,0,0-1.253-1.855h0c-.709-.3-1.572-.406-2.169-.72h0A1.137,1.137,0,0,1,56.6,40h0a1.292,1.292,0,0,1,.509-1.076h0a1.976,1.976,0,0,1,1.187-.352h0a3.074,3.074,0,0,1,1.841.717h0l.426-.609a3.576,3.576,0,0,0-2.221-.881h0a2.32,2.32,0,0,0-2.494,2.25h0A1.789,1.789,0,0,0,57.1,41.834h0c.709.307,1.573.436,2.169.769h0a1.182,1.182,0,0,1,.68,1.086h0a1.45,1.45,0,0,1-.52,1.168h0a1.94,1.94,0,0,1-1.223.387h0a2.594,2.594,0,0,1-1.953-.849h0l-.574.5A3.084,3.084,0,0,0,58,46.017Z" transform="translate(-10.399 -31.064)" fill="#fff"/>
              <path id="Path_13897" data-name="Path 13897" d="M48.658,46.022c1.5-.007,2.693-.752,2.694-2.376h0A1.824,1.824,0,0,0,50.1,41.792h0c-.709-.3-1.572-.406-2.169-.722h0a1.139,1.139,0,0,1-.681-1.063h0a1.3,1.3,0,0,1,.51-1.076h0a1.961,1.961,0,0,1,1.187-.352h0a3.076,3.076,0,0,1,1.841.716h0l.426-.609a3.591,3.591,0,0,0-2.221-.881h0a2.321,2.321,0,0,0-2.5,2.25h0a1.791,1.791,0,0,0,1.254,1.784h0c.709.308,1.575.436,2.17.771h0A1.178,1.178,0,0,1,50.6,43.7h0a1.44,1.44,0,0,1-.52,1.168h0a1.936,1.936,0,0,1-1.223.385h0a2.6,2.6,0,0,1-1.953-.849h0l-.574.5a3.08,3.08,0,0,0,2.327,1.124Z" transform="translate(-14.147 -31.062)" fill="#fff"/>
              <path id="Path_13898" data-name="Path 13898" d="M59.751,39.4h1.017l0,4.989a1.967,1.967,0,0,0,2.142,2.2h0a4,4,0,0,0,.731-.084h0V45.79a6.035,6.035,0,0,1-.654.024h0a1.569,1.569,0,0,1-1.117-.324h0a1.431,1.431,0,0,1-.35-1.087h0l0-5h2.106v-.772h-2.1V36.212l-.752.427v1.987h-.835l-.182.773Z" transform="translate(-8.765 -31.701)" fill="#fff"/>
              <path id="Path_13899" data-name="Path 13899" d="M53.661,44.464l-1.51,3.3h.8l4.646-9.824h-.825L54.1,43.657l-3.06-5.716h-.82l3.445,6.522Z" transform="translate(-12.589 -31.008)" fill="#fff"/>
              <path id="Path_13900" data-name="Path 13900" d="M69.442,44.786a4.4,4.4,0,0,1-3.14,1.22,3.852,3.852,0,0,1-3.8-4.113,3.865,3.865,0,0,1,3.8-4.083c2.375,0,3.783,1.9,3.767,4.165l-6.8,0a3.06,3.06,0,0,0,3.14,3.312,3.4,3.4,0,0,0,3.025-1.629Zm-.14-3.525a3.034,3.034,0,0,0-6.039,0Z" transform="translate(-7.663 -31.06)" fill="#fff"/>
              <path id="Path_13901" data-name="Path 13901" d="M77.109,37.985a2.609,2.609,0,0,0-1.028-.2c-.078,0-.153,0-.227.01a2.443,2.443,0,0,0-1.426.576c-.018.014-.036.028-.055.045l-.036.031a3.119,3.119,0,0,0-.6.713l-.007.013a2.3,2.3,0,0,0-.958-1.084,1.873,1.873,0,0,0-.367-.167,2.521,2.521,0,0,0-.825-.133,2.656,2.656,0,0,0-2.3,1.473V37.814l-.752.16,0,7.976h.752l0-5a2.806,2.806,0,0,1,.523-1.791,1.965,1.965,0,0,1,1.607-.687,1.672,1.672,0,0,1,1.232.5,1.834,1.834,0,0,1,.482,1.292l0,5.683h.752l0-5a2.807,2.807,0,0,1,.524-1.791,1.959,1.959,0,0,1,1.6-.685h0a1.669,1.669,0,0,1,1.233.5,1.833,1.833,0,0,1,.481,1.292l0,5.683h.754l0-5.873A2.037,2.037,0,0,0,77.109,37.985Z" transform="translate(-5.245 -31.069)" fill="#fff"/>
              <g id="Group_4351" data-name="Group 4351" transform="translate(29.088)">
                <path id="Path_13902" data-name="Path 13902" d="M48.8,32.992s-2.689.28-3.92,2.016a3.989,3.989,0,0,0-.616,3.416,9.771,9.771,0,0,1,3.864-4.535A10.062,10.062,0,0,0,44.94,38.7a4.315,4.315,0,0,0,2.967-1.4C49.42,35.625,48.8,32.992,48.8,32.992Z" transform="translate(-44.122 -32.992)" fill="#fff"/>
              </g>
              <path id="Path_13903" data-name="Path 13903" d="M76.83,35.994a1.185,1.185,0,1,1-1.22,1.181,1.193,1.193,0,0,1,1.213-1.181Zm-.014.238a.943.943,0,0,0,.015,1.886.944.944,0,0,0-.008-1.886Zm-.179,1.555h-.273V36.613a2.317,2.317,0,0,1,.453-.043.664.664,0,0,1,.409.094.325.325,0,0,1,.115.252.3.3,0,0,1-.244.28v.015c.115.035.179.129.216.287a.723.723,0,0,0,.087.287h-.3a.927.927,0,0,1-.092-.28c-.022-.129-.094-.186-.245-.186h-.129Zm.007-.663h.129c.151,0,.273-.05.273-.174,0-.108-.08-.179-.252-.179a.658.658,0,0,0-.15.014Z" transform="translate(-2.405 -31.788)" fill="#fff"/>
            </g>
          </g>
        </g>
      </g>
      <g id="Group_4355" data-name="Group 4355" transform="translate(10.98 67.389)">
        <g id="Group_4354" data-name="Group 4354" transform="translate(0)">
          <path id="Path_13904" data-name="Path 13904" d="M8.718,50.644l9.288-.034q-.027,3.671-.053,7.339-2.476.12-4.947.247Q13,60.583,12.99,62.97q1.873-.151,3.745-.3L16.7,69.32q-1.864.223-3.727.454-.015,6.027-.027,12.045-2.106.425-4.2.867Q8.714,66.7,8.718,50.644Z" transform="translate(-8.718 -50.052)" fill="#faa21d"/>
          <path id="Path_13905" data-name="Path 13905" d="M17,50.609l4.315-.014q-.168,14.572-.31,29.1-2.127.374-4.247.768Q16.864,65.563,17,50.609Z" transform="translate(-5.493 -50.058)" fill="#faa21d"/>
          <path id="Path_13906" data-name="Path 13906" d="M24.286,57.451l-2.944.125q.042-3.487.085-6.976,5.134-.017,10.267-.029-.055,3.3-.106,6.589-1.473.057-2.946.113-.158,10.47-.3,20.919-2.167.334-4.328.688Q24.141,68.176,24.286,57.451Z" transform="translate(-3.655 -50.068)" fill="#faa21d"/>
          <path id="Path_13907" data-name="Path 13907" d="M34.13,50.563q4.647-.013,9.293-.02-.053,3.045-.1,6.09-2.492.065-4.981.142L38.273,60.7q1.893-.088,3.786-.172-.046,2.755-.091,5.51-1.9.124-3.788.262l-.164,9.924q-2.163.252-4.322.527Q33.9,63.67,34.13,50.563Z" transform="translate(1.299 -50.079)" fill="#faa21d"/>
          <path id="Path_13908" data-name="Path 13908" d="M41.312,67.469q.069-4.3.14-8.609c.085-5.121,2.511-8.664,5.925-8.647,3.364.014,5.708,3.42,5.645,8.312q-.055,4.138-.109,8.275c-.06,4.859-2.521,8.423-5.917,8.729C43.552,75.841,41.23,72.553,41.312,67.469Zm5.771,2.165c.614-.042,1.428-.335,1.457-2.4q.063-4.4.129-8.8c.031-2.1-.723-2.333-1.383-2.32-.684.014-1.446.273-1.48,2.4q-.069,4.443-.136,8.887C45.638,69.489,46.469,69.674,47.083,69.633Z" transform="translate(4.353 -50.212)" fill="#faa21d"/>
          <path id="Path_13909" data-name="Path 13909" d="M51.672,50.528l5.684-.006c3.389,0,5.735,3.112,5.7,8.761l0,.628c-.022,3.374-.873,5.8-2.312,7.264q1.032,3.356,2.074,6.7-2.385.074-4.768.178Q57.4,71.4,56.763,68.731l-.934.036-.055,5.388q-2.2.111-4.391.247Q51.522,62.468,51.672,50.528Zm5.023,12.6c.86-.024,2.018-.385,2.043-3.213l0-.532c.024-2.829-1.049-3.185-1.978-3.173l-.808.01q-.036,3.466-.07,6.93Z" transform="translate(8.393 -50.088)" fill="#faa21d"/>
          <path id="Path_13910" data-name="Path 13910" d="M64.638,66.285q2.177-.017,4.357-.015c0,1.9.888,2.3,1.6,2.3a1.422,1.422,0,0,0,1.551-1.634c0-1.348-1.309-1.915-2.809-2.67-2.067-1.021-4.5-2.452-4.485-6.988.013-4.308,2.361-7.067,5.723-7.067,3.266,0,5.648,3.159,5.67,7.71Q74.1,57.907,71.96,57.9c0-1.774-.738-2.2-1.376-2.2a1.378,1.378,0,0,0-1.418,1.575c0,1.512,1.4,2,2.969,2.766,2.039.992,4.377,2.4,4.4,6.948.022,4.454-2.439,7.256-5.931,7.235S64.623,71.022,64.638,66.285Z" transform="translate(13.709 -50.212)" fill="#faa21d"/>
          <path id="Path_13911" data-name="Path 13911" d="M74.558,66.2q-.044-7.841-.09-15.683h4.318q.065,7.99.129,15.98c.015,1.991.856,2.252,1.471,2.273s1.426-.184,1.408-2.188q-.076-8.03-.154-16.062l4.343,0q.095,8.009.186,16.015c.056,4.834-2.323,8.049-5.734,7.891C76.973,74.278,74.581,70.923,74.558,66.2Z" transform="translate(17.652 -50.089)" fill="#faa21d"/>
          <path id="Path_13912" data-name="Path 13912" d="M84.706,50.527l4.318.006q1.526,5.905,3.06,11.922,1.343-5.9,2.672-11.912l4.318.007q.214,12.607.415,25.2-2.169-.227-4.342-.432-.088-5.716-.178-11.437-.794,3.186-1.592,6.333-1.2-.088-2.406-.167-.881-3.186-1.757-6.336.078,5.557.156,11.11-2.179-.17-4.36-.315Q84.863,62.521,84.706,50.527Z" transform="translate(21.758 -50.086)" fill="#faa21d"/>
          <path id="Path_13913" data-name="Path 13913" d="M97.155,50.548l4.317.01q1.549,6.332,3.094,12.836,1.32-6.319,2.638-12.824l4.317.011q.216,13.709.412,27.384-2.146-.322-4.3-.621-.095-6.174-.193-12.356-.784,3.426-1.569,6.792-1.194-.13-2.389-.254-.883-3.447-1.768-6.841.1,5.956.195,11.9-2.16-.269-4.326-.513Q97.375,63.321,97.155,50.548Z" transform="translate(26.75 -50.077)" fill="#faa21d"/>
          <path id="Path_13914" data-name="Path 13914" d="M109.6,50.579q4.842.013,9.681.029.038,3.568.073,7.137-2.673-.122-5.348-.237l.055,4.366q2.028.137,4.052.283.034,3.186.064,6.371-2.018-.223-4.039-.432.023,2.078.049,4.16,2.661.338,5.31.7.032,3.541.062,7.077-4.764-.857-9.568-1.615Q109.808,64.519,109.6,50.579Z" transform="translate(31.741 -50.065)" fill="#faa21d"/>
          <path id="Path_13915" data-name="Path 13915" d="M118.251,50.6l5.68.02c3.393-.024,5.763,4.259,5.751,12.062v.863c0,4.636-.825,7.849-2.209,9.564q1.032,4.71,2.043,9.537-2.286-.479-4.581-.94-.652-3.665-1.311-7.276l-.909-.139q.015,3.491.029,6.98-2.123-.414-4.255-.811Q118.383,65.562,118.251,50.6Zm5.223,16.485c.843.09,1.973-.224,1.963-3.986l0-.706c-.011-3.763-1.08-4.3-2-4.345l-.8-.039q.023,4.5.046,8.992Z" transform="translate(35.211 -50.054)" fill="#faa21d"/>
        </g>
      </g>
    </g>
  </g>
</svg>
