<svg version="1.1" id="Layer_1" xmlns="http://www.w3.org/2000/svg" x="0" y="0" viewBox="0 0 59.4 59.4" xml:space="preserve"><style>.st1{fill:#fff}</style><g id="Group_9" transform="translate(-25)"><g id="Dark_Blue-2" transform="translate(243 401)"><path id="Rectangle_6-2" d="M-214.4-401h52.2c2 0 3.6 1.6 3.6 3.6v52.2c0 2-1.6 3.6-3.6 3.6h-52.2c-2 0-3.6-1.6-3.6-3.6v-52.2c0-2 1.6-3.6 3.6-3.6z" fill="#4d4d4d"/></g><g id="Group_3" transform="translate(248 406)"><path id="Path_4" class="st1" d="M-193.2-393.3c5.6 0 6.2 0 8.4.1 1.3 0 2.6.3 3.9.7.9.3 1.7.9 2.4 1.6.7.7 1.2 1.5 1.6 2.4.5 1.2.7 2.5.7 3.9.1 2.2.1 2.9.1 8.4s0 6.2-.1 8.4c0 1.3-.3 2.6-.7 3.9-.3.9-.9 1.7-1.6 2.4s-1.5 1.2-2.4 1.6c-1.2.5-2.5.7-3.9.7-2.2.1-2.9.1-8.4.1s-6.2 0-8.4-.1c-1.3 0-2.6-.3-3.9-.7-.9-.3-1.7-.9-2.4-1.6s-1.2-1.5-1.6-2.4c-.5-1.2-.7-2.5-.7-3.9 0-2.2-.1-2.8-.1-8.4 0-5.6 0-6.2.1-8.4 0-1.3.3-2.6.7-3.9.3-.9.9-1.7 1.6-2.4.7-.7 1.5-1.2 2.4-1.6 1.2-.5 2.5-.7 3.9-.7 2.2 0 2.9-.1 8.4-.1m0-3.7c-5.7 0-6.4 0-8.6.1-1.7 0-3.4.4-5 1-1.4.5-2.7 1.3-3.7 2.4-1.1 1-1.9 2.3-2.4 3.7-.6 1.6-.9 3.3-1 5.1-.1 2.2-.1 2.9-.1 8.6 0 5.7 0 6.4.1 8.6 0 1.7.4 3.4 1 5.1.5 1.4 1.3 2.6 2.4 3.7 1 1.1 2.3 1.9 3.7 2.4 1.6.6 3.3.9 5.1 1 2.2.1 2.9.1 8.6.1s6.4 0 8.6-.1c1.7 0 3.4-.4 5.1-1 1.4-.5 2.6-1.3 3.7-2.4 1.1-1 1.9-2.3 2.4-3.7.6-1.6.9-3.3 1-5.1.1-2.2.1-2.9.1-8.6 0-5.7 0-6.4-.1-8.6 0-1.7-.4-3.4-1-5.1-.5-1.4-1.3-2.6-2.4-3.7-1-1.1-2.3-1.9-3.7-2.4-1.6-.6-3.3-.9-5.1-1-2.3-.1-3-.1-8.7-.1z"/><path id="Path_5" class="st1" d="M-193.2-386.9c-5.9 0-10.7 4.8-10.7 10.7 0 5.9 4.8 10.7 10.7 10.7 5.9 0 10.7-4.8 10.7-10.7 0-5.9-4.8-10.7-10.7-10.7zm0 17.7c-3.8 0-6.9-3.1-6.9-6.9 0-3.8 3.1-6.9 6.9-6.9 3.8 0 6.9 3.1 6.9 6.9.1 3.7-3.1 6.9-6.9 6.9z"/><circle id="Ellipse_1" class="st1" cx="-182.1" cy="-387.3" r="2.5"/></g></g></svg>
