<?xml version="1.0" encoding="utf-8"?>
<!-- Generator: Adobe Illustrator 23.0.0, SVG Export Plug-In . SVG Version: 6.00 Build 0)  -->
<svg version="1.1" id="Layer_1" xmlns="http://www.w3.org/2000/svg" xmlns:xlink="http://www.w3.org/1999/xlink" x="0px" y="0px"
     viewBox="0 0 61.7 77.8" style="enable-background:new 0 0 61.7 77.8;" xml:space="preserve">
<style type="text/css">
    .st0{fill:#64A535;}
</style>
<g>
    <path class="st0" d="M53.1,55c-0.9-2.2-1.9-4.4-2.8-6.6c-0.2-0.4-0.7-1.1-0.7-1.5c0-0.4,1-1,1.4-1.2c0.7-0.5,1.5-1,2.2-1.5
        c1.8-1.2,3.5-2.7,4.3-4.8c1-2.5,0.5-5.1-0.1-7.6c-0.3-1.2-0.6-2.4-0.7-3.6c0-1.2,0.2-2.3,0.4-3.5c0.5-2.6,1-5.2,0-7.8
        c-0.4,0.4-3.3,3.7-3.3,3.7s-0.1,1.3-0.2,2c-0.3,1.7-0.7,3.4-0.8,5.2c-0.1,1.6,0.2,3.2,0.6,4.7c0.7,2.9,1.3,5.7-1.2,7.9
        c-2.2,2-5,3.2-6.8,5.8c-1.3,1.9-2.4,4.1-4.1,5.7c-2.2,2.1-5.5,1.3-8.2,0.6c-1.5-0.4-2.8-0.6-4.4-0.4c-2,0.3-4,1-6,1.3
        c-1.6,0.2-3,0-4.3-1.1c-1.1-1-1.9-2.3-2.8-3.5c-1.4-2.1-2.9-3.5-5.1-4.8c-2.1-1.4-4.8-2.7-5.5-5.4c-0.7-2.9,0.8-6,0.9-8.9
        c0.1-3-1.5-5.8-1.3-8.8c0.2-3.3,3.6-4.7,5.9-6.5c1.3-1,2.4-2.2,3.3-3.6c0.7-1.1,1.3-2.3,2.1-3.4c0.8-1.1,1.8-2.1,3.1-2.6
        c1.6-0.6,3.3-0.3,4.9,0c1.4,0.3,2.8,0.6,4.3,0.7c1.6,0.1,3.2-0.2,4.7-0.6c1.4-0.4,2.9-0.7,4.3-0.7c1.6,0,2.8,0.8,3.8,2
        c1,1.1,1.7,2.4,2.6,3.6c0.4,0.5,2.5,2.6,2.5,2.6s2.3-2.4,2.7-2.8c-1.7-1.1-2.7-2.9-3.9-4.5c-1.1-1.6-2.4-3.1-4.1-4
        c-2.1-1.2-4.6-1-6.9-0.5c-2.2,0.4-4.2,1.2-6.4,1c-2.3-0.2-4.5-0.9-6.8-0.9c-4.6-0.1-7.3,3-9.5,6.6c-0.6,1-1.2,2.1-2.1,3
        c-0.8,0.8-1.7,1.4-2.6,2c-1.5,1.1-3.1,2.1-4.2,3.5c-1.5,1.8-2,4.1-1.8,6.4c0.2,2.1,1,4.2,1.2,6.3c0.2,2-0.4,4-0.7,6
        c-0.4,2.3-0.3,4.6,0.7,6.8C3,42.8,4.4,44.1,6,45.2c0.7,0.5,1.4,0.9,2.1,1.3c0.1,0.1,1,0.4,1,0.6c0,0.2-0.3,0.7-0.3,0.8
        c-0.3,0.7-0.6,1.4-0.9,2.1c-2,4.6-3.9,9.1-5.9,13.7c-0.6,1.3-1.2,2.7-1.7,4c-0.4,1.1-0.1,2.3,1.1,2.7c0.7,0.2,1.4-0.1,2-0.3
        c2.3-0.6,4.7-1.3,7-1.9c0.4-0.1,1.7-0.7,2-0.6c0.2,0.1,0.5,0.9,0.7,1.2c1.2,2.2,2.3,4.3,3.5,6.5c0.3,0.5,0.5,1.1,0.9,1.6
        c0.8,1.3,2.6,1.3,3.3-0.2c1.6-3.2,2.9-6.7,4.3-10c1.4-3.3,2.8-6.6,4.3-9.8c0.4,0.9,0.8,1.8,1.2,2.7c1.7,3.8,3.3,7.6,5,11.5
        c0.6,1.5,1.3,3,1.9,4.5c0.4,1,0.8,2.3,2.2,2.3c1.3,0,1.8-1.1,2.3-2.1c0.7-1.4,1.5-2.7,2.2-4.1c0.6-1.2,1.3-2.4,1.9-3.5
        c0.3-0.6,0.4-0.5,1.1-0.3c2.5,0.7,5,1.4,7.5,2c0.7,0.2,1.6,0.6,2.3,0.6c1.4,0,2.1-1.6,1.6-2.8C56.8,63.4,54.9,59.2,53.1,55z
         M19,71.7c-0.8-1.4-1.5-2.8-2.3-4.2c-0.7-1.2-1.5-4-3.2-3.9c-0.5,0-1,0.2-1.4,0.3c-0.9,0.2-1.8,0.5-2.7,0.7
        c-1.4,0.4-2.8,0.8-4.2,1.2c0.3-0.7,0.6-1.3,0.9-2c2-4.7,4-9.3,6-14c0.6,1,1.5,2.1,2.2,3.1c1.1,1.4,2.3,2.7,3.9,3.4
        c1.1,0.5,2.3,0.7,3.5,0.7c0.6,0,1.2-0.1,1.9-0.1c0.7-0.1,1.4-0.4,2-0.4C23.5,61.5,21.3,66.6,19,71.7z M50.2,64.7
        c-1.3-0.3-2.7-0.7-4-1c-1.2-0.3-2.1,0.3-2.7,1.3c-1.2,2.2-2.4,4.5-3.6,6.7c-2.2-5.2-4.5-10.4-6.7-15.6c3.4,1,7.3,1,10.2-1.2
        c1.6-1.2,2.8-2.8,3.9-4.6c2.2,5.1,4.4,10.3,6.7,15.4C52.6,65.4,51.4,65,50.2,64.7z"/>
    <path class="st0" d="M61.1,5.2c-0.4-0.4-1-0.7-1.6-0.7c-0.6,0-1.1,0.2-1.5,0.6L29,34.3l-8.1-8.1c-0.4-0.4-0.9-0.6-1.5-0.6
        c-0.6,0-1.1,0.2-1.5,0.6c-0.8,0.8-0.8,2.1,0,3l9.6,9.6c0.4,0.4,0.9,0.6,1.5,0.6c0.6,0,1.1-0.2,1.5-0.6L61.1,8.2
        c0.4-0.4,0.6-0.9,0.6-1.5C61.7,6.2,61.5,5.6,61.1,5.2z"/>
</g>
</svg>
