<svg version="1.1" id="Layer_1" xmlns="http://www.w3.org/2000/svg" x="0" y="0" viewBox="0 0 59.3 59.4" xml:space="preserve"><style>.st0{fill:#4d4d4d}</style><g id="Group_7" transform="translate(17.98)"><path id="Rectangle_6-3" class="st0" d="M-14.4 0h52.2c2 0 3.6 1.6 3.6 3.6v52.2c0 2-1.6 3.6-3.6 3.6h-52.2c-2 0-3.6-1.6-3.6-3.6V3.6c0-2 1.6-3.6 3.6-3.6z"/><g id="Group_5" transform="translate(330.198 405.036)"><ellipse id="Ellipse_2" cx="-318.3" cy="-377.5" rx="20.6" ry="20.9" fill="#fff"/></g><path id="Path_9" class="st0" d="M11.3 5.5c-12.7 0-22.9 10.3-22.9 22.9s10.3 22.9 22.9 22.9S34.2 41 34.2 28.4 24 5.5 11.3 5.5zm0 43.3c-2 0-4.1-.3-6-.9 1.1-1.7 1.9-3.5 2.5-5.3.3-1 1.3-4.8 1.3-4.8 1.1 1.5 2.8 2.4 4.7 2.3 6.1 0 10.6-5.6 10.6-12.7 0-6.7-5.5-11.8-12.6-11.8-8.8 0-13.5 5.9-13.5 12.3 0 3 1.6 6.7 4.1 7.9.4.2.6.1.7-.3.1-.3.4-1.7.6-2.3.1-.2 0-.4-.1-.6-1-1.4-1.5-3-1.5-4.6 0-4.9 3.9-8.8 8.8-8.9h.4c4.4-.3 8.2 3.1 8.5 7.5v.7c0 5.5-2.8 9.3-6.4 9.3-1.6.1-3-1.2-3.1-2.8 0-.3 0-.6.1-.9.8-2.2 1.3-4.5 1.7-6.8.2-1.4-.8-2.7-2.2-2.9h-.4c-2 0-3.7 2.1-3.7 4.9 0 1 .2 2.1.6 3 0 0-2 8.5-2.4 10.1-.3 1.9-.3 3.9-.1 5.8-10.5-4.1-15.7-15.9-11.5-26.4C-3.5 10.1 8.3 4.9 18.8 9.1 29.3 13.2 34.5 25 30.3 35.5c-3.1 8.2-10.6 13.3-19 13.3z"/></g></svg>
