<svg xmlns="http://www.w3.org/2000/svg" viewBox="0 0 59.4 59.4"><path d="M3.6 0h52.2c2 0 3.6 1.6 3.6 3.6v52.2c0 2-1.6 3.6-3.6 3.6H3.6c-2 0-3.6-1.6-3.6-3.6V3.6C0 1.7 1.6 0 3.6 0z" fill="#4d4d4d"/><path d="M22.8 44.9c11.9 0 21.6-9.5 21.7-21.4v-1.3c1.5-1.1 2.8-2.4 3.8-3.9-1.4.6-2.9 1-4.4 1.2 1.6-1 2.8-2.5 3.4-4.2-1.5.9-3.1 1.5-4.8 1.8-2.9-3.1-7.7-3.2-10.8-.3-2 1.9-2.8 4.6-2.2 7.3-6.1-.3-11.8-3.2-15.7-8-2.1 3.5-1.1 7.9 2.3 10.1-1.2 0-2.4-.4-3.5-1v.1c0 3.6 2.6 6.8 6.1 7.5-1.1.3-2.3.4-3.4.1 1 3.1 3.9 5.2 7.1 5.3-2.7 2.2-6 3.4-9.5 3.3-.6 0-1.2 0-1.8-.1 3.5 2.3 7.6 3.5 11.7 3.5" fill="#fff"/><path d="M0 0h59.4v59.4H0V0z" fill="none"/></svg>
