<svg xmlns="http://www.w3.org/2000/svg" viewBox="0 0 59.4 59.4"><path d="M3.6 0h52.2c2 0 3.6 1.6 3.6 3.6v52.2c0 2-1.6 3.6-3.6 3.6H3.6c-2 0-3.6-1.6-3.6-3.6V3.6C0 1.6 1.6 0 3.6 0z" fill="#4d4d4d"/><path d="M49.6 20c-.5-1.8-1.9-3.2-3.6-3.7-3.2-.9-16.1-.9-16.1-.9s-12.9 0-16.1.9c-1.8.5-3.2 1.9-3.7 3.7-.6 3.3-.9 6.6-.8 10 0 3.3.3 6.7.9 10 .5 1.8 1.9 3.2 3.6 3.7 3.2.9 16.1.9 16.1.9s12.9 0 16.1-.9c1.8-.5 3.2-1.9 3.6-3.7.6-3.3.9-6.6.8-10 .1-3.4-.2-6.8-.8-10zM25.7 36.1V23.8l10.8 6.1-10.8 6.2z" fill="#fff"/></svg>
