<svg xmlns="http://www.w3.org/2000/svg" width="112.935" height="112.935" viewBox="0 0 112.935 112.935">
  <g id="Group_1598" data-name="Group 1598" transform="translate(-603.729 -87.891)">
    <circle id="Ellipse_245" data-name="Ellipse 245" cx="44.552" cy="44.552" r="44.552" transform="translate(606.729 177.691) rotate(-76.94)" fill="none" stroke="#006b00" stroke-linecap="round" stroke-linejoin="round" stroke-width="5"/>
    <path id="Path_2075" data-name="Path 2075" d="M656.471,148.457a69.319,69.319,0,0,1-23.122-3.773,23.556,23.556,0,0,0,46.244,0A69.313,69.313,0,0,1,656.471,148.457Z" transform="translate(3.727 7.531)" fill="none" stroke="#006b00" stroke-linecap="round" stroke-linejoin="round" stroke-width="5"/>
    <g id="Group_1597" data-name="Group 1597" transform="translate(639.345 132.825)">
      <path id="Path_2076" data-name="Path 2076" d="M669.877,130.6a2.507,2.507,0,1,1-2.507-2.507A2.507,2.507,0,0,1,669.877,130.6Z" transform="translate(-628.175 -128.096)" fill="none" stroke="#006b00" stroke-linecap="round" stroke-linejoin="round" stroke-width="5"/>
      <path id="Path_2077" data-name="Path 2077" d="M643.857,130.6a2.508,2.508,0,1,1-2.508-2.507A2.508,2.508,0,0,1,643.857,130.6Z" transform="translate(-638.842 -128.096)" fill="none" stroke="#006b00" stroke-linecap="round" stroke-linejoin="round" stroke-width="5"/>
    </g>
  </g>
</svg>
