<svg xmlns="http://www.w3.org/2000/svg" width="94.477" height="79.942" viewBox="0 0 94.477 79.942">
  <path id="Path_2070" data-name="Path 2070" d="M299.027,151.8H215.451A5.457,5.457,0,0,0,210,157.253v47.239a5.457,5.457,0,0,0,5.451,5.451h83.576a5.457,5.457,0,0,0,5.451-5.451V157.253A5.457,5.457,0,0,0,299.027,151.8Zm-85.393,5.451a1.82,1.82,0,0,1,1.817-1.817h8.939a12.723,12.723,0,0,1-10.756,10.756Zm1.817,49.056a1.82,1.82,0,0,1-1.817-1.817v-8.939a12.723,12.723,0,0,1,10.756,10.756Zm85.393-1.817a1.82,1.82,0,0,1-1.817,1.817h-8.939a12.723,12.723,0,0,1,10.756-10.756Zm0-12.611a16.376,16.376,0,0,0-14.428,14.428H228.062a16.376,16.376,0,0,0-14.428-14.428V169.864a16.376,16.376,0,0,0,14.428-14.428h58.354a16.376,16.376,0,0,0,14.428,14.428Zm0-25.689a12.723,12.723,0,0,1-10.756-10.756h8.939a1.82,1.82,0,0,1,1.817,1.817Zm-81.759-21.657h76.309a1.817,1.817,0,1,0,0-3.634H219.084a1.817,1.817,0,0,0,0,3.634Zm7.267-10.9h61.774a1.817,1.817,0,1,0,0-3.634H226.352a1.817,1.817,0,0,0,0,3.634Zm30.887,25.436a21.8,21.8,0,1,0,21.8,21.8A21.827,21.827,0,0,0,257.239,159.07Zm0,39.971a18.169,18.169,0,1,1,18.169-18.169A18.189,18.189,0,0,1,257.239,199.041Zm-1.817-23.619h7.267a1.817,1.817,0,1,0,0-3.634h-3.634v-1.817a1.817,1.817,0,1,0-3.634,0v1.817a5.451,5.451,0,1,0,0,10.9h3.634a1.817,1.817,0,1,1,0,3.634h-7.267a1.817,1.817,0,1,0,0,3.634h3.634v1.817a1.817,1.817,0,0,0,3.634,0v-1.817a5.451,5.451,0,1,0,0-10.9h-3.634a1.817,1.817,0,0,1,0-3.634Z" transform="translate(-210 -130)" fill="#006b00"/>
</svg>
