<?xml version="1.0" encoding="utf-8"?>
<!-- Generator: Adobe Illustrator 25.2.0, SVG Export Plug-In . SVG Version: 6.00 Build 0)  -->
<svg version="1.1" id="Layer_1" xmlns="http://www.w3.org/2000/svg" xmlns:xlink="http://www.w3.org/1999/xlink" x="0px" y="0px"
     viewBox="0 0 113 113" style="enable-background:new 0 0 113 113;" xml:space="preserve">
<style type="text/css">
    .st0{fill:#006B00;}
</style>
<g>
    <path class="st0" d="M51.3,25.1c0.8-2.5,2.8-4.3,5.4-4.9L55.7,16c-6.4,1.4-10.4,7.7-8.9,14.1c0.4,1.8,1.2,3.5,2.4,4.9l3.3-2.8
        C50.9,30.2,50.4,27.6,51.3,25.1z"/>
    <path class="st0" d="M59.7,45.5l3-3.2c-0.5-0.5-3.3-3.3-5.9-5.9l-3.1,3.1C56.2,42.1,59.1,44.9,59.7,45.5z"/>
    <path class="st0" d="M103.3,70.4c-3.2-4.6-6.5-3.8-12-0.5c0,0-0.1,0-0.1,0.1L79.2,78c-1.5,0.8-4.3,1.1-7.3,1.2
        c0.2-1.6-0.2-3.3-1.1-4.7c-2.2-3.8-6.3-6.1-10.7-6.1h-5.4c-2.6,0-5.2-0.9-7.3-2.6c-5.2-4.5-13-0.3-17.1,2.5v-3H8.8v41.3h21.6v-4.6
        h17.9c2.9,0,5.8-0.3,8.6-0.8l17.7-3c0.3,0,0.7-0.1,1-0.1c0.2,0,0.5-0.1,0.6-0.1c0.1,0,0.1,0,0.2,0c2-0.3,3.8-1.3,5.1-2.7l20.9-18.1
        C104.4,75.5,104.7,72.5,103.3,70.4z M26,102.3H13.2V69.8H26V102.3z M99.6,73.9L99.6,73.9L99.6,73.9l-21,18.2c0,0-0.1,0.1-0.1,0.1
        c-0.6,0.8-1.5,1.3-2.5,1.5c-0.4,0-0.7,0.1-1,0.1c-0.2,0-0.5,0.1-0.6,0.1c-0.1,0-0.2,0-0.4,0L56.2,97c-2.6,0.5-5.3,0.7-7.9,0.7H30.4
        V73.9c0,0,0.1,0,0.1-0.1c2.5-2.2,10.6-7.7,14.2-4.6l0.1,0c2.8,2.3,6.4,3.6,10,3.6h5.4c2.9,0,5.5,1.5,6.9,4c0.6,1,0.6,1.5,0.6,1.6
        c-0.2,0.4-1.5,0.7-3,0.8c-0.6,0-1.1,0-1.6,0H50.8c-1.2,0-2.2,1-2.2,2.2s1,2.2,2.2,2.2H63c0.6,0,1.2,0,1.8,0l0.6,0
        c6.6,0.1,12.8,0.1,16.1-1.9c0,0,0.1-0.1,0.1-0.1l11.9-8.1c2.9-1.7,4.2-2.1,4.8-2c0.2,0,0.5,0,1.3,1.3
        C99.8,73.2,99.8,73.6,99.6,73.9z"/>
    <path class="st0" d="M68.3,66.2c1.1,1,2.9,1,4,0C82.6,57,91.2,50.1,96.7,43.4c4.6-5.7,6.8-11,6.8-16.7c0-10.9-7.5-20-18.1-20
        c-6.6,0-11.7,3.7-15.1,9.3c-3.4-5.5-8.5-9.3-15.1-9.3c-10.6,0-18.1,9.1-18.1,20c0,5.7,2.2,11,6.8,16.7C49.4,50.1,58,57,68.3,66.2z
         M55.2,12.7c3.7,0,6.8,1.8,9.3,5.4c2,2.9,2.9,5.9,2.9,6c0.4,1.3,1.5,2.2,2.9,2.2c1.4,0,2.6-0.9,2.9-2.2c0-0.1,3.1-11.3,12.2-11.3
        c6.9,0,12.1,6,12.1,14c0,10.8-10.5,18.5-27.2,33.3C53.7,45.1,43.2,37.5,43.2,26.7C43.2,18.7,48.3,12.7,55.2,12.7z"/>
</g>
</svg>
