<svg xmlns="http://www.w3.org/2000/svg" width="24.083" height="21.908" viewBox="0 0 24.083 21.908">
  <g id="Group_1614" data-name="Group 1614" transform="translate(0.876 0.88)">
    <path id="Path_2085" data-name="Path 2085" d="M136.707,48.951c-2,1.729-2.383,3.561-.4,5.28l7.977,6.9c1.552,1.343,2.887,3,6.39,3h4.787a2.123,2.123,0,0,0,1.868-2.037c0-3.751-6.424-2.858-6.424-7.569,0-3.874,1.127-5.425-.577-6.9,0,0-3.742.989-5.406-.451a3.264,3.264,0,0,1-1.014-2.15c-.143-1.244-1.464-1.007-1.464-1.007Z" transform="translate(-135 -44)" fill="none" stroke="#4c4c4c" stroke-linecap="round" stroke-linejoin="round" stroke-width="1.75"/>
    <path id="Path_2086" data-name="Path 2086" d="M136.674,56.368c1.622,1.6,7.365,7.254,8.934,8.778,1.61,1.564,3.609,3.792,5.088,3.792H157.3a2.882,2.882,0,0,1,.027.383,2.107,2.107,0,0,1-1.868,2.012h-4.787c-3.5,0-4.838-1.635-6.39-2.962l-7.977-6.818C134.335,59.866,134.705,58.067,136.674,56.368Z" transform="translate(-135 -51.201)" fill="none" stroke="#4c4c4c" stroke-linecap="round" stroke-linejoin="round" stroke-width="1.75"/>
    <rect id="Rectangle_1389" data-name="Rectangle 1389" width="2.516" height="0.042" transform="translate(13.298 10.505)" fill="none" stroke="#4c4c4c" stroke-linecap="round" stroke-linejoin="round" stroke-width="1.75"/>
    <rect id="Rectangle_1390" data-name="Rectangle 1390" width="2.605" height="0.042" transform="translate(13.306 8.484)" fill="none" stroke="#4c4c4c" stroke-linecap="round" stroke-linejoin="round" stroke-width="1.75"/>
    <rect id="Rectangle_1391" data-name="Rectangle 1391" width="2.806" height="0.042" transform="translate(13.324 6.463)" fill="none" stroke="#4c4c4c" stroke-linecap="round" stroke-linejoin="round" stroke-width="1.75"/>
    <path id="Path_2087" data-name="Path 2087" d="M171.5,52.926l2.435-2.418c1.441,1.978.675,4.845.386,5.73l-2.849-3.282Z" transform="translate(-169.968 -47.789)" fill="none" stroke="#4c4c4c" stroke-linecap="round" stroke-linejoin="round" stroke-width="1.75"/>
    <g id="Group_1613" data-name="Group 1613" transform="translate(0 15.099)">
      <rect id="Rectangle_1392" data-name="Rectangle 1392" width="7.52" height="0.042" transform="translate(0 5.013)" fill="none" stroke="#4c4c4c" stroke-linecap="round" stroke-linejoin="round" stroke-width="1.75"/>
      <rect id="Rectangle_1393" data-name="Rectangle 1393" width="4.178" height="0.042" transform="translate(0 2.507)" fill="none" stroke="#4c4c4c" stroke-linecap="round" stroke-linejoin="round" stroke-width="1.75"/>
      <rect id="Rectangle_1394" data-name="Rectangle 1394" width="1.671" height="0.042" transform="translate(0 0)" fill="none" stroke="#4c4c4c" stroke-linecap="round" stroke-linejoin="round" stroke-width="1.75"/>
    </g>
  </g>
</svg>
