<svg id="Group_1458" data-name="Group 1458" xmlns="http://www.w3.org/2000/svg" xmlns:xlink="http://www.w3.org/1999/xlink" width="18.021" height="18.021" viewBox="0 0 18.021 18.021">
  <defs>
    <clipPath id="clip-path">
      <path id="Path_2049" data-name="Path 2049" d="M3006.274,1007a7.264,7.264,0,1,1-7.264-7.264A7.264,7.264,0,0,1,3006.274,1007Zm1.747,0a9.01,9.01,0,1,1-9.01-9.01A9.02,9.02,0,0,1,3008.021,1007Zm-.838,0a8.172,8.172,0,1,0-8.172,8.172A8.181,8.181,0,0,0,3007.183,1007Z" transform="translate(-2990 -997.988)" fill="none"/>
    </clipPath>
  </defs>
  <g id="Group_1455" data-name="Group 1455">
    <g id="Group_1452" data-name="Group 1452">
      <circle id="Ellipse_243" data-name="Ellipse 243" cx="7.264" cy="7.264" r="7.264" transform="translate(1.746 1.747)" fill="#f4c547"/>
      <path id="Path_2048" data-name="Path 2048" d="M2999.011,997.988a9.011,9.011,0,1,0,9.01,9.01A9.02,9.02,0,0,0,2999.011,997.988Zm0,17.183a8.172,8.172,0,1,1,8.172-8.172A8.181,8.181,0,0,1,2999.011,1015.171Z" transform="translate(-2990 -997.988)" fill="#f4c547"/>
    </g>
    <g id="Group_1454" data-name="Group 1454">
      <g id="Group_1453" data-name="Group 1453" clip-path="url(#clip-path)">
        <rect id="Rectangle_1188" data-name="Rectangle 1188" width="19.059" height="10.863" transform="translate(3.912 16.837) rotate(-60)" fill="#efb82b"/>
      </g>
    </g>
  </g>
  <g id="Group_1457" data-name="Group 1457" transform="translate(6.284 3.882)">
    <g id="Group_1456" data-name="Group 1456">
      <path id="Path_2050" data-name="Path 2050" d="M3007.366,1006.66v1.12a2.94,2.94,0,0,1,1.685.709l-.743,1.186a1.827,1.827,0,0,0-1.208-.521,1.03,1.03,0,0,0-.7.211.646.646,0,0,0-.222.465.53.53,0,0,0,.211.432,3.082,3.082,0,0,0,.742.366l.621.266a3.314,3.314,0,0,1,1.042.632,1.864,1.864,0,0,1,.521,1.363,2.4,2.4,0,0,1-.61,1.652,2.334,2.334,0,0,1-1.341.687v1.264h-1v-1.219a3.082,3.082,0,0,1-1.331-.366,3.694,3.694,0,0,1-1-.754l.82-1.219a3.911,3.911,0,0,0,.72.576,1.892,1.892,0,0,0,1.031.3,1.118,1.118,0,0,0,.743-.233.711.711,0,0,0,.266-.565.688.688,0,0,0-.333-.6,3.847,3.847,0,0,0-.765-.333l-.388-.155a3.193,3.193,0,0,1-1.12-.676,1.621,1.621,0,0,1-.5-1.219,2.331,2.331,0,0,1,.632-1.641,2.278,2.278,0,0,1,1.219-.61v-1.12Z" transform="translate(-3004.04 -1006.66)" fill="#4c4c4c"/>
    </g>
  </g>
</svg>
