<svg xmlns="http://www.w3.org/2000/svg" viewBox="0 0 275.42 60.98"><defs><style>.a{fill:#4d4c4d;}.b{fill:#6cb33f;}</style></defs><title>NS-logo</title><polygon class="a" points="0 54.23 0 13.96 0.11 13.96 24.93 41.02 24.93 14.85 30.47 14.85 30.47 54.45 30.35 54.45 5.53 27.38 5.53 54.23 0 54.23"/><path class="a" d="M98.87,52.24V81.46H93.58V77.23h-.12c-1.75,2.93-5.19,4.23-8.58,4.23-5.8,0-11.22-2.76-11.22-9.59V52.24h5.43V71.08c0,4.23,3,5.59,6.3,5.59,4.29,0,8.07-2.59,8.07-8.74V52.24Z" transform="translate(-38.78 -27.01)"/><path class="a" d="M118.68,57h-7.62V71.92c0,3.62,1.13,4.74,5.08,4.74,1.25,0,2.43-.23,3.61-.34l-1,4.91a32.19,32.19,0,0,1-4.34.22,8.49,8.49,0,0,1-8.8-8.74V57h-4.45l1.92-4.8h2.53V45l5.42-1.29v8.51h7.62Z" transform="translate(-38.78 -27.01)"/><path class="a" d="M123,81.46V52.24h5.07v5h.11c1.64-3.61,4.4-6.26,8.8-6.26h2.7l-2.25,5.41c-4.85-.28-9,3.27-9,10.66V81.46Z" transform="translate(-38.78 -27.01)"/><rect class="a" x="105.77" y="25.23" width="5.41" height="29.22"/><path class="a" d="M212.29,81.46c5.45,0,9.82-2.73,9.83-8.63,0-3.93-2-5.64-4.57-6.75s-5.73-1.48-7.9-2.62a4.12,4.12,0,0,1-2.47-3.87A4.65,4.65,0,0,1,209,55.67a7.17,7.17,0,0,1,4.33-1.27,11.23,11.23,0,0,1,6.71,2.6l1.55-2.21c-2.6-1.88-4.81-3.2-8.09-3.21-4.76,0-9.09,3-9.1,8.17,0,3.7,2,5.36,4.56,6.49s5.74,1.59,7.91,2.81A4.27,4.27,0,0,1,219.37,73a5.25,5.25,0,0,1-1.9,4.25,7.07,7.07,0,0,1-4.45,1.4,9.43,9.43,0,0,1-7.12-3.08l-2.1,1.8a11.24,11.24,0,0,0,8.48,4.1" transform="translate(-38.78 -27.01)"/><path class="a" d="M164.56,81.46c5.46,0,9.83-2.73,9.83-8.63,0-3.93-2-5.64-4.57-6.75s-5.72-1.48-7.89-2.62a4.14,4.14,0,0,1-2.48-3.87,4.68,4.68,0,0,1,1.86-3.91,7.15,7.15,0,0,1,4.33-1.27,11.24,11.24,0,0,1,6.71,2.6l1.56-2.21c-2.62-1.88-4.82-3.2-8.1-3.21-4.75,0-9.09,3-9.11,8.17,0,3.7,2,5.36,4.57,6.49S167,67.83,169.18,69A4.31,4.31,0,0,1,171.65,73a5.27,5.27,0,0,1-1.9,4.25,7.06,7.06,0,0,1-4.46,1.4,9.44,9.44,0,0,1-7.11-3.08l-2.1,1.8a11.26,11.26,0,0,0,8.48,4.1" transform="translate(-38.78 -27.01)"/><path class="a" d="M224.63,55.09h3.71V73.23c0,5.1,2.72,8,7.8,8a14.8,14.8,0,0,0,2.67-.3V78.33c-.82.08-1.59.08-2.38.08a5.76,5.76,0,0,1-4.08-1.17,5.2,5.2,0,0,1-1.27-4V55.09h7.67V52.27h-7.67V43.5l-2.74,1.55v7.22h-3Z" transform="translate(-38.78 -27.01)"/><polygon class="a" points="149.69 48.99 144.18 60.98 147.08 60.98 164.03 25.27 161.03 25.27 151.27 46.06 140.14 25.27 137.15 25.27 149.69 48.99"/><path class="a" d="M264,77c-2.65,2.87-7.23,4.43-11.44,4.43-8.48,0-13.85-6.86-13.85-15s5.5-14.84,13.85-14.84c8.65,0,13.78,6.93,13.72,15.15h-24.8c-.18,7.23,4.83,12.05,11.44,12.05,4.45,0,9-2.09,11-5.92m-.45-8.74a11.06,11.06,0,0,0-22,0Z" transform="translate(-38.78 -27.01)"/><path class="a" d="M300.73,52.28a9.5,9.5,0,0,0-3.74-.73c-.29,0-.56,0-.83,0a9,9,0,0,0-5.2,2.09l-.2.17-.13.11a11.29,11.29,0,0,0-2.17,2.59l0,0a8.34,8.34,0,0,0-3.49-3.94A6.89,6.89,0,0,0,283.6,52a9.15,9.15,0,0,0-3-.49c-5.35,0-7.9,4.39-8.39,5.35V51.64l-2.73.58v29h2.73V63a10.17,10.17,0,0,1,1.91-6.51A7.18,7.18,0,0,1,280,54a6,6,0,0,1,4.48,1.82,6.62,6.62,0,0,1,1.77,4.7V81.23H289V63a10.22,10.22,0,0,1,1.9-6.51,7.12,7.12,0,0,1,5.84-2.48h0a6,6,0,0,1,4.49,1.81,6.68,6.68,0,0,1,1.75,4.7V81.23h2.75V59.87c0-4.1-2-6.5-5-7.59" transform="translate(-38.78 -27.01)"/><path class="b" d="M161.86,27s-9.75.94-14.37,7.43a14.65,14.65,0,0,0-2.25,12.37,36.27,36.27,0,0,1,14-16.58c-8.36,7.26-10.94,15.07-11.58,17.54a15.31,15.31,0,0,0,10.9-5.07c5.56-6.24,3.27-15.7,3.27-15.7" transform="translate(-38.78 -27.01)"/><path class="a" d="M309.83,43.73A4.31,4.31,0,1,1,305.38,48a4.33,4.33,0,0,1,4.43-4.29Zm-.06.86a3.43,3.43,0,0,0,.06,6.86A3.28,3.28,0,0,0,313.11,48a3.32,3.32,0,0,0-3.3-3.43Zm-.65,5.65h-1V46a8,8,0,0,1,1.64-.16,2.42,2.42,0,0,1,1.49.34,1.18,1.18,0,0,1,.42.91,1.1,1.1,0,0,1-.89,1v.06c.42.13.65.47.78,1a2.77,2.77,0,0,0,.32,1h-1.07a3.27,3.27,0,0,1-.34-1c-.08-.47-.34-.68-.89-.68h-.47Zm0-2.41h.47c.55,0,1-.18,1-.63s-.29-.65-.92-.65a2.15,2.15,0,0,0-.55.06Z" transform="translate(-38.78 -27.01)"/></svg>
