<?xml version="1.0" encoding="UTF-8" standalone="no"?>
<!-- Created with Keyshape -->
<svg xmlns="http://www.w3.org/2000/svg" viewBox="0 0 190 150">
    <defs>
        <clipPath id="clip-path">
            <ellipse id="Ellipse_3" data-name="Ellipse 3" fill="#f1f1f1" rx="43" ry="43" transform="translate(116.53,2004.53) translate(43,43)"/>
        </clipPath>
    </defs>
    <g id="Mask_Group_20" data-name="Mask Group 20" clip-path="url(#clip-path)" transform="translate(95,75) scale(1.46287,1.46287) translate(-159.53,-2047.53)">
        <ellipse id="Ellipse_11" data-name="Ellipse 11" fill="#fff5e4" rx="43" ry="43" transform="translate(116.53,2004.53) translate(43,43)"/>
    </g>
    <g id="Layer_2" data-name="Layer 2" transform="translate(87,82) scale(0.83904,0.83904) translate(-59.65,-67.74)">
        <g id="Layer_1-2" data-name="Layer 1" transform="translate(59.65,67.74) translate(-59.65,-67.74)">
            <g id="App" transform="translate(59.65,67.74) translate(-59.65,-67.74)">
                <g id="Fill" transform="translate(59.16,67.74) translate(-59.16,-67.74)">
                    <rect class="cls-1" width="70.49" height="109.04" fill="#fff" transform="translate(67.585,64.43) scale(0.996139,1) translate(-35.245,-54.52)"/>
                    <path class="cls-1" d="M111.8,61.48C113.43,63.48,116.16,67.17,116.16,69.94C116.16,71.75,114.16,74.76,111.62,77.65C110.305,79.1312,108.877,80.5086,107.35,81.77C107.35,81.77,107.35,81.77,107.35,81.77C106.024,82.9334,104.564,83.9339,103,84.75C102.314,85.1058,101.561,85.3136,100.79,85.36C98.59,85.36,96.39,85.12,96.39,80.95C96.39,78.22,100.18,73.38,102.8,70.38C106.26,67.9182,109.3,64.9127,111.8,61.48Z" fill="#fff5e4" transform="translate(106.275,73.42) translate(-106.275,-73.42)"/>
                    <path class="cls-1" d="M111.62,77.65C113.25,79.59,116.16,84.79,116.16,87.56C116.16,91.84,109.55,98.56,105.16,98.56C104.419,98.5952,103.676,98.5142,102.96,98.32C101.7,97.92,100.75,96.86,100.75,94.15C100.75,92.83,101.75,90.56,102.96,88.25C104.201,85.9589,105.668,83.7981,107.34,81.8C107.34,81.8,107.34,81.8,107.34,81.8C108.872,80.5294,110.303,79.1419,111.62,77.65Z" fill="#fff5e4" transform="translate(108.455,88.109) translate(-108.455,-88.109)"/>
                    <path class="cls-1" d="M107.35,32.49C112.35,32.49,113.96,36.76,113.96,39.37C113.96,42.45,111.18,45.42,108.43,46.9C107.432,47.4905,106.307,47.8334,105.15,47.9C104.367,47.9255,103.597,47.7014,102.95,47.26C101.38,46.26,100.74,43.98,100.74,41.26C100.835,39.0756,101.616,36.9765,102.97,35.26C104.13,33.66,105.72,32.49,107.35,32.49Z" fill="#fff5e4" transform="translate(107.35,40.196) translate(-107.35,-40.196)"/>
                    <path class="cls-1" d="M113.85,56.72C113.85,57.91,113.01,59.61,111.69,61.48C109.171,64.917,106.111,67.9227,102.63,70.38C101.409,71.3263,99.9605,71.9334,98.43,72.14C96.22,72.14,94.02,71.9,94.02,67.74C94.02,63.58,102.83,54.52,102.83,54.52L102.83,47.27C103.477,47.7114,104.247,47.9355,105.03,47.91C106.191,47.8449,107.319,47.502,108.32,46.91C108.32,46.91,113.85,52.78,113.85,56.72Z" fill="#fff5e4" transform="translate(103.935,59.525) translate(-103.935,-59.525)"/>
                    <path class="cls-2" d="M102.83,114L102.83,120.61C102.825,123.038,100.858,125.005,98.43,125.01L36.75,125.01C34.3206,125.005,32.351,123.039,32.34,120.61L32.34,114L102.83,114Z" fill="#fff5e4" transform="translate(67.585,119.505) translate(-67.585,-119.505)"/>
                    <path class="cls-2" d="M102.83,6.06L102.83,14.87L32.34,14.87L32.34,6.06C32.3455,3.62671,34.3167,1.6555,36.75,1.65L98.43,1.65C100.859,1.66099,102.825,3.63059,102.83,6.06Z" fill="#fff5e4" transform="translate(67.585,8.26) translate(-67.585,-8.26)"/>
                    <path id="_a0" class="cls-2" d="M87.53,54.52L63.29,78.75L47.87,63.33L54.48,56.72L63.29,65.53L80.92,47.91L87.53,54.52Z" fill="#ffffff" opacity="1" transform="translate(67.7,63.33) translate(-67.7,-63.33)"/>
                    <path class="cls-1" d="M37.41,125C34.9806,124.995,33.011,123.029,33,120.6L33,51.72L10.31,70C10.31,81,10.68,108.93,10.68,118.55C9.14,125.18,2.16,133.83,2.16,133.83L63.84,133.83C63.84,133.83,72.35,129.43,77.06,125.02Z" fill="#fff" opacity="0" transform="translate(39.61,92.775) translate(-39.61,-92.775)"/>
                </g>
                <g id="Hand" transform="translate(59.65,83.17) translate(-59.65,-83.17)">
                    <path class="cls-3" d="M105.15,49.56C104.033,49.5848,102.937,49.2634,102.01,48.64C100.1,47.36,99.09,44.82,99.09,41.3C99.1758,38.7552,100.069,36.3037,101.64,34.3C103.24,32.11,105.32,30.86,107.35,30.86C113.35,30.86,115.61,36.09,115.61,39.39C115.61,43.23,112.4,46.67,109.21,48.39C107.97,49.0999,106.578,49.5012,105.15,49.56ZM107.35,34.14C106.09,34.3645,104.992,35.1327,104.35,36.24L104.35,36.24C103.225,37.6742,102.569,39.4199,102.47,41.24C102.47,43.55,103.01,45.24,103.94,45.84L103.94,45.84C104.31,46.0835,104.748,46.2026,105.19,46.18C106.071,46.103,106.922,45.826,107.68,45.37C110,44.12,112.35,41.64,112.35,39.29C112.31,39.31,112.25,34.14,107.35,34.14ZM103,35.25Z" fill="#29353a" transform="translate(107.35,40.2107) translate(-107.35,-40.2107)"/>
                    <path class="cls-3" d="M98.43,73.8C96.61,73.8,92.37,73.8,92.37,67.74C92.37,63.49,98.94,56.21,101.18,53.86L101.18,47.34C101.169,46.4917,101.782,45.7639,102.62,45.63C103.091,45.5696,103.565,45.7149,103.921,46.029C104.277,46.343,104.481,46.7952,104.48,47.27L104.48,54.52C104.483,54.9487,104.318,55.3615,104.02,55.67C100.55,59.23,95.67,65.33,95.67,67.74C95.67,70.49,96.53,70.49,98.43,70.49C98.67,70.49,99.63,70.38,101.72,69C105.032,66.6566,107.943,63.793,110.34,60.52C112.06,58.09,112.19,57,112.19,56.72C112.19,54.35,109.11,50.17,107.19,48.06C106.614,47.4538,106.571,46.516,107.09,45.86C107.388,45.4885,107.833,45.265,108.309,45.2477C108.786,45.2305,109.246,45.4211,109.57,45.77C110.18,46.42,115.57,52.25,115.57,56.72C115.57,58.22,114.76,60.09,113.1,62.44C110.47,66.0407,107.268,69.1858,103.62,71.75C101.47,73.13,99.8,73.8,98.43,73.8Z" fill="#29353a" transform="translate(103.97,59.5233) translate(-103.97,-59.5233)"/>
                    <path class="cls-3" d="M107.35,83.42C106.855,83.4236,106.384,83.2031,106.07,82.82C105.498,82.1106,105.601,81.0739,106.3,80.49C107.761,79.2816,109.128,77.9645,110.39,76.55C113.24,73.36,114.51,70.93,114.51,69.94C114.51,68.3,113.02,65.53,110.51,62.54C109.927,61.8386,110.024,60.7977,110.725,60.215C111.426,59.6323,112.467,59.7286,113.05,60.43C115.21,63.03,117.79,66.79,117.79,69.94C117.79,71.16,117.15,73.94,112.79,78.75C111.415,80.2944,109.924,81.7319,108.33,83.05C108.052,83.2759,107.708,83.4057,107.35,83.42Z" fill="#29353a" transform="translate(111.745,71.627) translate(-111.745,-71.627)"/>
                    <path class="cls-3" d="M105.15,100.23C104.228,100.267,103.306,100.155,102.42,99.9C100.22,99.21,99.09,97.28,99.09,94.17C99.09,92.67,99.9,90.42,101.49,87.48C102.782,85.1395,104.292,82.9263,106,80.87C106.067,80.7752,106.141,80.685,106.22,80.6C106.87,79.9622,107.91,79.9622,108.56,80.6C109.066,81.107,109.187,81.8827,108.86,82.52C108.796,82.6613,108.712,82.7926,108.61,82.91C107.014,84.8182,105.614,86.8819,104.43,89.07C102.96,91.78,102.43,93.48,102.43,94.17C102.43,96.43,103.14,96.65,103.43,96.76C103.989,96.8972,104.565,96.9544,105.14,96.93C108.55,96.93,114.5,90.93,114.5,87.56C114.5,85.44,111.95,80.62,110.35,78.71C109.765,78.0114,109.856,76.9704,110.555,76.385C111.254,75.7996,112.295,75.8914,112.88,76.59C114.6,78.59,117.8,84.2,117.8,87.59C117.8,90.04,116.18,93.13,113.47,95.87C110.76,98.61,107.64,100.23,105.15,100.23Z" fill="#29353a" transform="translate(108.445,88.1182) translate(-108.445,-88.1182)"/>
                    <path class="cls-3" d="M100.74,87C98.93,87,94.68,87,94.68,80.94C94.68,78.38,96.98,74.46,101.5,69.28C102.105,68.5896,103.155,68.5202,103.845,69.125C104.535,69.7298,104.605,70.7796,104,71.47C99.58,76.53,98,79.69,98,80.95C98,83.71,98.86,83.71,100.75,83.71C101.276,83.661,101.787,83.5044,102.25,83.25C103.687,82.5105,105.03,81.6006,106.25,80.54C106.954,79.9601,107.995,80.0608,108.575,80.765C109.155,81.4692,109.054,82.5101,108.35,83.09C106.906,84.327,105.318,85.3847,103.62,86.24C102.727,86.7009,101.744,86.9603,100.74,87Z" fill="#29353a" transform="translate(101.816,77.8566) translate(-101.816,-77.8566)"/>
                    <path class="cls-3" d="M63.3,135.48C62.5438,135.471,61.8893,134.952,61.7081,134.218C61.5269,133.484,61.8648,132.72,62.53,132.36C62.62,132.31,70.89,128,75.38,123.8C75.8025,123.344,76.4446,123.162,77.0438,123.328C77.6429,123.495,78.0985,123.983,78.2241,124.592C78.3497,125.201,78.1243,125.83,77.64,126.22C72.81,130.73,64.41,135.11,64.05,135.29C63.8196,135.415,63.5619,135.48,63.3,135.48Z" fill="#29353a" transform="translate(69.959,129.374) translate(-69.959,-129.374)"/>
                    <path id="thumb" class="cls-4" d="M1.5,133.82C1.5,133.82,10.31,122.9,10.31,116.2L10.31,74.35" stroke-width="3px" stroke-linecap="round" stroke="#29353a" stroke-miterlimit="10" fill="none" transform="translate(5.905,104.085) translate(-5.905,-104.085)"/>
                </g>
                <path id="thumb-2" data-name="thumb" class="cls-5" d="M10.31,74.35C10.31,69.08,19.14,46.77,20.99,42.14C21.212,41.5889,21.519,41.076,21.9,40.62C23.51,38.73,32.34,29.08,32.34,29.08C35.29,26.08,37.94,23.71,38.95,23.71C41.7,23.71,43.35,26.6,43.35,32.52C43.35,36.52,32.35,52.35,32.35,52.35" stroke-width="3px" stroke-linecap="round" stroke="#29353a" stroke-miterlimit="10" fill="#fff5e4" transform="translate(10.31,74.35) translate(-10.31,-74.35)"/>
                <path class="cls-3" d="M104.35,24.62C102.92,26.07,101.18,25.08,101.18,23.68L101.18,4.09C101.18,3.88048,101.097,3.67954,100.949,3.53139C100.8,3.38323,100.6,3.3,100.39,3.3L34.78,3.3C34.3437,3.3,33.99,3.6537,33.99,4.09L33.99,19.87C33.9941,19.9962,33.9472,20.1187,33.86,20.21C32.42,21.67,30.69,20.67,30.69,19.27L30.69,1.73C30.69,0.774547,31.4645,0,32.42,0L102.75,0C103.209,0,103.649,0.182267,103.973,0.506705C104.298,0.831143,104.48,1.27118,104.48,1.73L104.48,24.28C104.484,24.4062,104.437,24.5287,104.35,24.62Z" fill="#29353a" transform="translate(67.5851,12.6664) translate(-67.5851,-12.6664)"/>
                <path class="cls-3" d="M102.75,126.66L32.42,126.66C31.9604,126.663,31.5188,126.481,31.1937,126.156C30.8687,125.831,30.6873,125.39,30.69,124.93L30.69,51.72C30.6859,51.5938,30.7328,51.4713,30.82,51.38C32.25,49.93,33.99,50.92,33.99,52.32L33.99,122.57C33.99,122.78,34.0732,122.98,34.2214,123.129C34.3695,123.277,34.5705,123.36,34.78,123.36L100.39,123.36C100.6,123.36,100.8,123.277,100.949,123.129C101.097,122.98,101.18,122.78,101.18,122.57L101.18,106.79C101.177,106.664,101.224,106.542,101.31,106.45C102.75,105,104.48,105.99,104.48,107.39L104.48,124.93C104.483,125.39,104.301,125.831,103.976,126.156C103.651,126.481,103.21,126.663,102.75,126.66Z" fill="#29353a" transform="translate(67.5849,88.6636) translate(-67.5849,-88.6636)"/>
                <path class="cls-3" d="M103,16.52L32.45,16.52C31.8605,16.52,31.3158,16.2055,31.0211,15.695C30.7263,15.1845,30.7263,14.5555,31.0211,14.045C31.3158,13.5345,31.8605,13.22,32.45,13.22L103,13.22C103.911,13.22,104.65,13.9587,104.65,14.87C104.65,15.7813,103.911,16.52,103,16.52Z" fill="#29353a" transform="translate(67.725,14.87) translate(-67.725,-14.87)"/>
                <path class="cls-3" d="M65.5,9.91L56.69,9.91C56.1005,9.91,55.5558,9.59551,55.2611,9.085C54.9663,8.57449,54.9663,7.94551,55.2611,7.435C55.5558,6.92449,56.1005,6.61,56.69,6.61L65.5,6.61C66.0895,6.61,66.6342,6.92449,66.9289,7.435C67.2237,7.94551,67.2237,8.57449,66.9289,9.085C66.6342,9.59551,66.0895,9.91,65.5,9.91Z" fill="#29353a" transform="translate(61.095,8.26) translate(-61.095,-8.26)"/>
                <path class="cls-3" d="M76.51,9.91L74.31,9.91C73.3987,9.91,72.66,9.17127,72.66,8.26C72.66,7.34873,73.3987,6.61,74.31,6.61L76.51,6.61C77.4213,6.61,78.16,7.34873,78.16,8.26C78.16,9.17127,77.4213,9.91,76.51,9.91Z" fill="#29353a" transform="translate(75.41,8.26) translate(-75.41,-8.26)"/>
                <path class="cls-3" d="M101.996,115.65L41.2439,115.65C40.6637,115.65,40.1276,115.336,39.8376,114.825C39.5475,114.314,39.5475,113.686,39.8376,113.175C40.1276,112.664,40.6637,112.35,41.2439,112.35L101.996,112.35C102.893,112.35,103.62,113.089,103.62,114C103.62,114.911,102.893,115.65,101.996,115.65Z" fill="#29353a" transform="translate(72.135,114) translate(-72.135,-114)"/>
                <path id="_a1" class="cls-3" d="M63.29,80.4C62.855,80.4002,62.4377,80.2275,62.13,79.92L46.71,64.5C46.3986,64.1903,46.2234,63.7692,46.2234,63.33C46.2234,62.8908,46.3986,62.4697,46.71,62.16L53.31,55.56C53.6197,55.2486,54.0408,55.0734,54.48,55.0734C54.9192,55.0734,55.3403,55.2486,55.65,55.56L63.29,63.2L79.75,46.74C80.3996,46.1022,81.4404,46.1022,82.09,46.74L88.69,53.35C89.0014,53.6597,89.1766,54.0808,89.1766,54.52C89.1766,54.9592,89.0014,55.3803,88.69,55.69L64.46,79.92C64.1499,80.23,63.7285,80.4028,63.29,80.4ZM50.21,63.33L63.29,76.42L85.19,54.52L80.92,50.25L64.46,66.7C64.152,67.0108,63.7326,67.1857,63.295,67.1857C62.8574,67.1857,62.438,67.0108,62.13,66.7L54.48,59.06Z" fill="#29353a" opacity="1" stroke="none" transform="translate(67.7,63.3308) translate(-67.7,-63.3308)"/>
                <path id="_a2" class="cls-4" d="M49.14,35.95L52.1,38.91" stroke-width="3px" stroke-linecap="round" stroke="#29353a" stroke-miterlimit="10" fill="none" opacity="1" transform="translate(50.62,37.43) translate(-50.62,-37.43)"/>
                <path id="_a3" class="cls-4" d="M83.08,39.11L86.28,35.91" stroke-width="3px" stroke-linecap="round" stroke="#29353a" stroke-miterlimit="10" fill="none" opacity="1" transform="translate(84.68,37.51) translate(-84.68,-37.51)"/>
                <path id="_a4" class="cls-4" d="M67.59,32.49L67.59,28.1" stroke-width="3px" stroke-linecap="round" stroke="#29353a" stroke-miterlimit="10" fill="none" opacity="1" transform="translate(67.59,30.295) translate(-67.59,-30.295)"/>
                <path id="_a5" class="cls-4" d="M52.14,85.36L48.58,88.92" stroke-width="3px" stroke-linecap="round" stroke="#29353a" stroke-miterlimit="10" fill="none" opacity="1" transform="translate(50.36,87.14) translate(-50.36,-87.14)"/>
                <path id="_a6" class="cls-4" d="M67.7,91.92L67.7,96.13" stroke-width="3px" stroke-linecap="round" stroke="#29353a" stroke-miterlimit="10" fill="none" opacity="1" transform="translate(67.7,94.025) translate(-67.7,-94.025)"/>
                <path id="_a7" class="cls-4" d="M83.24,85.36L86.2,88.32" stroke-width="3px" stroke-linecap="round" stroke="#29353a" stroke-miterlimit="10" fill="none" opacity="1" transform="translate(84.72,86.84) translate(-84.72,-86.84)"/>
            </g>
        </g>
    </g>
    <script><![CDATA[/*
 KeyshapeJS v1.2.0 (c) 2018-2021 Pixofield Ltd | pixofield.com/keyshapejs/mit-license */
window.KeyshapeJS=function(){function r(a){return"undefined"!==typeof a}function x(a,b){return a&&0==a.indexOf(b)}function R(a){var b={},c;for(c in a)b[c]=a[c];return b}function H(a){if(!isFinite(a))throw Error("Non-finite value");}function S(a){if(14>=a)return 16;var b=T[a];b||(b=r(da[a])?0|(a.toLowerCase().indexOf("color")==a.length-5?48:0):1);return b}function K(a){return 0<=a?Math.pow(a,1/3):-Math.pow(-a,1/3)}function ea(a,b,c,d){if(0==a)return 0==b?b=-d/c:(a=Math.sqrt(c*c-4*b*d),d=(-c+a)/(2*
b),0<=d&&1>=d?b=d:(d=(-c-a)/(2*b),b=0<=d&&1>=d?d:0)),b;var e=c/a-b*b/(a*a)/3;c=b*b*b/(a*a*a)/13.5-b*c/(a*a)/3+d/a;var n=c*c/4+e*e*e/27;b=-b/(3*a);if(0>=n){if(0==e&&0==c)return-K(d/a);a=Math.sqrt(c*c/4-n);d=Math.acos(-c/2/a);c=Math.cos(d/3);d=Math.sqrt(3)*Math.sin(d/3);a=K(a);e=2*a*c+b;if(0<=e&&1>=e)return e;e=-a*(c+d)+b;if(0<=e&&1>=e)return e;e=a*(d-c)+b;if(0<=e&&1>=e)return e}else{a=K(-c/2+Math.sqrt(n));c=K(-c/2-Math.sqrt(n));d=a+c+b;if(0<=d&&1>=d)return d;d=-(a+c)/2+b;if(0<=d&&1>=d)return d}return 0}
function fa(a,b){if(48==a&&"number"===typeof b)return"rgba("+(b>>>24)+","+(b>>>16&255)+","+(b>>>8&255)+","+(b&255)/255+")";if(64==a)return b=b.map(function(a){return a+"px"}),b.join(",");if(96==a){a="";for(var c=b.length,d=0;d<c;d+=2)a+=b[d],a+=b[d+1].join(",");return a}if(80==a){if(0==b[0])return"none";a="";c=b.length;for(d=0;d<c;)a+=U[b[d]],1==b[d]?a+="("+b[d+1]+") ":5==b[d]?(a+="("+b[d+1]+"px "+b[d+2]+"px "+b[d+3]+"px rgba("+(b[d+4]>>>24)+","+(b[d+4]>>16&255)+","+(b[d+4]>>8&255)+","+(b[d+4]&255)/
255+")) ",d+=3):a=2==b[d]?a+("("+b[d+1]+"px) "):7==b[d]?a+("("+b[d+1]+"deg) "):a+("("+(0>b[d+1]?0:b[d+1])+") "),d+=2;return a}return 32==a?b+"px":b}function y(a){return 0>=a?0:255<=a?255:a}function ha(a,b,c,d){if(16==a||32==a)return(c-b)*d+b;if(0==a)return.5>d?b:c;if(112==a)return 0>=d?b:1<=d?c:"visible";if(48==a){if("number"===typeof b&&"number"===typeof c){var e=1-d;return(y(e*(b>>>24)+d*(c>>>24))<<24|y(e*(b>>>16&255)+d*(c>>>16&255))<<16|y(e*(b>>>8&255)+d*(c>>>8&255))<<8|y(e*(b&255)+d*(c&255)))>>>
0}return.5>d?b:c}if(64==a){0==b.length&&(b=[0]);0==c.length&&(c=[0]);var n=b.length;b.length!=c.length&&(n=b.length*c.length);var q=[];for(a=0;a<n;++a){var g=b[a%b.length];var h=(c[a%c.length]-g)*d+g;0>h&&(h=0);q.push(h)}return q}if(96==a){if(b.length!=c.length)return.5>d?b:c;n=b.length;q=[];for(a=0;a<n;a+=2){if(b[a]!==c[a])return.5>d?b:c;q[a]=b[a];q[a+1]=[];for(g=0;g<b[a+1].length;++g)q[a+1].push((c[a+1][g]-b[a+1][g])*d+b[a+1][g])}return q}if(80==a){n=b.length;if(n!=c.length)return.5>d?b:c;q=[];
for(a=0;a<n;){if(b[a]!=c[a]||1==b[a])return.5>d?b:c;q[a]=b[a];q[a+1]=(c[a+1]-b[a+1])*d+b[a+1];if(5==b[a]){q[a+2]=(c[a+2]-b[a+2])*d+b[a+2];q[a+3]=(c[a+3]-b[a+3])*d+b[a+3];e=1-d;var f=b[a+4],l=c[a+4];h=e*(f>>>24)+d*(l>>>24);var m=e*(f>>16&255)+d*(l>>16&255);g=e*(f>>8&255)+d*(l>>8&255);e=e*(f&255)+d*(l&255);q[a+4]=(y(m)<<16|y(g)<<8|y(e))+16777216*(y(h)|0);a+=3}a+=2}return q}return 0}function V(a,b){a:{var c=a+b[2];var d=b[4].length;for(var e=0;e<d;++e)if(c<b[4][e]){c=e;break a}c=d-1}d=b[2];e=b[4][c-
1]-d;a=(a-e)/(b[4][c]-d-e);if(b[6]&&b[6].length>c-1)if(d=b[6][c-1],1==d[0])if(0>=a)a=0;else if(1<=a)a=1;else{e=d[1];var n=d[3];a=ea(3*e-3*n+1,-6*e+3*n,3*e,-a);a=3*a*(1-a)*(1-a)*d[2]+3*a*a*(1-a)*d[4]+a*a*a}else 2==d[0]?(d=d[1],a=Math.ceil(a*d)/d):3==d[0]&&(d=d[1],a=Math.floor(a*d)/d);return ha(b[1]&240,b[5][c-1],b[5][c],a)}function L(){u||(v=(new Date).getTime()+W)}function O(a){if(a||!E){for(var b=!1,c=0;c<w.length;++c)w[c].J(a)&&(b=!0);if(a)for(;0<J.length;)if(a=J.shift(),c=a[0],1==a[1])c.onfinish&&
(c.onfinish(),b=!0),c.I();else if(2==a[1]&&c.onloop)c.onloop();return b}}function X(){L();O(!0)&&!u?(E=!0,M(X)):E=!1}function N(){E||(E=!0,M(X))}function Y(a,b){var c=[];a.split(b).forEach(function(a){c.push(parseFloat(a))});return c}function A(a){-1==a.indexOf(",")&&(a=a.replace(" ",","));return Y(a,",")}function Z(a){a._ks||(a._ks={});if(!a._ks.transform){for(var b=a._ks.transform=[],c=0;14>=c;++c)b[c]=0;b[10]=1;b[11]=1;if(a=a.getAttribute("transform")){a=a.trim().split(") ");for(c=a.length-2;0<=
c;--c)if(x(a[c],"translate(")){for(var d=0;d<c;d++)a.shift();break}c=a.shift();x(c,"translate(")&&(c=A(c.substring(10)),b[1]=c[0],b[2]=r(c[1])?c[1]:0,c=a.shift());x(c,"rotate(")&&(c=A(c.substring(7)),b[6]=c[0],c=a.shift());x(c,"skewX(")&&(c=A(c.substring(6)),b[7]=c[0],c=a.shift());x(c,"skewY(")&&(c=A(c.substring(6)),b[8]=c[0],c=a.shift());x(c,"scale(")&&(c=A(c.substring(6)),b[10]=c[0],b[11]=r(c[1])?c[1]:c[0],c=a.shift());x(c,"translate(")&&(c=A(c.substring(10)),b[13]=c[0],b[14]=r(c[1])?c[1]:0)}}}
function aa(a){this.h=a;this.A=[];this.C=[];this.v=0;this.s=this.a=this.c=null;this.i=this.f=this.g=0;this.b=1;this.j=this.F=this.o=!1}function I(a,b,c){b=a[b];void 0===b&&(b=a[c]);return b}function ia(a){return Array.isArray(a)?a:x(a,"cubic-bezier(")?(a=a.substring(13,a.length-1).split(","),[1,parseFloat(a[0]),parseFloat(a[1]),parseFloat(a[2]),parseFloat(a[3])]):x(a,"steps(")?(a=a.substring(6,a.length-1).split(","),[a[1]&&"start"==a[1].trim()?2:3,parseFloat(a[0])]):[0]}function ja(a){a=a.trim();
return x(a,"#")?(parseInt(a.substring(1),16)<<8)+255:x(a,"rgba(")?(a=a.substring(5,a.length-1),a=a.split(","),(parseInt(a[0],10)<<24)+(parseInt(a[1],10)<<16)+(parseInt(a[2],10)<<8)+255*parseFloat(a[3])<<0):a}function ba(a){!1===a.j&&(w.push(a),a.j=!0,!1!==a.h.autoplay&&a.play());return this}function P(a){if(!0===a.j){a._cancel();var b=w.indexOf(a);-1<b&&w.splice(b,1);b=J.indexOf(a);-1<b&&J.splice(b,1);a.j=!1}return this}var Q=Error("Not in timeline list"),ca="mpath posX posY    rotate skewX skewY  scaleX scaleY  anchorX anchorY".split(" "),
ka=" translate translate    rotate skewX skewY  scale scale  translate translate".split(" "),U="none url blur brightness contrast drop-shadow grayscale hue-rotate invert opacity saturate sepia".split(" "),M=window.requestAnimationFrame||window.webkitRequestAnimationFrame||window.mozRequestAnimationFrame||window.oRequestAnimationFrame||window.msRequestAnimationFrame||null;M||(M=function(a){window.setTimeout(a,16)});var la=/apple/i.test(navigator.vendor),T={d:97,fill:48,fillOpacity:16,filter:80,height:33,
opacity:16,offsetDistance:33,stroke:48,strokeDasharray:64,strokeDashoffset:32,strokeOpacity:16,strokeWidth:32,transform:1,visibility:113,width:33},da=window.getComputedStyle(document.documentElement),E=!1,v=(new Date).getTime(),u,W=0,w=[],J=[];aa.prototype={B:function(a){var b=0;if(null!==this.c){var c=this.l();0<this.b&&null!==c&&c>=this.f?this.i?(this.c=v-this.g/this.b,this.i--,b=2):(b=1,a?this.a=c:this.a=this.s?Math.max(this.s,this.f):this.f):0>this.b&&null!==c&&c<=this.g?this.i&&Infinity!=this.f?
(this.c=v-this.f/this.b,this.i--,b=2):(this.i=0,b=1,a?this.a=c:this.a=this.s?Math.min(this.s,this.g):this.g):null!==c&&0!=this.b&&(a&&null!==this.a&&(this.c=v-this.a/this.b),this.a=null)}this.s=this.l();return b},J:function(a){a&&(this.o&&(this.o=!1,null===this.c&&(0!=this.b&&null!==this.a?(this.c=v-this.a/this.b,this.a=null):this.c=v)),null===this.a&&null!==this.c&&(a=this.B(!1),0!=a&&J.push([this,a])));a=this.l();if(null===a)return!1;for(var b=this.A,c=this.C,d=0;d<b.length;++d){for(var e=b[d],
n=!1,q=0;q<c[d].length;++q){var g=c[d][q],h=g[0];if(null!==h){var f=g[2];var l=g[4].length,m=g[4][l-1]-f;f=0==m?g[5][l-1]:a<f?!g[9]||g[9][0]&1?g[5][0]:g[9][1]:a>=f+g[3]?!g[9]||g[9][0]&2?0==g[3]%m?g[5][l-1]:V(g[3]%m,g):g[9][1]:V((a-f)%m,g);0==h?(e._ks.mpath=g[8],e._ks.transform[h]=f,n=!0):14>=h?(e._ks.transform[h]=f,n=!0):(f=fa(g[1]&240,f),g[1]&1?e.setAttribute(h,f):e.style[h]=f)}}if(n){n=e;Z(n);q=n._ks.transform;g="";if(h=n._ks.mpath)l=q[0],0>l&&(l=0),100<l&&(l=100),l=l*h[2]/100,f=h[1].getPointAtLength(l),
g="translate("+f.x+","+f.y+") ",h[0]&&(.5>l?(l=f,f=h[1].getPointAtLength(.5)):l=h[1].getPointAtLength(l-.5),g+="rotate("+180*Math.atan2(f.y-l.y,f.x-l.x)/Math.PI+") ");for(h=1;h<q.length;++h)f=q[h],f!=(10==h||11==h?1:0)&&(g+=" "+ka[h]+"(",g=2>=h?g+(1==h?f+",0":"0,"+f):13<=h?g+(13==h?f+",0":"0,"+f):10<=h?g+(10==h?f+",1":"1,"+f):g+f,g+=")");n.setAttribute("transform",g)}la&&e.setAttribute("opacity",e.getAttribute("opacity"))}return"running"==this.m()},I:function(){!1!==this.h.autoremove&&"finished"==
this.m()&&P(this)},D:function(){if(!this.F){this.F=!0;for(var a=this.A,b=this.C,c=0;c<a.length;++c)for(var d=a[c],e=0;e<b[c].length;++e)14>=b[c][e][0]&&Z(d)}},u:function(a){if("number"==typeof a)return[a,0];if(!r(this.h.markers)||!r(this.h.markers[a]))throw Error("Invalid marker: "+a);a=this.h.markers[a];return r(a.time)?[+a.time,+(a.dur||0)]:[+a,0]},play:function(a){r(a)&&null!==a&&(a=this.u(a)[0],H(a),0>this.b&&a<this.g&&(a=this.g),0<this.b&&a>this.f&&(a=this.f),this.w(a,!0));if(!this.j)throw Q;
a=this.l();if(0<this.b&&(null===a||a>=this.f||a<this.g))this.a=this.g;else if(0>this.b&&(null===a||a<=this.g||a>this.f)){if(Infinity==this.f)throw Error("Cannot seek to Infinity");this.a=this.f}else 0==this.b&&null===a&&(this.a=this.g);if(null===this.a)return this;this.c=null;this.o=!0;this.D();N();return this},pause:function(a){if(!this.j)throw Q;r(a)&&(a=this.u(a)[0],H(a));if("paused"!=this.m()){L();var b=this.l();if(null===b)if(0<=this.b)this.a=this.g;else{if(Infinity==this.f)throw Error("Cannot seek to Infinity");
this.a=this.f}null!==this.c&&null===this.a&&(this.a=b);this.c=null;this.o=!1;this.B(!1);this.D();N()}r(a)&&this.w(a,!0);return this},range:function(a,b){if(0==arguments.length)return{"in":this.g,out:this.f};var c=this.u(a)[0],d=this.v;r(b)&&(d=this.u(b)[0]);H(c);if(0>c||0>d||c>=d||isNaN(d))throw Error("Invalid range");var e=this.m();this.g=c;this.f=d;"finished"==e&&"running"==this.m()&&this.play();return this},loop:function(a){if(!r(a))return{count:this.i};this.i=!0===a?Infinity:Math.floor(a);if(0>
this.i||isNaN(this.i))this.i=0;return this},l:function(){return null!==this.a?this.a:null===this.c?null:(v-this.c)*this.b},w:function(a,b){b&&L();null!==a&&(this.D(),null!==this.a||null===this.c||0==this.b?(this.a=a,O(!1)):this.c=v-a/this.b,this.j||(this.c=null),this.s=null,this.B(!0),N())},G:function(){return this.l()},time:function(a){if(r(a)){if(!this.j)throw Q;a=this.u(a)[0];H(a);this.w(a,!0);return this}return this.G()},m:function(){var a=this.l();return this.o?"running":null===a?"idle":null===
this.c?"paused":0<this.b&&a>=this.f||0>this.b&&a<=this.g?"finished":"running"},state:function(){return this.m()},duration:function(){return this.v},H:function(a){H(a);L();var b=this.l();this.b=a;null!==b&&this.w(b,!1)},rate:function(a){return r(a)?(this.H(a),this):this.b},markers:function(a){return r(a)?(this.h.markers=R(a),this):r(this.h.markers)?this.h.markers:{}},marker:function(a){return r(this.h.markers)?this.h.markers[a]:void 0},_cancel:function(){if(!this.j||"idle"==this.m())return this;this.c=
this.a=null;this.o=!1;return this}};return{version:"1.2.0",animate:function(){var a={};1==arguments.length%2&&(a=R(arguments[arguments.length-1]));a=new aa(a);for(var b=arguments,c=0,d=0;d<b.length-1;d+=2){var e=b[d];var n=e instanceof Element?e:document.getElementById(e.substring(1));if(!n)throw Error("Invalid target: "+e);e=n;n=b[d+1];e._ks||(e._ks={});for(var q=[],g=0;g<n.length;++g){var h=n[g],f=I(h,"p","property");if("string"!=typeof f||-1!=f.indexOf("-")||""===f||!(0<T[f]||0<=ca.indexOf(f)))throw Error("Invalid property: "+
f);var l=ca.indexOf(f);""!==f&&0<=l&&(f=l);l=S(f);var m=I(h,"t","times");if(!m||2>m.length)throw Error("Not enough times");m=m.slice();if(!isFinite(m[0])||0>m[0])throw Error("Invalid time: "+m[0]);for(var B=1;B<m.length;++B)if(!isFinite(m[B])||0>m[B]||m[B]<m[B-1])throw Error("Invalid time: "+m[B]);B=m[0];var v=m[m.length-1]-B,y=h.iterations||0;1>y&&(y=1);v*=y;c<v+B&&(c=v+B);var u=I(h,"v","values");if(!u||u.length!=m.length)throw Error("Values do not match times");u=u.slice();for(var C=f,k=u,w=S(C)&
240,p=0;p<k.length;++p)if(96==w){for(var G=k[p].substring(6,k[p].length-2).match(/[A-DF-Za-df-z][-+0-9eE., ]*/ig),A=[],t=0;t<G.length;++t){A.push(G[t][0]);for(var z=1<G[t].trim().length?G[t].substring(1).split(","):[],F=0;F<z.length;++F)z[F]=parseFloat(z[F]);A.push(z)}k[p]=A}else if(48==w)x(k[p],"#")?(G=9==k[p].length,k[p]=parseInt(k[p].substring(1),16),G||(k[p]=256*k[p]|255)):x(k[p],"url(")||"none"==k[p]||(console.warn("unsupported color: "+k[p]),k[p]=0);else if(80==w){G=k;A=p;t=k[p];if("none"==
t)t=[0];else{z=[];for(var D=t.indexOf("(");0<D;)if(F=U.indexOf(t.substring(0,D)),0<=F){z.push(F);var E=t.indexOf(") ");0>E&&(E=t.length-1);D=t.substring(D+1,E).split(" ");5==F?(z.push(parseFloat(D[0])),z.push(parseFloat(D[1])),z.push(parseFloat(D[2])),z.push(ja(D[3]))):1==F?z.push(D[0]):z.push(parseFloat(D[0]));t=t.substring(E+1).trim();D=t.indexOf("(")}else break;t=z}G[A]=t}else 64==w?"none"!=k[p]?/^[0-9 .]*$/.test(k[p])?k[p]=Y(k[p]," "):(console.warn("unsupported value: "+k[p]),k[p]=[0]):k[p]=[0]:
32==w?(H(k[p]),k[p]=parseFloat(k[p])):0===C&&(k[p]=parseFloat(k[p]));C=I(h,"e","easing");k=m.length;for(C||(C=[]);C.length<k;)C.push([1,0,0,.58,1]);for(k=0;k<C.length;++k)C[k]=ia(C[k]);l=[f,l,B,v,m,u,C,y];m=I(h,"mp","motionPath");r(m)&&0===f&&(l[8]=[],l[8][0]=h.motionRotate,f=document.createElementNS("http://www.w3.org/2000/svg","path"),m||(m="M0,0"),f.setAttribute("d",m),l[8][1]=f,l[8][2]=f.getTotalLength());h=I(h,"f","fill");r(h)&&(l[9]=h.slice());q.push(l)}0<q.length&&(a.A.push(e),a.C.push(q))}a.v=
c;a.g=0;a.f=a.v;ba(a);return a},add:ba,remove:P,removeAll:function(){for(var a=w.length-1;0<=a;--a)P(w[a]);return this},timelines:function(){return w.slice()},globalPlay:function(){u&&(W=u-(new Date).getTime(),u=void 0,N());return this},globalPause:function(){u||(u=v,O(!1));return this},globalState:function(){return u?"paused":"running"}}}();
]]></script>
    <script><![CDATA[if(KeyshapeJS.version.indexOf('1.')!=0)throw Error('Expected KeyshapeJS v1.*.*');window.ks=document.ks=KeyshapeJS;(function(ks){
var tl=ks.animate("#_a0",[{p:'scaleX',t:[100,200,400,500,600],v:[1,0.75,0.75,1.2,1],e:[[0],[0],[0],[0],[0]]},{p:'scaleY',t:[100,200,400,500,600],v:[1,0.75,0.75,1.2,1],e:[[0],[0],[0],[0],[0]]},{p:'opacity',t:[100,200,400,500],v:[1,0,0,1],e:[[0],[0],[0],[0]]}],
"#thumb-2",[{p:'rotate',t:[100,300,400,500],v:[0,-14.2355,5.15464,0],e:[[0],[0],[0],[0]]},{p:'d',t:[100,200,300,400,500],v:["path('M10.31,74.35C10.31,69.08,19.14,46.77,20.99,42.14C21.212,41.5889,21.519,41.076,21.9,40.62C23.51,38.73,32.34,29.08,32.34,29.08C35.29,26.08,37.94,23.71,38.95,23.71C41.7,23.71,43.35,26.6,43.35,32.52C43.35,36.52,32.35,52.35,32.35,52.35')","path('M10.31,74.35C10.31,69.08,19.14,46.77,20.99,42.14C21.212,41.5889,21.519,41.076,21.9,40.62C23.51,38.73,32.34,29.08,32.34,29.08C35.29,26.08,37.94,23.71,38.95,23.71C41.7,23.71,43.35,26.6,43.35,32.52C43.35,36.52,35.0818,54.6873,35.0818,54.6873')","path('M10.31,74.35C10.31,69.08,19.14,46.77,20.99,42.14C21.212,41.5889,21.519,41.076,21.9,40.62C23.51,38.73,32.34,29.08,32.34,29.08C35.29,26.08,37.94,23.71,38.95,23.71C41.7,23.71,43.35,26.6,43.35,32.52C43.35,36.52,36.7878,58.3862,36.7878,58.3862')","path('M10.31,74.35C10.31,69.08,19.14,46.77,20.99,42.14C21.212,41.5889,21.519,41.076,21.9,40.62C23.51,38.73,32.34,29.08,32.34,29.08C35.29,26.08,37.94,23.71,38.95,23.71C41.7,23.71,43.35,26.6,43.35,32.52C43.35,36.52,30.1631,50.3654,30.1631,50.3654')","path('M10.31,74.35C10.31,69.08,19.14,46.77,20.99,42.14C21.212,41.5889,21.519,41.076,21.9,40.62C23.51,38.73,32.34,29.08,32.34,29.08C35.29,26.08,37.94,23.71,38.95,23.71C41.7,23.71,43.35,26.6,43.35,32.52C43.35,36.52,32.35,52.35,32.35,52.35')"],e:[[0],[0],[0],[0],[0]]}],
"#_a1",[{p:'scaleX',t:[100,200,400,500,600],v:[1,0.75,0.75,1.2,1],e:[[0],[0],[0],[0],[0]]},{p:'scaleY',t:[100,200,400,500,600],v:[1,0.75,0.75,1.2,1],e:[[0],[0],[0],[0],[0]]},{p:'opacity',t:[100,200,400,500],v:[1,0,0,1],e:[[0],[0],[0],[0]]}],
"#_a2",[{p:'opacity',t:[100,200,500,600],v:[1,0,0,1],e:[[0],[0],[0],[0]]},{p:'d',t:[100,500,700],v:["path('M49.14,35.95L52.1,38.91')","path('M52.1,38.91L52.1,38.91')","path('M49.14,35.95L52.1,38.91')"],e:[[0],[0],[0]]}],
"#_a3",[{p:'opacity',t:[100,200,500,600],v:[1,0,0,1],e:[[0],[0],[0],[0]]},{p:'d',t:[100,500,700],v:["path('M83.08,39.11L86.28,35.91')","path('M83.08,39.11L83.08,39.11')","path('M83.08,39.11L86.28,35.91')"],e:[[0],[0],[0]]}],
"#_a4",[{p:'opacity',t:[100,200,500,600],v:[1,0,0,1],e:[[0],[0],[0],[0]]},{p:'d',t:[100,500,700],v:["path('M67.59,32.49L67.59,28.1')","path('M67.59,32.49L67.59,32.49')","path('M67.59,32.49L67.59,28.1')"],e:[[0],[0],[0]]}],
"#_a5",[{p:'opacity',t:[100,200,500,600],v:[1,0,0,1],e:[[0],[0],[0],[0]]},{p:'d',t:[100,500,700],v:["path('M52.14,85.36L48.58,88.92')","path('M52.14,85.36L52.14,85.36')","path('M52.14,85.36L48.58,88.92')"],e:[[0],[0],[0]]}],
"#_a6",[{p:'opacity',t:[100,200,500,600],v:[1,0,0,1],e:[[0],[0],[0],[0]]},{p:'d',t:[100,500,700],v:["path('M67.7,91.92L67.7,96.13')","path('M67.7,91.92L67.7,91.92')","path('M67.7,91.92L67.7,96.13')"],e:[[0],[0],[0]]}],
"#_a7",[{p:'opacity',t:[100,200,500,600],v:[1,0,0,1],e:[[0],[0],[0],[0]]},{p:'d',t:[100,500,700],v:["path('M83.24,85.36L86.2,88.32')","path('M83.24,85.36L83.24,85.36')","path('M83.24,85.36L86.2,88.32')"],e:[[0],[0],[0]]}],
{autoremove:false}).range(0,1500).loop(true);
if(document.location.search.substr(1).split('&').indexOf('global=paused')>=0)ks.globalPause();})(KeyshapeJS);
]]></script>
</svg>
