<svg xmlns="http://www.w3.org/2000/svg" viewBox="0 0 198.75 41.61"><defs><style>.cls-1{fill:#fff;}.cls-2{fill:#009ddc;}.cls-3{fill:#bcbec0;}.cls-4{fill:#231f20;}.cls-5{fill:#50b848;}</style></defs><title>nutrisystemD_logoArtboard 1</title><g id="Common_Artwork" data-name="Common Artwork"><g id="_Group_" data-name="&lt;Group&gt;"><g id="_Group_2" data-name="&lt;Group&gt;"><g id="_Group_3" data-name="&lt;Group&gt;"><rect id="_Path_" data-name="&lt;Path&gt;" class="cls-1" x="159.59" y="9.64" width="26.73" height="26.17"/><g id="_Group_4" data-name="&lt;Group&gt;"><g id="_Group_5" data-name="&lt;Group&gt;"><g id="_Group_6" data-name="&lt;Group&gt;"><path id="_Compound_Path_" data-name="&lt;Compound Path&gt;" class="cls-2" d="M157.4,37.77H188V7.21H157.4Z"/></g></g></g><polygon id="_Path_2" data-name="&lt;Path&gt;" class="cls-3" points="146.02 37.55 146.02 7.09 147.31 7.09 147.31 37.55 146.02 37.55 146.02 37.55"/><g id="_Group_7" data-name="&lt;Group&gt;"><g id="_Group_8" data-name="&lt;Group&gt;"><g id="_Group_9" data-name="&lt;Group&gt;"><g id="_Group_10" data-name="&lt;Group&gt;"><g id="_Group_11" data-name="&lt;Group&gt;"><path id="_Compound_Path_2" data-name="&lt;Compound Path&gt;" class="cls-4" d="M5.06,31.12V11.39h.06L17.28,24.65V11.83H20v19.4h-.05L7.77,18V31.12Z"/><path id="_Compound_Path_3" data-name="&lt;Compound Path&gt;" class="cls-4" d="M34.5,16.91V31.23H31.91V29.16h-.06a4.77,4.77,0,0,1-4.2,2.07c-2.85,0-5.5-1.35-5.5-4.7V16.91H24.8v9.23c0,2.08,1.47,2.74,3.1,2.74,2.1,0,4-1.27,4-4.28V16.91Z"/><path id="_Compound_Path_4" data-name="&lt;Compound Path&gt;" class="cls-4" d="M44.21,19.27H40.47v7.29c0,1.77.56,2.32,2.49,2.32a16.85,16.85,0,0,0,1.77-.17l-.47,2.41a15.74,15.74,0,0,1-2.13.11A4.16,4.16,0,0,1,37.82,27V19.27H35.64l.94-2.36h1.24V13.38l2.65-.64v4.17h3.74Z"/><path id="_Compound_Path_5" data-name="&lt;Compound Path&gt;" class="cls-4" d="M46.33,31.23V16.91h2.48v2.46h.06a4.59,4.59,0,0,1,4.31-3.06h1.33L53.4,19C51,18.82,49,20.56,49,24.18v7.05Z"/><path id="_Compound_Path_6" data-name="&lt;Compound Path&gt;" class="cls-4" d="M56.89,31.23V16.91h2.65V31.23Z"/></g><path id="_Path_3" data-name="&lt;Path&gt;" class="cls-4" d="M90.08,31.23c2.67,0,4.81-1.34,4.81-4.23h0a3.24,3.24,0,0,0-2.23-3.3h0c-1.27-.55-2.81-.73-3.88-1.29h0a2,2,0,0,1-1.21-1.9h0a2.3,2.3,0,0,1,.91-1.92h0A3.52,3.52,0,0,1,90.6,18h0a5.49,5.49,0,0,1,3.29,1.28h0l.76-1.09a6.4,6.4,0,0,0-4-1.57h0c-2.32,0-4.45,1.49-4.45,4h0a3.19,3.19,0,0,0,2.23,3.19h0c1.27.54,2.81.78,3.88,1.37h0a2.09,2.09,0,0,1,1.21,1.93h0a2.57,2.57,0,0,1-.93,2.08h0a3.46,3.46,0,0,1-2.18.69h0A4.62,4.62,0,0,1,87,28.34h0l-1,.88a5.52,5.52,0,0,0,4.16,2Z"/><path id="_Path_4" data-name="&lt;Path&gt;" class="cls-4" d="M66.69,31.23c2.67,0,4.81-1.34,4.82-4.23h0a3.25,3.25,0,0,0-2.24-3.3h0C68,23.15,66.46,23,65.4,22.41h0a2,2,0,0,1-1.22-1.9h0a2.31,2.31,0,0,1,.92-1.92h0A3.51,3.51,0,0,1,67.21,18h0a5.49,5.49,0,0,1,3.29,1.28h0l.76-1.09a6.4,6.4,0,0,0-4-1.57h0c-2.33,0-4.46,1.49-4.46,4h0a3.19,3.19,0,0,0,2.24,3.19h0c1.26.54,2.81.78,3.87,1.37h0a2.1,2.1,0,0,1,1.21,1.93h0a2.54,2.54,0,0,1-.93,2.08h0a3.44,3.44,0,0,1-2.18.69h0a4.62,4.62,0,0,1-3.49-1.51h0l-1,.88a5.54,5.54,0,0,0,4.16,2Z"/><path id="_Path_5" data-name="&lt;Path&gt;" class="cls-4" d="M96.12,18.31h1.82V27.2c0,2.49,1.33,3.9,3.82,3.91h0a6.92,6.92,0,0,0,1.31-.14h0V29.7a11.53,11.53,0,0,1-1.17,0h0a2.8,2.8,0,0,1-2-.58h0a2.52,2.52,0,0,1-.62-1.93h0V18.31h3.76V16.93H99.29v-4.3l-1.35.76v3.54H96.45l-.33,1.38Z"/><polygon id="_Path_6" data-name="&lt;Path&gt;" class="cls-4" points="78.41 28.55 75.71 34.43 77.13 34.43 85.44 16.93 83.96 16.93 79.19 27.12 73.72 16.93 72.26 16.93 78.41 28.55 78.41 28.55"/><g id="_Group_12" data-name="&lt;Group&gt;"><path id="_Compound_Path_7" data-name="&lt;Compound Path&gt;" class="cls-4" d="M115.39,29.06a7.88,7.88,0,0,1-5.6,2.17c-4.15,0-6.79-3.36-6.79-7.33s2.7-7.27,6.79-7.27,6.75,3.39,6.72,7.42H104.36A5.46,5.46,0,0,0,110,30a6.08,6.08,0,0,0,5.4-2.9m-.22-4.28a5.42,5.42,0,0,0-10.79,0Z"/></g><path id="_Path_7" data-name="&lt;Path&gt;" class="cls-4" d="M133.41,16.94a4.48,4.48,0,0,0-1.83-.36l-.41,0a4.31,4.31,0,0,0-2.54,1l-.1.08-.07.06A5.59,5.59,0,0,0,127.4,19v0a4.05,4.05,0,0,0-1.71-1.93,3.32,3.32,0,0,0-.66-.3,4.37,4.37,0,0,0-1.48-.24,4.74,4.74,0,0,0-4.11,2.62V16.62l-1.34.29v14.2h1.34v-8.9a5,5,0,0,1,.94-3.19,3.52,3.52,0,0,1,2.87-1.22,3,3,0,0,1,2.2.89,3.23,3.23,0,0,1,.86,2.3V31.11h1.34v-8.9a5,5,0,0,1,.94-3.19,3.5,3.5,0,0,1,2.86-1.22h0a3,3,0,0,1,2.2.89,3.28,3.28,0,0,1,.86,2.3V31.11h1.34V20.65A3.6,3.6,0,0,0,133.41,16.94Z"/></g></g></g></g><g id="_Group_13" data-name="&lt;Group&gt;"><g id="_Group_14" data-name="&lt;Group&gt;"><g id="_Group_15" data-name="&lt;Group&gt;"><path id="_Path_8" data-name="&lt;Path&gt;" class="cls-5" d="M65.36,4.55s-4.77.46-7,3.64a7.18,7.18,0,0,0-1.11,6.06,17.84,17.84,0,0,1,6.87-8.12,17.71,17.71,0,0,0-5.67,8.59,7.46,7.46,0,0,0,5.34-2.48C66.48,9.19,65.36,4.55,65.36,4.55Z"/></g></g></g><g id="_Group_16" data-name="&lt;Group&gt;"><path id="_Compound_Path_8" data-name="&lt;Compound Path&gt;" class="cls-4" d="M137.87,12.74a2.11,2.11,0,1,1-2.18,2.1,2.13,2.13,0,0,1,2.17-2.1Zm0,.42a1.68,1.68,0,0,0,0,3.36,1.6,1.6,0,0,0,1.61-1.68,1.63,1.63,0,0,0-1.62-1.68Zm-.32,2.77H137V13.84a5,5,0,0,1,.81-.07,1.2,1.2,0,0,1,.73.16.6.6,0,0,1,.2.45.55.55,0,0,1-.43.5v0a.59.59,0,0,1,.38.51,1.43,1.43,0,0,0,.16.51h-.53a1.81,1.81,0,0,1-.17-.5c0-.23-.17-.33-.43-.33h-.23Zm0-1.18h.23c.27,0,.49-.09.49-.3s-.14-.33-.45-.33a1.25,1.25,0,0,0-.27,0Z"/></g><g id="_Group_17" data-name="&lt;Group&gt;"><path id="_Compound_Path_9" data-name="&lt;Compound Path&gt;" class="cls-2" d="M192.74,7.2a2.11,2.11,0,1,1,0,4.22,2.11,2.11,0,1,1,0-4.22Zm0,.42A1.63,1.63,0,0,0,191.1,9.3,1.63,1.63,0,0,0,192.74,11a1.61,1.61,0,0,0,1.61-1.68,1.63,1.63,0,0,0-1.62-1.68Zm-.31,2.77h-.49V8.3a3.88,3.88,0,0,1,.8-.08,1.25,1.25,0,0,1,.74.17.58.58,0,0,1,.2.45.55.55,0,0,1-.43.5v0a.62.62,0,0,1,.38.52c.07.32.1.45.16.51h-.53a2.11,2.11,0,0,1-.17-.5c0-.23-.16-.33-.43-.33h-.23Zm0-1.18h.23c.27,0,.49-.09.49-.31s-.14-.32-.45-.32l-.27,0Z"/></g></g><g id="_Group_18" data-name="&lt;Group&gt;"><path class="cls-1" d="M164.72,12.54h7a9.5,9.5,0,1,1,0,19h-7Zm4.94,14.82h1.11c2.95,0,5.47-1.61,5.47-5.32,0-3.4-2.24-5.32-5.42-5.32h-1.16Z"/></g></g></g></g></svg>