<svg xmlns="http://www.w3.org/2000/svg" xmlns:xlink="http://www.w3.org/1999/xlink" width="30" height="30" viewBox="0 0 30 30">
  <defs>
    <clipPath id="clip-path">
      <rect id="Rectangle_2154" data-name="Rectangle 2154" width="20.209" height="22.414" transform="translate(-2 -2)" fill="none"/>
    </clipPath>
  </defs>
  <g id="Group_4099" data-name="Group 4099" transform="translate(-557.852 -1756.531)">
    <circle id="Ellipse_306" data-name="Ellipse 306" cx="15" cy="15" r="15" transform="translate(557.852 1756.531)" fill="#1493c7"/>
    <g id="Group_4101" data-name="Group 4101" transform="translate(565.348 1760.824)">
      <g id="Group_4100" data-name="Group 4100" clip-path="url(#clip-path)">
        <path id="Path_12210" data-name="Path 12210" d="M2.124,355.479H1.488A1.49,1.49,0,0,1,0,353.991v-9A1.49,1.49,0,0,1,1.488,343.5h.635a1.49,1.49,0,0,1,1.488,1.488v9a1.49,1.49,0,0,1-1.488,1.488" transform="translate(0 -337.065)" fill="#fff"/>
        <path id="Path_12211" data-name="Path 12211" d="M221.131,18.415h-6.563a1.726,1.726,0,0,1-1.724-1.724V6.962a.647.647,0,0,1,.093-.334c.334-.555.594-1.011.819-1.437l.021-.041,0,0,.013-.027v0a3.587,3.587,0,0,0,.327-1.133V3.977a8.543,8.543,0,0,0,.033-1.494c-.007-.148-.024-.3-.042-.456A3.729,3.729,0,0,1,214.1.918a1.055,1.055,0,0,1,.5-.762,1.673,1.673,0,0,1,1.344-.021,3.58,3.58,0,0,1,1.52,1.045,4.441,4.441,0,0,1,.874,1.6c.025.082.049.167.071.253.013.053.025.1.034.145q.007.032.014.063c.008.038.016.078.024.117v0l0,.016.007.037.009.047v.006l.01.055c0,.029.009.057.014.085l.007.042v0c0,.018.005.036.008.054l0,.023c0,.017,0,.034.007.05.005.041.01.084.016.135,0,.013,0,.028,0,.043v0c.007.067.012.129.017.188a9.534,9.534,0,0,1-.046,1.809c-.011.1-.033.2-.054.305a2.237,2.237,0,0,0-.058.372h4.948a1.686,1.686,0,0,1,1.684,1.684v.212a1.687,1.687,0,0,1-1.122,1.587,1.665,1.665,0,0,1,.34,1.012v.242a1.671,1.671,0,0,1-1.014,1.535,1.665,1.665,0,0,1,.287.938v.238a1.674,1.674,0,0,1-1.006,1.533,1.686,1.686,0,0,1,.265.905v.212a1.686,1.686,0,0,1-1.684,1.684" transform="translate(-207.855 -0.001)" fill="#fff"/>
      </g>
    </g>
  </g>
</svg>
