<svg xmlns="http://www.w3.org/2000/svg" xmlns:xlink="http://www.w3.org/1999/xlink" width="70.223" height="70.223" viewBox="10 10 70.223 70.223">
  <defs>
    <clipPath id="clip-path">
      <rect id="Rectangle_2132" data-name="Rectangle 2132" width="63.836" height="63.836" fill="#00a8ad"/>
    </clipPath>
  </defs>
  <g id="Group_4407" data-name="Group 4407" transform="translate(2.112 16.791)">
    <g id="Group_4117" data-name="Group 4117" transform="translate(19.089 27.485) rotate(-43)">
      <g id="Group_4056" data-name="Group 4056" transform="translate(-15 -15)" clip-path="url(#clip-path)">
        <path id="Path_12550" data-name="Path 12550" d="M59.983,29.992c0,29.992-13.428,29.992-29.992,29.992S0,59.983,0,29.992,13.428,0,29.992,0,59.983,0,59.983,29.992" transform="translate(1.927 1.927)" fill="#00a8ad"/>
      </g>
    </g>
    <g id="Group_1496" data-name="Group 1496" transform="translate(0.559 -13.675)">
      <path id="Path_2071" data-name="Path 2071" d="M54.864,26.714a4.747,4.747,0,1,1-4.746-4.746A4.747,4.747,0,0,1,54.864,26.714Z" transform="translate(-7.233 0)" fill="none" stroke="#fff" stroke-linejoin="round" stroke-width="2"/>
      <path id="Path_2072" data-name="Path 2072" d="M46.246,41.647l11.116,5.185a1.942,1.942,0,0,1,.865,2.559A2,2,0,0,1,55.7,50.5l-8.244-3.191v6.878L51.8,66.5a2.108,2.108,0,0,1-1.432,2.515,2.154,2.154,0,0,1-2.8-.905L42.885,57.447,38.2,68.105a2.153,2.153,0,0,1-2.8.905A2.108,2.108,0,0,1,33.966,66.5l4.343-12.31V47.3l-8.29,3.229A2,2,0,0,1,27.5,49.416a1.94,1.94,0,0,1,.865-2.558l11.18-5.222A9.161,9.161,0,0,1,46.246,41.647Z" transform="translate(0 -7.623)" fill="none" stroke="#fff" stroke-linejoin="round" stroke-width="2"/>
    </g>
  </g>
</svg>
