<svg xmlns="http://www.w3.org/2000/svg" width="70" height="70" viewBox="0 0 70 70">
  <g id="Group_4168" data-name="Group 4168" transform="translate(3.675 12.785)">
    <circle id="Ellipse_372" data-name="Ellipse 372" cx="35" cy="35" r="35" transform="translate(-3.675 -12.785)" fill="#fff5e4"/>
    <g id="Burger" transform="translate(31.325 19.978)">
      <g id="Burger-2" data-name="Burger" transform="translate(-23.596 -20.948)">
        <path id="Path_12688" data-name="Path 12688" d="M13.771,316.128a1.024,1.024,0,0,1-.8-.5L8.953,308.1a1.394,1.394,0,0,1,0-.9.913.913,0,0,1,.8-.4H53.824a.913.913,0,0,1,.8.4,1.393,1.393,0,0,1,0,.9l-4.015,7.529a.621.621,0,0,1-.8.5Z" transform="translate(-7.936 -274.257)" fill="#fff"/>
        <path id="Path_12689" data-name="Path 12689" d="M8.7,20.378a.758.758,0,0,1-.7-.4c-.3-.1-.3-.4-.3-.7C8.9,6.023,20.443,0,30.581,0,40.921,0,52.364,6.023,53.569,19.374a.9.9,0,0,1-.9.9h0Z" transform="translate(-6.878)" fill="#fff"/>
        <g id="hamburger_Icon" data-name="hamburger Icon">
          <g id="Layer_1" data-name="Layer 1">
            <g id="hamburger_Icon-2" data-name="hamburger Icon">
              <g id="Hamburger">
                <g id="Group_266" data-name="Group 266">
                  <g id="Group_354" data-name="Group 354">
                    <g id="Group_257" data-name="Group 257">
                      <path id="Union_8" data-name="Union 8" d="M5.835,41.871a1.024,1.024,0,0,1-.8-.5L1.017,33.84a1.394,1.394,0,0,1,0-.9.913.913,0,0,1,.8-.4H45.888a.913.913,0,0,1,.8.4,1.392,1.392,0,0,1,0,.9l-4.015,7.529a.621.621,0,0,1-.8.5Zm.5-1.907H41.17l3.112-5.521H3.426ZM41.772,23.723c-.5-.5-.9-.9-3.112-.9s-2.51.4-3.112.9c-.8.9-1.606,1.606-4.417,1.606-2.71,0-3.614-.7-4.417-1.606-.5-.5-.9-.9-3.112-.9s-2.51.4-3.112.9c-.8.9-1.606,1.606-4.417,1.606-2.71,0-3.614-.7-4.417-1.606-.5-.5-.9-.9-3.112-.9s-2.51.4-3.112.9c-.8.9-1.606,1.606-4.417,1.606a1.067,1.067,0,0,1-1-.9c-.1-.5.4-.9.9-1h.1c2.108,0,2.51-.4,3.112-.9.8-.9,1.606-1.606,4.417-1.606,2.71,0,3.614.7,4.417,1.606.5.5.9.9,3.112.9s2.51-.4,3.112-.9c.8-.9,1.606-1.606,4.417-1.606,2.71,0,3.614.7,4.417,1.606.5.5.9.9,3.112.9s2.51-.4,3.112-.9c.8-.9,1.606-1.606,4.417-1.606,2.71,0,3.614.7,4.417,1.606.5.5.9.9,3.112.9a.955.955,0,1,1,.1,1.907h-.1c-2.61,0-3.614-.6-4.417-1.606ZM1.82,20.378a.758.758,0,0,1-.7-.4c-.3-.1-.3-.4-.3-.7C2.021,6.023,13.565,0,23.7,0,34.043,0,45.486,6.023,46.691,19.374a.9.9,0,0,1-.9.9h0Zm1-1.907h41.86C43.177,6.926,33.139,1.907,23.7,1.907S4.329,6.926,2.824,18.47Zm36.138-3.614h0a.843.843,0,0,1-.9-.9v-.2a.941.941,0,0,1,1.1-.8h.1a.82.82,0,0,1,.8.9v.2a.952.952,0,0,1-.9.8Zm-5.22-.1h0a.843.843,0,0,1-.9-.9v-.2a.94.94,0,0,1,1.1-.8h.1a1.088,1.088,0,0,1,.8,1.1.952.952,0,0,1-.9.8Zm-4.618-2.208h-.1a.82.82,0,0,1-.8-.9v-.2a.941.941,0,0,1,1.1-.8h.1a.82.82,0,0,1,.8.9v.2a.952.952,0,0,1-.9.8Zm5.22-2.61h0a.843.843,0,0,1-.9-.9v-.2a.85.85,0,0,1,1-.8h.1a.82.82,0,0,1,.8.9v.2a.978.978,0,0,1-1,.8Zm-5.119-2.71h-.1a.82.82,0,0,1-.8-.9v-.2a.94.94,0,0,1,1.1-.8h.1a1.174,1.174,0,0,1,.8,1.1.952.952,0,0,1-.9.8Z" transform="translate(0)" fill="#313338"/>
                    </g>
                  </g>
                </g>
              </g>
            </g>
          </g>
        </g>
        <path id="Path_12690" data-name="Path 12690" d="M49.953,250.588h-36.1a4.194,4.194,0,0,1,0-8.388h36.1a4.194,4.194,0,1,1,0,8.388Zm-36.1-6.8a2.6,2.6,0,1,0,0,5.206h36.1a2.6,2.6,0,1,0,0-5.206Z" transform="translate(-8.636 -216.515)" fill="#313338"/>
      </g>
    </g>
  </g>
</svg>
