<svg xmlns="http://www.w3.org/2000/svg" xmlns:xlink="http://www.w3.org/1999/xlink" width="70.223" height="70.223" viewBox="10 10 70.223 70.223">
  <defs>
    <clipPath id="clip-path">
      <rect id="Rectangle_2132" data-name="Rectangle 2132" width="63.836" height="63.836" fill="#00a8ad"/>
    </clipPath>
  </defs>
  <g id="Group_4411" data-name="Group 4411" transform="translate(-31.814 16.791)">
    <g id="Group_4057" data-name="Group 4057" transform="translate(53.015 27.485) rotate(-43)">
      <g id="Group_4056" data-name="Group 4056" transform="translate(-15 -15)" clip-path="url(#clip-path)">
        <path id="Path_12550" data-name="Path 12550" d="M59.983,29.992c0,29.992-13.428,29.992-29.992,29.992S0,59.983,0,29.992,13.428,0,29.992,0,59.983,0,59.983,29.992" transform="translate(1.927 1.927)" fill="#00a8ad"/>
      </g>
    </g>
    <g id="Group_4410" data-name="Group 4410">
      <g id="Cake" transform="translate(59.568 10.698)">
        <rect id="Rectangle_1201" data-name="Rectangle 1201" width="34.863" height="0.158" transform="translate(0 34.784)" fill="none" stroke="#fff" stroke-linecap="round" stroke-linejoin="round" stroke-width="1.75"/>
        <g id="Group_1490" data-name="Group 1490" transform="translate(1.432 21.301)">
          <rect id="Rectangle_1202" data-name="Rectangle 1202" width="32" height="13" transform="translate(0 0)" fill="none" stroke="#fff" stroke-linecap="round" stroke-linejoin="round" stroke-width="1.75"/>
          <path id="Path_2066" data-name="Path 2066" d="M142.169,152.817a4.771,4.771,0,0,0,2.09-1.049,4.788,4.788,0,0,1,2.135-1.064,4.788,4.788,0,0,1,2.135,1.064,4.775,4.775,0,0,0,2.09,1.049,4.763,4.763,0,0,0,2.091-1.05,4.794,4.794,0,0,1,2.135-1.063,4.794,4.794,0,0,1,2.135,1.063,4.765,4.765,0,0,0,2.09,1.05,4.773,4.773,0,0,0,2.091-1.049A4.79,4.79,0,0,1,163.3,150.7a4.787,4.787,0,0,1,2.136,1.064,4.771,4.771,0,0,0,2.09,1.049,4.771,4.771,0,0,0,2.09-1.049c.361-.25.729-.5,1.079-.7V145.95H139v5.119c.35.2.718.449,1.079.7A4.771,4.771,0,0,0,142.169,152.817Z" transform="translate(-138.847 -145.859)" fill="none" stroke="#fff" stroke-linecap="round" stroke-linejoin="round" stroke-width="1.75"/>
        </g>
        <g id="Group_1491" data-name="Group 1491" transform="translate(4.754 11.319)">
          <rect id="Rectangle_1203" data-name="Rectangle 1203" width="25.355" height="10.074" fill="none" stroke="#fff" stroke-linecap="round" stroke-linejoin="round" stroke-width="1.75"/>
          <path id="Path_2067" data-name="Path 2067" d="M146.019,136.971a5.48,5.48,0,0,1,2.44,1.215,5.459,5.459,0,0,0,2.39,1.2,5.452,5.452,0,0,0,2.389-1.2,5.486,5.486,0,0,1,2.44-1.215,5.486,5.486,0,0,1,2.44,1.215,5.452,5.452,0,0,0,2.389,1.2,5.452,5.452,0,0,0,2.389-1.2,5.486,5.486,0,0,1,2.44-1.215,5.484,5.484,0,0,1,2.441,1.215c.193.133.386.266.578.394v-5.344H143v5.344c.192-.128.385-.261.578-.394A5.484,5.484,0,0,1,146.019,136.971Z" transform="translate(-143 -133.236)" fill="none" stroke="#fff" stroke-linecap="round" stroke-linejoin="round" stroke-width="1.75"/>
        </g>
        <g id="Group_1492" data-name="Group 1492" transform="translate(14.658)">
          <path id="Path_2068" data-name="Path 2068" d="M161.046,123.573a2.773,2.773,0,1,1-5.546,0c0-1.532,2.773-4.622,2.773-4.622S161.046,122.041,161.046,123.573Z" transform="translate(-155.5 -118.951)" fill="none" stroke="#fff" stroke-linecap="round" stroke-linejoin="round" stroke-width="1.75"/>
          <rect id="Rectangle_1204" data-name="Rectangle 1204" width="0.138" height="3.697" transform="translate(2.704 7.395)" fill="none" stroke="#fff" stroke-linecap="round" stroke-linejoin="round" stroke-width="1.75"/>
        </g>
        <g id="Group_1493" data-name="Group 1493" transform="translate(23.77 1.585)">
          <path id="Path_2069" data-name="Path 2069" d="M171.754,124.913a2.377,2.377,0,0,1-4.754,0c0-1.313,2.377-3.962,2.377-3.962S171.754,123.6,171.754,124.913Z" transform="translate(-167 -120.951)" fill="none" stroke="#fff" stroke-linecap="round" stroke-linejoin="round" stroke-width="1.75"/>
          <rect id="Rectangle_1205" data-name="Rectangle 1205" width="0.118" height="3.169" transform="translate(2.318 6.339)" fill="none" stroke="#fff" stroke-linecap="round" stroke-linejoin="round" stroke-width="1.75"/>
        </g>
        <g id="Group_1494" data-name="Group 1494" transform="translate(6.339 1.585)">
          <path id="Path_2070" data-name="Path 2070" d="M149.754,124.913a2.377,2.377,0,0,1-4.754,0c0-1.313,2.377-3.962,2.377-3.962S149.754,123.6,149.754,124.913Z" transform="translate(-145 -120.951)" fill="none" stroke="#fff" stroke-linecap="round" stroke-linejoin="round" stroke-width="1.75"/>
          <rect id="Rectangle_1206" data-name="Rectangle 1206" width="0.118" height="3.169" transform="translate(2.318 6.339)" fill="none" stroke="#fff" stroke-linecap="round" stroke-linejoin="round" stroke-width="1.75"/>
        </g>
      </g>
    </g>
  </g>
</svg>
