<svg xmlns="http://www.w3.org/2000/svg" width="70" height="70" viewBox="0 0 70 70">
  <g id="Group_4171" data-name="Group 4171" transform="translate(-120.417 -3049.215)">
    <path id="Path_12695" data-name="Path 12695" d="M35,0A35,35,0,1,1,0,35,35,35,0,0,1,35,0Z" transform="translate(120.417 3049.215)" fill="#fff5e4"/>
    <path id="Path_12693" data-name="Path 12693" d="M754.095,284.548a12.428,12.428,0,0,0-19.692-.006,11.593,11.593,0,0,0-5.856,21.379l.438,9.5a.933.933,0,0,0,.932.889h28.7a.933.933,0,0,0,.932-.889l.441-9.574a11.506,11.506,0,0,0,5.26-9.683A11.76,11.76,0,0,0,754.095,284.548Z" transform="translate(-589.162 2783.422)" fill="#fff"/>
    <g id="Group_1568" data-name="Group 1568" transform="translate(-589.162 2783.422)">
      <g id="Group_1569" data-name="Group 1569" transform="translate(723.162 279.701)">
        <path id="Path_2168" data-name="Path 2168" d="M754.095,284.548a12.428,12.428,0,0,0-19.692-.006,11.593,11.593,0,0,0-5.856,21.379l.438,9.5a.933.933,0,0,0,.932.889h28.7a.933.933,0,0,0,.932-.889l.441-9.574a11.506,11.506,0,0,0,5.26-9.683A11.76,11.76,0,0,0,754.095,284.548Zm4.508,19.965a.933.933,0,0,0-.453.757l-.423,9.172H730.807l-.24-5.195H743.3a.932.932,0,1,0,0-1.865H730.481l-.094-2.041a.932.932,0,0,0-.463-.764,9.736,9.736,0,0,1,4.967-18.183.933.933,0,0,0,.755-.4,10.559,10.559,0,0,1,17.2,0,.933.933,0,0,0,.748.4,9.892,9.892,0,0,1,9.788,9.764A9.674,9.674,0,0,1,758.6,304.513Z" transform="translate(-723.162 -279.701)" fill="#2b3539" stroke="#2b3539" stroke-width="0.5"/>
        <path id="Path_2169" data-name="Path 2169" d="M787.452,312a.932.932,0,0,1-.843-1.328,5,5,0,0,0-1.053-6.191.932.932,0,0,1,1.153-1.466,6.871,6.871,0,0,1,1.588,8.448A.933.933,0,0,1,787.452,312Z" transform="translate(-756.278 -292.041)" fill="#2b3539" stroke="#2b3539" stroke-width="0.5"/>
        <path id="Path_2170" data-name="Path 2170" d="M745.283,312.045a.925.925,0,0,1-.773-.413,6.87,6.87,0,0,1,1.137-8.52.932.932,0,0,1,1.356,1.28,5,5,0,0,0-.939,6.208.934.934,0,0,1-.781,1.444Z" transform="translate(-734.029 -292.041)" fill="#2b3539" stroke="#2b3539" stroke-width="0.5"/>
        <path id="Path_2171" data-name="Path 2171" d="M775.622,339.351h-3.109a.932.932,0,0,0,0,1.865h3.109a.932.932,0,1,0,0-1.865Z" transform="translate(-749.006 -311.54)" fill="#2b3539" stroke="#2b3539" stroke-width="0.5"/>
      </g>
    </g>
  </g>
</svg>
