<svg xmlns="http://www.w3.org/2000/svg" width="132" height="132" viewBox="0 0 132 132">
  <g id="Group_4383" data-name="Group 4383" transform="translate(-455 -1548)">
    <circle id="Ellipse_553" data-name="Ellipse 553" cx="66" cy="66" r="66" transform="translate(455 1548)" fill="#fff5e4"/>
    <g id="laptop" transform="translate(658.69 1737.602)">
      <g id="Group_4382" data-name="Group 4382" transform="translate(-179.122 -164.459)">
        <path id="Path_13730" data-name="Path 13730" d="M104.816,63.439V91.817H32.966V50.343a6.673,6.673,0,0,1,6.673-6.673H82.834" transform="translate(-26.5 -34.638)" fill="none" stroke="#000" stroke-linejoin="round" stroke-width="3"/>
        <path id="Path_13731" data-name="Path 13731" d="M90.781,257.163H6l6.466-12.692h71.85Z" transform="translate(-6 -187.292)" fill="none" stroke="#000" stroke-linejoin="round" stroke-width="3"/>
        <rect id="Rectangle_2192" data-name="Rectangle 2192" width="10.625" height="4.42" rx="2.21" transform="translate(37.078 61.263)"/>
        <path id="Rectangle_2193" data-name="Rectangle 2193" d="M0,0H84.781a0,0,0,0,1,0,0V0a9,9,0,0,1-9,9H9A9,9,0,0,1,0,0V0A0,0,0,0,1,0,0Z" transform="translate(0 69.871)" fill="none" stroke="#000" stroke-linejoin="round" stroke-width="3"/>
        <ellipse id="Ellipse_549" data-name="Ellipse 549" cx="8.069" cy="8.069" rx="8.069" ry="8.069" transform="translate(34.347 20.576)" fill="none" stroke="#000" stroke-linejoin="round" stroke-width="3"/>
        <path id="Rectangle_2194" data-name="Rectangle 2194" d="M12.965,0h4.689A12.965,12.965,0,0,1,30.619,12.965v0a0,0,0,0,1,0,0H0a0,0,0,0,1,0,0v0A12.965,12.965,0,0,1,12.965,0Z" transform="translate(27.107 36.715)" fill="none" stroke="#000" stroke-linejoin="round" stroke-width="3"/>
        <g id="Group_4381" data-name="Group 4381" transform="translate(54.929)">
          <path id="Path_13732" data-name="Path 13732" d="M239.281,32.08a15.484,15.484,0,1,1,11.291,4.888H235.088Z" transform="translate(-235.088 -6)" fill="#fff" stroke="#000" stroke-linejoin="round" stroke-width="3"/>
          <ellipse id="Ellipse_550" data-name="Ellipse 550" cx="2.521" cy="2.521" rx="2.521" ry="2.521" transform="translate(19.182 12.963)"/>
          <ellipse id="Ellipse_551" data-name="Ellipse 551" cx="2.521" cy="2.521" rx="2.521" ry="2.521" transform="translate(6.745 12.963)"/>
          <ellipse id="Ellipse_552" data-name="Ellipse 552" cx="2.521" cy="2.521" rx="2.521" ry="2.521" transform="translate(12.963 12.963)"/>
        </g>
      </g>
    </g>
  </g>
</svg>
