<svg xmlns="http://www.w3.org/2000/svg" width="70" height="70" viewBox="0 0 70 70">
  <g id="Group_4169" data-name="Group 4169" transform="translate(3.675 -76.215)">
    <path id="Path_12694" data-name="Path 12694" d="M35,0A35,35,0,1,1,0,35,35,35,0,0,1,35,0Z" transform="translate(-3.675 76.215)" fill="#fff5e4"/>
    <g id="Skillet" transform="translate(34.742 114.259)">
      <g id="Group_4141" data-name="Group 4141" transform="translate(-27.529 -24.53)">
        <path id="Path_12623" data-name="Path 12623" d="M67.655,94.7,72.7,90.57a.724.724,0,0,1,1.016.124l6.574,8.03a.726.726,0,0,1-.08,1.023l-3.087,2.529q-2.3-.04-4.332-.176l-5.221-6.376A.726.726,0,0,1,67.655,94.7Z" transform="translate(-53.478 -71.736)" fill="#fff"/>
        <g id="Group_4140" data-name="Group 4140">
          <g id="Group_4134" data-name="Group 4134" transform="translate(15.286)">
            <path id="Path_12624" data-name="Path 12624" d="M107.346,12.374a.922.922,0,0,1,.784-1.04,2.339,2.339,0,0,0,1.805-1.51,2.446,2.446,0,0,0-.481-2.363c-.651-.71-2.033-1.4-2.194-2.878-.181-1.677,1.251-3.418,2.12-4.307A.921.921,0,0,1,110.7,1.565c-1.189,1.215-1.663,2.292-1.606,2.821.062.57,1.03,1.078,1.72,1.832a4.3,4.3,0,0,1,.863,4.211,4.21,4.21,0,0,1-2.955,2.667A1.053,1.053,0,0,1,107.346,12.374Z" transform="translate(-100.375 0)" fill="#29353a"/>
            <g id="Group_4133" data-name="Group 4133">
              <path id="Path_12625" data-name="Path 12625" d="M74.092,12.374a.938.938,0,0,1,.784-1.04,2.34,2.34,0,0,0,1.806-1.51A2.447,2.447,0,0,0,76.2,7.462c-.653-.712-2.034-1.4-2.194-2.878-.181-1.676,1.251-3.418,2.12-4.307a.921.921,0,1,1,1.316,1.288c-1.189,1.215-1.663,2.292-1.606,2.821.062.57,1.029,1.078,1.721,1.832a4.3,4.3,0,0,1,.864,4.21,4.2,4.2,0,0,1-3.106,2.7C74.7,13.245,74.15,13.011,74.092,12.374Z" transform="translate(-73.991 0)" fill="#29353a"/>
              <path id="Path_12626" data-name="Path 12626" d="M143.159,12.374a.927.927,0,0,1,.783-1.04,2.338,2.338,0,0,0,1.805-1.51,2.446,2.446,0,0,0-.481-2.363c-.65-.71-2.033-1.395-2.193-2.878-.182-1.676,1.25-3.418,2.12-4.307a.921.921,0,1,1,1.316,1.288c-1.189,1.215-1.663,2.292-1.606,2.82.062.571,1.028,1.077,1.72,1.832a4.3,4.3,0,0,1,.863,4.211A4.208,4.208,0,0,1,144.5,13.1C143.837,13.252,143.237,13.029,143.159,12.374Z" transform="translate(-128.789 0)" fill="#29353a"/>
            </g>
          </g>
          <g id="Group_4139" data-name="Group 4139" transform="translate(0 1.107)">
            <g id="Group_4135" data-name="Group 4135">
              <path id="Path_12627" data-name="Path 12627" d="M38.231,25.985l5.049-5.433a3.148,3.148,0,0,0-.88-4.766,3.93,3.93,0,0,0-5.022.678s-9.03,8.59-9.074,8.671c-.62-.014-3.306-.021-3.925-.021a.92.92,0,1,0,0,1.841c12.9,0,22.006,2.7,22.006,4.084,0,1.248-7,3.646-19.848,3.764L27.9,33.685a2.569,2.569,0,0,0,.339-3.613l-6.574-8.03a2.566,2.566,0,0,0-3.609-.38l-1.9,1.56-4.258-5.2.269-.221a.92.92,0,0,0,.161-1.254L5.065,6.6A2.891,2.891,0,0,0,.956,5.947a2.856,2.856,0,0,0-.14,4.134l8.315,9.08a.916.916,0,0,0,.68.3,2.127,2.127,0,0,0,.663-.275l4.256,5.2-1.717,1.4a2.476,2.476,0,0,0-.581.68c-6.745,1.31-9.559,2.533-9.559,4.566a2.1,2.1,0,0,0,.452,1.277c0,.145,4.936,10.253,5.023,10.414,1.485,2.77,7.964,4.491,16.906,4.491,7.8,0,16.583-1.446,17.558-4.617.271-.6,4.487-9.088,4.962-10.288a2.1,2.1,0,0,0,.452-1.277C48.226,28.625,44.014,26.927,38.231,25.985Zm-7.411-.76,7.938-7.541a2.129,2.129,0,0,1,2.7-.316,1.312,1.312,0,0,1,.436,1.969l-5.884,6.332C34.356,25.464,32.608,25.316,30.821,25.225ZM9.9,17.275,2.175,8.838a1.026,1.026,0,0,1-.023-1.492,1.027,1.027,0,0,1,1.426.341l6.747,9.241Zm4.278,9.943,5.049-4.134a.724.724,0,0,1,1.016.124l6.574,8.03a.726.726,0,0,1-.08,1.023L23.65,34.79q-2.3-.04-4.332-.176L14.1,28.239A.726.726,0,0,1,14.178,27.218Zm-9.462,3.82c0-.316,1.265-1.7,7.421-2.76a2.569,2.569,0,0,0,.537,1.128l4.1,5.008C8.909,33.66,4.716,32.005,4.716,31.038ZM41.054,42.056c-.366,1.357-6.2,3.322-15.8,3.322-8.793,0-14.344-1.771-15.28-3.51-.1-.192-2.244-4.543-3.8-7.706,4.826,1.9,13.844,2.485,19.381,2.485s14.542-.583,19.37-2.483C41.118,41.816,41.08,41.953,41.054,42.056Z" transform="translate(0 -5.357)" fill="#29353a"/>
            </g>
            <g id="Group_4138" data-name="Group 4138" transform="translate(16.333 19.89)">
              <g id="Group_4136" data-name="Group 4136" transform="translate(2.65)">
                <path id="Path_12628" data-name="Path 12628" d="M96.434,108.437l-4.339-5.3a.921.921,0,1,1,1.425-1.166l4.339,5.3a.921.921,0,0,1-1.425,1.167Z" transform="translate(-91.887 -101.633)" fill="#29353a"/>
              </g>
              <g id="Group_4137" data-name="Group 4137" transform="translate(0 2.169)">
                <path id="Path_12629" data-name="Path 12629" d="M83.607,118.937l-4.339-5.3a.921.921,0,1,1,1.425-1.167l4.339,5.3a.921.921,0,1,1-1.425,1.167Z" transform="translate(-79.06 -112.133)" fill="#29353a"/>
              </g>
            </g>
          </g>
        </g>
        <path id="Path_12630" data-name="Path 12630" d="M16.966,24.272,9.242,15.834a1.026,1.026,0,0,1-.023-1.492,1.027,1.027,0,0,1,1.426.341l6.747,9.241Z" transform="translate(-7.067 -11.247)" fill="#fff"/>
        <path id="Path_12631" data-name="Path 12631" d="M149.184,70.05l7.938-7.541a2.129,2.129,0,0,1,2.7-.316,1.312,1.312,0,0,1,.436,1.969l-5.884,6.332C152.719,70.289,150.971,70.141,149.184,70.05Z" transform="translate(-118.363 -49.075)" fill="#fff"/>
        <path id="Path_12632" data-name="Path 12632" d="M64.748,152.68c-.366,1.357-6.2,3.322-15.8,3.322-8.793,0-14.344-1.771-15.28-3.51-.1-.192-2.244-4.543-3.8-7.706,4.826,1.9,13.844,2.485,19.381,2.485s14.542-.583,19.37-2.483C64.812,152.44,64.774,152.577,64.748,152.68Z" transform="translate(-23.694 -114.874)" fill="#fff"/>
      </g>
    </g>
  </g>
</svg>
