<svg xmlns="http://www.w3.org/2000/svg" width="132" height="132" viewBox="0 0 132 132">
  <g id="Group_4385" data-name="Group 4385" transform="translate(-1040 -1548)">
    <circle id="Ellipse_555" data-name="Ellipse 555" cx="66" cy="66" r="66" transform="translate(1040 1548)" fill="#fff5e4"/>
    <g id="Group_4365" data-name="Group 4365" transform="translate(63.888 -75)">
      <g id="phone" transform="translate(1041.762 1685.453)">
        <g id="Group_4273" data-name="Group 4273" transform="translate(-35.65 -41.134)">
          <g id="App">
            <g id="App-2" data-name="App" transform="translate(0 13.711)">
              <g id="Group_4270" data-name="Group 4270">
                <g id="Group_4269" data-name="Group 4269">
                  <g id="Group_4268" data-name="Group 4268">
                    <path id="Path_13301" data-name="Path 13301" d="M281.96,174.225c1.015,1.22,2.716,3.538,2.716,5.265,0,1.125-1.221,3-2.825,4.8a24.546,24.546,0,0,1-2.659,2.564c-.014.014-.014.014-.014.028a13.565,13.565,0,0,1-2.729,1.824,3.376,3.376,0,0,1-1.371.383c-1.371,0-2.742-.15-2.742-2.742,0-1.7,2.359-4.716,3.99-6.581A24.535,24.535,0,0,0,281.96,174.225Z" transform="translate(-213.376 -150.696)" fill="none" stroke="#000" stroke-linejoin="round" stroke-width="2.656"/>
                    <path id="Path_13302" data-name="Path 13302" d="M291.495,219.687c1.015,1.206,2.825,4.443,2.825,6.17,0,2.659-4.113,6.856-6.856,6.856a4.451,4.451,0,0,1-1.371-.15c-.782-.248-1.371-.905-1.371-2.592a9.76,9.76,0,0,1,1.371-3.674,24.454,24.454,0,0,1,2.729-4.017c0-.015,0-.015.013-.028A24.542,24.542,0,0,0,291.495,219.687Z" transform="translate(-223.021 -186.094)" fill="none" stroke="#000" stroke-linejoin="round" stroke-width="2.656"/>
                    <path id="Path_13303" data-name="Path 13303" d="M288.836,92.714a4.1,4.1,0,0,1,4.113,4.278c0,1.919-1.727,3.771-3.441,4.689a4.521,4.521,0,0,1-2.043.631,2.31,2.31,0,0,1-1.371-.4c-.973-.644-1.371-2.042-1.371-3.716a6.52,6.52,0,0,1,1.385-3.757A3.649,3.649,0,0,1,288.836,92.714Z" transform="translate(-223.021 -87.229)" fill="none" stroke="#000" stroke-linejoin="round" stroke-width="2.656"/>
                    <path id="Path_13304" data-name="Path 13304" d="M278.481,139.336a6.08,6.08,0,0,1-1.344,2.962,24.534,24.534,0,0,1-5.634,5.54,5.493,5.493,0,0,1-2.619,1.1c-1.371,0-2.742-.15-2.742-2.742s5.484-8.227,5.484-8.227v-4.511a2.311,2.311,0,0,0,1.371.4,4.521,4.521,0,0,0,2.043-.631S278.481,136.882,278.481,139.336Z" transform="translate(-208.553 -118.769)" fill="none" stroke="#000" stroke-linejoin="round" stroke-width="2.656"/>
                    <path id="Path_13305" data-name="Path 13305" d="M160.751,140.184l-15.083,15.083-9.6-9.6,4.113-4.113,5.485,5.485,10.969-10.969Z" transform="translate(-107.276 -120.988)" fill="#fff" stroke="#000" stroke-linejoin="round" stroke-width="2.656"/>
                    <path id="Path_13306" data-name="Path 13306" d="M25.2,85.763s6.856-9.858,6.856-12.34c0-3.688-1.028-5.485-2.742-5.485-.631,0-2.276,1.468-4.113,3.345V71.3c-2.564,2.618-5.5,6.006-6.5,7.184a3.509,3.509,0,0,0-.562.947c-1.152,2.88-6.65,16.768-6.65,20.046v26.052C11.484,129.694,6,136.5,6,136.5" transform="translate(-6 -67.938)" fill="none" stroke="#000" stroke-linecap="round" stroke-linejoin="round" stroke-width="2.656"/>
                  </g>
                </g>
              </g>
            </g>
            <path id="Path_13307" data-name="Path 13307" d="M92.714,23.056V8.742A2.751,2.751,0,0,1,95.456,6h38.392a2.751,2.751,0,0,1,2.742,2.742V26.923" transform="translate(-73.518 -6)" fill="none" stroke="#000" stroke-linecap="round" stroke-linejoin="round" stroke-width="2.656"/>
            <line id="Line_138" data-name="Line 138" x2="5.598" transform="translate(34.243 4.113)" fill="none" stroke="#000" stroke-linecap="round" stroke-linejoin="round" stroke-width="2.656"/>
            <line id="Line_139" data-name="Line 139" x2="1.371" transform="translate(45.248 4.113)" fill="none" stroke="#000" stroke-linecap="round" stroke-linejoin="round" stroke-width="2.656"/>
            <g id="Group_4271" data-name="Group 4271" transform="translate(29.732 16.728)">
              <line id="Line_140" data-name="Line 140" y1="3.497" transform="translate(11.403)" fill="none" stroke="#000" stroke-linecap="round" stroke-linejoin="round" stroke-width="2.656"/>
              <line id="Line_141" data-name="Line 141" x1="2.473" y1="2.473" transform="translate(0 4.723)" fill="none" stroke="#000" stroke-linecap="round" stroke-linejoin="round" stroke-width="2.656"/>
              <line id="Line_142" data-name="Line 142" y1="2.473" x2="2.473" transform="translate(20.333 4.723)" fill="none" stroke="#000" stroke-linecap="round" stroke-linejoin="round" stroke-width="2.656"/>
            </g>
            <path id="Path_13308" data-name="Path 13308" d="M136.59,278.528V292.24a2.751,2.751,0,0,1-2.742,2.742H95.456a2.751,2.751,0,0,1-2.742-2.742" transform="translate(-73.518 -218.198)" fill="none" stroke="#000" stroke-linecap="round" stroke-linejoin="round" stroke-width="2.656"/>
            <g id="Group_4272" data-name="Group 4272" transform="translate(29.732 51.393)">
              <line id="Line_143" data-name="Line 143" y2="3.497" transform="translate(11.403 3.699)" fill="none" stroke="#000" stroke-linecap="round" stroke-linejoin="round" stroke-width="2.656"/>
              <line id="Line_144" data-name="Line 144" x2="2.473" y2="2.473" transform="translate(20.333 0)" fill="none" stroke="#000" stroke-linecap="round" stroke-linejoin="round" stroke-width="2.656"/>
              <line id="Line_145" data-name="Line 145" x1="2.473" y2="2.473" fill="none" stroke="#000" stroke-linecap="round" stroke-linejoin="round" stroke-width="2.656"/>
            </g>
          </g>
          <line id="Line_146" data-name="Line 146" x1="43.877" transform="translate(19.196 8.227)" fill="none" stroke="#000" stroke-linejoin="round" stroke-width="2.656"/>
          <line id="Line_147" data-name="Line 147" x2="43.877" transform="translate(19.196 69.928)" fill="none" stroke="#000" stroke-linecap="round" stroke-linejoin="round" stroke-width="2.656"/>
          <path id="Path_13309" data-name="Path 13309" d="M111.91,199.19a45.5,45.5,0,0,0,8.227-5.485H95.456a2.751,2.751,0,0,1-2.742-2.742V148.458" transform="translate(-73.518 -116.922)" fill="none" stroke="#000" stroke-linecap="round" stroke-linejoin="round" stroke-width="2.656"/>
        </g>
      </g>
    </g>
  </g>
</svg>
