<svg xmlns="http://www.w3.org/2000/svg" width="70" height="70" viewBox="0 0 70 70">
  <g id="Group_4170" data-name="Group 4170" transform="translate(12.228 12.09)">
    <circle id="Ellipse_374" data-name="Ellipse 374" cx="35" cy="35" r="35" transform="translate(-12.228 -12.09)" fill="#fff5e4"/>
    <g id="Group_1530" data-name="Group 1530" transform="translate(3.565 -1.303)">
      <g id="MBG">
        <g id="MBG-2" data-name="MBG" transform="translate(0 0)">
          <path id="Path_12691" data-name="Path 12691" d="M19.743,34.336l4.4,11.634,4.045-4.793L34.3,42.244,29.688,29.627l-3.023,3.5Z" fill="#fff"/>
          <path id="Path_12692" data-name="Path 12692" d="M34.3,34.336,29.9,45.971l-4.045-4.793-6.115,1.066,4.612-12.617,3.023,3.5Z" transform="translate(-18)" fill="#fff"/>
          <path id="Path_2124" data-name="Path 2124" d="M32.977,34.163l-1.743-4.108a3.3,3.3,0,0,1-.436-.934c0-.249.622-.622.871-.747l1.369-.934a7.344,7.344,0,0,0,2.676-2.987,7.678,7.678,0,0,0-.062-4.73,11.14,11.14,0,0,1-.436-2.24,9.771,9.771,0,0,1,.249-2.178,8.589,8.589,0,0,0,0-4.854l-2.054,2.3s-.062.809-.124,1.245-.436,2.116-.5,3.236a10.144,10.144,0,0,0,.373,2.925c.436,1.8.809,3.547-.747,4.917s-3.112,1.992-4.232,3.61a20.227,20.227,0,0,1-2.552,3.547c-1.058,1-3.423.809-5.1.373a6.908,6.908,0,0,0-2.738-.249c-1.245.187-2.489.622-3.734.809a3.174,3.174,0,0,1-2.676-.685A11.7,11.7,0,0,1,9.638,30.3a10.269,10.269,0,0,0-3.174-2.987c-1.307-.871-2.987-1.68-3.423-3.361s.5-3.734.56-5.539-.934-3.61-.809-5.477S5.033,10.016,6.464,8.9a9.149,9.149,0,0,0,2.24-2.3c.436-.685.809-1.431,1.307-2.116a4.17,4.17,0,0,1,1.929-1.618,5.726,5.726,0,0,1,3.05,0,20.911,20.911,0,0,0,2.676.436,9.522,9.522,0,0,0,2.863-.311,10.455,10.455,0,0,1,2.676-.5A3.112,3.112,0,0,1,25.571,3.73c.622.685,1.058,1.494,1.618,2.24a13.362,13.362,0,0,0,1.556,1.618l1.743-1.743a10.512,10.512,0,0,1-2.427-2.8A7.9,7.9,0,0,0,25.508.556,6.154,6.154,0,0,0,21.276.183a15.136,15.136,0,0,1-3.983.622c-1.369-.124-2.8-.56-4.232-.56C10.2.183,8.518,2.112,7.149,4.353A11.638,11.638,0,0,1,5.842,6.22,9.646,9.646,0,0,1,4.224,7.465,12.323,12.323,0,0,0,1.61,9.643,5.29,5.29,0,0,0,.552,13.688C.676,15,1.174,16.3,1.3,17.609a14.954,14.954,0,0,1-.436,3.734,6.97,6.97,0,0,0,.436,4.17,6.97,6.97,0,0,0,2.427,2.614l1.307.809c.062.062.622.249.622.373a4.288,4.288,0,0,1-.187.5l-.622,1.307L1.174,39.578.116,42.067A1.182,1.182,0,0,0,.8,43.748a2.365,2.365,0,0,0,1.245-.187L6.4,42.379a5.557,5.557,0,0,1,1.245-.373c.187.062.311.56.436.747L10.261,46.8l.56,1a1.182,1.182,0,0,0,2.054-.124c1-1.992,1.8-4.17,2.676-6.224l2.676-6.1.747,1.68,3.112,7.157,1.182,2.8c.249.622.5,1.431,1.369,1.431s1.12-.685,1.431-1.307l1.307-2.552,1.182-2.178c.187-.373.249-.311.685-.187l4.668,1.245a6.037,6.037,0,0,0,1.431.373,1.182,1.182,0,0,0,1-1.743C35.341,39.453,34.159,36.84,32.977,34.163ZM11.817,44.619l-1.431-2.614c-.436-.747-.934-2.489-1.992-2.427a3.236,3.236,0,0,0-.871.187l-1.68.436-2.614.685.56-1.245,3.734-8.713a15.186,15.186,0,0,0,1.369,1.929,6.846,6.846,0,0,0,2.427,2.116,5.352,5.352,0,0,0,2.178.436h1.182a6.161,6.161,0,0,1,1.245-.249Zm19.355-4.356-2.489-.622a1.369,1.369,0,0,0-1.68.809l-2.24,4.17-4.17-9.771A7.138,7.138,0,0,0,26.94,34.1a9.273,9.273,0,0,0,2.427-2.863l4.17,9.584Z" transform="translate(0.021 0.01)" fill="#29353a" stroke="#2b3539" stroke-width="0.25"/>
          <path id="Path_2125" data-name="Path 2125" d="M44.51,4.936a1.355,1.355,0,0,0-1.929-.062L24.47,22.984l-5.041-5.041a1.369,1.369,0,0,0-.934-.373,1.307,1.307,0,0,0-.934,2.24l5.975,5.975a1.369,1.369,0,0,0,.934.373,1.307,1.307,0,0,0,.934-.373L44.51,6.8a1.369,1.369,0,0,0,.373-.934,1.307,1.307,0,0,0-.373-.934Z" transform="translate(-6.471 -1.693)" fill="#29353a" stroke="#2b3539" stroke-width="0.25"/>
        </g>
      </g>
    </g>
  </g>
</svg>
