<svg xmlns="http://www.w3.org/2000/svg" width="132" height="132" viewBox="0 0 132 132">
  <g id="Group_4386" data-name="Group 4386" transform="translate(-1329 -1548)">
    <circle id="Ellipse_556" data-name="Ellipse 556" cx="66" cy="66" r="66" transform="translate(1329 1548)" fill="#fff5e4"/>
    <g id="Scale" transform="translate(1379.074 1596.184)">
      <g id="Scale-2" data-name="Scale" transform="translate(-20.886 -21.234)">
        <path id="Subtraction_1" data-name="Subtraction 1" d="M.472,43.5V19.432A20.505,20.505,0,0,1,6.513,4.845C10.374.963,15.628.506,21.1.521H48.608c5.475-.015,10.727.44,14.587,4.322a20.494,20.494,0,0,1,6.043,14.589V43.5c-.422,9.008-3.655,13.221-8.866,15.245-5.589,2.176-13.856,1.219-22.667,1.219C9.788,59.963,1.4,60.163.472,43.5Zm50.48-11.7a4.163,4.163,0,0,0,4.069-3.337c.148-1.255-1.542-17.973-19.45-17.967-19.019.009-22.433,18.12-18.207,19.736a4.482,4.482,0,0,0,3.4,1.561h.244Z" transform="translate(0.34 0.375)" fill="none"/>
        <g id="Scale-2-2" data-name="Scale-2">
          <path id="Path_13733" data-name="Path 13733" d="M55.54,46.594h.009c-1.795.172-3.645.186-5.218.186H46.867q-14.441.026-28.866,0H15.922A13.533,13.533,0,0,1,2.247,35.922,15.326,15.326,0,0,1,1.853,32.5v-.45a16.728,16.728,0,0,0,14.1,7.2H31.876c5.01,0,10.043,0,15.034-.014h1.848c2.329.014,4.734.024,7.122-.2a15.842,15.842,0,0,0,10.2-5.307,17.513,17.513,0,0,0,1.162-1.435c0,.423,0,.846-.009,1.267A13.544,13.544,0,0,1,55.54,46.594" transform="translate(1.333 23.045)" fill="none"/>
          <path id="Path_13734" data-name="Path 13734" d="M15.925,11.594l1.537,1.537A1.58,1.58,0,0,0,19.7,10.9L18.483,9.683a21.3,21.3,0,0,1,6.3-2.527,17.6,17.6,0,0,1,2.176-.37V8.7a1.583,1.583,0,1,0,3.167,0V6.731a18.342,18.342,0,0,1,8.7,2.99L37.643,10.9a1.58,1.58,0,0,0,2.235,2.235h0l1.446-1.446a19.537,19.537,0,0,1,4.012,5.2l-2.395.964a1.583,1.583,0,0,0,1.105,2.967l.077-.031,2.455-.99c.045.131.089.263.131.394a7.265,7.265,0,0,1,.471,3.572,4,4,0,0,1-4.018,3.22H29.151l2.543-9.993a1.583,1.583,0,1,0-3.057-.822l-.012.041h0l-2.74,10.763H14.366a4.335,4.335,0,0,1-3.51-1.49,4.41,4.41,0,0,1-.612-3.841c.153-.631.332-1.241.526-1.833l2.448.987A1.583,1.583,0,0,0,14.4,17.862l-2.436-.985A17.65,17.65,0,0,1,15.932,11.6Z" transform="translate(7.227 4.841)" fill="#fff"/>
          <path id="Path_2061" data-name="Path 2061" d="M15.724,31.5h28.8a7.2,7.2,0,0,0,7.112-5.737,10,10,0,0,0-.555-5.157A22.26,22.26,0,0,0,30.17,4.857a20.753,20.753,0,0,0-4.783.555A21.385,21.385,0,0,0,8.507,22.23,7.143,7.143,0,0,0,15.715,31.5Zm1.547-18.556,1.537,1.537a1.58,1.58,0,1,0,2.235-2.235L19.829,11.03a21.3,21.3,0,0,1,6.3-2.527,17.6,17.6,0,0,1,2.176-.37V10.05a1.583,1.583,0,1,0,3.167,0V8.079a18.342,18.342,0,0,1,8.7,2.99l-1.178,1.178a1.58,1.58,0,0,0,2.235,2.235h0l1.446-1.446a19.537,19.537,0,0,1,4.012,5.2l-2.395.964a1.583,1.583,0,0,0,1.105,2.967l.077-.031,2.455-.99c.045.131.089.263.131.394a7.265,7.265,0,0,1,.471,3.572,4,4,0,0,1-4.018,3.22H30.5l2.543-9.993a1.583,1.583,0,1,0-3.057-.822l-.012.041h0L27.23,28.323H15.712a4.335,4.335,0,0,1-3.51-1.49,4.41,4.41,0,0,1-.612-3.841c.153-.631.332-1.241.526-1.833l2.448.987a1.583,1.583,0,0,0,1.183-2.936l-2.436-.985a17.65,17.65,0,0,1,3.968-5.273Z" transform="translate(5.881 3.493)" fill="#29353a"/>
          <path id="Path_2062" data-name="Path 2062" d="M71.769,17.558v-.394A17.357,17.357,0,0,0,66.9,5.029,16.407,16.407,0,0,0,55.091.009q-6.573-.018-13.138,0H16.837A16.474,16.474,0,0,0,4.877,5.094,17.641,17.641,0,0,0,0,17.42v7.841c0,9.931,0,20.2.017,30.3A18.213,18.213,0,0,0,.49,59.709,16.776,16.776,0,0,0,17.241,73H33.209q7.5,0,15-.014h3.45c1.647,0,3.591-.024,5.524-.208a15.841,15.841,0,0,0,10.194-5.3,16.455,16.455,0,0,0,4.349-10.83C71.851,43.611,71.815,30.37,71.769,17.558ZM3.175,25.252V17.418A13.819,13.819,0,0,1,16.554,3.177H55.088A13.674,13.674,0,0,1,68.612,17v.566c.031,9.306.058,18.843.024,28.355H68.6A13.545,13.545,0,0,1,56.919,58.942c-2.219.21-4.556.2-6.808.186h-1.87c-9.627.019-19.418.014-28.881,0H17.284A13.537,13.537,0,0,1,3.609,48.27a15.314,15.314,0,0,1-.394-3.426H3.174V25.252ZM56.881,69.639c-1.795.172-3.645.186-5.218.186H48.2q-14.441.026-28.866,0H17.255A13.533,13.533,0,0,1,3.579,58.966a15.325,15.325,0,0,1-.394-3.426v-.45a16.728,16.728,0,0,0,14.1,7.2H33.209c5.01,0,10.043,0,15.034-.014H50.09c2.329.014,4.734.024,7.122-.2a15.842,15.842,0,0,0,10.2-5.307,17.516,17.516,0,0,0,1.162-1.435c0,.423,0,.846-.009,1.267a13.544,13.544,0,0,1-11.69,13.034Z" transform="translate(0 0)" fill="#29353a"/>
          <path id="Path_2063" data-name="Path 2063" d="M17.42,30.5h-4.3a1.583,1.583,0,0,0,0,3.167h4.3a1.583,1.583,0,0,0,0-3.167Z" transform="translate(8.3 21.937)" fill="#29353a"/>
          <path id="Path_2064" data-name="Path 2064" d="M13.375,38.7a1.584,1.584,0,1,0,.894-3.039C6.827,33.47,7.565,24.714,7.608,24.35a1.581,1.581,0,1,0-3.146-.311h0A17.921,17.921,0,0,0,5.1,30.155,11.865,11.865,0,0,0,13.375,38.7Z" transform="translate(3.179 16.262)" fill="#29353a"/>
        </g>
      </g>
    </g>
  </g>
</svg>
