<svg xmlns="http://www.w3.org/2000/svg" xmlns:xlink="http://www.w3.org/1999/xlink" width="70.223" height="70.223" viewBox="10 10 70.223 70.223">
  <defs>
    <clipPath id="clip-path">
      <rect id="Rectangle_2132" data-name="Rectangle 2132" width="63.836" height="63.836" fill="#00a8ad"/>
    </clipPath>
  </defs>
  <g id="Group_4409" data-name="Group 4409" transform="translate(-15.02 16.791)">
    <g id="Group_4116" data-name="Group 4116" transform="translate(36.22 27.485) rotate(-43)">
      <g id="Group_4056" data-name="Group 4056" transform="translate(-15 -15)" clip-path="url(#clip-path)">
        <path id="Path_12550" data-name="Path 12550" d="M59.983,29.992c0,29.992-13.428,29.992-29.992,29.992S0,59.983,0,29.992,13.428,0,29.992,0,59.983,0,59.983,29.992" transform="translate(1.927 1.927)" fill="#00a8ad"/>
      </g>
    </g>
    <g id="Group_4408" data-name="Group 4408">
      <g id="Scale" transform="translate(41.265 9.402)">
        <path id="Path_2061" data-name="Path 2061" d="M1859.469,312.5h7.64l.051,0h4.663l3.213,0a3.889,3.889,0,0,0,3.844-3.1,5.413,5.413,0,0,0-.3-2.789,12.031,12.031,0,0,0-11.3-8.51,11.229,11.229,0,0,0-2.585.3,11.556,11.556,0,0,0-9.122,9.089,4.051,4.051,0,0,0,.646,3.539A4.01,4.01,0,0,0,1859.469,312.5Zm.84-10.028.831.831a.856.856,0,0,0,1.21-1.21l-.656-.656a11.5,11.5,0,0,1,3.4-1.366,9.5,9.5,0,0,1,1.176-.2v1.036a.856.856,0,1,0,1.711,0v-1.064a9.912,9.912,0,0,1,4.7,1.616l-.636.636a.856.856,0,0,0,1.21,1.21l.784-.784a10.563,10.563,0,0,1,2.166,2.816l-1.294.522a.856.856,0,1,0,.64,1.587l1.327-.535c.024.07.048.14.071.212a3.934,3.934,0,0,1,.254,1.93,2.164,2.164,0,0,1-2.171,1.74l-3.211,0h-4.362l1.374-5.4a.856.856,0,0,0-1.658-.422l-1.481,5.817h-6.225a2.341,2.341,0,0,1-1.9-.811,2.382,2.382,0,0,1-.331-2.076c.083-.341.179-.671.283-.991l1.322.533a.856.856,0,1,0,.64-1.587l-1.317-.532A9.533,9.533,0,0,1,1860.31,302.474Z" transform="translate(-1847.792 -293.585)" fill="#fff"/>
        <path id="Path_2062" data-name="Path 2062" d="M1733.376,212.422v-.216a9.39,9.39,0,0,0-2.631-6.559,8.869,8.869,0,0,0-6.383-2.713q-3.552-.01-7.1,0h-13.572a8.9,8.9,0,0,0-6.46,2.749,9.535,9.535,0,0,0-2.636,6.661v4.238c0,5.367,0,10.916.009,16.375a9.832,9.832,0,0,0,.255,2.242,9.065,9.065,0,0,0,9.053,7.184h1.126l7.5,0q4.052,0,8.106-.007h.136c.286,0,.573,0,.859,0s.58,0,.87,0c.89,0,1.941-.013,2.982-.112A8.563,8.563,0,0,0,1731,239.4a8.9,8.9,0,0,0,2.351-5.855C1733.42,226.505,1733.4,219.346,1733.376,212.422Zm-37.075,4.159,0-4.238a7.467,7.467,0,0,1,7.384-7.7h13.573q3.549,0,7.1,0a7.392,7.392,0,0,1,7.308,7.566v.216c.016,5.029.031,10.183.013,15.324h-.019a7.322,7.322,0,0,1-6.313,7.036c-1.2.114-2.462.108-3.679.1-.337,0-.674,0-1.01,0-5.2.01-10.494.007-15.61,0h-1.12a7.314,7.314,0,0,1-7.389-5.868,8.226,8.226,0,0,1-.21-1.852h-.026C1696.3,223.613,1696.3,220.059,1696.3,216.581Zm29.026,23.988c-.97.092-1.97.1-2.82.1q-.431,0-.861,0c-.289,0-.579,0-.868,0h-.139q-7.8.014-15.6,0h-1.126a7.314,7.314,0,0,1-7.389-5.868,8.248,8.248,0,0,1-.21-1.852c0-.081,0-.163,0-.244a9.038,9.038,0,0,0,7.616,3.894h1.12l7.489,0c2.707,0,5.428,0,8.125-.007.332,0,.665,0,1,0,1.259.007,2.56.013,3.849-.109a8.564,8.564,0,0,0,5.511-2.868,9.518,9.518,0,0,0,.628-.776c0,.228,0,.457-.005.685A7.321,7.321,0,0,1,1725.327,240.568Z" transform="translate(-1694.588 -202.929)" fill="#fff"/>
        <path id="Path_2063" data-name="Path 2063" d="M1923.555,799.8h-2.322a.856.856,0,1,0,0,1.711h2.322a.856.856,0,1,0,0-1.711Z" transform="translate(-1909.654 -771.454)" fill="#fff"/>
        <path id="Path_2064" data-name="Path 2064" d="M1785.816,654.069a.856.856,0,0,0,.483-1.642c-4.022-1.183-3.62-5.914-3.6-6.115a.856.856,0,0,0-1.7-.168,9.656,9.656,0,0,0,.345,3.306A6.41,6.41,0,0,0,1785.816,654.069Z" transform="translate(-1776.868 -624.362)" fill="#fff"/>
      </g>
    </g>
  </g>
</svg>
