<svg xmlns="http://www.w3.org/2000/svg" xmlns:xlink="http://www.w3.org/1999/xlink" width="76.941" height="35.726" viewBox="0 0 76.941 35.726">
  <defs>
    <clipPath id="clip-path">
      <rect width="76.941" height="35.726" fill="none"/>
    </clipPath>
  </defs>
  <g id="star-24px" clip-path="url(#clip-path)">
    <g id="star-24px-2" data-name="star-24px">
      <path id="Path_1422" data-name="Path 1422" d="M0,0H41.578V41.578H0Z" fill="none"/>
      <path id="Path_1423" data-name="Path 1423" d="M7.529,10.443l3.417,2.062-.907-3.887L13.058,6,9.083,5.666,7.529,2,5.975,5.666,2,6,5.019,8.618l-.907,3.887Z" transform="translate(1.465 1.465)" fill="#f8ec6d"/>
      <path id="Path_1424" data-name="Path 1424" d="M0,0H41.578V41.578H0Z" fill="none"/>
    </g>
    <g id="star-24px-3" data-name="star-24px" transform="translate(15)">
      <path id="Path_1422-2" data-name="Path 1422" d="M0,0H41.578V41.578H0Z" fill="none"/>
      <path id="Path_1423-2" data-name="Path 1423" d="M7.529,10.443l3.417,2.062-.907-3.887L13.058,6,9.083,5.666,7.529,2,5.975,5.666,2,6,5.019,8.618l-.907,3.887Z" transform="translate(1.465 1.465)" fill="#f8ec6d"/>
      <path id="Path_1424-2" data-name="Path 1424" d="M0,0H41.578V41.578H0Z" fill="none"/>
    </g>
    <g id="star-24px-4" data-name="star-24px" transform="translate(30)">
      <path id="Path_1422-3" data-name="Path 1422" d="M0,0H41.578V41.578H0Z" fill="none"/>
      <path id="Path_1423-3" data-name="Path 1423" d="M7.529,10.443l3.417,2.062-.907-3.887L13.058,6,9.083,5.666,7.529,2,5.975,5.666,2,6,5.019,8.618l-.907,3.887Z" transform="translate(1.465 1.465)" fill="#f8ec6d"/>
      <path id="Path_1424-3" data-name="Path 1424" d="M0,0H41.578V41.578H0Z" fill="none"/>
    </g>
    <g id="star-24px-5" data-name="star-24px" transform="translate(45)">
      <path id="Path_1422-4" data-name="Path 1422" d="M0,0H41.578V41.578H0Z" fill="none"/>
      <path id="Path_1423-4" data-name="Path 1423" d="M7.529,10.443l3.417,2.062-.907-3.887L13.058,6,9.083,5.666,7.529,2,5.975,5.666,2,6,5.019,8.618l-.907,3.887Z" transform="translate(1.465 1.465)" fill="#f8ec6d"/>
      <path id="Path_1424-4" data-name="Path 1424" d="M0,0H41.578V41.578H0Z" fill="none"/>
    </g>
    <g id="star-24px-6" data-name="star-24px" transform="translate(60)">
      <path id="Path_1422-5" data-name="Path 1422" d="M0,0H41.578V41.578H0Z" fill="none"/>
      <path id="Path_1423-5" data-name="Path 1423" d="M7.529,10.443l3.417,2.062-.907-3.887L13.058,6,9.083,5.666,7.529,2,5.975,5.666,2,6,5.019,8.618l-.907,3.887Z" transform="translate(1.465 1.465)" fill="#f8ec6d"/>
      <path id="Path_1424-5" data-name="Path 1424" d="M0,0H41.578V41.578H0Z" fill="none"/>
    </g>
    <g id="star-24px-7" data-name="star-24px" transform="translate(75)">
      <path id="Path_1422-6" data-name="Path 1422" d="M0,0H41.578V41.578H0Z" fill="none"/>
      <path id="Path_1423-6" data-name="Path 1423" d="M7.529,10.443l3.417,2.062-.907-3.887L13.058,6,9.083,5.666,7.529,2,5.975,5.666,2,6,5.019,8.618l-.907,3.887Z" transform="translate(1.465 1.465)" fill="#f8ec6d"/>
      <path id="Path_1424-6" data-name="Path 1424" d="M0,0H41.578V41.578H0Z" fill="none"/>
    </g>
  </g>
</svg>
