<svg xmlns="http://www.w3.org/2000/svg" width="132" height="132" viewBox="0 0 132 132">
  <g id="Group_4384" data-name="Group 4384" transform="translate(-751 -1548)">
    <circle id="Ellipse_554" data-name="Ellipse 554" cx="66" cy="66" r="66" transform="translate(751 1548)" fill="#fff5e4"/>
    <g id="Delivery_Icon" data-name="Delivery Icon" transform="translate(762.375 1582.364)">
      <g id="Group_4380" data-name="Group 4380">
        <path id="Path_13725" data-name="Path 13725" d="M391.26,107.917a1.74,1.74,0,0,0,.494-1.243v-4.9a1.757,1.757,0,0,0-.406-1.122l-5.077-6.093,0,0a1.747,1.747,0,0,0-1.335-.62H373.36a1.76,1.76,0,0,0-1.754,1.754V106.7a1.757,1.757,0,0,0,1.755,1.754h16.666A1.744,1.744,0,0,0,391.26,107.917Zm-3.02-5.488v2.51H375.115l0-7.494h8.98Z" transform="translate(-296.515 -74.955)" fill="#29353a"/>
        <path id="Path_13726" data-name="Path 13726" d="M30.752,167.931A1.757,1.757,0,0,0,29,166.175H1.756a1.756,1.756,0,1,0,0,3.511H29A1.757,1.757,0,0,0,30.752,167.931Z" transform="translate(0 -132.596)" fill="#29353a"/>
        <circle id="Ellipse_547" data-name="Ellipse 547" cx="2.856" cy="2.856" r="2.856" transform="translate(34.335 51)" fill="#29353a"/>
        <path id="Path_13727" data-name="Path 13727" d="M77.955,115.224H98.665a1.755,1.755,0,1,0,0-3.511H77.955a1.755,1.755,0,1,0,0,3.511Z" transform="translate(-60.801 -89.139)" fill="#29353a"/>
        <path id="Path_13728" data-name="Path 13728" d="M146.134,62.031h18.931a1.755,1.755,0,1,0,0-3.511H146.134a1.755,1.755,0,1,0,0,3.511Z" transform="translate(-115.203 -46.695)" fill="#29353a"/>
        <path id="Path_13729" data-name="Path 13729" d="M157.4,26.789l-9.166-11.726a6.188,6.188,0,0,0-4.867-2.373H126.5V3.9A3.92,3.92,0,0,0,122.585,0H98.028a1.755,1.755,0,1,0,0,3.511h24.549a.4.4,0,0,1,.4.4V49.121a.4.4,0,0,1-.4.4h-22.17a10.066,10.066,0,0,0-9.044-5.7h0a10.063,10.063,0,0,0-9.045,5.7H69.65a1.756,1.756,0,1,0,0,3.511H81.36c-.027.285-.04.56-.04.828a10.041,10.041,0,1,0,20.081,0c0-.262-.013-.536-.039-.83H132.52c-.023.276-.035.553-.035.83a10.041,10.041,0,1,0,20.082,0c0-.261-.013-.536-.04-.833h2.659a3.924,3.924,0,0,0,3.912-3.912v-17.4A8.093,8.093,0,0,0,157.4,26.789ZM142.526,47.332l.174,0a6.753,6.753,0,1,1-.174,0Zm-9.048,2.19h-7a3.971,3.971,0,0,0,.021-.4V16.2H143.37a2.672,2.672,0,0,1,2.1,1.025l9.165,11.721a4.548,4.548,0,0,1,.948,2.776v17.4a.4.4,0,0,1-.4.4H151.57a10.03,10.03,0,0,0-18.092,0ZM97.9,53.869a6.537,6.537,0,1,1-6.537-6.537l.174,0a6.537,6.537,0,0,1,6.363,6.54Zm-16.116-1.6h0Z" transform="translate(-54.175)" fill="#29353a"/>
        <circle id="Ellipse_548" data-name="Ellipse 548" cx="2.856" cy="2.856" r="2.856" transform="translate(85.5 51)" fill="#29353a"/>
      </g>
    </g>
  </g>
</svg>
