<svg xmlns="http://www.w3.org/2000/svg" xmlns:xlink="http://www.w3.org/1999/xlink" width="70.223" height="70.223" viewBox="10 10 70.223 70.223">
  <defs>
    <clipPath id="clip-path">
      <rect id="Rectangle_2132" data-name="Rectangle 2132" width="63.836" height="63.836" fill="#00a8ad"/>
    </clipPath>
  </defs>
  <g id="Group_4413" data-name="Group 4413" transform="translate(-16.021 17.791)">
    <g id="Group_4119" data-name="Group 4119" transform="translate(37.221 26.485) rotate(-43)">
      <g id="Group_4056" data-name="Group 4056" transform="translate(-15 -15)" clip-path="url(#clip-path)">
        <path id="Path_12550" data-name="Path 12550" d="M59.983,29.992c0,29.992-13.428,29.992-29.992,29.992S0,59.983,0,29.992,13.428,0,29.992,0,59.983,0,59.983,29.992" transform="translate(1.927 1.927)" fill="#00a8ad"/>
      </g>
    </g>
    <g id="Group_4412" data-name="Group 4412">
      <path id="Weight" d="M1734.313,1469.428a3.047,3.047,0,0,0,.588-2.5,4.678,4.678,0,0,0-3.3-3.668,3.532,3.532,0,0,0-1.121-.19,3.1,3.1,0,0,0-1.641.468c-.181-.092-.338-.166-.464-.22a9.838,9.838,0,0,0-2.831-1.083,7.53,7.53,0,0,0-1.51-.166,4.546,4.546,0,0,0-2.931.991.54.54,0,0,1-.4.152,1.719,1.719,0,0,1-.187-.012,5.843,5.843,0,0,0-5.111,1.728c-.75.783-1.555,1.588-2.392,2.393a5.871,5.871,0,0,0-1.737,5.016,11.339,11.339,0,0,0,1.445,4.49c.3.549.627,1.068.941,1.571l.017.028-2.128,2.132a13.059,13.059,0,0,0-5.814-2.377,8.423,8.423,0,0,0-1.02-.065,5.683,5.683,0,0,0-4.27,1.771c-.514.538-1.056,1.075-1.58,1.594-.313.31-.626.62-.936.933a4.287,4.287,0,0,0-.488.588,6.343,6.343,0,0,0-.931,4.634,4.96,4.96,0,0,0-.312.494.875.875,0,0,0-.19.383,5.559,5.559,0,0,0-.266,3.4,11.093,11.093,0,0,0,1.876,4.168.879.879,0,0,0,.191.627,4.424,4.424,0,0,0,.2.813,3.146,3.146,0,0,0,.941,1.7,3.318,3.318,0,0,0,.4.324,4.5,4.5,0,0,0,1.531.925.884.884,0,0,0,.165.054,3.694,3.694,0,0,0,.915.157,4.38,4.38,0,0,1,1.678.5,8.9,8.9,0,0,0,.962.382,8.265,8.265,0,0,0,2.483.468,4.206,4.206,0,0,0,2.088-.527,2.932,2.932,0,0,1,1.547-.355c.115,0,.242,0,.388.009q.146.006.29.006a5.206,5.206,0,0,0,3.682-1.391c.724-.677,1.425-1.39,2.1-2.08q.359-.365.719-.729a5.15,5.15,0,0,0,1.429-2.934,9.006,9.006,0,0,0-.782-5c-.32-.742-.694-1.455-1.057-2.144l-.176-.335,2.327-2.331a13.04,13.04,0,0,0,5.175,2.048,9.214,9.214,0,0,0,1.311.1,5.063,5.063,0,0,0,3.514-1.231,40.782,40.782,0,0,0,3.557-3.555,5.692,5.692,0,0,0,1.1-4.777,4.407,4.407,0,0,0,1.164-2.818A8.652,8.652,0,0,0,1734.313,1469.428Zm-3.276-4.492a2.93,2.93,0,0,1,2.134,2.337,1.569,1.569,0,0,1,.024.181,12.214,12.214,0,0,0-2.326-2.564C1730.924,1464.9,1730.98,1464.917,1731.037,1464.936Zm-5.849-.97a7.77,7.77,0,0,1,1.966.707.879.879,0,0,0,.3.177s.052.019.135.054c.243.137.491.285.748.451a.887.887,0,0,0,.347.132,10.548,10.548,0,0,1,3.889,4.414c.007.015.015.031.022.046l.019.038,0,.007c.008.015.014.03.023.046a6.929,6.929,0,0,1,1.064,3.852,3.178,3.178,0,0,1-.115.687,18.33,18.33,0,0,0-4.086-5.852,21.939,21.939,0,0,0-6.616-4.688,3.047,3.047,0,0,1,1.144-.2A5.809,5.809,0,0,1,1725.188,1463.966Zm-22.234,32.223a3.316,3.316,0,0,0-.526-.641,3.232,3.232,0,0,0-1.4-.783l.934-.987a1.365,1.365,0,0,1,.788.132,2.34,2.34,0,0,1,1,1.315Zm-1.76,2.134a.848.848,0,0,1-.14.012,1.228,1.228,0,0,1-.627-.19,3.192,3.192,0,0,1-.707-1.065.553.553,0,0,1,.6-.646,1.341,1.341,0,0,1,.895.393,1.386,1.386,0,0,1,.434.8.945.945,0,0,1,.007.133Zm5.888,1.949a6.69,6.69,0,0,1-1.947-.385,7.336,7.336,0,0,1-.772-.309,8.363,8.363,0,0,0-1.331-.506,2.3,2.3,0,0,0,.251-.512l2.135-2.59a.882.882,0,0,0,.167-.8,4.3,4.3,0,0,0-2.031-2.826,3.1,3.1,0,0,0-2.347-.19.883.883,0,0,0-.342.223l-2.111,2.23a8.813,8.813,0,0,1-1.284-3.03,3.789,3.789,0,0,1,.158-2.369c1.691-1.4,5.349-.257,8.137,2.58,2.848,2.9,3.908,6.674,2.339,8.286A2.5,2.5,0,0,1,1707.082,1500.272Zm4.1-.871c-.171-.007-.323-.011-.463-.011-.094,0-.193,0-.3.006.657-2.514-.585-5.982-3.4-8.846s-6.283-4.175-8.81-3.548a4.855,4.855,0,0,1,.269-2.225.924.924,0,0,0,.072-.063c1.413-1.388,5.88.009,10.031,4.234a18,18,0,0,1,4.157,6.233c.633,1.776.6,3.187-.1,3.871a.88.88,0,0,0-.16.214,4.081,4.081,0,0,1-1.087.14C1711.324,1499.406,1711.253,1499.4,1711.18,1499.4Zm6.4-5.63a3.383,3.383,0,0,1-.937,1.955q-.364.366-.725.735c-.319.325-.643.654-.971.982a8.516,8.516,0,0,0-.549-2.856,21.731,21.731,0,0,0-11.356-11.557,8.776,8.776,0,0,0-2.641-.593c.437-.434.881-.878,1.312-1.329a3.932,3.932,0,0,1,3-1.226,6.677,6.677,0,0,1,.806.051,10.835,10.835,0,0,1,4.474,1.719.876.876,0,0,0,.18.165,21.3,21.3,0,0,1,3.136,2.647,21.873,21.873,0,0,1,2.123,2.5.88.88,0,0,0,.216.21q.139.268.28.535c.347.66.705,1.341,1,2.021A7.308,7.308,0,0,1,1717.585,1493.771Zm-1.336-8.642a24.13,24.13,0,0,0-1.681-1.9q-.8-.819-1.657-1.538l2.506-2.511.007-.008.015-.015,2.446-2.633a2.976,2.976,0,0,1,3.252,3.538l-2.29,2.465Zm9.877-.516a7.468,7.468,0,0,1-1.062-.083,11.036,11.036,0,0,1-4.179-1.608l1.762-1.9a.883.883,0,0,0,.234-.54,5.325,5.325,0,0,0-1.407-4.448,5.481,5.481,0,0,0-4.1-1.25.882.882,0,0,0-.536.275l-1.9,2.049c-.23-.37-.46-.749-.671-1.133a9.624,9.624,0,0,1-1.234-3.8,4.379,4.379,0,0,1,.512-2.719.886.886,0,0,0,.124-.1c1.412-1.388,5.942.073,10.182,4.388s5.621,8.87,4.208,10.258a.879.879,0,0,0-.163.22A3.681,3.681,0,0,1,1726.127,1484.614Zm5.748-4.188q-.73.829-1.534,1.636a9.086,9.086,0,0,0-.572-2.571,22.53,22.53,0,0,0-11.561-11.766,9.187,9.187,0,0,0-2.476-.609c.321-.324.637-.646.942-.965a3.874,3.874,0,0,1,2.73-1.225.879.879,0,0,0,.116.013c2.329.1,5.916,2.164,8.724,5.021a15.173,15.173,0,0,1,4.145,6.548.88.88,0,0,0,.131.275,1.911,1.911,0,0,0,.02.2A3.956,3.956,0,0,1,1731.875,1480.425Z" transform="translate(-1654.432 -1454.679)" fill="#fff"/>
    </g>
  </g>
</svg>
